<svg width="72" height="72" viewBox="0 0 72 72" fill="none" xmlns="http://www.w3.org/2000/svg">
<circle cx="36" cy="36" r="34.5" stroke="#202743" stroke-width="3"/>
<path d="M46.2315 18.9473C44.4224 18.9473 42.6875 19.6659 41.4083 20.9451C40.1291 22.2243 39.4104 23.9593 39.4104 25.7683C39.4104 27.5774 40.1291 29.3123 41.4083 30.5915C42.6875 31.8707 44.4224 32.5894 46.2315 32.5894C48.0405 32.5894 49.7755 31.8707 51.0547 30.5915C52.3339 29.3123 53.0525 27.5774 53.0525 25.7683C53.0525 23.9593 52.3339 22.2243 51.0547 20.9451C49.7755 19.6659 48.0405 18.9473 46.2315 18.9473ZM25.7683 18.9473C23.9593 18.9473 22.2243 19.6659 20.9451 20.9451C19.6659 22.2243 18.9473 23.9593 18.9473 25.7683C18.9473 27.5774 19.6659 29.3123 20.9451 30.5915C22.2243 31.8707 23.9593 32.5894 25.7683 32.5894C27.5774 32.5894 29.3123 31.8707 30.5915 30.5915C31.8707 29.3123 32.5894 27.5774 32.5894 25.7683C32.5894 23.9593 31.8707 22.2243 30.5915 20.9451C29.3123 19.6659 27.5774 18.9473 25.7683 18.9473Z" fill="#131938"/>
<path d="M61.8056 35.9999L44.4119 39.4104H27.7003L10.3066 35.9999L15.1951 27.0188C16.4456 24.8588 18.7193 23.4946 21.2203 23.4946H51.0056C53.5066 23.4946 55.7803 24.8588 57.0308 27.0188L61.8056 35.9999Z" fill="#202743"/>
<path d="M51.9148 30.3159C48.8997 30.3159 46.0081 31.5137 43.8762 33.6457C41.7442 35.7776 40.5464 38.6692 40.5464 41.6843C40.5464 44.6994 41.7442 47.591 43.8762 49.723C46.0081 51.855 48.8997 53.0528 51.9148 53.0528C54.9299 53.0528 57.8215 51.855 59.9535 49.723C62.0855 47.591 63.2833 44.6994 63.2833 41.6843C63.2833 38.6692 62.0855 35.7776 59.9535 33.6457C57.8215 31.5137 54.9299 30.3159 51.9148 30.3159ZM20.0833 30.3159C17.0682 30.3159 14.1766 31.5137 12.0446 33.6457C9.91258 35.7776 8.71484 38.6692 8.71484 41.6843C8.71484 44.6994 9.91258 47.591 12.0446 49.723C14.1766 51.855 17.0682 53.0528 20.0833 53.0528C23.0984 53.0528 25.99 51.855 28.122 49.723C30.2539 47.591 31.4517 44.6994 31.4517 41.6843C31.4517 38.6692 30.2539 35.7776 28.122 33.6457C25.99 31.5137 23.0984 30.3159 20.0833 30.3159Z" fill="#232E67"/>
<path d="M35.9987 33.7261C34.4911 33.7261 33.0453 34.3249 31.9793 35.3909C30.9133 36.4569 30.3145 37.9027 30.3145 39.4103C30.3145 40.9178 30.9133 42.3636 31.9793 43.4296C33.0453 44.4956 34.4911 45.0945 35.9987 45.0945C37.5062 45.0945 38.952 44.4956 40.018 43.4296C41.084 42.3636 41.6829 40.9178 41.6829 39.4103C41.6829 37.9027 41.084 36.4569 40.018 35.3909C38.952 34.3249 37.5062 33.7261 35.9987 33.7261Z" fill="#232E67"/>
<path d="M35.9983 37.1367C35.3953 37.1367 34.817 37.3763 34.3906 37.8027C33.9642 38.2291 33.7246 38.8074 33.7246 39.4104C33.7246 40.0134 33.9642 40.5917 34.3906 41.0181C34.817 41.4445 35.3953 41.6841 35.9983 41.6841C36.6013 41.6841 37.1796 41.4445 37.606 41.0181C38.0324 40.5917 38.272 40.0134 38.272 39.4104C38.272 38.8074 38.0324 38.2291 37.606 37.8027C37.1796 37.3763 36.6013 37.1367 35.9983 37.1367Z" fill="#131938"/>
<path d="M51.9145 33.7261C49.8039 33.7261 47.7798 34.5645 46.2874 36.0569C44.795 37.5493 43.9566 39.5734 43.9566 41.684C43.9566 43.7945 44.795 45.8187 46.2874 47.3111C47.7798 48.8034 49.8039 49.6419 51.9145 49.6419C54.025 49.6419 56.0492 48.8034 57.5416 47.3111C59.034 45.8187 59.8724 43.7945 59.8724 41.684C59.8724 39.5734 59.034 37.5493 57.5416 36.0569C56.0492 34.5645 54.025 33.7261 51.9145 33.7261ZM20.0829 33.7261C17.9723 33.7261 15.9482 34.5645 14.4558 36.0569C12.9634 37.5493 12.125 39.5734 12.125 41.684C12.125 43.7945 12.9634 45.8187 14.4558 47.3111C15.9482 48.8034 17.9723 49.6419 20.0829 49.6419C22.1935 49.6419 24.2176 48.8034 25.71 47.3111C27.2024 45.8187 28.0408 43.7945 28.0408 41.684C28.0408 39.5734 27.2024 37.5493 25.71 36.0569C24.2176 34.5645 22.1935 33.7261 20.0829 33.7261Z" fill="#ECECFF"/>
<path d="M56.1216 39.0694C54.9847 37.8188 53.5069 37.1367 51.9153 37.1367C50.3237 37.1367 48.7321 37.8188 47.709 39.0694C47.2542 39.5241 47.3679 40.2062 47.8226 40.6609C48.2774 41.1157 48.9595 41.002 49.4142 40.5472C50.7784 39.0694 53.1658 39.0694 54.53 40.5472C54.7574 40.7746 55.0984 40.8883 55.3258 40.8883C55.5532 40.8883 55.8942 40.7746 56.1216 40.5472C56.5763 40.2062 56.5763 39.5241 56.1216 39.0694ZM20.0837 37.1367C18.4921 37.1367 16.9005 37.8188 15.8774 39.0694C15.4226 39.5241 15.5363 40.2062 15.9911 40.6609C16.4458 41.1157 17.1279 41.002 17.5826 40.5472C18.9469 39.0694 21.3342 39.0694 22.6984 40.5472C22.9258 40.7746 23.2668 40.8883 23.4942 40.8883C23.7216 40.8883 24.0626 40.7746 24.29 40.5472C24.7447 40.0925 24.7447 39.4104 24.4037 38.9557C23.2669 37.8188 21.6753 37.1367 20.0837 37.1367Z" fill="#171E41"/>
</svg>
