 <svg width="122" height="104" viewBox="0 0 122 104" fill="none" xmlns="http://www.w3.org/2000/svg" >
            <path d="M20.3967 3.15011C20.4006 3.77723 20.2111 4.39136 19.8522 4.91463C19.4932 5.4379 18.9809 5.84676 18.3803 6.08937C17.7797 6.33198 17.1178 6.39742 16.4786 6.2774C15.8393 6.15737 15.2515 5.85728 14.7896 5.41517C14.3276 4.97306 14.0125 4.40884 13.884 3.79404C13.7555 3.17923 13.8195 2.54153 14.0678 1.96177C14.3161 1.38201 14.7376 0.886305 15.2788 0.537488C15.8201 0.18867 16.4567 0.00245279 17.108 0.00244141C17.9768 0.00242623 18.8103 0.333445 19.4265 0.923206C20.0427 1.51297 20.3914 2.31355 20.3967 3.15011Z" fill="#F56867"/>
            <path d="M45.6566 3.14974C45.6601 3.78165 45.4673 4.40013 45.1028 4.92562C44.7383 5.45111 44.2188 5.85957 43.6112 6.09847C43.0037 6.33737 42.3359 6.39578 41.6935 6.26619C41.0512 6.13659 40.4638 5.82492 40.0069 5.37126C39.5501 4.91761 39.2447 4.34271 39.1299 3.72053C39.0151 3.09835 39.0964 2.45733 39.363 1.87993C39.6297 1.30253 40.0696 0.815162 40.6263 0.480513C41.183 0.145863 41.8309 -0.0207632 42.4868 0.00206827C43.3365 0.0268727 44.1427 0.369418 44.7345 0.957054C45.3262 1.54469 45.657 2.33119 45.6566 3.14974Z" fill="#F56867"/>
            <path d="M70.9363 3.15011C70.9402 3.77723 70.7507 4.39136 70.3917 4.91463C70.0328 5.4379 69.5205 5.84676 68.9199 6.08937C68.3193 6.33198 67.6574 6.39742 67.0182 6.2774C66.3789 6.15737 65.7911 5.85728 65.3291 5.41517C64.8672 4.97306 64.5521 4.40884 64.4236 3.79404C64.2951 3.17923 64.3589 2.54153 64.6072 1.96177C64.8556 1.38201 65.2771 0.886305 65.8184 0.537488C66.3596 0.18867 66.9963 0.00245279 67.6476 0.00244141C68.5164 0.00242623 69.3499 0.333445 69.9661 0.923206C70.5823 1.51297 70.931 2.31355 70.9363 3.15011Z" fill="#F56867"/>
            <path d="M96.1961 3.15011C96.2001 3.77723 96.0106 4.39136 95.6516 4.91463C95.2927 5.4379 94.7804 5.84676 94.1798 6.08937C93.5792 6.33198 92.9173 6.39742 92.2781 6.2774C91.6388 6.15737 91.051 5.85728 90.589 5.41517C90.1271 4.97306 89.812 4.40884 89.6835 3.79404C89.5549 3.17923 89.6188 2.54153 89.8671 1.96177C90.1155 1.38201 90.537 0.886305 91.0783 0.537488C91.6195 0.18867 92.2562 0.00245279 92.9075 0.00244141C93.7763 0.00242623 94.6098 0.333445 95.226 0.923206C95.8422 1.51297 96.1909 2.31355 96.1961 3.15011Z" fill="#F56867"/>
            <path d="M121.476 3.15011C121.48 3.77723 121.29 4.39136 120.931 4.91463C120.572 5.4379 120.06 5.84676 119.46 6.08937C118.859 6.33198 118.197 6.39742 117.558 6.2774C116.919 6.15737 116.331 5.85728 115.869 5.41517C115.407 4.97306 115.092 4.40884 114.963 3.79404C114.835 3.17923 114.899 2.54153 115.147 1.96177C115.395 1.38201 115.817 0.886305 116.358 0.537488C116.899 0.18867 117.536 0.00245279 118.187 0.00244141C119.056 0.00242623 119.89 0.333445 120.506 0.923206C121.122 1.51297 121.471 2.31355 121.476 3.15011Z" fill="#F56867"/>
            <path d="M17.1081 30.6572C18.9245 30.6572 20.3968 29.2393 20.3968 27.4902C20.3968 25.7412 18.9245 24.3232 17.1081 24.3232C15.2918 24.3232 13.8193 25.7412 13.8193 27.4902C13.8193 29.2393 15.2918 30.6572 17.1081 30.6572Z" fill="#F56867"/>
            <path d="M45.6566 27.4906C45.6562 28.1217 45.4601 28.7383 45.0932 29.2613C44.7262 29.7842 44.2054 30.1897 43.5975 30.4256C42.9896 30.6616 42.3224 30.7173 41.6814 30.5855C41.0404 30.4537 40.4549 30.1406 40.0001 29.6862C39.5452 29.2318 39.2418 28.6569 39.1286 28.0352C39.0155 27.4136 39.0978 26.7736 39.365 26.1973C39.6323 25.6211 40.0723 25.1348 40.6285 24.801C41.1847 24.4672 41.8318 24.301 42.4868 24.3238C43.3383 24.3535 44.1446 24.7002 44.7358 25.2909C45.3271 25.8816 45.6572 26.6702 45.6566 27.4906Z" fill="#F56867"/>
            <path d="M67.6477 30.6572C69.464 30.6572 70.9364 29.2393 70.9364 27.4902C70.9364 25.7412 69.464 24.3232 67.6477 24.3232C65.8314 24.3232 64.3589 25.7412 64.3589 27.4902C64.3589 29.2393 65.8314 30.6572 67.6477 30.6572Z" fill="#F56867"/>
            <path d="M92.9274 30.6572C94.7437 30.6572 96.2162 29.2393 96.2162 27.4902C96.2162 25.7412 94.7437 24.3232 92.9274 24.3232C91.111 24.3232 89.6387 25.7412 89.6387 27.4902C89.6387 29.2393 91.111 30.6572 92.9274 30.6572Z" fill="#F56867"/>
            <path d="M121.476 27.4895C121.476 28.1157 121.283 28.7279 120.922 29.2486C120.56 29.7693 120.047 30.1751 119.446 30.4147C118.845 30.6544 118.184 30.7171 117.546 30.5949C116.908 30.4728 116.322 30.1712 115.862 29.7284C115.402 29.2856 115.089 28.7214 114.962 28.1072C114.835 27.493 114.9 26.8564 115.149 26.2778C115.398 25.6993 115.819 25.2048 116.36 24.8569C116.901 24.5089 117.537 24.3232 118.187 24.3232C119.06 24.3232 119.896 24.6568 120.513 25.2506C121.13 25.8444 121.476 26.6498 121.476 27.4895Z" fill="#F56867"/>
            <path d="M20.3967 51.8115C20.4006 52.4387 20.2111 53.0528 19.8522 53.5761C19.4932 54.0995 18.9809 54.5083 18.3803 54.751C17.7797 54.9936 17.1178 55.059 16.4786 54.939C15.8393 54.819 15.2515 54.5189 14.7896 54.0767C14.3276 53.6346 14.0125 53.0703 13.884 52.4555C13.7555 51.8406 13.8195 51.2029 14.0678 50.6231C14.3161 50.0433 14.7376 49.5475 15.2788 49.1987C15.8201 48.8498 16.4567 48.6636 17.108 48.6636C17.9768 48.6636 18.8103 48.9946 19.4265 49.5844C20.0427 50.1742 20.3914 50.9749 20.3967 51.8115Z" fill="#F56867"/>
            <path d="M70.9367 51.8115C70.9407 52.4387 70.7512 53.0528 70.3922 53.5761C70.0333 54.0995 69.521 54.5083 68.9204 54.751C68.3198 54.9936 67.6579 55.059 67.0187 54.939C66.3794 54.819 65.7916 54.5189 65.3296 54.0767C64.8677 53.6346 64.5526 53.0703 64.4241 52.4555C64.2955 51.8406 64.3594 51.2029 64.6077 50.6231C64.8561 50.0433 65.2776 49.5475 65.8189 49.1987C66.3601 48.8498 66.9968 48.6636 67.6481 48.6636C68.5169 48.6636 69.3504 48.9946 69.9666 49.5844C70.5828 50.1742 70.9315 50.9749 70.9367 51.8115Z" fill="#F56867"/>
            <path d="M45.5774 51.8047C45.5813 52.4316 45.3918 53.0456 45.0329 53.5688C44.6739 54.0919 44.1616 54.5007 43.561 54.7432C42.9604 54.9858 42.2985 55.0512 41.6593 54.9312C41.02 54.8112 40.4322 54.5112 39.9703 54.0692C39.5083 53.6272 39.1932 53.0631 39.0647 52.4484C38.9362 51.8338 39 51.1962 39.2484 50.6166C39.4967 50.037 39.9183 49.5414 40.4595 49.1926C41.0008 48.8439 41.6374 48.6577 42.2887 48.6577C43.1575 48.6577 43.991 48.9886 44.6072 49.5783C45.2234 50.1679 45.5721 50.9683 45.5774 51.8047Z" fill="#F56867"/>
            <path d="M96.1961 51.8115C96.2001 52.4387 96.0106 53.0528 95.6516 53.5761C95.2927 54.0995 94.7804 54.5083 94.1798 54.751C93.5792 54.9936 92.9173 55.059 92.2781 54.939C91.6388 54.819 91.051 54.5189 90.589 54.0767C90.1271 53.6346 89.812 53.0703 89.6835 52.4555C89.5549 51.8406 89.6188 51.2029 89.8671 50.6231C90.1155 50.0433 90.537 49.5475 91.0783 49.1987C91.6195 48.8498 92.2562 48.6636 92.9075 48.6636C93.7763 48.6636 94.6098 48.9946 95.226 49.5844C95.8422 50.1742 96.1909 50.9749 96.1961 51.8115Z" fill="#F56867"/>
            <path d="M121.476 51.8115C121.48 52.4387 121.29 53.0528 120.931 53.5761C120.572 54.0995 120.06 54.5083 119.46 54.751C118.859 54.9936 118.197 55.059 117.558 54.939C116.919 54.819 116.331 54.5189 115.869 54.0767C115.407 53.6346 115.092 53.0703 114.963 52.4555C114.835 51.8406 114.899 51.2029 115.147 50.6231C115.395 50.0433 115.817 49.5475 116.358 49.1987C116.899 48.8498 117.536 48.6636 118.187 48.6636C119.056 48.6636 119.89 48.9946 120.506 49.5844C121.122 50.1742 121.471 50.9749 121.476 51.8115Z" fill="#F56867"/>
            <path d="M17.1081 79.3184C18.9245 79.3184 20.3968 77.9007 20.3968 76.1519C20.3968 74.403 18.9245 72.9854 17.1081 72.9854C15.2918 72.9854 13.8193 74.403 13.8193 76.1519C13.8193 77.9007 15.2918 79.3184 17.1081 79.3184Z" fill="#F56867"/>
            <path d="M45.6566 76.1517C45.6562 76.7827 45.4601 77.3992 45.0932 77.9221C44.7262 78.445 44.2054 78.8504 43.5975 79.0863C42.9896 79.3222 42.3224 79.3779 41.6814 79.2461C41.0404 79.1144 40.4549 78.8013 40.0001 78.347C39.5452 77.8926 39.2418 77.3178 39.1286 76.6963C39.0155 76.0747 39.0978 75.4348 39.365 74.8586C39.6323 74.2825 40.0723 73.7963 40.6285 73.4626C41.1847 73.1288 41.8318 72.9627 42.4868 72.9855C43.3383 73.0151 44.1446 73.3617 44.7358 73.9524C45.3271 74.543 45.6572 75.3314 45.6566 76.1517Z" fill="#F56867"/>
            <path d="M67.6477 79.3184C69.464 79.3184 70.9364 77.9007 70.9364 76.1519C70.9364 74.403 69.464 72.9854 67.6477 72.9854C65.8314 72.9854 64.3589 74.403 64.3589 76.1519C64.3589 77.9007 65.8314 79.3184 67.6477 79.3184Z" fill="#F56867"/>
            <path d="M92.9274 79.3184C94.7437 79.3184 96.2162 77.9007 96.2162 76.1519C96.2162 74.403 94.7437 72.9854 92.9274 72.9854C91.111 72.9854 89.6387 74.403 89.6387 76.1519C89.6387 77.9007 91.111 79.3184 92.9274 79.3184Z" fill="#F56867"/>
            <path d="M121.476 76.1519C121.476 76.7781 121.283 77.3903 120.922 77.9111C120.56 78.4318 120.047 78.8377 119.446 79.0773C118.845 79.317 118.184 79.3797 117.546 79.2575C116.908 79.1353 116.322 78.8338 115.862 78.3909C115.402 77.9481 115.089 77.3838 114.962 76.7696C114.835 76.1554 114.9 75.5187 115.149 74.9401C115.398 74.3615 115.819 73.8669 116.36 73.519C116.901 73.1711 117.537 72.9854 118.187 72.9854C119.06 72.9854 119.896 73.319 120.513 73.9128C121.13 74.5066 121.476 75.312 121.476 76.1519Z" fill="#F56867"/>
            <path d="M17.1081 103.659C18.9245 103.659 20.3968 102.241 20.3968 100.492C20.3968 98.7438 18.9245 97.3262 17.1081 97.3262C15.2918 97.3262 13.8193 98.7438 13.8193 100.492C13.8193 102.241 15.2918 103.659 17.1081 103.659Z" fill="#F56867"/>
            <path d="M45.6566 100.473C45.6601 101.105 45.4673 101.724 45.1028 102.249C44.7383 102.774 44.2188 103.183 43.6112 103.422C43.0037 103.661 42.3359 103.719 41.6935 103.589C41.0512 103.46 40.4638 103.148 40.0069 102.695C39.5501 102.241 39.2447 101.666 39.1299 101.044C39.0151 100.422 39.0964 99.7812 39.363 99.2039C39.6297 98.6265 40.0696 98.1392 40.6263 97.8046C41.183 97.47 41.8309 97.3035 42.4868 97.3263C43.3365 97.3511 44.1427 97.6936 44.7345 98.2811C45.3262 98.8687 45.657 99.655 45.6566 100.473Z" fill="#F56867"/>
            <path d="M67.6477 103.659C69.464 103.659 70.9364 102.241 70.9364 100.492C70.9364 98.7438 69.464 97.3262 67.6477 97.3262C65.8314 97.3262 64.3589 98.7438 64.3589 100.492C64.3589 102.241 65.8314 103.659 67.6477 103.659Z" fill="#F56867"/>
            <path d="M92.9274 103.659C94.7437 103.659 96.2162 102.241 96.2162 100.492C96.2162 98.7438 94.7437 97.3262 92.9274 97.3262C91.111 97.3262 89.6387 98.7438 89.6387 100.492C89.6387 102.241 91.111 103.659 92.9274 103.659Z" fill="#F56867"/>
            <path d="M121.476 100.473C121.48 101.1 121.29 101.714 120.931 102.238C120.572 102.761 120.06 103.17 119.46 103.412C118.859 103.655 118.197 103.72 117.558 103.6C116.919 103.48 116.331 103.18 115.869 102.738C115.407 102.296 115.092 101.732 114.963 101.117C114.835 100.502 114.899 99.8649 115.147 99.2852C115.395 98.7055 115.817 98.2099 116.358 97.8611C116.899 97.5124 117.536 97.3262 118.187 97.3262C119.056 97.3262 119.89 97.6571 120.506 98.2468C121.122 98.8365 121.471 99.6369 121.476 100.473Z" fill="#F56867"/>
            </svg>