<svg width="182" height="293" viewBox="0 0 182 293" fill="none" xmlns="http://www.w3.org/2000/svg">
<mask id="mask0" mask-type="alpha" maskUnits="userSpaceOnUse" x="0" y="0" width="304" height="293">
<path opacity="0.18" d="M152 292.705C235.947 292.705 304 227.181 304 146.352C304 65.5242 235.947 0 152 0C68.0527 0 0 65.5242 0 146.352C0 227.181 68.0527 292.705 152 292.705Z" fill="#FFC300"/>
</mask>
<g mask="url(#mask0)">
<path d="M-283.333 315.813L68.1675 -22.627" stroke="#F56867" stroke-width="6" stroke-linecap="round" stroke-linejoin="round"/>
<path d="M-260.466 315.813L91.0343 -22.627" stroke="#F56867" stroke-width="6" stroke-linecap="round" stroke-linejoin="round"/>
<path d="M-237.599 315.813L113.901 -22.627" stroke="#F56867" stroke-width="6" stroke-linecap="round" stroke-linejoin="round"/>
<path d="M-214.732 315.813L136.768 -22.627" stroke="#F56867" stroke-width="6" stroke-linecap="round" stroke-linejoin="round"/>
<path d="M-191.865 315.813L159.634 -22.627" stroke="#F56867" stroke-width="6" stroke-linecap="round" stroke-linejoin="round"/>
<path d="M-168.998 315.813L182.501 -22.627" stroke="#F56867" stroke-width="6" stroke-linecap="round" stroke-linejoin="round"/>
<path d="M-146.132 315.813L205.368 -22.627" stroke="#F56867" stroke-width="6" stroke-linecap="round" stroke-linejoin="round"/>
<path d="M-123.265 315.813L228.235 -22.627" stroke="#F56867" stroke-width="6" stroke-linecap="round" stroke-linejoin="round"/>
<path d="M-100.424 315.813L251.076 -22.627" stroke="#F56867" stroke-width="6" stroke-linecap="round" stroke-linejoin="round"/>
<path d="M-77.557 315.813L273.943 -22.627" stroke="#F56867" stroke-width="6" stroke-linecap="round" stroke-linejoin="round"/>
<path d="M-54.6902 315.813L296.81 -22.627" stroke="#F56867" stroke-width="6" stroke-linecap="round" stroke-linejoin="round"/>
<path d="M-31.8234 315.813L319.677 -22.627" stroke="#F56867" stroke-width="6" stroke-linecap="round" stroke-linejoin="round"/>
<path d="M-8.95654 315.813L342.543 -22.627" stroke="#F56867" stroke-width="6" stroke-linecap="round" stroke-linejoin="round"/>
<path d="M13.9103 315.813L365.41 -22.627" stroke="#F56867" stroke-width="6" stroke-linecap="round" stroke-linejoin="round"/>
<path d="M36.7771 315.813L388.277 -22.627" stroke="#F56867" stroke-width="6" stroke-linecap="round" stroke-linejoin="round"/>
<path d="M59.644 315.813L411.144 -22.627" stroke="#F56867" stroke-width="6" stroke-linecap="round" stroke-linejoin="round"/>
<path d="M82.5108 315.813L434.011 -22.627" stroke="#F56867" stroke-width="6" stroke-linecap="round" stroke-linejoin="round"/>
<path d="M105.378 315.813L456.878 -22.627" stroke="#F56867" stroke-width="6" stroke-linecap="round" stroke-linejoin="round"/>
<path d="M128.244 315.813L479.744 -22.627" stroke="#F56867" stroke-width="6" stroke-linecap="round" stroke-linejoin="round"/>
<path d="M151.085 315.813L502.585 -22.627" stroke="#F56867" stroke-width="6" stroke-linecap="round" stroke-linejoin="round"/>
<path d="M173.952 315.813L525.452 -22.627" stroke="#F56867" stroke-width="6" stroke-linecap="round" stroke-linejoin="round"/>
</g>
</svg>
