<svg width="188" height="293" viewBox="0 100 188 293" fill="none" xmlns="http://www.w3.org/2000/svg">
<mask id="mask0" mask-type="alpha" maskUnits="userSpaceOnUse" x="0" y="0" width="304" height="293">
<path opacity="0.18" d="M152 292.705C235.947 292.705 304 227.181 304 146.353C304 65.5243 235.947 0 152 0C68.0527 0 0 65.5243 0 146.353C0 227.181 68.0527 292.705 152 292.705Z" fill="#FFC300"/>
</mask>
<g mask="url(#mask0)">
<path d="M-283.332 315.813L68.168 -22.627" stroke="#F56867" stroke-width="6" stroke-linecap="round" stroke-linejoin="round"/>
<path d="M-260.465 315.813L91.0352 -22.627" stroke="#F56867" stroke-width="6" stroke-linecap="round" stroke-linejoin="round"/>
<path d="M-237.598 315.813L113.902 -22.627" stroke="#F56867" stroke-width="6" stroke-linecap="round" stroke-linejoin="round"/>
<path d="M-214.732 315.813L136.768 -22.627" stroke="#F56867" stroke-width="6" stroke-linecap="round" stroke-linejoin="round"/>
<path d="M-191.865 315.813L159.635 -22.627" stroke="#F56867" stroke-width="6" stroke-linecap="round" stroke-linejoin="round"/>
<path d="M-168.998 315.813L182.502 -22.627" stroke="#F56867" stroke-width="6" stroke-linecap="round" stroke-linejoin="round"/>
<path d="M-146.131 315.813L205.369 -22.627" stroke="#F56867" stroke-width="6" stroke-linecap="round" stroke-linejoin="round"/>
<path d="M-123.264 315.813L228.236 -22.627" stroke="#F56867" stroke-width="6" stroke-linecap="round" stroke-linejoin="round"/>
<path d="M-100.424 315.813L251.076 -22.627" stroke="#F56867" stroke-width="6" stroke-linecap="round" stroke-linejoin="round"/>
<path d="M-77.5566 315.813L273.943 -22.627" stroke="#F56867" stroke-width="6" stroke-linecap="round" stroke-linejoin="round"/>
<path d="M-54.6895 315.813L296.811 -22.627" stroke="#F56867" stroke-width="6" stroke-linecap="round" stroke-linejoin="round"/>
<path d="M-31.8223 315.813L319.678 -22.627" stroke="#F56867" stroke-width="6" stroke-linecap="round" stroke-linejoin="round"/>
<path d="M-8.95703 315.813L342.543 -22.627" stroke="#F56867" stroke-width="6" stroke-linecap="round" stroke-linejoin="round"/>
<path d="M13.9102 315.813L365.41 -22.627" stroke="#F56867" stroke-width="6" stroke-linecap="round" stroke-linejoin="round"/>
<path d="M36.7773 315.813L388.277 -22.627" stroke="#F56867" stroke-width="6" stroke-linecap="round" stroke-linejoin="round"/>
<path d="M59.6445 315.813L411.145 -22.627" stroke="#F56867" stroke-width="6" stroke-linecap="round" stroke-linejoin="round"/>
<path d="M82.5117 315.813L434.012 -22.627" stroke="#F56867" stroke-width="6" stroke-linecap="round" stroke-linejoin="round"/>
<path d="M105.379 315.813L456.879 -22.627" stroke="#F56867" stroke-width="6" stroke-linecap="round" stroke-linejoin="round"/>
<path d="M128.244 315.813L479.744 -22.627" stroke="#F56867" stroke-width="6" stroke-linecap="round" stroke-linejoin="round"/>
<path d="M151.086 315.813L502.586 -22.627" stroke="#F56867" stroke-width="6" stroke-linecap="round" stroke-linejoin="round"/>
<path d="M173.953 315.813L525.453 -22.627" stroke="#F56867" stroke-width="6" stroke-linecap="round" stroke-linejoin="round"/>
</g>
</svg>
