<svg width="24" height="24" viewBox="0 0 24 24" fill="none" xmlns="http://www.w3.org/2000/svg">
<path d="M5.64761 0C2.53502 0 0 2.56495 0 5.71429V18.2857C0 21.435 2.53502 24 5.64761 24H18.0724C21.1849 24 23.72 21.435 23.72 18.2857V5.71429C23.72 2.56495 21.1849 0 18.0724 0H5.64761ZM7.90996 4.59598C8.26463 4.61141 8.59035 4.8136 8.78689 5.12388C9.01053 5.47703 9.3576 6.0251 9.80941 6.73996C10.2217 7.39196 10.2504 8.23406 9.88222 8.91406L9.05493 10.1049C8.83128 10.4272 8.78668 10.8397 8.9369 11.2031C9.17071 11.7688 9.62398 12.6383 10.4293 13.4531C11.2347 14.268 12.094 14.7266 12.6531 14.9632C13.0123 15.1152 13.4199 15.07 13.7385 14.8438L14.9154 14.0067C15.5875 13.6341 16.4198 13.6638 17.0642 14.0804C17.7707 14.5375 18.3124 14.8887 18.6614 15.115C18.968 15.3138 19.1679 15.6434 19.1831 16.0022C19.2701 18.0388 17.7107 18.8638 17.2572 18.8638C16.9432 18.8638 13.1682 19.298 8.91043 14.99C4.6527 10.682 5.08175 6.86236 5.08175 6.54464C5.08175 6.08579 5.89716 4.50798 7.90996 4.59598Z" fill="#F4F4F7"/>
</svg>
