<svg width="157" height="93" viewBox="0 0 177 97" fill="none" xmlns="http://www.w3.org/2000/svg">
<path d="M173.535 79.3952C173.445 79.7276 173.355 80.0568 173.265 80.3798C171.282 79.6618 169.357 78.7895 167.507 77.7708C158.373 72.7533 146.741 61.5738 143.22 36.7875C141.705 26.1035 143.639 15.9274 148.985 6.53223C149.295 6.70157 149.605 6.88031 149.915 7.06219C145.226 15.3034 142.588 25.1533 144.222 36.6433C147.683 60.9874 159.033 71.9505 167.947 76.8582C169.741 77.8498 171.61 78.6981 173.535 79.3952Z" fill="#171E41"/>
<path d="M175.024 72.0535C174.975 72.4016 174.919 72.7496 174.86 73.0883C169.092 70.3475 161.818 64.383 158.434 51.4348C155.158 38.8912 156.462 27.7681 162.463 17.7175C162.695 17.9904 162.921 18.2695 163.145 18.5517C157.451 28.2887 156.239 39.0574 159.425 51.1652C162.639 63.5646 169.51 69.3503 175.024 72.0535Z" fill="#171E41"/>
<path d="M120.573 21.1643C121.057 37.631 119.216 48.2429 114.567 55.6374C109.71 63.3831 101.609 68.065 88.3003 70.8152C85.8873 71.3246 83.4293 71.5842 80.9643 71.5898C73.4732 71.5898 66.4161 69.1187 60.233 64.2925C53.0395 58.6729 47.5258 50.2091 44.377 40.3028C44.6869 40.171 44.9968 40.0425 45.3067 39.9233C48.4061 49.6634 53.7957 57.9862 60.8498 63.4928C68.7747 69.6894 78.2059 71.8783 88.102 69.8305C112.856 64.7064 120.502 52.8966 119.575 21.1925C119.309 12.1956 120.862 5.09586 124.19 0C124.584 0 124.984 -7.65183e-07 125.39 0.0188147C121.925 4.97042 120.307 12.0576 120.573 21.1643Z" fill="#171E41"/>
<path d="M89.6859 55.2074C88.6369 55.3829 87.5755 55.471 86.5123 55.4708C78.5315 55.4708 69.3917 50.5757 64.9473 36.7651C65.2944 36.7651 65.6446 36.7651 65.9948 36.7651C70.8948 51.5917 81.4015 55.5806 89.5217 54.2227C100.49 52.4039 111.04 40.9766 108.998 23.3779C108.121 15.8298 108.068 9.38545 108.551 3.93523C108.905 3.70631 109.274 3.48993 109.649 3.28296C109.103 8.83353 109.085 15.4472 109.993 23.2587C112.103 41.4721 101.104 53.3102 89.6859 55.2074Z" fill="#171E41"/>
<path d="M96.3335 36.5649C95.9701 38.4085 95.2116 40.1491 94.1113 41.6639C92.5803 43.696 90.4293 44.897 87.7205 45.2357C87.4018 45.2756 87.0809 45.2955 86.7598 45.2953C85.0722 45.2951 83.4417 44.6769 82.1697 43.5549C80.3628 42.0183 79.0456 39.635 78.0879 37.0541C78.4567 37.0761 78.8193 37.0886 79.185 37.1043C80.0745 39.3873 81.2523 41.4538 82.8143 42.7803C83.463 43.3555 84.2262 43.7831 85.0523 44.0341C85.8784 44.2851 86.7482 44.3538 87.6028 44.2353C90.0388 43.9218 91.9604 42.8618 93.3272 41.0587C94.2454 39.7885 94.8962 38.3413 95.2395 36.8064C95.6238 36.7374 95.9709 36.6559 96.3335 36.5649Z" fill="#171E41"/>
<path d="M57.5798 93.7011H56.4919C52.0134 83.3306 45.5607 76.4159 37.2762 73.1389C34.3959 72.013 31.3674 71.322 28.2882 71.088C28.2325 70.7493 28.1829 70.4138 28.1426 70.0688C31.401 70.2927 34.6075 71.0116 37.6544 72.2013C46.2921 75.6226 52.9866 82.8446 57.5798 93.7011Z" fill="#171E41"/>
<path d="M146.424 81.4082C146.424 81.4082 151.461 89.9097 153.202 94.0334H135.45C134.741 90.725 133.809 87.4696 132.66 84.2901L146.424 81.4082Z" fill="#5D7CA0"/>
<path d="M124.205 88.3575C124.071 88.9276 123.862 89.4771 123.585 89.9913C121.173 94.4475 110.735 93.7168 110.735 93.7168H86.9106C77.0486 93.7168 73.097 93.4691 72.1517 90.3551C72.0989 90.1799 72.0554 90.0019 72.0216 89.822C71.3552 86.2031 74.6839 74.4215 80.836 66.3434C83.9849 62.2134 87.2392 60.0371 90.1339 58.8988C92.3464 58.0501 94.6981 57.634 97.064 57.6726C100.089 57.6726 102.531 57.8984 104.601 58.3908C110.162 59.7078 113.069 62.8876 117.433 68.5292C122.773 75.425 125.413 83.5188 124.205 88.3575Z" fill="#F56867"/>
<g style="mix-blend-mode:multiply" opacity="0.22">
<path d="M82.293 85.4977C84.8809 81.3802 85.7022 75.6728 86.412 69.8777L88.6558 81.6624H108.12L111.696 69.8777C111.612 75.3843 112.359 80.7875 114.941 85.9524C114.941 85.9524 102.215 100.525 82.293 85.4977Z" fill="#1F395E"/>
</g>
<path d="M88.2029 93.7201H86.9105C77.0485 93.7201 73.0969 93.4723 72.1516 90.3584C71.6371 87.9092 72.291 85.3409 75.2509 84.5664C79.8533 83.3622 87.9115 88.1005 87.9115 88.1005L88.2029 93.7201Z" fill="#F56867"/>
<path d="M124.204 88.3575C124.07 88.9276 123.862 89.4771 123.584 89.9914C121.173 94.4475 110.734 93.7168 110.734 93.7168H103.668L104.567 87.6582C104.567 87.6582 117.103 81.7847 121.594 83.6161C123.792 84.5129 124.464 86.3725 124.204 88.3575Z" fill="#F56867"/>
<path d="M104.608 58.3939C104.397 61.2162 103.241 66.3873 97.6007 66.3873C91.6562 66.3873 90.3979 61.3009 90.1406 58.9019C92.3532 58.0532 94.7048 57.6372 97.0707 57.6758C100.096 57.6758 102.538 57.9016 104.608 58.3939Z" fill="#F56867"/>
<path d="M109.743 93.7168H86.9101C86.6454 93.7168 86.3916 93.6104 86.2044 93.421C86.0173 93.2317 85.9121 92.9748 85.9121 92.707C85.9121 92.4392 86.0173 92.1824 86.2044 91.993C86.3916 91.8036 86.6454 91.6973 86.9101 91.6973H109.743C109.874 91.6973 110.004 91.7234 110.125 91.7741C110.246 91.8249 110.356 91.8993 110.448 91.993C110.541 92.0868 110.615 92.1981 110.665 92.3206C110.715 92.4431 110.741 92.5744 110.741 92.707C110.741 92.8396 110.715 92.9709 110.665 93.0934C110.615 93.2159 110.541 93.3273 110.448 93.421C110.356 93.5148 110.246 93.5892 110.125 93.6399C110.004 93.6907 109.874 93.7168 109.743 93.7168Z" fill="white"/>
<path d="M112.509 76.3498L112.422 76.8735L110.057 91.6938H86.7874L84.4443 76.3279C84.4191 76.1509 84.4316 75.9705 84.4809 75.7988C84.5303 75.6272 84.6153 75.4681 84.7304 75.3324C84.8454 75.1967 84.9878 75.0874 85.148 75.012C85.3082 74.9365 85.4825 74.8965 85.6592 74.8948H111.297C111.475 74.8965 111.651 74.9373 111.813 75.0142C111.975 75.0912 112.118 75.2026 112.233 75.3408C112.348 75.479 112.432 75.6407 112.48 75.8148C112.527 75.989 112.537 76.1715 112.509 76.3498Z" fill="#171E41"/>
<path d="M112.421 76.8801L110.056 91.7005H86.9102L94.7545 90.8726C98.7016 90.4572 102.453 88.9239 105.578 86.4489C108.703 83.9739 111.074 80.6573 112.421 76.8801Z" fill="#171E41"/>
<path d="M97.5196 64.239H97.3646C96.5931 64.2486 95.8283 64.0926 95.1207 63.7811C94.4049 63.4397 93.8036 62.8937 93.3911 62.2105C92.9786 61.5272 92.7728 60.7367 92.7993 59.9365C92.7993 59.7703 92.7993 59.6229 92.7993 59.4473C92.7993 58.0988 92.7188 56.9793 92.7188 56.9793V56.3709L101.087 55.9946C101.114 57.0609 101.225 58.1233 101.422 59.1713C101.423 59.1838 101.423 59.1964 101.422 59.2089C101.54 59.8048 101.529 60.4195 101.39 61.0107C101.251 61.602 100.987 62.1557 100.616 62.6338C100.245 63.1119 99.7765 63.5029 99.2419 63.78C98.7073 64.0571 98.1197 64.2137 97.5196 64.239Z" fill="#FEB19E"/>
<path d="M101.427 59.1713C97.9344 63.3202 94.3454 60.8961 92.7896 59.4473C92.7896 58.0988 92.709 56.9793 92.709 56.9793V56.3709L101.077 55.9946C101.109 57.0614 101.226 58.1237 101.427 59.1713Z" fill="#FF856A"/>
<path d="M90.1441 52.2504C90.1441 52.2504 92.7444 59.6637 97.0804 59.6637C101.416 59.6637 103.217 51.6797 103.217 51.6797V44.7368H89.8125L90.1441 52.2504Z" fill="#FEB19E"/>
<path d="M88.7488 48.0674C88.7488 48.0674 87.4719 48.3026 87.6889 49.7859C87.9058 51.2691 89.2385 53.0691 90.3202 52.1221L88.7488 48.0674Z" fill="#FEB19E"/>
<path d="M104.23 47.4465C104.23 47.4465 105.526 47.503 105.51 49.0145C105.495 50.526 104.416 52.4796 103.217 51.6894L104.23 47.4465Z" fill="#FEB19E"/>
<path d="M104.229 47.4464C103.979 48.8776 103.64 50.2915 103.215 51.6799C103.215 51.6799 102.19 51.4698 101.855 48.7353C101.155 48.8338 100.442 48.7262 99.8011 48.4253C99.1602 48.1244 98.6186 47.643 98.2411 47.0387C98.2411 47.0387 97.9094 49.1429 95.7616 47.6471C94.3328 48.8293 92.6437 48.9516 90.7284 48.152C90.7284 48.152 91.0383 50.9116 90.1364 52.2287C90.1364 52.2287 89.8048 51.1374 88.7417 48.0454C88.5934 48.0588 88.4498 48.1048 88.3208 48.18C88.1918 48.2553 88.0805 48.3581 87.9948 48.4813C87.9948 48.4813 85.6982 43.9342 86.7798 41.7484C87.8615 39.5627 89.3151 40.4 89.3151 40.4C89.3151 40.4 88.7758 37.4115 91.9774 36.3233C95.179 35.2352 95.179 33.755 95.6779 34.0498C96.1769 34.3446 96.3846 35.439 96.3846 35.439C96.3846 35.439 101.917 34.8494 103.414 40.8673C103.414 40.8673 107.409 40.9958 105.038 47.7663C105.044 47.7882 104.889 47.5091 104.229 47.4464Z" fill="url(#paint0_linear)"/>
<path d="M175.522 93.7168H23.808C23.5085 93.7168 23.2656 93.9625 23.2656 94.2656V96.4513C23.2656 96.7544 23.5085 97.0001 23.808 97.0001H175.522C175.822 97.0001 176.065 96.7544 176.065 96.4513V94.2656C176.065 93.9625 175.822 93.7168 175.522 93.7168Z" fill="#70B2DD"/>
<path d="M137.989 85.6106H144.476V91.2928C144.476 91.9291 144.226 92.5393 143.782 92.9892C143.337 93.4391 142.734 93.6918 142.105 93.6918H140.357C139.728 93.6918 139.125 93.4391 138.681 92.9892C138.236 92.5393 137.986 91.9291 137.986 91.2928V85.6106H137.989Z" fill="url(#paint1_linear)"/>
<path d="M140.049 85.6104V83.8574C140.049 83.7891 140.062 83.7214 140.088 83.6582C140.114 83.5951 140.152 83.5377 140.2 83.4893C140.248 83.441 140.304 83.4026 140.367 83.3765C140.429 83.3503 140.496 83.3369 140.564 83.3369H141.221C141.288 83.3373 141.356 83.3241 141.418 83.2981C141.481 83.2722 141.538 83.2339 141.586 83.1855C141.634 83.1371 141.673 83.0796 141.699 83.0162C141.725 82.9529 141.738 82.8849 141.738 82.8163V82.1609C141.738 82.0923 141.725 82.0243 141.699 81.961C141.673 81.8976 141.634 81.8401 141.586 81.7917C141.538 81.7433 141.481 81.705 141.418 81.679C141.356 81.6531 141.288 81.6399 141.221 81.6403H139.113C138.769 81.6403 138.428 81.5717 138.11 81.4383C137.792 81.305 137.503 81.1095 137.26 80.8631C137.017 80.6167 136.824 80.3242 136.693 80.0024C136.561 79.6805 136.494 79.3356 136.494 78.9873C136.494 78.2846 136.77 77.6106 137.261 77.1136C137.752 76.6167 138.418 76.3375 139.113 76.3375H141.902C142.039 76.3375 142.17 76.2826 142.266 76.185C142.363 76.0874 142.417 75.955 142.417 75.8169V75.5755C142.418 74.8474 142.704 74.1495 143.213 73.635C143.722 73.1205 144.412 72.8315 145.132 72.8315C145.851 72.8315 146.541 73.1206 147.05 73.6352C147.558 74.1498 147.844 74.8477 147.844 75.5755C147.844 75.9652 147.769 76.3511 147.621 76.7112C147.474 77.0713 147.258 77.3985 146.986 77.6741C146.714 77.9496 146.39 78.1681 146.034 78.3171C145.678 78.466 145.297 78.5425 144.912 78.542H140.003C139.935 78.542 139.868 78.5555 139.806 78.5817C139.743 78.6078 139.687 78.6462 139.639 78.6945C139.591 78.7429 139.553 78.8002 139.527 78.8634C139.501 78.9266 139.488 78.9942 139.488 79.0626C139.488 79.131 139.501 79.1987 139.527 79.2618C139.553 79.325 139.591 79.3824 139.639 79.4307C139.687 79.479 139.743 79.5174 139.806 79.5435C139.868 79.5697 139.935 79.5832 140.003 79.5832H142.687C143.162 79.584 143.618 79.7757 143.953 80.1161C144.289 80.4565 144.478 80.9179 144.478 81.3989V82.5341C144.478 82.7724 144.432 83.0084 144.342 83.2287C144.253 83.4489 144.121 83.6491 143.954 83.8178C143.788 83.9864 143.59 84.1202 143.373 84.2115C143.155 84.3028 142.922 84.3498 142.687 84.3498C142.619 84.3493 142.551 84.3625 142.489 84.3885C142.426 84.4145 142.369 84.4527 142.321 84.5011C142.273 84.5495 142.234 84.607 142.208 84.6704C142.182 84.7338 142.169 84.8017 142.169 84.8703V85.6104H140.049Z" fill="url(#paint2_linear)"/>
<path d="M140.78 51.9573H123.755C123.375 51.9564 123.01 51.8032 122.742 51.5311C122.473 51.259 122.321 50.8902 122.32 50.5053V28.7295C122.32 28.3444 122.471 27.9751 122.741 27.7028C123.01 27.4306 123.375 27.2776 123.755 27.2776H140.78C141.16 27.2776 141.525 27.4306 141.794 27.7028C142.064 27.9751 142.215 28.3444 142.215 28.7295V50.5085C142.213 50.8927 142.061 51.2608 141.792 51.5322C141.524 51.8036 141.16 51.9564 140.78 51.9573ZM123.749 27.7825C123.502 27.7825 123.266 27.8816 123.092 28.058C122.917 28.2344 122.819 28.4737 122.819 28.7232V50.5085C122.819 50.758 122.917 50.9973 123.092 51.1737C123.266 51.3501 123.502 51.4492 123.749 51.4492H140.78C141.026 51.4492 141.263 51.3501 141.437 51.1737C141.612 50.9973 141.71 50.758 141.71 50.5085V28.7295C141.71 28.48 141.612 28.2407 141.437 28.0643C141.263 27.8879 141.026 27.7887 140.78 27.7887L123.749 27.7825Z" fill="#F56867"/>
<g opacity="0.5">
<g style="mix-blend-mode:multiply" opacity="0.5">
<path d="M131.49 34.8136C131.871 33.1857 130.876 31.5532 129.267 31.1671C127.658 30.7811 126.045 31.7878 125.663 33.4157C125.282 35.0436 126.277 36.6762 127.886 37.0622C129.495 37.4483 131.108 36.4415 131.49 34.8136Z" fill="#F56867"/>
</g>
<g style="mix-blend-mode:multiply" opacity="0.5">
<path d="M129.363 33.7125L131.359 30.125C133.188 30.5891 134.062 32.3201 133.188 34.1233L129.363 33.7125Z" fill="#F56867"/>
</g>
<g style="mix-blend-mode:multiply" opacity="0.5">
<path d="M127.49 40.4234C127.49 40.5983 127.439 40.7692 127.343 40.9146C127.247 41.0601 127.11 41.1734 126.951 41.2403C126.791 41.3073 126.615 41.3248 126.446 41.2907C126.276 41.2565 126.12 41.1723 125.998 41.0487C125.876 40.925 125.793 40.7674 125.759 40.5959C125.725 40.4243 125.743 40.2465 125.809 40.085C125.875 39.9234 125.987 39.7853 126.131 39.6881C126.274 39.5909 126.443 39.5391 126.616 39.5391C126.731 39.5391 126.845 39.5619 126.951 39.6064C127.057 39.6508 127.153 39.716 127.234 39.7981C127.315 39.8802 127.38 39.9777 127.424 40.085C127.468 40.1922 127.49 40.3072 127.49 40.4234Z" fill="#F56867"/>
</g>
<g style="mix-blend-mode:multiply" opacity="0.5">
<path d="M127.49 44.337C127.49 44.5119 127.439 44.6829 127.343 44.8283C127.247 44.9737 127.11 45.0871 126.951 45.154C126.791 45.2209 126.615 45.2384 126.446 45.2043C126.276 45.1702 126.12 45.086 125.998 44.9623C125.876 44.8386 125.793 44.681 125.759 44.5095C125.725 44.338 125.743 44.1601 125.809 43.9986C125.875 43.837 125.987 43.6988 126.131 43.6017C126.274 43.5045 126.443 43.4526 126.616 43.4526C126.731 43.4526 126.845 43.4755 126.951 43.52C127.057 43.5644 127.153 43.6295 127.234 43.7117C127.315 43.7938 127.38 43.8913 127.424 43.9986C127.468 44.1058 127.49 44.2208 127.49 44.337Z" fill="#F56867"/>
</g>
<g style="mix-blend-mode:multiply" opacity="0.5">
<path d="M138.887 41.3077H131.898C131.784 41.3077 131.67 41.2848 131.564 41.2403C131.458 41.1958 131.362 41.1306 131.281 41.0485C131.2 40.9663 131.136 40.8688 131.093 40.7615C131.049 40.6543 131.027 40.5393 131.027 40.4234C131.027 40.3074 131.049 40.1925 131.093 40.0852C131.136 39.9779 131.2 39.8804 131.281 39.7983C131.362 39.7161 131.458 39.6509 131.564 39.6064C131.67 39.562 131.784 39.5391 131.898 39.5391H138.887C139.119 39.5391 139.341 39.6322 139.505 39.7981C139.669 39.9639 139.761 40.1888 139.761 40.4234C139.761 40.6579 139.669 40.8828 139.505 41.0487C139.341 41.2145 139.119 41.3077 138.887 41.3077Z" fill="#F56867"/>
</g>
<g style="mix-blend-mode:multiply" opacity="0.5">
<path d="M138.887 45.2213H131.898C131.784 45.2213 131.67 45.1984 131.564 45.1539C131.458 45.1095 131.362 45.0443 131.281 44.9621C131.2 44.8799 131.136 44.7824 131.093 44.6752C131.049 44.5679 131.027 44.453 131.027 44.337C131.027 44.221 131.049 44.1061 131.093 43.9988C131.136 43.8915 131.2 43.794 131.281 43.7118C131.362 43.6297 131.458 43.5645 131.564 43.52C131.67 43.4755 131.784 43.4526 131.898 43.4526H138.887C139.119 43.4526 139.341 43.5458 139.505 43.7117C139.669 43.8775 139.761 44.1024 139.761 44.337C139.761 44.5715 139.669 44.7964 139.505 44.9623C139.341 45.1281 139.119 45.2213 138.887 45.2213Z" fill="#F56867"/>
</g>
<g style="mix-blend-mode:multiply" opacity="0.5">
<path d="M127.49 48.313C127.49 48.4879 127.439 48.6589 127.343 48.8043C127.247 48.9498 127.11 49.0631 126.951 49.13C126.791 49.197 126.615 49.2145 126.446 49.1804C126.276 49.1462 126.12 49.062 125.998 48.9383C125.876 48.8147 125.793 48.6571 125.759 48.4856C125.725 48.314 125.743 48.1362 125.809 47.9746C125.875 47.813 125.987 47.6749 126.131 47.5777C126.274 47.4806 126.443 47.4287 126.616 47.4287C126.731 47.4287 126.845 47.4516 126.951 47.496C127.057 47.5405 127.153 47.6056 127.234 47.6877C127.315 47.7698 127.38 47.8673 127.424 47.9746C127.468 48.0819 127.49 48.1969 127.49 48.313Z" fill="#F56867"/>
</g>
<g style="mix-blend-mode:multiply" opacity="0.5">
<path d="M138.887 49.1973H131.898C131.784 49.1973 131.67 49.1744 131.564 49.13C131.458 49.0855 131.362 49.0203 131.281 48.9381C131.2 48.856 131.136 48.7585 131.093 48.6512C131.049 48.5439 131.027 48.429 131.027 48.313C131.027 48.197 131.049 48.0821 131.093 47.9749C131.136 47.8676 131.2 47.7701 131.281 47.6879C131.362 47.6058 131.458 47.5406 131.564 47.4961C131.67 47.4516 131.784 47.4287 131.898 47.4287H138.887C139.119 47.4287 139.341 47.5219 139.505 47.6877C139.669 47.8536 139.761 48.0785 139.761 48.313C139.761 48.5476 139.669 48.7725 139.505 48.9383C139.341 49.1042 139.119 49.1973 138.887 49.1973Z" fill="#F56867"/>
</g>
</g>
<path d="M48.4637 35.0909H31.433C31.0524 35.0909 30.6875 34.9379 30.4183 34.6657C30.1492 34.3934 29.998 34.0241 29.998 33.639V7.83986C29.998 7.45479 30.1492 7.08549 30.4183 6.8132C30.6875 6.54091 31.0524 6.38794 31.433 6.38794H48.4637C48.8443 6.38794 49.2093 6.54091 49.4784 6.8132C49.7475 7.08549 49.8987 7.45479 49.8987 7.83986V33.6547C49.8938 34.0368 49.7406 34.4016 49.4721 34.6703C49.2036 34.939 48.8414 35.0901 48.4637 35.0909ZM31.433 6.86773C31.1864 6.86773 30.9499 6.96685 30.7756 7.14328C30.6012 7.31971 30.5032 7.559 30.5032 7.8085V33.6233C30.5032 33.8728 30.6012 34.1121 30.7756 34.2885C30.9499 34.465 31.1864 34.5641 31.433 34.5641H48.4637C48.7103 34.5641 48.9468 34.465 49.1212 34.2885C49.2956 34.1121 49.3935 33.8728 49.3935 33.6233V7.83986C49.3935 7.59036 49.2956 7.35107 49.1212 7.17464C48.9468 6.99821 48.7103 6.89909 48.4637 6.89909L31.433 6.86773Z" fill="#F56867"/>
<path d="M36.8438 16.6772L37.6479 15.9547L40.1464 18.801C40.2124 18.8763 40.2462 18.975 40.2404 19.0754C40.2345 19.1759 40.1894 19.2699 40.115 19.3367L39.8717 19.5554C39.7974 19.6222 39.6998 19.6564 39.6005 19.6504C39.5012 19.6445 39.4083 19.5989 39.3423 19.5236L36.8438 16.6772Z" fill="#F56867"/>
<path d="M35.9735 11.4426C35.4059 11.4426 34.851 11.6129 34.379 11.932C33.9071 12.2511 33.5392 12.7046 33.322 13.2352C33.1048 13.7658 33.0479 14.3497 33.1587 14.913C33.2694 15.4763 33.5427 15.9937 33.9441 16.3998C34.3455 16.8059 34.8569 17.0825 35.4136 17.1945C35.9703 17.3066 36.5474 17.2491 37.0718 17.0293C37.5962 16.8095 38.0444 16.4373 38.3598 15.9598C38.6751 15.4822 38.8434 14.9208 38.8434 14.3465C38.8434 13.5763 38.5411 12.8377 38.0028 12.2931C37.4646 11.7486 36.7346 11.4426 35.9735 11.4426ZM35.9735 16.3252C35.5867 16.3252 35.2086 16.2092 34.887 15.9917C34.5654 15.7743 34.3147 15.4653 34.1667 15.1037C34.0187 14.7421 33.9799 14.3443 34.0554 13.9604C34.1309 13.5766 34.3171 13.224 34.5906 12.9473C34.8641 12.6705 35.2126 12.4821 35.5919 12.4057C35.9713 12.3294 36.3645 12.3686 36.7219 12.5183C37.0792 12.6681 37.3847 12.9217 37.5996 13.2471C37.8144 13.5725 37.9291 13.9551 37.9291 14.3465C37.9283 14.871 37.722 15.3738 37.3554 15.7447C36.9889 16.1156 36.4919 16.3244 35.9735 16.3252Z" fill="#F56867"/>
<path d="M47.5987 13.0422H43.0676C42.9992 13.0422 42.9315 13.0286 42.8683 13.0021C42.8051 12.9756 42.7477 12.9368 42.6994 12.8879C42.651 12.839 42.6127 12.7809 42.5865 12.717C42.5603 12.653 42.5469 12.5845 42.5469 12.5154C42.5469 12.4462 42.5603 12.3777 42.5865 12.3137C42.6127 12.2498 42.651 12.1918 42.6994 12.1428C42.7477 12.0939 42.8051 12.0551 42.8683 12.0286C42.9315 12.0022 42.9992 11.9885 43.0676 11.9885H47.5987C47.7368 11.9885 47.8693 12.044 47.9669 12.1428C48.0646 12.2416 48.1194 12.3756 48.1194 12.5154C48.1194 12.6551 48.0646 12.7891 47.9669 12.8879C47.8693 12.9867 47.7368 13.0422 47.5987 13.0422Z" fill="#EAD48C"/>
<path d="M47.5987 15.7768H43.0676C42.9992 15.7768 42.9315 15.7632 42.8683 15.7367C42.8051 15.7102 42.7477 15.6714 42.6994 15.6225C42.651 15.5736 42.6127 15.5155 42.5865 15.4516C42.5603 15.3877 42.5469 15.3192 42.5469 15.25C42.5469 15.1808 42.5603 15.1123 42.5865 15.0484C42.6127 14.9844 42.651 14.9264 42.6994 14.8775C42.7477 14.8285 42.8051 14.7897 42.8683 14.7632C42.9315 14.7368 42.9992 14.7231 43.0676 14.7231H47.5987C47.7368 14.7231 47.8693 14.7787 47.9669 14.8775C48.0646 14.9763 48.1194 15.1103 48.1194 15.25C48.1194 15.3192 48.106 15.3877 48.0798 15.4516C48.0536 15.5155 48.0153 15.5736 47.9669 15.6225C47.9186 15.6714 47.8612 15.7102 47.798 15.7367C47.7348 15.7632 47.6671 15.7768 47.5987 15.7768Z" fill="#EAD48C"/>
<path d="M47.5987 18.301H43.0676C42.9992 18.301 42.9315 18.2874 42.8683 18.2609C42.8051 18.2344 42.7477 18.1956 42.6994 18.1467C42.651 18.0978 42.6127 18.0397 42.5865 17.9758C42.5603 17.9119 42.5469 17.8433 42.5469 17.7742C42.5469 17.705 42.5603 17.6365 42.5865 17.5725C42.6127 17.5086 42.651 17.4505 42.6994 17.4016C42.7477 17.3527 42.8051 17.3139 42.8683 17.2874C42.9315 17.2609 42.9992 17.2473 43.0676 17.2473H47.5987C47.6671 17.2473 47.7348 17.2609 47.798 17.2874C47.8612 17.3139 47.9186 17.3527 47.9669 17.4016C48.0153 17.4505 48.0536 17.5086 48.0798 17.5725C48.106 17.6365 48.1194 17.705 48.1194 17.7742C48.1194 17.9139 48.0646 18.0479 47.9669 18.1467C47.8693 18.2455 47.7368 18.301 47.5987 18.301Z" fill="#EAD48C"/>
<path d="M41.9559 25.3287H34.967C34.8102 25.3279 34.6601 25.2645 34.5493 25.1524C34.4384 25.0403 34.3758 24.8884 34.375 24.7298C34.375 24.5706 34.4373 24.418 34.5482 24.3051C34.6591 24.1923 34.8097 24.1285 34.967 24.1277H41.9559C42.1132 24.1285 42.2637 24.1923 42.3747 24.3051C42.4856 24.418 42.5479 24.5706 42.5479 24.7298C42.5471 24.8884 42.4844 25.0403 42.3736 25.1524C42.2627 25.2645 42.1127 25.3279 41.9559 25.3287Z" fill="#EAD48C"/>
<path d="M41.9559 29.0827H34.967C34.81 29.0827 34.6594 29.0196 34.5484 28.9072C34.4374 28.7949 34.375 28.6426 34.375 28.4837C34.3758 28.3251 34.4384 28.1733 34.5493 28.0611C34.6601 27.949 34.8102 27.8856 34.967 27.8848H41.9559C42.1127 27.8856 42.2627 27.949 42.3736 28.0611C42.4844 28.1733 42.5471 28.3251 42.5479 28.4837C42.5479 28.6426 42.4855 28.7949 42.3745 28.9072C42.2635 29.0196 42.1129 29.0827 41.9559 29.0827Z" fill="#EAD48C"/>
<path d="M41.9559 32.8392H34.967C34.8102 32.8384 34.6601 32.775 34.5493 32.6629C34.4384 32.5508 34.3758 32.3989 34.375 32.2403C34.375 32.0814 34.4374 31.9291 34.5484 31.8168C34.6594 31.7045 34.81 31.6414 34.967 31.6414H41.9559C42.1129 31.6414 42.2635 31.7045 42.3745 31.8168C42.4855 31.9291 42.5479 32.0814 42.5479 32.2403C42.5471 32.3989 42.4844 32.5508 42.3736 32.6629C42.2627 32.775 42.1127 32.8384 41.9559 32.8392Z" fill="#EAD48C"/>
<path d="M47.4284 24.7296C47.4284 24.92 47.3726 25.1061 47.268 25.2645C47.1635 25.4228 47.0149 25.5462 46.841 25.619C46.6671 25.6919 46.4758 25.711 46.2913 25.6738C46.1067 25.6367 45.9371 25.545 45.8041 25.4104C45.671 25.2757 45.5804 25.1042 45.5437 24.9174C45.507 24.7307 45.5258 24.5371 45.5978 24.3612C45.6698 24.1852 45.7918 24.0349 45.9483 23.9291C46.1047 23.8233 46.2887 23.7668 46.4769 23.7668C46.7292 23.7668 46.9712 23.8683 47.1497 24.0488C47.3281 24.2294 47.4284 24.4743 47.4284 24.7296Z" fill="#D3BC66"/>
<path d="M47.4284 28.4835C47.4284 28.6739 47.3726 28.86 47.268 29.0183C47.1635 29.1766 47.0149 29.3 46.841 29.3729C46.6671 29.4457 46.4758 29.4648 46.2913 29.4277C46.1067 29.3905 45.9371 29.2988 45.8041 29.1642C45.671 29.0296 45.5804 28.858 45.5437 28.6713C45.507 28.4845 45.5258 28.291 45.5978 28.1151C45.6698 27.9391 45.7918 27.7888 45.9483 27.683C46.1047 27.5772 46.2887 27.5208 46.4769 27.5208C46.6019 27.5203 46.7259 27.545 46.8415 27.5932C46.9571 27.6414 47.0622 27.7123 47.1506 27.8018C47.239 27.8913 47.3091 27.9976 47.3568 28.1146C47.4044 28.2315 47.4288 28.3569 47.4284 28.4835Z" fill="#D3BC66"/>
<path d="M47.4284 32.2405C47.4284 32.4309 47.3726 32.6171 47.268 32.7754C47.1635 32.9337 47.0149 33.0571 46.841 33.13C46.6671 33.2028 46.4758 33.2219 46.2913 33.1847C46.1067 33.1476 45.9371 33.0559 45.8041 32.9213C45.671 32.7866 45.5804 32.6151 45.5437 32.4284C45.507 32.2416 45.5258 32.048 45.5978 31.8721C45.6698 31.6962 45.7918 31.5459 45.9483 31.4401C46.1047 31.3343 46.2887 31.2778 46.4769 31.2778C46.7292 31.2778 46.9712 31.3793 47.1497 31.5598C47.3281 31.7403 47.4284 31.9852 47.4284 32.2405Z" fill="#D3BC66"/>
<path d="M31.4425 61.0468H1.91227C1.40536 61.046 0.919441 60.8418 0.560997 60.4792C0.202554 60.1165 0.000819589 59.6248 0 59.1119V41.0176C0 40.5045 0.201471 40.0124 0.560092 39.6495C0.918712 39.2866 1.40511 39.0828 1.91227 39.0828H31.4425C31.6944 39.0815 31.944 39.1307 32.1771 39.2274C32.4102 39.324 32.6221 39.4664 32.8007 39.6462C32.9792 39.8259 33.1209 40.0397 33.2176 40.275C33.3143 40.5104 33.364 40.7628 33.364 41.0176V59.1119C33.3636 59.3667 33.3136 59.6189 33.2168 59.854C33.1199 60.0892 32.9782 60.3028 32.7998 60.4825C32.6213 60.6622 32.4095 60.8045 32.1766 60.9014C31.9437 60.9982 31.6943 61.0476 31.4425 61.0468ZM1.91227 39.5877C1.5396 39.591 1.1833 39.7431 0.920934 40.0109C0.658568 40.2787 0.511372 40.6406 0.511386 41.0176V59.1119C0.512205 59.4909 0.661367 59.8542 0.926232 60.1222C1.1911 60.3901 1.5501 60.5411 1.92467 60.5419H31.4425C31.817 60.5411 32.176 60.3901 32.4409 60.1222C32.7058 59.8542 32.8549 59.4909 32.8558 59.1119V41.0176C32.8558 40.6384 32.7069 40.2747 32.4418 40.0065C32.1768 39.7383 31.8173 39.5877 31.4425 39.5877H1.91227Z" fill="#F56867"/>
<path opacity="0.5" d="M11.9762 50.2709C11.4428 50.81 10.7767 51.1951 10.0468 51.3863C9.31685 51.5775 8.54971 51.5679 7.82472 51.3584C7.09974 51.1489 6.44325 50.7472 5.92322 50.1948C5.40318 49.6425 5.03849 48.9595 4.86689 48.2167C4.69529 47.4738 4.72301 46.698 4.94719 45.9697C5.17137 45.2413 5.58386 44.5868 6.14197 44.0739C6.70008 43.561 7.38352 43.2083 8.12157 43.0523C8.85961 42.8964 9.62544 42.9428 10.3398 43.1869L8.98229 47.2635L11.9762 50.2709Z" fill="#EAD48C"/>
<path d="M13.7702 46.9092C13.771 47.3868 13.678 47.8598 13.4966 48.3007C13.3152 48.7416 13.0489 49.1417 12.7133 49.4775L10.1719 46.9092L11.3248 43.4597C12.038 43.7033 12.6576 44.1672 13.0964 44.7861C13.5351 45.405 13.7708 46.1476 13.7702 46.9092Z" fill="#F56867"/>
<path opacity="0.5" d="M28.081 51.7762H18.3492V43.4629C18.3453 43.4273 18.3488 43.3914 18.3596 43.3574C18.3703 43.3233 18.3881 43.2919 18.4116 43.2653C18.4351 43.2387 18.464 43.2174 18.4962 43.2028C18.5285 43.1882 18.5634 43.1807 18.5987 43.1807C18.634 43.1807 18.6689 43.1882 18.7012 43.2028C18.7334 43.2174 18.7623 43.2387 18.7858 43.2653C18.8093 43.2919 18.8271 43.3233 18.8378 43.3574C18.8486 43.3914 18.8521 43.4273 18.8482 43.4629V51.2713H28.081C28.1424 51.2782 28.1991 51.3078 28.2403 51.3544C28.2815 51.401 28.3042 51.4612 28.3042 51.5237C28.3042 51.5862 28.2815 51.6465 28.2403 51.6931C28.1991 51.7397 28.1424 51.7692 28.081 51.7762Z" fill="#EAD48C"/>
<path opacity="0.5" d="M21.6338 47.4924H20.3848V51.2712H21.6338V47.4924Z" fill="#EAD48C"/>
<path opacity="0.5" d="M24.2119 45.5764H22.9629V51.2712H24.2119V45.5764Z" fill="#F56867"/>
<path opacity="0.5" d="M26.751 48.4236H25.502V51.271H26.751V48.4236Z" fill="#EAD48C"/>
<path opacity="0.5" d="M10.8419 54.7493H4.97802C4.73667 54.7493 4.54102 54.9472 4.54102 55.1914C4.54102 55.4356 4.73667 55.6335 4.97802 55.6335H10.8419C11.0833 55.6335 11.2789 55.4356 11.2789 55.1914C11.2789 54.9472 11.0833 54.7493 10.8419 54.7493Z" fill="#EAD48C"/>
<path opacity="0.5" d="M19.7833 54.7493H13.9194C13.6781 54.7493 13.4824 54.9472 13.4824 55.1914C13.4824 55.4356 13.6781 55.6335 13.9194 55.6335H19.7833C20.0247 55.6335 20.2203 55.4356 20.2203 55.1914C20.2203 54.9472 20.0247 54.7493 19.7833 54.7493Z" fill="#EAD48C"/>
<path opacity="0.5" d="M28.1818 54.7493H22.3179C22.0765 54.7493 21.8809 54.9472 21.8809 55.1914C21.8809 55.4356 22.0765 55.6335 22.3179 55.6335H28.1818C28.4231 55.6335 28.6188 55.4356 28.6188 55.1914C28.6188 54.9472 28.4231 54.7493 28.1818 54.7493Z" fill="#EAD48C"/>
<path opacity="0.5" d="M14.7007 58.7881H8.812C8.69664 58.7881 8.58595 58.742 8.50409 58.6597C8.42222 58.5775 8.37582 58.4658 8.375 58.3491C8.375 58.2911 8.3863 58.2336 8.40826 58.1799C8.43023 58.1263 8.46242 58.0775 8.503 58.0365C8.54358 57.9954 8.59175 57.9629 8.64477 57.9406C8.69779 57.9184 8.75462 57.907 8.812 57.907H14.7007C14.7581 57.907 14.8149 57.9184 14.8679 57.9406C14.9209 57.9629 14.9691 57.9954 15.0097 58.0365C15.0503 58.0775 15.0825 58.1263 15.1044 58.1799C15.1264 58.2336 15.1377 58.2911 15.1377 58.3491C15.1369 58.4658 15.0905 58.5775 15.0086 58.6597C14.9267 58.742 14.8161 58.7881 14.7007 58.7881Z" fill="#EAD48C"/>
<path opacity="0.5" d="M23.09 58.7881H17.2261C17.1107 58.7881 17 58.742 16.9181 58.6597C16.8363 58.5775 16.7899 58.4658 16.7891 58.3491C16.7891 58.2911 16.8004 58.2336 16.8223 58.1799C16.8443 58.1263 16.8765 58.0775 16.9171 58.0365C16.9576 57.9954 17.0058 57.9629 17.0588 57.9406C17.1119 57.9184 17.1687 57.907 17.2261 57.907H23.09C23.1473 57.907 23.2042 57.9184 23.2572 57.9406C23.3102 57.9629 23.3584 57.9954 23.399 58.0365C23.4395 58.0775 23.4717 58.1263 23.4937 58.1799C23.5156 58.2336 23.527 58.2911 23.527 58.3491C23.5261 58.4658 23.4797 58.5775 23.3979 58.6597C23.316 58.742 23.2053 58.7881 23.09 58.7881Z" fill="#EAD48C"/>
<defs>
<linearGradient id="paint0_linear" x1="96.304" y1="49.8516" x2="95.9582" y2="36.634" gradientUnits="userSpaceOnUse">
<stop stop-color="#3F2323"/>
<stop offset="1" stop-color="#5E3434"/>
</linearGradient>
<linearGradient id="paint1_linear" x1="3386.73" y1="3236.63" x2="3522.56" y2="3236.63" gradientUnits="userSpaceOnUse">
<stop stop-color="#621055"/>
<stop offset="1"/>
</linearGradient>
<linearGradient id="paint2_linear" x1="147.255" y1="67.1148" x2="138.865" y2="83.5713" gradientUnits="userSpaceOnUse">
<stop stop-color="#EAD48C"/>
<stop offset="1" stop-color="#FFF6DA"/>
</linearGradient>
</defs>
</svg>
