<svg width="24" height="24" viewBox="0 0 24 24" fill="none" xmlns="http://www.w3.org/2000/svg">
<path d="M5.64761 0C2.53502 0 0 2.56495 0 5.71429V18.2857C0 21.435 2.53502 24 5.64761 24H18.0724C21.1849 24 23.72 21.435 23.72 18.2857V5.71429C23.72 2.56495 21.1849 0 18.0724 0H5.64761ZM5.08285 6.85714H18.6371C18.7388 6.85714 18.8347 6.86875 18.925 6.89732L13.3734 12.5089C12.5375 13.3546 11.1769 13.3546 10.3411 12.5089L4.79495 6.89732C4.88532 6.86875 4.98119 6.85714 5.08285 6.85714ZM3.99304 7.70871L8.23978 12L3.99304 16.2913C3.9648 16.1999 3.95333 16.1029 3.95333 16V8C3.95333 7.89714 3.9648 7.80014 3.99304 7.70871ZM19.7269 7.70871C19.7552 7.80014 19.7666 7.89714 19.7666 8V16C19.7666 16.1029 19.7552 16.1999 19.7269 16.2913L15.4747 12L19.7269 7.70871ZM9.03618 12.8058L9.53917 13.3203C10.1773 13.966 11.0186 14.2857 11.8545 14.2857C12.696 14.2857 13.5316 13.966 14.1698 13.3203L14.6783 12.8058L18.925 17.1027C18.8347 17.1313 18.7388 17.1429 18.6371 17.1429H5.08285C4.98119 17.1429 4.88532 17.1313 4.79495 17.1027L9.03618 12.8058Z" fill="#F4F4F7"/>
</svg>
