<svg width="572" height="303" viewBox="0 0 572 303" fill="none" xmlns="http://www.w3.org/2000/svg">
<path d="M157.171 148.802C157.171 148.802 121.147 97.3305 107.068 104.001C92.9878 110.672 157.171 148.802 157.171 148.802Z" fill="#ABDAF7"/>
<path d="M154.651 134.51C154.651 134.51 149.204 96.0539 140.622 97.5633C132.04 99.0727 154.651 134.51 154.651 134.51Z" fill="#ABDAF7"/>
<path d="M124.451 252.983C124.451 252.983 127.884 235.868 114.548 233.718C114.548 233.718 105.503 233.409 100.176 236.83C100.176 236.83 115.302 245.613 113.502 248.345C111.703 251.077 97.3496 237.335 97.3496 237.335C97.3496 237.335 81.1353 244.478 77.5185 249.654C77.5185 249.654 96.6791 253.088 94.2679 255.287C91.8567 257.487 71.7518 254.845 71.7518 254.845C71.7518 254.845 58.7976 265.342 64.4382 273.698C70.0787 282.054 76.522 281.995 78.558 280.541C80.594 279.087 90.5742 267.093 91.8444 268.723C93.1146 270.354 88.7227 280.48 83.5404 283.765C83.5404 283.765 99.8408 289.287 104.762 282.286C109.683 275.285 107.404 269.843 110.516 265.58C113.628 261.317 117.202 259.309 116.566 262.236C115.929 265.163 109.418 271.325 109.39 276.922C109.363 282.518 108.809 286.596 115.166 281.646C121.523 276.696 129.966 265.249 127.213 259.121L124.451 252.983Z" fill="#ABDAF7"/>
<path d="M72.2637 269.861C72.2637 269.861 109.836 247.086 124.451 253.272C124.451 253.272 129.462 257.796 138.091 259.687L140.359 261.621C140.359 261.621 129.787 258.348 127.169 259.247C127.157 259.262 123.291 243.698 72.2637 269.861Z" fill="#70B2DD"/>
<path d="M138.096 259.787C138.096 259.787 150.233 261.324 157.17 272.224L155.689 273.223C155.689 273.223 146.391 263.128 138.869 261.321C131.346 259.514 138.096 259.787 138.096 259.787Z" fill="#3A49CD"/>
<path d="M135.79 204.021C135.79 204.021 163.198 188.627 150.408 167.737C150.408 167.737 140.178 154.91 129.212 151.612C129.212 151.612 135.061 182.764 129.212 183.496C123.364 184.227 125.194 148.307 125.194 148.307C125.194 148.307 96.3255 134.382 84.9971 135.48C84.9971 135.48 102.904 165.898 97.0578 165.161C91.212 164.424 71.1241 133.645 71.1241 133.645C71.1241 133.645 41.5292 128.137 36.7726 145.74C32.0161 163.343 39.6955 172.125 44.0951 173.227C48.4946 174.328 76.6159 173.958 75.8867 177.624C75.1575 181.289 56.1527 187.152 45.5565 183.854C45.5565 183.854 57.248 212.806 72.5977 211.34C87.9474 209.875 92.6948 200.346 102.193 199.612C111.69 198.877 118.638 201.448 113.887 204.012C109.137 206.576 93.0579 204.85 85.3845 211.395C77.7112 217.94 71.4963 221.967 85.7507 224.898C100.005 227.83 125.582 226 130.695 215.006L135.79 204.021Z" fill="#70B2DD"/>
<path d="M50.4062 151.324C50.4062 151.324 127.547 176.209 136.362 204.021C136.362 204.021 135.994 216.462 143.723 230.734V236.233C143.723 236.233 135.641 217.572 131.231 215.011C131.218 214.999 148.486 190.847 50.4062 151.324Z" fill="#ABDAF7"/>
<path d="M143.219 230.429C143.219 230.429 155.155 248.592 148.349 270.701L145.272 269.875C145.272 269.875 148.253 245.514 142.01 233.275C135.767 221.036 143.219 230.429 143.219 230.429Z" fill="#3A49CD"/>
<path d="M163.899 74.8213L122.832 287.578C122.636 288.593 122.667 289.639 122.922 290.641C123.176 291.643 123.649 292.576 124.306 293.374C124.962 294.171 125.787 294.813 126.72 295.254C127.654 295.694 128.673 295.923 129.704 295.922H151.362L163.899 74.8213Z" fill="#B08B2C"/>
<path d="M437.718 135.953C437.718 135.953 419.309 124.087 429.016 109.992C429.016 109.992 436.628 101.434 444.365 99.5689C444.365 99.5689 439.07 121.111 443.099 121.868C447.127 122.625 447.285 97.4239 447.285 97.4239C447.285 97.4239 467.872 88.8472 475.691 90.072C475.691 90.072 462.056 110.623 466.142 110.346C470.229 110.069 485.398 89.3488 485.398 89.3488C485.398 89.3488 506.158 86.6961 508.755 99.1965C511.353 111.697 505.68 117.532 502.593 118.126C499.505 118.72 479.994 117.329 480.365 119.92C480.736 122.511 493.68 127.379 501.165 125.499C501.165 125.499 491.899 145.274 481.309 143.631C470.719 141.988 467.796 135.134 461.231 134.239C454.666 133.343 449.749 134.854 452.943 136.842C456.137 138.83 467.363 138.27 472.43 143.154C477.497 148.038 481.647 151.109 471.638 152.586C461.63 154.063 443.954 151.749 440.842 143.856L437.718 135.953Z" fill="#ABDAF7"/>
<path d="M499.332 102.564C499.332 102.564 444.841 116.843 437.617 135.883C437.617 135.883 437.375 144.576 431.453 154.222L431.236 158.049C431.236 158.049 437.586 145.355 440.746 143.746C440.746 143.746 429.738 126.213 499.332 102.564Z" fill="#93B3F4"/>
<path d="M431.782 154.376C431.782 154.376 422.315 166.272 426.354 181.589L428.615 181.145C428.615 181.145 427.459 164.452 432.525 156.359C437.591 148.266 431.782 154.376 431.782 154.376Z" fill="#93B3F4"/>
<path d="M387.439 84.867C387.439 84.867 359.004 78.6255 364.746 56.7194C364.746 56.7194 370.385 42.6456 379.223 36.7713C379.223 36.7713 382.388 65.8765 387.769 64.9525C393.151 64.0286 381.904 32.7756 381.904 32.7756C381.904 32.7756 403.773 12.7082 414.117 10.6369C414.117 10.6369 406.39 42.3335 411.362 40.1154C416.333 37.8972 425.924 5.28582 425.924 5.28582C425.924 5.28582 450.704 -7.52746 459.633 6.74519C468.562 21.0178 464.114 30.8542 460.518 33.005C456.921 35.1559 431.871 42.3916 433.5 45.4328C435.128 48.474 453.557 48.5535 462.073 42.7894C462.073 42.7894 459.461 71.5244 445.457 74.3514C431.452 77.1784 424.684 70.0344 416.07 71.9405C407.456 73.8466 401.988 77.9769 406.886 78.9774C411.784 79.9778 425.587 74.125 434.13 77.8453C442.674 81.5657 449.28 83.4596 437.427 89.8815C425.575 96.3034 402.396 101.557 394.911 93.2133L387.439 84.867Z" fill="#ABDAF7"/>
<path d="M449.732 15.1323C449.732 15.1323 387.833 57.7575 387.521 84.7198C387.521 84.7198 391.226 95.6306 388.216 110.318L389.701 115.174C389.701 115.174 391.84 96.5022 395.069 93.0589C395.069 93.0589 373.167 76.3042 449.732 15.1323Z" fill="white"/>
<path d="M388.767 109.944C388.767 109.944 383.546 129.307 394.483 147.12L396.769 145.554C396.769 145.554 388.38 124.719 390.44 112.148C392.5 99.5774 388.767 109.944 388.767 109.944Z" fill="white"/>
<path d="M165.045 73.8931L137.931 282.85C137.719 284.482 137.856 286.141 138.332 287.717C138.808 289.292 139.613 290.746 140.693 291.984C141.772 293.221 143.101 294.212 144.592 294.891C146.082 295.571 147.7 295.922 149.336 295.922H189.116L166.689 73.1396L165.045 73.8931Z" fill="#E0AF14"/>
<path d="M164.474 73.98L152.152 281.531C152.043 283.381 152.317 285.233 152.956 286.973C153.596 288.714 154.588 290.308 155.871 291.655C157.155 293.003 158.703 294.076 160.42 294.81C162.138 295.544 163.988 295.922 165.859 295.922H226.109L164.474 73.98Z" fill="#ECB811"/>
<path d="M163.898 75.6616L169.823 281.531C169.715 283.38 169.986 285.232 170.618 286.973C171.25 288.714 172.23 290.307 173.499 291.655C174.768 293.003 176.298 294.076 177.996 294.81C179.693 295.544 181.522 295.922 183.371 295.922H242.923L163.898 75.6616Z" fill="#EAD48C"/>
<path d="M450.149 295.922H214.491C211.644 295.916 208.89 294.916 206.705 293.094C204.521 291.273 203.044 288.745 202.532 285.95L166.656 90.2125C166.274 88.1263 166.356 85.9818 166.897 83.9308C167.437 81.8797 168.422 79.9723 169.783 78.3435C171.143 76.7147 172.846 75.4042 174.77 74.505C176.694 73.6057 178.793 73.1396 180.918 73.1396H413.8C416.652 73.1392 419.413 74.1372 421.604 75.9599C423.794 77.7826 425.274 80.3145 425.787 83.1146L462.144 281.573C462.465 283.327 462.395 285.13 461.941 286.855C461.486 288.579 460.657 290.183 459.513 291.552C458.368 292.921 456.936 294.022 455.318 294.777C453.7 295.532 451.935 295.923 450.149 295.922Z" fill="white"/>
<path d="M171.234 116.015H431.237L424.57 78.7291C424.29 77.1615 423.474 75.7429 422.263 74.7212C421.052 73.6996 419.524 73.1398 417.946 73.1396H166.103C165.78 73.1398 165.461 73.2116 165.169 73.3499C164.876 73.4882 164.617 73.6896 164.41 73.94C164.203 74.1904 164.054 74.4835 163.971 74.7988C163.889 75.1141 163.876 75.4438 163.934 75.7645L171.234 116.015Z" fill="#EAD48C"/>
<path d="M177.322 62.2264C174.209 62.2297 171.224 63.4262 169.023 65.5535C166.821 67.6808 165.582 70.5652 165.578 73.5741H167.835C167.835 71.8898 168.314 70.2379 169.221 68.7995C170.128 67.3612 171.427 66.192 172.976 65.42C174.525 64.6481 176.264 64.3033 178.002 64.4235C179.74 64.5436 181.411 65.124 182.83 66.1011C184.25 67.0782 185.363 68.4142 186.049 69.9626C186.735 71.511 186.966 73.212 186.718 74.8792C186.47 76.5464 185.752 78.1153 184.642 79.4139C183.532 80.7126 182.074 81.6908 180.427 82.2413C179.605 82.5195 178.746 82.6854 177.877 82.7343V84.9095C178.897 84.8684 179.907 84.6954 180.879 84.395C183.562 83.584 185.855 81.87 187.341 79.5643C188.827 77.2585 189.409 74.514 188.98 71.8292C188.551 69.1444 187.14 66.6973 185.003 64.9324C182.866 63.1676 180.145 62.202 177.335 62.211L177.322 62.2264Z" fill="#ECB811"/>
<path d="M181.551 83.2265C181.551 83.4522 181.516 83.6769 181.448 83.8949C181.272 84.4431 180.886 84.9245 180.351 85.261C179.817 85.5974 179.165 85.7692 178.502 85.7485C177.839 85.7278 177.204 85.5158 176.699 85.1468C176.194 84.7779 175.85 84.2737 175.722 83.7159C175.593 83.1582 175.689 82.5797 175.992 82.0742C176.296 81.5688 176.79 81.166 177.394 80.9312C177.998 80.6964 178.677 80.6434 179.321 80.7808C179.964 80.9182 180.535 81.2379 180.94 81.6881C181.339 82.128 181.554 82.6696 181.551 83.2265Z" fill="#B08B2C"/>
<path d="M217.678 62.2264C214.564 62.2288 211.578 63.425 209.376 65.5524C207.173 67.6798 205.934 70.5647 205.93 73.5741H208.184C208.184 71.1414 209.184 68.8084 210.964 67.0882C212.744 65.368 215.158 64.4016 217.675 64.4016C220.192 64.4016 222.606 65.368 224.386 67.0882C226.166 68.8084 227.166 71.1414 227.166 73.5741C227.169 74.5618 227.004 75.5433 226.679 76.4796C226.216 77.8114 225.444 79.0232 224.421 80.0219C223.399 81.0207 222.153 81.7799 220.78 82.2413C219.958 82.5195 219.1 82.6854 218.23 82.7343V84.9095C219.249 84.8687 220.258 84.6956 221.23 84.395C223.912 83.5841 226.205 81.8706 227.691 79.5656C229.178 77.2605 229.76 74.5167 229.332 71.8323C228.904 69.1479 227.493 66.7008 225.358 64.9355C223.222 63.1701 220.501 62.2034 217.691 62.211L217.678 62.2264Z" fill="#ECB811"/>
<path d="M221.905 83.2327C221.904 83.4585 221.874 83.6832 221.814 83.901C221.643 84.5175 221.245 85.0461 220.699 85.3798C220.153 85.7135 219.501 85.8273 218.875 85.6984C218.248 85.5694 217.694 85.2072 217.325 84.6851C216.955 84.163 216.798 83.52 216.885 82.8863C216.971 82.2526 217.296 81.6754 217.792 81.2718C218.288 80.8681 218.919 80.668 219.557 80.712C220.195 80.7561 220.793 81.0409 221.229 81.5089C221.665 81.9769 221.907 82.593 221.905 83.2327Z" fill="#B08B2C"/>
<path d="M258.459 62.2264C255.454 62.2296 252.574 63.4262 250.449 65.5535C248.325 67.6808 247.129 70.5652 247.125 73.5741H249.3C249.302 71.7849 249.828 70.0355 250.811 68.5419C251.795 67.0482 253.193 65.8755 254.835 65.1686C256.476 64.4617 258.288 64.2515 260.047 64.5639C261.806 64.8763 263.435 65.6976 264.733 66.9265C266.032 68.1554 266.943 69.7381 267.353 71.4794C267.764 73.2207 267.657 75.0443 267.045 76.7253C266.433 78.4062 265.343 79.871 263.91 80.9388C262.476 82.0066 260.762 82.6308 258.978 82.7343V84.9095C259.962 84.8684 260.936 84.6954 261.873 84.395C264.462 83.5841 266.674 81.8706 268.108 79.5656C269.543 77.2605 270.104 74.5167 269.691 71.8323C269.278 69.1479 267.917 66.7008 265.856 64.9355C263.795 63.1701 261.171 62.2034 258.459 62.211V62.2264Z" fill="#ECB811"/>
<path d="M262.259 83.2327C262.259 83.4586 262.229 83.6835 262.168 83.901C261.997 84.5175 261.598 85.0461 261.053 85.3798C260.507 85.7135 259.855 85.8273 259.228 85.6984C258.602 85.5694 258.048 85.2072 257.678 84.6851C257.309 84.163 257.151 83.52 257.238 82.8863C257.325 82.2526 257.649 81.6754 258.145 81.2718C258.641 80.8681 259.272 80.668 259.91 80.712C260.549 80.7561 261.146 81.0409 261.582 81.5089C262.018 81.9769 262.26 82.593 262.259 83.2327Z" fill="#B08B2C"/>
<path d="M298.804 62.2264C295.802 62.2288 292.923 63.4251 290.8 65.5526C288.676 67.6801 287.482 70.565 287.479 73.5741H289.652C289.652 71.1414 290.616 68.8084 292.333 67.0882C294.049 65.368 296.377 64.4017 298.804 64.4017C301.232 64.4017 303.56 65.368 305.276 67.0882C306.992 68.8084 307.957 71.1414 307.957 73.5741C307.959 74.5618 307.8 75.5433 307.486 76.4796C307.04 77.8118 306.295 79.0237 305.308 80.0225C304.322 81.0212 303.12 81.7803 301.796 82.2413C301.003 82.5198 300.175 82.6858 299.336 82.7343V84.9095C300.32 84.8684 301.294 84.6954 302.232 84.395C304.819 83.5841 307.03 81.8703 308.463 79.5649C309.897 77.2595 310.458 74.5154 310.045 71.8307C309.631 69.1461 308.271 66.6991 306.211 64.9339C304.151 63.1688 301.527 62.2027 298.817 62.211L298.804 62.2264Z" fill="#ECB811"/>
<path d="M302.611 83.2212C302.61 83.4469 302.581 83.6716 302.522 83.8896C302.354 84.5068 301.958 85.0373 301.414 85.3736C300.87 85.7098 300.219 85.8268 299.592 85.7007C298.964 85.5747 298.409 85.2151 298.037 84.6947C297.665 84.1743 297.504 83.532 297.588 82.8979C297.672 82.2637 297.993 81.6851 298.488 81.2791C298.982 80.8732 299.612 80.6702 300.251 80.7113C300.889 80.7524 301.488 81.0345 301.926 81.5005C302.364 81.9665 302.609 82.5816 302.611 83.2212Z" fill="#B08B2C"/>
<path d="M339.157 62.2264C336.155 62.2288 333.275 63.4251 331.152 65.5526C329.028 67.6801 327.833 70.565 327.83 73.5741H330.004C330.004 71.8898 330.466 70.2378 331.341 68.7995C332.216 67.3612 333.469 66.1919 334.963 65.42C336.457 64.6481 338.134 64.3033 339.81 64.4235C341.487 64.5436 343.098 65.124 344.467 66.1011C345.837 67.0782 346.911 68.4141 347.572 69.9626C348.234 71.511 348.457 73.212 348.218 74.8792C347.978 76.5464 347.285 78.1153 346.215 79.4139C345.144 80.7126 343.738 81.6908 342.149 82.2413C341.356 82.5195 340.528 82.6854 339.689 82.7343V84.9095C340.672 84.8687 341.646 84.6956 342.583 84.395C345.17 83.5841 347.381 81.8706 348.814 79.5656C350.248 77.2605 350.809 74.5167 350.396 71.8323C349.983 69.1479 348.623 66.7008 346.564 64.9355C344.504 63.1701 341.88 62.2034 339.17 62.211L339.157 62.2264Z" fill="#ECB811"/>
<path d="M342.964 83.2327C342.964 83.4586 342.934 83.6835 342.873 83.901C342.702 84.5175 342.303 85.0461 341.758 85.3798C341.212 85.7135 340.56 85.8273 339.933 85.6984C339.307 85.5694 338.753 85.2072 338.383 84.6851C338.014 84.163 337.857 83.52 337.943 82.8863C338.03 82.2526 338.354 81.6754 338.85 81.2718C339.346 80.8681 339.977 80.668 340.616 80.712C341.254 80.7561 341.851 81.0409 342.287 81.5089C342.723 81.9769 342.965 82.593 342.964 83.2327Z" fill="#B08B2C"/>
<path d="M379.511 62.2264C376.509 62.2297 373.631 63.4262 371.507 65.5535C369.384 67.6808 368.19 70.5652 368.186 73.5741H370.359C370.359 71.8898 370.821 70.2379 371.696 68.7995C372.57 67.3612 373.823 66.1919 375.317 65.42C376.811 64.6481 378.488 64.3033 380.164 64.4235C381.841 64.5436 383.452 65.124 384.82 66.1011C386.189 67.0782 387.264 68.4141 387.925 69.9626C388.587 71.511 388.81 73.212 388.57 74.8792C388.331 76.5464 387.638 78.1153 386.568 79.4139C385.498 80.7126 384.091 81.6908 382.503 82.2413C381.71 82.5201 380.882 82.686 380.043 82.7343V84.9095C381.027 84.8684 382.001 84.6954 382.939 84.395C385.526 83.5841 387.737 81.8703 389.17 79.5649C390.604 77.2595 391.165 74.5154 390.752 71.8307C390.338 69.1461 388.978 66.6991 386.918 64.9339C384.858 63.1688 382.234 62.2027 379.524 62.211L379.511 62.2264Z" fill="#ECB811"/>
<path d="M383.316 83.2265C383.315 83.4522 383.286 83.6769 383.227 83.8949C383.077 84.4431 382.746 84.9245 382.287 85.261C381.829 85.5974 381.271 85.7692 380.702 85.7485C380.134 85.7278 379.59 85.5158 379.157 85.1468C378.724 84.7779 378.429 84.2737 378.319 83.7159C378.209 83.1582 378.291 82.5797 378.551 82.0742C378.811 81.5688 379.235 81.166 379.752 80.9312C380.27 80.6964 380.852 80.6434 381.404 80.7808C381.956 80.9182 382.445 81.2379 382.792 81.6881C383.134 82.128 383.318 82.6696 383.316 83.2265Z" fill="#B08B2C"/>
<path d="M419.863 62.2264C416.86 62.2288 413.982 63.4251 411.858 65.5526C409.735 67.6801 408.54 70.565 408.537 73.5741H410.714C410.714 71.1414 411.678 68.8084 413.394 67.0882C415.111 65.368 417.439 64.4017 419.866 64.4017C422.293 64.4017 424.621 65.368 426.338 67.0882C428.054 68.8084 429.018 71.1414 429.018 73.5741C429.02 74.562 428.86 75.5435 428.545 76.4796C428.099 77.8114 427.354 79.0232 426.368 80.0219C425.382 81.0207 424.181 81.7799 422.857 82.2413C422.064 82.5193 421.237 82.6852 420.398 82.7343V84.9095C421.381 84.8687 422.354 84.6956 423.291 84.395C425.878 83.5841 428.089 81.8703 429.522 79.5649C430.956 77.2595 431.517 74.5154 431.103 71.8307C430.69 69.1461 429.33 66.6991 427.269 64.9339C425.209 63.1688 422.586 62.2027 419.875 62.211L419.863 62.2264Z" fill="#ECB811"/>
<path d="M423.671 83.2327C423.67 83.4585 423.639 83.6832 423.58 83.901C423.409 84.5175 423.01 85.0461 422.465 85.3798C421.919 85.7135 421.267 85.8273 420.641 85.6984C420.014 85.5694 419.46 85.2072 419.09 84.6851C418.721 84.163 418.564 83.52 418.65 82.8863C418.737 82.2526 419.061 81.6754 419.557 81.2718C420.054 80.8681 420.684 80.668 421.323 80.712C421.961 80.7561 422.558 81.0409 422.994 81.5089C423.43 81.9769 423.672 82.593 423.671 83.2327Z" fill="#B08B2C"/>
<path d="M321.379 185.791H308.41C307.645 185.759 306.911 185.462 306.323 184.946C305.736 184.43 305.327 183.724 305.161 182.939L302.661 169.308C302.36 167.723 303.361 166.456 304.86 166.456H317.829C318.593 166.489 319.326 166.787 319.913 167.303C320.501 167.818 320.91 168.523 321.077 169.308L323.574 182.939C323.864 184.504 322.875 185.791 321.379 185.791Z" fill="#FFC300"/>
<path d="M355.008 185.791H342.039C341.274 185.759 340.54 185.462 339.953 184.946C339.365 184.43 338.957 183.724 338.79 182.939L336.29 169.308C335.988 167.723 336.99 166.456 338.489 166.456H351.458C352.222 166.489 352.955 166.787 353.543 167.303C354.13 167.818 354.539 168.523 354.706 169.308L357.203 182.939C357.493 184.504 356.498 185.791 355.008 185.791Z" fill="#FFC300"/>
<path d="M388.545 185.791H375.059C374.264 185.759 373.501 185.462 372.89 184.946C372.279 184.43 371.854 183.724 371.681 182.939L369.081 169.308C368.768 167.723 369.809 166.456 371.368 166.456H384.854C385.649 166.489 386.412 166.786 387.022 167.302C387.633 167.818 388.058 168.523 388.232 169.308L390.832 182.939C391.13 184.504 390.101 185.791 388.545 185.791Z" fill="#FFC300"/>
<path d="M222.18 185.791H209.211C208.446 185.758 207.713 185.461 207.126 184.945C206.539 184.429 206.13 183.724 205.963 182.939L203.466 169.308C203.164 167.723 204.166 166.456 205.661 166.456H218.63C219.395 166.489 220.128 166.786 220.716 167.302C221.303 167.818 221.712 168.523 221.879 169.308L224.379 182.939C224.669 184.504 223.679 185.791 222.18 185.791Z" fill="#FFC300"/>
<path d="M208.208 145.439H201.994C201.627 145.421 201.276 145.291 200.995 145.066C200.714 144.842 200.517 144.536 200.435 144.195L199.237 138.277C199.197 138.126 199.195 137.969 199.23 137.818C199.264 137.667 199.336 137.525 199.438 137.404C199.54 137.284 199.67 137.187 199.818 137.123C199.966 137.058 200.128 137.028 200.29 137.033H206.505C206.872 137.047 207.225 137.176 207.507 137.401C207.789 137.626 207.984 137.934 208.063 138.277L209.262 144.195C209.301 144.345 209.304 144.502 209.269 144.653C209.234 144.805 209.163 144.946 209.061 145.067C208.958 145.188 208.828 145.284 208.68 145.348C208.532 145.413 208.371 145.444 208.208 145.439Z" fill="#FFC300"/>
<path d="M255.714 185.791H242.226C241.431 185.758 240.669 185.461 240.058 184.945C239.447 184.429 239.022 183.724 238.848 182.939L236.251 169.308C235.937 167.723 236.979 166.456 238.535 166.456H252.022C252.818 166.488 253.581 166.785 254.191 167.301C254.802 167.817 255.228 168.523 255.401 169.308L258.001 182.939C258.302 184.504 257.273 185.791 255.714 185.791Z" fill="#FFC300"/>
<path d="M288.593 185.791H275.626C274.861 185.759 274.127 185.462 273.54 184.946C272.952 184.43 272.544 183.724 272.378 182.939L269.878 169.308C269.576 167.723 270.578 166.456 272.076 166.456H285.043C285.808 166.488 286.541 166.785 287.129 167.301C287.716 167.817 288.125 168.523 288.291 169.308L290.791 182.939C291.081 184.504 290.091 185.791 288.593 185.791Z" fill="#FFC300"/>
<path d="M421.421 185.791H408.452C407.687 185.758 406.954 185.461 406.366 184.945C405.779 184.429 405.37 183.724 405.203 182.939L402.706 169.308C402.404 167.723 403.406 166.456 404.902 166.456H417.871C418.636 166.489 419.369 166.786 419.956 167.302C420.543 167.818 420.952 168.523 421.119 169.308L423.619 182.939C423.909 184.504 422.92 185.791 421.421 185.791Z" fill="#FFC300"/>
<path d="M316.336 157.209H303.368C302.603 157.176 301.87 156.879 301.283 156.363C300.695 155.847 300.286 155.141 300.12 154.356L297.62 140.726C297.319 139.141 298.32 137.873 299.819 137.873H312.786C313.551 137.907 314.283 138.204 314.871 138.72C315.458 139.236 315.867 139.941 316.034 140.726L318.534 154.356C318.821 155.919 317.834 157.209 316.336 157.209Z" fill="#FFC300"/>
<path d="M349.212 157.209H336.763C336.029 157.176 335.325 156.879 334.761 156.363C334.197 155.847 333.805 155.141 333.645 154.356L331.245 140.726C330.955 139.141 331.919 137.873 333.355 137.873H345.804C346.539 137.906 347.242 138.204 347.806 138.72C348.37 139.235 348.762 139.941 348.923 140.726L351.323 154.356C351.598 155.919 350.642 157.209 349.212 157.209Z" fill="#FFC300"/>
<path d="M382.66 157.209H369.172C368.376 157.176 367.614 156.878 367.003 156.362C366.392 155.847 365.967 155.141 365.794 154.356L363.196 140.726C362.883 139.141 363.924 137.873 365.48 137.873H378.968C379.763 137.906 380.525 138.204 381.136 138.72C381.747 139.235 382.172 139.941 382.346 140.726L384.946 154.356C385.247 155.919 384.218 157.209 382.66 157.209Z" fill="#FFC300"/>
<path d="M416.287 157.209H402.799C402.003 157.176 401.241 156.878 400.63 156.362C400.019 155.847 399.594 155.141 399.421 154.356L396.823 140.726C396.51 139.141 397.551 137.873 399.107 137.873H412.595C413.39 137.906 414.153 138.203 414.764 138.719C415.375 139.235 415.8 139.94 415.973 140.726L418.573 154.356C418.874 155.919 417.845 157.209 416.287 157.209Z" fill="#FFC300"/>
<path d="M328.015 215.217H314.529C313.733 215.185 312.971 214.901 312.36 214.407C311.749 213.914 311.324 213.239 311.151 212.488L308.554 199.45C308.24 197.934 309.282 196.722 310.837 196.722H324.324C325.119 196.753 325.881 197.038 326.492 197.531C327.103 198.025 327.528 198.699 327.702 199.45L330.302 212.488C330.609 213.986 329.574 215.217 328.015 215.217Z" fill="#FFC300"/>
<path d="M360.891 215.217H347.924C347.159 215.185 346.426 214.901 345.839 214.407C345.251 213.914 344.843 213.239 344.676 212.488L342.179 199.45C341.877 197.934 342.878 196.722 344.377 196.722H357.345C358.11 196.753 358.843 197.037 359.43 197.531C360.018 198.024 360.426 198.699 360.593 199.45L363.093 212.488C363.379 213.986 362.39 215.217 360.891 215.217Z" fill="#FFC300"/>
<path d="M393.681 215.217H380.712C379.947 215.186 379.214 214.902 378.626 214.408C378.039 213.915 377.63 213.24 377.464 212.488L374.964 199.45C374.662 197.934 375.664 196.722 377.163 196.722H390.131C390.896 196.754 391.629 197.039 392.216 197.532C392.803 198.025 393.212 198.7 393.38 199.45L395.877 212.488C396.167 213.986 395.177 215.217 393.681 215.217Z" fill="#FFC300"/>
<path d="M228.064 215.217H215.095C214.33 215.186 213.597 214.902 213.009 214.408C212.421 213.915 212.013 213.24 211.847 212.488L209.347 199.45C209.045 197.934 210.046 196.722 211.545 196.722H224.514C225.279 196.754 226.012 197.039 226.599 197.532C227.186 198.025 227.595 198.7 227.763 199.45L230.26 212.488C230.549 213.986 229.56 215.217 228.064 215.217Z" fill="#FFC300"/>
<path d="M260.851 215.217H247.884C247.119 215.186 246.386 214.901 245.798 214.408C245.211 213.914 244.802 213.239 244.636 212.488L242.136 199.45C241.834 197.934 242.835 196.722 244.334 196.722H257.302C258.066 196.754 258.799 197.039 259.386 197.532C259.974 198.025 260.383 198.7 260.55 199.45L263.05 212.488C263.336 213.986 262.347 215.217 260.851 215.217Z" fill="#FFC300"/>
<path d="M294.388 215.217H280.903C280.107 215.185 279.345 214.901 278.734 214.407C278.123 213.914 277.698 213.239 277.525 212.488L274.925 199.45C274.611 197.934 275.656 196.722 277.211 196.722H290.697C291.492 196.753 292.255 197.038 292.865 197.531C293.476 198.025 293.901 198.699 294.075 199.45L296.675 212.488C296.976 213.986 295.947 215.217 294.388 215.217Z" fill="#FFC300"/>
<path d="M427.219 215.216H413.732C412.936 215.185 412.173 214.9 411.562 214.407C410.951 213.913 410.526 213.238 410.353 212.487L407.753 199.449C407.439 197.933 408.481 196.721 410.04 196.721H423.527C424.323 196.753 425.085 197.038 425.696 197.531C426.306 198.024 426.732 198.699 426.906 199.449L429.503 212.487C429.804 213.985 428.775 215.216 427.219 215.216Z" fill="#FFC300"/>
<path d="M333.15 246.321H320.183C319.418 246.289 318.684 245.991 318.097 245.475C317.51 244.959 317.101 244.254 316.935 243.468L314.435 229.838C314.133 228.253 315.134 226.985 316.633 226.985H329.601C330.365 227.019 331.098 227.317 331.685 227.832C332.272 228.348 332.681 229.053 332.849 229.838L335.349 243.468C335.635 245.034 334.646 246.321 333.15 246.321Z" fill="#FFC300"/>
<path d="M366.688 246.321H353.202C352.406 246.289 351.644 245.991 351.033 245.475C350.422 244.959 349.997 244.254 349.824 243.468L347.224 229.838C346.91 228.253 347.951 226.985 349.51 226.985H362.997C363.792 227.018 364.554 227.316 365.165 227.832C365.776 228.348 366.201 229.053 366.374 229.838L368.974 243.468C369.272 245.034 368.244 246.321 366.688 246.321Z" fill="#FFC300"/>
<path d="M400.314 246.321H386.828C386.033 246.288 385.271 245.991 384.66 245.475C384.049 244.959 383.624 244.254 383.451 243.468L380.851 229.838C380.537 228.253 381.581 226.985 383.137 226.985H396.623C397.418 227.018 398.18 227.316 398.791 227.832C399.402 228.348 399.827 229.053 400.001 229.838L402.6 243.468C402.902 245.034 401.873 246.321 400.314 246.321Z" fill="#FFC300"/>
<path d="M233.857 246.321H220.369C219.574 246.288 218.811 245.991 218.2 245.475C217.59 244.959 217.164 244.254 216.991 243.468L214.394 229.838C214.08 228.253 215.121 226.985 216.677 226.985H230.165C230.96 227.018 231.723 227.315 232.334 227.831C232.945 228.347 233.37 229.053 233.543 229.838L236.143 243.468C236.445 245.034 235.416 246.321 233.857 246.321Z" fill="#FFC300"/>
<path d="M267.486 246.321H254C253.204 246.289 252.441 245.992 251.83 245.476C251.219 244.96 250.793 244.254 250.619 243.468L248.023 229.838C247.709 228.253 248.75 226.985 250.309 226.985H263.794C264.59 227.018 265.352 227.315 265.963 227.831C266.574 228.347 266.999 229.053 267.172 229.838L269.772 243.468C270.073 245.034 269.054 246.321 267.486 246.321Z" fill="#FFC300"/>
<path d="M300.365 246.321H287.396C286.631 246.289 285.897 245.992 285.31 245.476C284.722 244.96 284.314 244.254 284.148 243.468L281.647 229.838C281.346 228.253 282.347 226.985 283.846 226.985H296.815C297.58 227.019 298.313 227.317 298.9 227.832C299.487 228.348 299.896 229.053 300.063 229.838L302.561 243.468C302.85 245.034 301.861 246.321 300.365 246.321Z" fill="#FFC300"/>
<path d="M433.189 246.321H420.221C419.456 246.288 418.723 245.991 418.136 245.475C417.548 244.959 417.139 244.254 416.973 243.468L414.476 229.838C414.174 228.253 415.175 226.985 416.671 226.985H429.639C430.404 227.018 431.138 227.315 431.725 227.831C432.312 228.347 432.721 229.053 432.887 229.838L435.388 243.468C435.68 245.034 434.697 246.321 433.189 246.321Z" fill="#FFC300"/>
<path d="M338.945 274.064H325.458C324.662 274.033 323.9 273.749 323.289 273.255C322.678 272.762 322.253 272.087 322.08 271.336L319.48 258.298C319.166 256.782 320.207 255.569 321.766 255.569H335.253C336.049 255.601 336.811 255.886 337.422 256.379C338.033 256.872 338.458 257.547 338.631 258.298L341.228 271.336C341.533 272.83 340.504 274.064 338.945 274.064Z" fill="#FFC300"/>
<path d="M372.575 274.064H359.087C358.292 274.033 357.529 273.748 356.918 273.255C356.308 272.761 355.882 272.087 355.709 271.336L353.109 258.298C352.795 256.782 353.836 255.569 355.395 255.569H368.883C369.678 255.601 370.441 255.886 371.052 256.379C371.662 256.872 372.088 257.547 372.261 258.298L374.858 271.336C375.159 272.83 374.131 274.064 372.575 274.064Z" fill="#FFC300"/>
<path d="M405.449 274.064H392.481C391.717 274.033 390.984 273.748 390.396 273.255C389.809 272.761 389.4 272.087 389.233 271.336L386.733 258.298C386.432 256.782 387.433 255.569 388.932 255.569H401.9C402.664 255.601 403.397 255.886 403.985 256.379C404.572 256.872 404.981 257.547 405.147 258.298L407.647 271.336C407.934 272.83 406.945 274.064 405.449 274.064Z" fill="#FFC300"/>
<path d="M239.741 274.064H226.253C225.458 274.032 224.695 273.748 224.085 273.254C223.474 272.761 223.048 272.086 222.874 271.336L220.274 258.298C219.976 256.782 221.005 255.569 222.561 255.569H236.049C236.845 255.6 237.608 255.885 238.219 256.378C238.83 256.872 239.255 257.547 239.428 258.298L242.028 271.336C242.329 272.83 241.3 274.064 239.741 274.064Z" fill="#FFC300"/>
<path d="M272.619 274.064H259.651C258.886 274.032 258.153 273.748 257.566 273.254C256.979 272.761 256.57 272.086 256.402 271.336L253.905 258.298C253.604 256.782 254.605 255.569 256.101 255.569H269.07C269.835 255.6 270.568 255.885 271.155 256.378C271.743 256.872 272.152 257.547 272.318 258.298L274.818 271.336C275.108 272.83 274.127 274.064 272.619 274.064Z" fill="#FFC300"/>
<path d="M305.405 274.064H292.437C291.672 274.033 290.938 273.749 290.35 273.255C289.762 272.762 289.353 272.087 289.186 271.336L286.688 258.298C286.387 256.782 287.388 255.569 288.884 255.569H301.852C302.617 255.6 303.351 255.884 303.939 256.378C304.526 256.871 304.935 257.547 305.1 258.298L307.601 271.336C307.893 272.83 306.904 274.064 305.405 274.064Z" fill="#FFC300"/>
<path d="M247.882 140.395H212.745C212.5 140.39 212.268 140.301 212.095 140.146C211.922 139.99 211.823 139.781 211.818 139.561C211.819 139.339 211.916 139.126 212.09 138.967C212.263 138.809 212.498 138.718 212.745 138.713H247.882C248.129 138.718 248.364 138.809 248.537 138.967C248.711 139.126 248.808 139.339 248.809 139.561C248.804 139.781 248.705 139.99 248.532 140.146C248.359 140.301 248.127 140.39 247.882 140.395Z" fill="#EAD48C"/>
<path d="M248.742 145.439H214.403C214.165 145.433 213.937 145.298 213.768 145.063C213.6 144.827 213.503 144.51 213.498 144.178C213.503 143.846 213.6 143.529 213.768 143.294C213.937 143.058 214.165 142.923 214.403 142.917H248.742C248.981 142.923 249.209 143.058 249.377 143.294C249.546 143.529 249.643 143.846 249.648 144.178C249.643 144.51 249.546 144.827 249.377 145.063C249.209 145.298 248.981 145.433 248.742 145.439Z" fill="#EAD48C"/>
<path d="M210.077 109.289H198.423C197.963 109.287 197.522 109.066 197.196 108.672C196.87 108.279 196.686 107.746 196.684 107.189C196.685 106.632 196.869 106.098 197.195 105.704C197.521 105.31 197.962 105.088 198.423 105.086H210.077C210.538 105.088 210.979 105.31 211.305 105.704C211.631 106.098 211.814 106.632 211.816 107.189C211.814 107.746 211.63 108.279 211.304 108.672C210.978 109.066 210.537 109.287 210.077 109.289Z" fill="white"/>
<path d="M243.61 109.289H231.305C230.819 109.287 230.354 109.066 230.011 108.672C229.667 108.279 229.473 107.746 229.471 107.189C229.472 106.632 229.666 106.098 230.01 105.704C230.353 105.31 230.819 105.088 231.305 105.086H243.61C244.096 105.088 244.561 105.31 244.905 105.704C245.248 106.098 245.442 106.632 245.444 107.189C245.441 107.746 245.247 108.279 244.904 108.672C244.56 109.066 244.095 109.287 243.61 109.289Z" fill="white"/>
<path d="M276.392 109.289H264.081C263.598 109.285 263.136 109.061 262.795 108.668C262.454 108.275 262.261 107.744 262.26 107.189C262.261 106.632 262.454 106.099 262.797 105.704C263.14 105.31 263.605 105.088 264.091 105.086H276.402C276.887 105.088 277.353 105.31 277.696 105.704C278.039 106.099 278.232 106.632 278.233 107.189C278.231 107.748 278.036 108.282 277.691 108.676C277.346 109.07 276.879 109.29 276.392 109.289Z" fill="white"/>
<path d="M309.18 109.289H296.879C296.393 109.287 295.927 109.066 295.584 108.672C295.24 108.279 295.045 107.746 295.043 107.189C295.045 106.632 295.239 106.098 295.582 105.704C295.926 105.31 296.392 105.088 296.879 105.086H309.18C309.667 105.088 310.133 105.31 310.477 105.704C310.82 106.098 311.014 106.632 311.016 107.189C311.014 107.746 310.819 108.279 310.475 108.672C310.132 109.066 309.666 109.287 309.18 109.289Z" fill="white"/>
<path d="M341.22 109.289H329.567C329.107 109.287 328.667 109.066 328.342 108.672C328.016 108.279 327.832 107.746 327.83 107.189C327.832 106.632 328.015 106.098 328.34 105.704C328.666 105.31 329.107 105.088 329.567 105.086H341.22C341.681 105.086 342.123 105.307 342.45 105.702C342.777 106.096 342.961 106.631 342.962 107.189C342.96 107.747 342.775 108.281 342.449 108.675C342.122 109.068 341.68 109.289 341.22 109.289Z" fill="white"/>
<path d="M374.017 109.289H362.354C361.894 109.287 361.454 109.066 361.129 108.672C360.804 108.279 360.621 107.746 360.619 107.189C360.62 106.632 360.803 106.099 361.128 105.704C361.453 105.31 361.894 105.088 362.354 105.086H374.017C374.477 105.088 374.918 105.31 375.243 105.704C375.568 106.099 375.751 106.632 375.752 107.189C375.75 107.746 375.567 108.279 375.242 108.672C374.917 109.066 374.476 109.287 374.017 109.289Z" fill="white"/>
<path d="M407.544 109.289H395.242C394.756 109.287 394.291 109.066 393.947 108.672C393.603 108.279 393.409 107.746 393.406 107.189C393.408 106.632 393.602 106.098 393.946 105.704C394.29 105.31 394.756 105.088 395.242 105.086H407.544C408.03 105.088 408.496 105.31 408.84 105.704C409.184 106.098 409.378 106.632 409.379 107.189C409.377 107.746 409.182 108.279 408.839 108.672C408.495 109.066 408.029 109.287 407.544 109.289Z" fill="white"/>
<path d="M331.818 157.209C329.159 157.209 327.223 156.36 326.169 154.715C324.148 151.558 325.707 147.135 330.811 141.565C333.307 138.898 336.024 136.45 338.931 134.245C339.013 134.198 339.11 134.183 339.202 134.203C339.294 134.223 339.376 134.276 339.431 134.352C339.487 134.429 339.513 134.523 339.505 134.617C339.496 134.712 339.453 134.799 339.385 134.864C339.215 134.988 322.434 147.472 326.817 154.291C328.2 156.459 331.165 156.595 333.412 156.335C337.566 155.852 342.984 153.603 347.897 150.316C352.988 146.908 356.575 143.086 357.737 139.805C358.498 137.637 358.264 136.128 357.035 135.273C355.45 134.17 352.134 134.17 348.168 135.273C344.371 136.329 340.549 138.228 338.195 140.23C338.117 140.296 338.016 140.328 337.914 140.319C337.812 140.31 337.718 140.261 337.652 140.183C337.62 140.145 337.595 140.1 337.579 140.052C337.564 140.004 337.558 139.953 337.562 139.902C337.567 139.852 337.581 139.803 337.604 139.758C337.628 139.713 337.66 139.673 337.699 139.641C340.133 137.569 344.066 135.614 347.964 134.526C352.208 133.346 355.669 133.387 357.472 134.638C358.538 135.378 359.574 136.921 358.461 140.062C357.244 143.498 353.549 147.472 348.322 150.96C343.305 154.309 337.76 156.605 333.489 157.1C332.935 157.17 332.377 157.206 331.818 157.209Z" fill="#FF8523"/>
<path d="M400.971 135.389L399.586 132.854C399.586 132.854 400.272 128.333 394.447 125.473C394.447 125.473 392.317 124.63 391.115 126.319C390.008 127.875 393.225 127.593 393.053 130.261C392.881 132.93 394.179 134.482 395.989 135.349L397.48 137.032L400.971 135.389Z" fill="#FC9290"/>
<path d="M454.775 129.508C454.775 129.508 449.863 153.44 422.757 161.26C414.3 163.692 395.086 136.126 395.086 136.126C395.086 136.126 395.764 133.582 399.998 134.166C399.998 134.166 418.705 146.433 421.059 147.764C423.15 148.947 436.893 132.563 443.162 129.924C446.843 128.349 450.988 128.201 454.775 129.508Z" fill="#EEB910"/>
<path d="M376.009 131.635L377.08 137.463L406.404 132.077L405.334 126.248L376.009 131.635Z" fill="#EAD48C"/>
<path d="M487.261 280.549C487.261 280.549 490.659 283.562 489.998 285.701C489.337 287.841 486.274 289.266 485.852 291.881C485.43 294.497 483.782 295.922 482.289 295.922H475.176C475.176 295.922 474.08 294.081 476.728 293.512C479.375 292.942 480.38 289.896 480.213 287.033C480.145 284.811 480.229 282.588 480.464 280.377L486.097 279.108L487.261 280.549Z" fill="#FFA156"/>
<path d="M446.238 288.455C446.238 288.455 446.861 295.22 445.354 295.922L426.189 295.887C426.189 295.887 426.189 293.774 429.265 293.304C432.34 292.834 437.751 291.114 438.667 287.279C439.583 283.444 446.238 288.455 446.238 288.455Z" fill="#FFA156"/>
<path d="M430.395 190.008C430.395 190.008 431.357 202.243 432.474 216.952C434.016 236.928 435.866 261.459 436.039 266.119C436.354 274.192 437.625 287.102 437.625 287.102C437.625 287.102 440.637 290.171 446.668 288.879C446.668 288.879 452.041 270.444 453.577 250.94L453.649 249.977C455.078 230.123 457.297 188.314 457.297 188.314L430.395 190.008Z" fill="#1C2938"/>
<path d="M430.395 189.997C430.395 189.997 431.387 202.151 432.538 216.762L453.682 249.684C455.154 229.963 458.137 188.314 458.137 188.314L430.395 189.997Z" fill="#16202C"/>
<path d="M434.598 192.056C434.598 192.056 452.667 236.118 464.551 256.826C476.434 277.533 480.145 283.312 480.145 283.312C480.145 283.312 486.943 280.665 487.561 278.858C487.561 278.858 483.019 238.871 475.063 229.137C470.564 223.642 465.283 207.104 465.036 201.326C464.789 195.548 463.426 184.11 463.426 184.11L434.598 192.056Z" fill="#1C2938"/>
<path d="M458.14 123.702C458.14 123.702 446.407 129.444 439.645 127.309C440.931 125.795 442.483 124.536 444.222 123.596C443.988 122.219 443.804 121.026 443.701 120.013C443.535 118.799 443.436 117.576 443.404 116.351L447.931 112.744L452.222 109.29C451.896 119.003 458.14 123.702 458.14 123.702Z" fill="#FC9290"/>
<path d="M428.958 191.319C429.155 191.5 429.412 191.602 429.68 191.606C432.299 191.554 439.915 193.005 446.354 192.345C451.807 191.817 456.616 190.235 461.777 187.969C462.471 187.664 464.049 186.806 464.021 186.07C463.994 185.224 463.915 184.036 463.808 182.506C463.592 179.492 463.287 175.211 463.199 170.139C463.126 166.377 463.166 162.178 463.44 157.735C463.455 157.429 463.47 157.124 463.482 156.818C463.561 155.191 463.598 153.548 463.598 151.932C463.65 147.074 463.284 142.22 462.504 137.424C461.195 129.772 458.733 123.783 455.102 121.118C454.618 120.748 451.627 122.199 448.849 123.56C446.524 124.688 443.889 125.005 441.365 124.458L438.961 126.568C436.043 129.231 432.838 132.899 431.422 138.438C430.246 143.138 429.552 151.63 429.177 160.443C428.991 164.453 428.857 168.462 428.802 172.285V172.417C428.775 172.814 428.775 173.211 428.775 173.608C428.626 183.404 428.769 191.185 428.958 191.319Z" fill="#EEB910"/>
<path d="M451.411 112.918C451.411 112.918 448.608 118.623 443.284 120.219C443.128 118.955 443.034 117.683 443.004 116.407L447.283 112.652L451.411 112.918Z" fill="#EA8888"/>
<path d="M441.04 115.794C441.04 115.794 452.519 117.626 453.599 110.745C454.679 103.864 456.884 99.4592 449.599 97.9743C442.315 96.4893 440.475 98.9336 439.535 101.152C438.595 103.371 438.081 115.14 441.04 115.794Z" fill="#FC9290"/>
<path d="M458.068 97.1263C458.175 97.0103 458.424 96.9152 458.978 96.8855C458.661 96.7163 458.306 96.6224 457.942 96.6121C457.829 95.8839 457.42 94.5969 456.095 94.2848C456.31 94.4043 456.494 94.5682 456.633 94.7643C456.772 94.9604 456.863 95.1836 456.897 95.4172C455.365 93.9311 452.076 92.8433 442.971 93.5239C430.974 94.4156 434.927 101.674 436.481 102.539C438.036 103.404 441.945 101.032 444.837 101.249C447.73 101.466 448.299 105.41 449.265 105.957C450.232 106.504 449.86 105.541 451.188 104.973C452.516 104.405 452.642 106.486 452.262 107.838C451.881 109.19 453.703 110.971 453.703 110.971L455.547 109.095C457.391 107.22 459.129 99.2871 458.292 97.578C458.216 97.4294 458.15 97.2778 458.068 97.1263Z" fill="#0B0B36"/>
<path d="M399.207 132.545C399.207 132.545 399.667 130.943 398.408 130.222C397.148 129.501 395.992 127.546 395.461 127.809C394.361 128.358 396.062 130.069 395.751 132.198C395.641 132.944 397.626 134.898 399.207 132.545Z" fill="#FC9290"/>
<path d="M463.733 169.819C463.657 166.086 463.698 161.919 463.981 157.51C463.997 157.207 464.013 156.904 464.025 156.601C462.896 151.216 461.194 146.434 458.677 146.28C458.677 146.292 451.187 157.625 463.733 169.819Z" fill="#C79E07"/>
<path d="M473.271 189.508C473.271 189.508 472.649 195.312 471.977 196.41C471.305 197.509 468.413 201.014 467.187 201.704C465.961 202.393 467.937 197.082 467.685 196.046C467.433 195.011 466.674 197.933 466.129 198.002C465.585 198.072 465.728 195.445 465.709 194.488C465.69 193.531 468.342 191.178 469.279 189.134C470.215 187.091 473.271 189.508 473.271 189.508Z" fill="#FC9290"/>
<path d="M455.324 121.059C455.324 121.059 462.736 124.518 466.289 129.836C471.805 138.093 478.196 168.141 478.314 170.924C478.432 173.707 473.658 193.358 473.658 193.358C473.658 193.358 468.807 193.052 467.556 190.63C467.556 190.63 468.524 170.447 467.91 169.141C467.295 167.835 447.688 142.059 449.907 136.557C452.127 131.056 455.324 121.059 455.324 121.059Z" fill="#EEB910"/>
<path d="M531.101 295.922H510.59C509.49 294.992 511.35 292.883 513.293 292.74C514.347 292.726 515.399 292.85 516.421 293.109C516.705 289.371 518.317 272.569 524.393 273.243C531.223 273.998 524.393 280.645 522.462 284.578C521.031 287.49 519.521 291.668 518.832 293.64C519.386 293.759 519.962 293.878 520.549 293.985C521.443 291.213 524.822 281.892 529.104 282.433C534.134 283.069 532.114 286.807 528.547 289.026C525.933 290.657 522.721 292.978 521.195 294.098C522.519 294.329 523.862 294.436 525.206 294.419C528.717 294.336 530.439 295.367 531.101 295.922Z" fill="#ABDAF7"/>
<path d="M50.4409 294.911C49.3333 293.139 46.0012 288.541 41.5644 289.15C36.7301 289.811 46.9055 293.061 50.0191 294.923C49.4374 294.955 48.8544 294.886 48.2954 294.719C46.2136 293.964 42.6478 295.415 41.5068 295.922H61.3325C61.1068 295.143 60.6006 294.48 59.9153 294.066C59.5876 293.862 58.9351 293.835 58.0945 293.9C59.275 292.483 60.0913 287.962 56.8108 289.125C54.4134 289.975 54.4194 292.74 54.6561 294.382C54.1463 294.465 53.6274 294.546 53.1176 294.623C52.1313 289.496 48.6383 274.474 41.5644 274.072C34.3904 273.666 47.6339 289.654 52.0615 294.765C51.4879 294.833 50.9447 294.886 50.4409 294.911Z" fill="#ABDAF7"/>
<path d="M571.241 296H0.759163C0.557822 296 0.364726 296.369 0.222357 297.025C0.0799883 297.681 0 298.572 0 299.5C0.000735341 300.427 0.080948 301.315 0.223158 301.971C0.365368 302.627 0.558049 302.997 0.759163 303H571.241C571.442 302.997 571.635 302.627 571.777 301.971C571.919 301.315 571.999 300.427 572 299.5C572 298.572 571.92 297.681 571.778 297.025C571.635 296.369 571.442 296 571.241 296Z" fill="#70B2DD"/>
<path d="M405.242 126.254L405.632 126.178C407.24 125.864 408.797 126.913 409.111 128.52C409.425 130.127 408.376 131.684 406.769 131.998L406.379 132.075L405.242 126.254Z" fill="#FF8523"/>
<path d="M372.187 135.296L375.992 131.558L377.066 137.452L372.187 135.296Z" fill="#FF8523"/>
</svg>
