<svg xmlns="http://www.w3.org/2000/svg" data-name="Layer 1" viewBox="0 0 100 125" x="0px" y="0px"><title>travel</title><path d="M24.28271,25.02686a3.95642,3.95642,0,0,0,3.95649-3.95643V10.19012a3.95649,3.95649,0,0,0-7.913,0V21.07043A3.95646,3.95646,0,0,0,24.28271,25.02686Z"/><path d="M65.82562,25.02686a3.95642,3.95642,0,0,0,3.95648-3.95643V10.19012a3.95648,3.95648,0,0,0-7.913,0V21.07043A3.95642,3.95642,0,0,0,65.82562,25.02686Z"/><polygon points="71.266 55.065 67.063 64.186 57.088 65.365 64.465 72.181 62.504 82.031 71.266 77.123 80.028 82.031 78.067 72.181 85.443 65.365 75.469 64.186 71.266 55.065"/><path d="M71.26544,46.29865A23.73386,23.73386,0,1,0,95,70.03223,23.76044,23.76044,0,0,0,71.26544,46.29865Zm0,42.53179A18.798,18.798,0,1,1,90.06415,70.03223,18.81911,18.81911,0,0,1,71.26544,88.83044Z"/><rect x="32.01965" y="15.1405" width="25.90063" height="3.94873"/><path d="M13.40253,83.87531H47.30829a27.55137,27.55137,0,0,1-2.24658-4.93586H13.40253a3.4704,3.4704,0,0,1-3.46668-3.46667V37.38611H80.1731v6.44256A27.54385,27.54385,0,0,1,85.109,46.07526V23.04944a8.41232,8.41232,0,0,0-8.4035-8.40253h-2.975v4.93585h2.975a3.4712,3.4712,0,0,1,3.46759,3.46668v9.40082H9.93585V23.04944a3.47041,3.47041,0,0,1,3.46668-3.46668h2.975V14.64691h-2.975A8.41211,8.41211,0,0,0,5,23.04944V75.47278A8.41207,8.41207,0,0,0,13.40253,83.87531Z"/><text x="0" y="115" fill="#000000" font-size="5px" font-weight="bold" font-family="'Helvetica Neue', Helvetica, Arial-Unicode, Arial, Sans-serif">Created by Lyhn</text><text x="0" y="120" fill="#000000" font-size="5px" font-weight="bold" font-family="'Helvetica Neue', Helvetica, Arial-Unicode, Arial, Sans-serif">from the Noun Project</text></svg>