<svg width="542" height="288" viewBox="0 0 542 288" fill="none" xmlns="http://www.w3.org/2000/svg">
<path d="M108.605 139.486C108.605 139.486 104.314 144.206 102.168 164.589C100.237 184.757 82.6442 195.055 68.6984 196.128H68.4838V195.913L68.0547 193.982L64.6219 180.895C64.6219 180.895 60.3309 145.279 107.318 139.701C107.747 139.701 108.176 139.701 108.605 139.486Z" fill="#ABDAF7"/>
<path d="M72.347 276.584C72.347 276.584 73.2052 171.883 55.3975 137.984C37.8043 103.871 0.257812 98.0776 0.257812 98.0776C0.257812 98.0776 40.3789 108.591 55.3975 148.926C70.416 189.262 65.9105 276.584 65.9105 276.584H72.347Z" fill="#ABDAF7"/>
<path d="M66.5532 256.846C8.83896 256.417 8.19531 192.48 8.19531 189.048V188.833C21.4975 208.786 68.9133 207.07 66.5532 256.846Z" fill="#ABDAF7"/>
<path d="M66.5532 256.845C8.83896 256.415 8.19531 192.479 8.19531 189.046C8.40986 191.836 10.5554 234.317 36.5161 241.611C63.1204 248.906 66.5532 256.845 66.5532 256.845Z" fill="#70B2DD"/>
<path d="M121.477 228.312C114.826 246.548 124.695 265.214 107.746 276.586H78.5668C78.5668 276.586 76.6359 235.606 121.477 228.312Z" fill="#ABDAF7"/>
<path d="M121.48 228.311C114.829 246.548 124.698 265.214 107.749 276.585H96.8066C111.182 264.141 112.898 242.042 121.48 228.311Z" fill="#70B2DD"/>
<path d="M108.604 139.486C108.604 139.486 104.313 144.206 102.168 164.589C100.237 184.757 82.6438 195.055 68.698 196.128L68.2689 195.913L66.3379 194.411C66.767 194.197 67.4106 193.982 67.8398 193.982C96.3751 183.255 96.8042 156.436 106.888 139.701C107.746 139.701 108.175 139.701 108.604 139.486Z" fill="#70B2DD"/>
<path d="M64.4086 167.377C61.4049 168.021 27.5058 175.101 20.4256 141.631C13.56 108.805 1.75967 99.3643 0.257812 98.2915C64.8377 108.375 64.4086 167.377 64.4086 167.377Z" fill="#ABDAF7"/>
<path d="M64.4086 167.377C61.4049 168.021 27.5058 175.101 20.4256 141.631C13.56 108.805 1.75967 99.3643 0.257812 98.2915C32.2259 115.026 16.9928 162.228 64.4086 167.377Z" fill="#70B2DD"/>
<path d="M542 276.584H27.9355V287.526H542V276.584Z" fill="#70B2DD"/>
<path d="M461.33 272.293V267.572C467.338 267.572 472.701 263.496 474.418 257.703L475.276 254.914C475.705 253.197 475.49 251.481 474.418 250.194C473.345 248.906 471.843 248.048 470.127 248.048H466.479V243.328H470.127C473.345 243.328 476.349 244.83 478.28 247.405C480.211 249.979 480.854 253.197 479.996 256.201L479.138 258.99C476.563 266.714 469.483 272.293 461.33 272.293Z" fill="#70B2DD"/>
<path d="M469.266 240.969L468.622 245.689L465.19 269.933C464.546 273.795 461.328 276.584 457.68 276.584H440.087C436.225 276.584 433.007 273.795 432.578 269.933L429.145 245.689L428.501 240.969C428.072 238.609 430.003 236.249 432.578 236.249H465.19C467.55 236.463 469.481 238.609 469.266 240.969Z" fill="#ABDAF7"/>
<path d="M469.266 240.969L468.622 245.689H429.145L428.501 240.969C428.072 238.609 430.003 236.249 432.578 236.249H465.19C467.55 236.463 469.481 238.609 469.266 240.969Z" fill="#70B2DD"/>
<path d="M395.676 276.584C395.676 276.584 401.255 272.508 399.109 253.627C397.178 234.747 395.676 221.444 395.676 221.444L354.482 225.95L359.203 263.711L395.676 276.584Z" fill="#F56867"/>
<path d="M359.632 235.605L364.996 276.584H230.043C230.043 276.584 216.741 177.032 245.061 153.861C257.505 143.777 273.597 139.271 287.543 137.34C305.35 134.766 319.94 136.697 319.94 136.697C319.94 136.697 323.373 136.697 328.522 137.126C340.108 138.198 360.919 141.417 373.148 152.788C390.956 169.094 399.109 234.532 399.109 234.532C399.109 234.532 383.661 237.965 359.632 235.605Z" fill="#F56867"/>
<path d="M359.634 235.605L353.412 234.746L334.317 184.756C334.317 184.756 334.961 241.397 317.153 258.347C299.345 275.297 254.289 267.144 254.289 267.144L248.068 184.97L234.551 227.022L243.562 276.798H365.212L359.634 235.605Z" fill="#F56867"/>
<path d="M328.737 136.911C327.45 148.282 324.232 164.588 314.792 171.454C299.988 182.181 286.471 177.676 280.678 166.734C274.885 155.792 281.751 139.7 283.682 138.413L287.758 137.34C305.566 134.766 320.155 136.697 320.155 136.697C320.155 136.697 323.588 136.482 328.737 136.911Z" fill="#F56867"/>
<path d="M230.256 276.584H210.732C198.073 276.584 188.848 264.998 191.208 252.769L199.361 212.433L230.256 276.584Z" fill="#F29C8B"/>
<path d="M227.895 206.212C227.895 206.212 230.898 199.561 227.895 196.771C224.891 193.982 221.029 194.197 221.029 194.197C221.029 194.197 219.098 187.76 207.298 188.833C195.497 189.906 194.425 201.062 201.076 206.212H227.895Z" fill="#FEB19E"/>
<path d="M220.173 199.131L207.085 164.159C206.442 162.657 204.94 161.799 203.438 162.228C201.722 162.657 200.649 164.588 201.507 166.305L215.453 199.989L220.173 199.131Z" fill="#525559"/>
<path d="M307.279 88.6371C307.279 88.6371 308.352 68.6838 303.417 62.4618C298.268 56.2398 292.904 58.5999 292.904 58.5999C292.904 58.5999 292.904 48.9452 280.675 46.156C268.231 43.3668 254.285 45.9414 243.987 55.3817C233.474 65.0365 218.026 59.8872 218.026 66.7528C218.026 73.6185 227.681 75.9786 227.681 75.9786C227.681 75.9786 214.379 75.1204 214.379 80.9132C214.164 86.7061 223.819 97.0046 236.692 96.5755C236.692 96.5755 239.696 115.671 258.147 115.027L286.253 105.372L304.919 95.5028L307.279 88.6371Z" fill="url(#paint0_linear)"/>
<path d="M320.155 136.482C320.155 136.482 316.078 173.6 296.125 171.24C285.183 169.952 284.325 160.083 285.397 153.861C286.041 149.785 287.328 146.781 287.328 146.781L277.459 133.05L305.351 103.227C309.642 117.387 314.362 129.402 320.155 136.482Z" fill="#FEB19E"/>
<path d="M285.397 153.861C286.041 149.785 287.328 146.781 287.328 146.781L277.459 133.05L305.351 103.227C316.078 142.061 295.481 151.501 285.397 153.861Z" fill="#EDA795"/>
<path d="M245.273 98.5062C245.273 98.5062 265.441 142.918 286.467 141.416C304.06 140.129 309.639 111.165 305.348 103.226C305.348 103.226 313.286 103.87 311.355 94.8588C309.639 85.6331 301.057 76.6219 299.34 94.8588C299.34 94.8588 289.042 98.2916 285.824 76.1929C285.824 76.1929 275.74 92.7133 268.23 94.6442C260.721 96.5752 262.867 89.0659 262.867 89.0659C262.867 89.0659 258.147 96.1461 245.273 98.5062Z" fill="#FEB19E"/>
<path d="M299.342 276.585H224.679C222.319 276.585 219.959 275.083 219.1 272.723L216.74 266.501L196.358 214.365C194.856 210.503 197.645 206.212 201.936 206.212H275.742C278.102 206.212 280.462 207.714 281.32 209.86L305.135 268.003C306.637 272.294 303.633 276.585 299.342 276.585Z" fill="#1B3151"/>
<path d="M294.192 276.584H224.892C222.531 276.584 220.171 275.082 219.313 272.722L216.953 266.5L196.571 214.364C195.069 210.502 197.858 206.211 202.149 206.211H270.591C271.235 206.211 271.878 206.211 272.307 206.426C274.024 206.855 275.526 208.142 276.169 209.859L299.984 268.002C301.272 272.293 298.483 276.584 294.192 276.584Z" fill="#23406D"/>
<path d="M252.357 238.179C253.645 242.685 252.357 246.976 249.354 247.834C246.35 248.692 242.917 245.689 241.63 241.183C240.343 236.678 241.63 232.386 244.634 231.528C247.637 230.67 251.07 233.674 252.357 238.179Z" fill="#4E79B7"/>
<path opacity="0.49" d="M299.342 276.584H224.679C222.319 276.584 219.958 275.082 219.1 272.722L216.74 266.5C253.643 262.638 267.589 224.877 272.094 206.426V206.211H275.527C277.887 206.211 280.247 207.713 281.106 209.859L304.921 268.002C306.637 272.293 303.633 276.584 299.342 276.584Z" fill="#1B3151"/>
<path d="M395.674 276.584C395.674 276.584 387.307 244.401 302.988 228.095C302.988 228.095 296.552 213.291 283.25 212.433L285.181 221.659C285.181 221.659 270.376 224.663 256.645 222.946C242.914 221.23 252.783 235.39 262.224 242.256C271.664 249.121 273.38 253.627 287.755 250.623C301.916 247.619 305.348 246.976 305.348 246.976C305.348 246.976 323.585 266.071 343.538 276.584H395.674Z" fill="#FEB19E"/>
<path d="M192.644 49.3541C196.947 31.1339 185.664 12.8758 167.444 8.57349C149.223 4.27118 130.965 15.5538 126.663 33.774C122.361 51.9943 133.643 70.2524 151.864 74.5547C170.084 78.857 188.342 67.5743 192.644 49.3541Z" fill="#70B2DD"/>
<path d="M159.669 66.5391C173.414 66.5391 184.557 55.3964 184.557 41.6511C184.557 27.9059 173.414 16.7632 159.669 16.7632C145.924 16.7632 134.781 27.9059 134.781 41.6511C134.781 55.3964 145.924 66.5391 159.669 66.5391Z" fill="#ABDAF7"/>
<path d="M173.614 40.3629H161.384V23.8424C161.384 22.5551 160.311 21.4824 159.024 21.4824C157.737 21.4824 156.664 22.5551 156.664 23.8424V44.6539H158.38H161.384H173.614C174.901 44.6539 175.759 43.5812 175.759 42.5084C175.759 41.4357 174.901 40.3629 173.614 40.3629Z" fill="#70B2DD"/>
<defs>
<linearGradient id="paint0_linear" x1="214.111" y1="80.095" x2="307.416" y2="80.095" gradientUnits="userSpaceOnUse">
<stop stop-color="#3F2323"/>
<stop offset="1" stop-color="#5E3434"/>
</linearGradient>
</defs>
</svg>
