<svg width="161" height="52" viewBox="0 0 161 52" fill="none" xmlns="http://www.w3.org/2000/svg">
<rect x="0.5" y="0.5" width="160" height="51" rx="4.5" fill="#121212" stroke="white"/>
<path d="M23.9819 10.2012C23.6613 10.2859 23.4346 10.5685 23.4346 11.0546C23.4346 12.4812 23.4346 25.934 23.4346 25.934C23.4346 25.934 23.4346 40.4721 23.4346 41.1142C23.4346 41.4673 23.5875 41.704 23.8227 41.7918L39.4901 25.9078L23.9819 10.2012Z" fill="#4DB6AC"/>
<path d="M43.8031 21.535L37.354 17.7382C37.354 17.7382 25.5186 10.7691 24.823 10.3598C24.5218 10.1825 24.2252 10.1358 23.9814 10.2007L39.4905 25.9074L43.8031 21.535Z" fill="#DCE775"/>
<path d="M24.5342 41.6764C24.9472 41.4326 36.3998 34.69 43.838 30.3105L39.4897 25.9072L23.8223 41.7912C24.0148 41.8633 24.2617 41.8364 24.5342 41.6764Z" fill="#D32F2F"/>
<path d="M50.1393 25.2647C49.5214 24.9251 43.851 21.5629 43.851 21.5629L43.8036 21.5352L39.4902 25.9075L43.8385 30.3108C47.2793 28.2849 49.8637 26.7641 50.0951 26.6272C50.828 26.1965 50.7573 25.6043 50.1393 25.2647Z" fill="#FBC02D"/>
<path d="M65.908 21.108C64.548 21.108 63.512 20.724 62.8 19.956C62.088 19.188 61.732 18.128 61.732 16.776C61.732 15.88 61.892 15.108 62.212 14.46C62.532 13.812 62.992 13.312 63.592 12.96C64.192 12.608 64.916 12.432 65.764 12.432C66.364 12.432 66.916 12.524 67.42 12.708C67.924 12.884 68.352 13.144 68.704 13.488L68.32 14.28C67.936 13.944 67.54 13.7 67.132 13.548C66.724 13.396 66.264 13.32 65.752 13.32C64.792 13.32 64.056 13.624 63.544 14.232C63.032 14.832 62.776 15.68 62.776 16.776C62.776 17.896 63.04 18.752 63.568 19.344C64.096 19.936 64.884 20.232 65.932 20.232C66.612 20.232 67.264 20.116 67.888 19.884V17.376H65.74V16.596H68.74V20.508C68.516 20.628 68.244 20.732 67.924 20.82C67.612 20.908 67.28 20.976 66.928 21.024C66.576 21.08 66.236 21.108 65.908 21.108ZM70.799 21V12.54H76.139V13.368H71.759V16.296H75.887V17.124H71.759V20.172H76.139V21H70.799ZM79.7668 21V13.392H76.6948V12.54H83.8348V13.392H80.7628V21H79.7668ZM88.0876 21V12.54H89.0716V21H88.0876ZM93.2819 21V13.392H90.2099V12.54H97.3499V13.392H94.2779V21H93.2819ZM105.155 21.108C104.371 21.108 103.687 20.932 103.103 20.58C102.527 20.22 102.079 19.716 101.759 19.068C101.447 18.42 101.291 17.652 101.291 16.764C101.291 15.876 101.447 15.108 101.759 14.46C102.071 13.812 102.515 13.312 103.091 12.96C103.675 12.608 104.363 12.432 105.155 12.432C105.955 12.432 106.643 12.608 107.219 12.96C107.803 13.312 108.251 13.812 108.563 14.46C108.883 15.1 109.043 15.864 109.043 16.752C109.043 17.64 108.883 18.412 108.563 19.068C108.243 19.716 107.791 20.22 107.207 20.58C106.631 20.932 105.947 21.108 105.155 21.108ZM105.155 20.232C106.059 20.232 106.759 19.928 107.255 19.32C107.751 18.712 107.999 17.86 107.999 16.764C107.999 15.668 107.751 14.82 107.255 14.22C106.759 13.612 106.059 13.308 105.155 13.308C104.267 13.308 103.575 13.612 103.079 14.22C102.583 14.82 102.335 15.668 102.335 16.764C102.335 17.852 102.583 18.704 103.079 19.32C103.575 19.928 104.267 20.232 105.155 20.232ZM110.85 21V12.54H111.618L116.718 19.344V12.54H117.63V21H116.886L111.774 14.172V21H110.85ZM66.726 39.126C65.1393 39.126 63.9307 38.678 63.1 37.782C62.2693 36.886 61.854 35.6493 61.854 34.072C61.854 33.0267 62.0407 32.126 62.414 31.37C62.7873 30.614 63.324 30.0307 64.024 29.62C64.724 29.2093 65.5687 29.004 66.558 29.004C67.258 29.004 67.902 29.1113 68.49 29.326C69.078 29.5313 69.5773 29.8347 69.988 30.236L69.54 31.16C69.092 30.768 68.63 30.4833 68.154 30.306C67.678 30.1287 67.1413 30.04 66.544 30.04C65.424 30.04 64.5653 30.3947 63.968 31.104C63.3707 31.804 63.072 32.7933 63.072 34.072C63.072 35.3787 63.38 36.3773 63.996 37.068C64.612 37.7587 65.5313 38.104 66.754 38.104C67.5473 38.104 68.308 37.9687 69.036 37.698V34.772H66.53V33.862H70.03V38.426C69.7687 38.566 69.4513 38.6873 69.078 38.79C68.714 38.8927 68.3267 38.972 67.916 39.028C67.5053 39.0933 67.1087 39.126 66.726 39.126ZM75.2252 39.126C74.5625 39.126 73.9885 38.9813 73.5032 38.692C73.0179 38.4027 72.6399 37.9967 72.3692 37.474C72.1079 36.942 71.9772 36.3167 71.9772 35.598C71.9772 34.8793 72.1079 34.2587 72.3692 33.736C72.6399 33.204 73.0179 32.7933 73.5032 32.504C73.9885 32.2147 74.5625 32.07 75.2252 32.07C75.8785 32.07 76.4479 32.2147 76.9332 32.504C77.4279 32.7933 77.8059 33.204 78.0672 33.736C78.3379 34.2587 78.4732 34.8793 78.4732 35.598C78.4732 36.3167 78.3379 36.942 78.0672 37.474C77.8059 37.9967 77.4279 38.4027 76.9332 38.692C76.4479 38.9813 75.8785 39.126 75.2252 39.126ZM75.2252 38.216C75.8599 38.216 76.3685 37.992 76.7512 37.544C77.1339 37.0867 77.3252 36.438 77.3252 35.598C77.3252 34.7487 77.1339 34.1 76.7512 33.652C76.3685 33.204 75.8599 32.98 75.2252 32.98C74.5812 32.98 74.0679 33.204 73.6852 33.652C73.3119 34.1 73.1252 34.7487 73.1252 35.598C73.1252 36.438 73.3119 37.0867 73.6852 37.544C74.0679 37.992 74.5812 38.216 75.2252 38.216ZM83.1795 39.126C82.5168 39.126 81.9428 38.9813 81.4575 38.692C80.9722 38.4027 80.5942 37.9967 80.3235 37.474C80.0622 36.942 79.9315 36.3167 79.9315 35.598C79.9315 34.8793 80.0622 34.2587 80.3235 33.736C80.5942 33.204 80.9722 32.7933 81.4575 32.504C81.9428 32.2147 82.5168 32.07 83.1795 32.07C83.8328 32.07 84.4022 32.2147 84.8875 32.504C85.3822 32.7933 85.7602 33.204 86.0215 33.736C86.2922 34.2587 86.4275 34.8793 86.4275 35.598C86.4275 36.3167 86.2922 36.942 86.0215 37.474C85.7602 37.9967 85.3822 38.4027 84.8875 38.692C84.4022 38.9813 83.8328 39.126 83.1795 39.126ZM83.1795 38.216C83.8142 38.216 84.3228 37.992 84.7055 37.544C85.0882 37.0867 85.2795 36.438 85.2795 35.598C85.2795 34.7487 85.0882 34.1 84.7055 33.652C84.3228 33.204 83.8142 32.98 83.1795 32.98C82.5355 32.98 82.0222 33.204 81.6395 33.652C81.2662 34.1 81.0795 34.7487 81.0795 35.598C81.0795 36.438 81.2662 37.0867 81.6395 37.544C82.0222 37.992 82.5355 38.216 83.1795 38.216ZM91.3158 41.646C90.7278 41.646 90.1725 41.5667 89.6498 41.408C89.1365 41.2587 88.6791 41.03 88.2778 40.722L88.6558 39.896C89.0758 40.1947 89.4911 40.4093 89.9018 40.54C90.3218 40.6707 90.7745 40.736 91.2598 40.736C92.6038 40.736 93.2758 40.0453 93.2758 38.664V37.46C93.0798 37.8893 92.7718 38.23 92.3518 38.482C91.9411 38.7247 91.4698 38.846 90.9378 38.846C90.3125 38.846 89.7711 38.7013 89.3138 38.412C88.8565 38.1227 88.5018 37.726 88.2498 37.222C88.0071 36.7087 87.8858 36.116 87.8858 35.444C87.8858 34.772 88.0071 34.184 88.2498 33.68C88.5018 33.1667 88.8565 32.77 89.3138 32.49C89.7711 32.21 90.3125 32.07 90.9378 32.07C91.4698 32.07 91.9411 32.1913 92.3518 32.434C92.7718 32.6767 93.0798 33.008 93.2758 33.428V32.196H94.3818V38.51C94.3818 39.5553 94.1205 40.3393 93.5978 40.862C93.0845 41.3847 92.3238 41.646 91.3158 41.646ZM91.1478 37.922C91.8011 37.922 92.3191 37.698 92.7018 37.25C93.0845 36.802 93.2758 36.2 93.2758 35.444C93.2758 34.688 93.0845 34.0907 92.7018 33.652C92.3191 33.204 91.8011 32.98 91.1478 32.98C90.5038 32.98 89.9905 33.204 89.6078 33.652C89.2251 34.0907 89.0338 34.688 89.0338 35.444C89.0338 36.2 89.2251 36.802 89.6078 37.25C89.9905 37.698 90.5038 37.922 91.1478 37.922ZM98.7699 39.126C98.0793 39.126 97.5566 38.9253 97.2019 38.524C96.8566 38.1133 96.6839 37.5207 96.6839 36.746V29.13H97.8179V36.662C97.8179 37.6607 98.2146 38.16 99.0079 38.16C99.2413 38.16 99.4513 38.132 99.6379 38.076L99.6099 39.028C99.3206 39.0933 99.0406 39.126 98.7699 39.126ZM103.999 39.126C102.926 39.126 102.076 38.8133 101.451 38.188C100.826 37.5533 100.513 36.6947 100.513 35.612C100.513 34.912 100.653 34.296 100.933 33.764C101.213 33.2227 101.596 32.8073 102.081 32.518C102.576 32.2193 103.145 32.07 103.789 32.07C104.713 32.07 105.436 32.3687 105.959 32.966C106.482 33.554 106.743 34.366 106.743 35.402V35.836H101.619C101.656 36.6107 101.88 37.2033 102.291 37.614C102.702 38.0153 103.271 38.216 103.999 38.216C104.41 38.216 104.802 38.1553 105.175 38.034C105.548 37.9033 105.903 37.6933 106.239 37.404L106.631 38.202C106.323 38.4913 105.931 38.72 105.455 38.888C104.979 39.0467 104.494 39.126 103.999 39.126ZM103.817 32.91C103.173 32.91 102.664 33.1107 102.291 33.512C101.918 33.9133 101.698 34.4407 101.633 35.094H105.763C105.735 34.4033 105.553 33.8667 105.217 33.484C104.89 33.1013 104.424 32.91 103.817 32.91ZM112.484 39V29.13H116.39C117.454 29.13 118.266 29.3867 118.826 29.9C119.395 30.4133 119.68 31.146 119.68 32.098C119.68 33.0407 119.395 33.7733 118.826 34.296C118.266 34.8093 117.454 35.066 116.39 35.066H113.632V39H112.484ZM113.632 34.1H116.25C117.781 34.1 118.546 33.4327 118.546 32.098C118.546 30.754 117.781 30.082 116.25 30.082H113.632V34.1ZM123.45 39.126C122.76 39.126 122.237 38.9253 121.882 38.524C121.537 38.1133 121.364 37.5207 121.364 36.746V29.13H122.498V36.662C122.498 37.6607 122.895 38.16 123.688 38.16C123.922 38.16 124.132 38.132 124.318 38.076L124.29 39.028C124.001 39.0933 123.721 39.126 123.45 39.126ZM127.824 39.126C127.357 39.126 126.937 39.0373 126.564 38.86C126.2 38.6733 125.911 38.4213 125.696 38.104C125.481 37.7867 125.374 37.432 125.374 37.04C125.374 36.5453 125.5 36.1533 125.752 35.864C126.013 35.5747 126.438 35.3693 127.026 35.248C127.623 35.1173 128.435 35.052 129.462 35.052H129.91V34.618C129.91 34.0393 129.789 33.624 129.546 33.372C129.313 33.1107 128.935 32.98 128.412 32.98C128.001 32.98 127.605 33.0407 127.222 33.162C126.839 33.274 126.447 33.4607 126.046 33.722L125.654 32.896C126.009 32.644 126.438 32.4433 126.942 32.294C127.455 32.1447 127.945 32.07 128.412 32.07C129.289 32.07 129.938 32.2847 130.358 32.714C130.787 33.1433 131.002 33.8107 131.002 34.716V39H129.938V37.824C129.761 38.2253 129.485 38.5427 129.112 38.776C128.748 39.0093 128.319 39.126 127.824 39.126ZM128.006 38.272C128.566 38.272 129.023 38.0807 129.378 37.698C129.733 37.306 129.91 36.8113 129.91 36.214V35.794H129.476C128.72 35.794 128.123 35.8313 127.684 35.906C127.255 35.9713 126.951 36.0927 126.774 36.27C126.606 36.438 126.522 36.6713 126.522 36.97C126.522 37.3527 126.653 37.6653 126.914 37.908C127.185 38.1507 127.549 38.272 128.006 38.272ZM133.996 41.52L135.158 38.888L132.288 32.196H133.52L135.774 37.712L138.042 32.196H139.232L135.186 41.52H133.996Z" fill="white"/>
</svg>
