<svg width="38" height="38" viewBox="0 0 38 38" fill="none" xmlns="http://www.w3.org/2000/svg">
<path d="M5.98092 3.20068C5.66029 3.28539 5.43359 3.56802 5.43359 4.0541C5.43359 5.48068 5.43359 18.9335 5.43359 18.9335C5.43359 18.9335 5.43359 33.4716 5.43359 34.1137C5.43359 34.4668 5.58653 34.7035 5.82177 34.7914L21.4892 18.9074L5.98092 3.20068Z" fill="#4DB6AC"/>
<path d="M25.804 14.535L19.355 10.7382C19.355 10.7382 7.51958 3.76913 6.82398 3.35984C6.52276 3.18251 6.22619 3.1358 5.98242 3.20072L21.4915 18.9074L25.804 14.535Z" fill="#DCE775"/>
<path d="M6.53417 34.6767C6.94719 34.4328 18.3998 27.6902 25.838 23.3107L21.4897 18.9075L5.82227 34.7915C6.0148 34.8635 6.26168 34.8366 6.53417 34.6767Z" fill="#D32F2F"/>
<path d="M32.1393 18.2642C31.5214 17.9246 25.851 14.5624 25.851 14.5624L25.8036 14.5347L21.4902 18.907L25.8385 23.3103C29.2793 21.2844 31.8637 19.7636 32.0951 19.6267C32.828 19.196 32.7573 18.6038 32.1393 18.2642Z" fill="#FBC02D"/>
</svg>
