<svg width="654" height="276" viewBox="0 0 654 276" fill="none" xmlns="http://www.w3.org/2000/svg">
<path d="M167.339 241.171C159.773 239.962 154.06 242.596 148.567 241.839C144.187 241.234 141.903 236.83 136.016 235.581C137.416 234.761 139.048 233.735 139.828 232.988C141.343 231.537 143.519 228.634 139.828 228.523C137.172 228.441 135.103 232.837 134.153 235.31C133.206 235.237 132.255 235.237 131.309 235.31C132.526 231.417 134.894 223.884 135.473 222.436C136.261 220.467 132.949 213.9 129.045 221.27C126.305 226.439 128.166 232.412 129.52 235.519C128.49 235.685 127.474 235.925 126.478 236.237C123.251 228.92 112.987 208.057 101.861 210.653C89.7304 213.478 115.718 227.502 122.273 237.899C116.919 240.366 112.214 243.363 104.082 241.174C82.4684 235.359 80.7539 248.444 80.7539 248.444L177.338 248.476C177.338 248.476 174.906 242.382 167.339 241.171Z" fill="#70B2DD"/>
<path d="M229.812 217.662C225.868 213.898 211.672 237.644 211.672 237.644C211.672 237.644 233.756 221.425 229.812 217.662Z" fill="#70B2DD"/>
<path d="M229.336 228.638C225.845 227.249 214.687 238.942 212.179 241.641C210.075 241.368 207.957 241.215 205.836 241.182C188.168 240.867 180.152 248.822 180.152 248.822L229.435 248.988C229.435 248.988 225.07 243.478 212.684 241.71C215.71 240.29 224.661 236.153 227.916 235.357C231.86 234.393 233.28 230.206 229.336 228.638Z" fill="#70B2DD"/>
<path d="M54.5963 248.649L61.4641 248.699C61.4641 248.699 61.2207 247.048 56.5968 246.622C54.8056 241.674 49.5392 228.36 44.9689 228.994C40.4545 229.615 51.1454 241.826 55.4943 246.573C54.9189 246.573 54.3444 246.618 53.7762 246.708C52.7285 244.635 50.6514 241.705 47.3173 241.838C43.7691 241.98 48.6035 245.201 51.9303 247.178C50.245 247.783 49.3348 248.61 49.3348 248.61L54.5136 248.648L54.6073 248.699C54.6073 248.699 54.6073 248.687 54.5963 248.649Z" fill="#70B2DD"/>
<path d="M541.327 238.404C533.761 237.194 528.048 239.828 522.555 239.071C518.175 238.467 515.891 234.062 510.004 232.814C511.405 231.994 513.036 230.967 513.816 230.221C515.331 228.77 517.507 225.867 513.816 225.756C511.16 225.673 509.091 230.07 508.141 232.543C507.195 232.469 506.244 232.469 505.297 232.543C506.514 228.65 508.882 221.116 509.461 219.669C510.25 217.7 506.938 211.132 503.033 218.503C500.294 223.672 502.154 229.644 503.509 232.751C502.479 232.918 501.462 233.158 500.467 233.469C497.24 226.152 486.976 205.29 475.849 207.885C463.719 210.71 489.706 224.735 496.261 235.131C490.907 237.598 486.202 240.595 478.07 238.406C456.457 232.591 454.742 245.676 454.742 245.676L551.326 245.709C551.326 245.709 548.895 239.614 541.327 238.404Z" fill="#70B2DD"/>
<path d="M603.799 214.895C599.855 211.131 585.658 234.877 585.658 234.877C585.658 234.877 607.742 218.657 603.799 214.895Z" fill="#70B2DD"/>
<path d="M603.324 225.87C599.833 224.482 588.675 236.174 586.167 238.874C584.063 238.6 581.946 238.447 579.824 238.414C562.156 238.1 554.141 246.054 554.141 246.054L603.423 246.221C603.423 246.221 599.058 240.711 586.672 238.943C589.698 237.523 598.649 233.385 601.904 232.589C605.848 231.626 607.268 227.439 603.324 225.87Z" fill="#70B2DD"/>
<path d="M428.583 245.882L435.45 245.931C435.45 245.931 435.207 244.28 430.583 243.855C428.792 238.907 423.526 225.592 418.955 226.226C414.441 226.848 425.132 239.058 429.481 243.805C428.905 243.805 428.331 243.85 427.763 243.94C426.715 241.867 424.638 238.937 421.304 239.07C417.755 239.213 422.59 242.433 425.917 244.411C424.231 245.016 423.321 245.843 423.321 245.843L428.5 245.88L428.594 245.931C428.594 245.931 428.594 245.919 428.583 245.882Z" fill="#70B2DD"/>
<path fill-rule="evenodd" clip-rule="evenodd" d="M89.7883 160.958C99.9698 155.578 102.553 167.278 98.5948 176.971C94.6367 186.664 74.3213 219.267 73.2563 232.199C72.8509 237.207 71.9051 236.662 71.1023 233.147C67.0885 215.617 75.7679 168.36 89.7883 160.958Z" fill="#FFC300"/>
<path fill-rule="evenodd" clip-rule="evenodd" d="M68.2215 116.545C56.5457 106.094 49.2414 120.724 51.2602 134.833C53.279 148.942 69.3183 198.695 66.4332 216.138C65.3125 222.9 66.7352 222.458 68.9606 218.097C80.088 196.247 84.2767 130.931 68.2215 116.545Z" fill="#FE7100"/>
<path fill-rule="evenodd" clip-rule="evenodd" d="M42.7224 150.025C31.4043 145.127 29.6319 157.83 34.671 167.839C39.7101 177.848 64.079 210.949 66.3283 224.655C67.1867 229.963 68.1405 229.3 68.7127 225.484C71.5184 206.454 58.3007 156.764 42.7224 150.025Z" fill="#F56867"/>
<path fill-rule="evenodd" clip-rule="evenodd" d="M67.3598 228.303C67.7095 228.73 68.0353 228.35 68.3215 227.363C67.2962 194.334 38.1187 154.179 38.0074 154.053C37.9223 153.973 37.812 153.926 37.6956 153.919C37.5791 153.912 37.4638 153.945 37.3696 154.014C37.2753 154.082 37.2081 154.181 37.1794 154.293C37.1507 154.406 37.1625 154.525 37.2126 154.629C37.2921 154.772 66.8908 195.479 67.3598 228.303Z" fill="#CB5756"/>
<path fill-rule="evenodd" clip-rule="evenodd" d="M67.7461 216.55C67.9465 217.063 68.3741 216.802 68.9525 215.95C78.2173 184.214 62.9092 137.077 62.8426 136.923C62.7862 136.821 62.6959 136.742 62.5874 136.7C62.4788 136.657 62.3587 136.654 62.2479 136.69C62.137 136.726 62.0423 136.8 61.9802 136.898C61.9181 136.996 61.8924 137.113 61.9076 137.228C61.9392 137.387 77.4766 185.18 67.7461 216.55Z" fill="#DB6100"/>
<path fill-rule="evenodd" clip-rule="evenodd" d="M96.0782 168.335C96.109 167.876 95.6928 167.923 94.9526 168.364C76.6634 189.112 71.4827 230.136 71.4783 230.277C71.4848 230.373 71.525 230.464 71.592 230.535C71.6591 230.605 71.7487 230.65 71.8454 230.661C71.9421 230.673 72.0398 230.65 72.1217 230.598C72.2035 230.546 72.2644 230.466 72.2938 230.374C72.3267 230.242 77.5669 188.641 96.0782 168.335Z" fill="#CA9A00"/>
<path fill-rule="evenodd" clip-rule="evenodd" d="M58.6496 221.013H80.3876L86.0705 226.1L81.4288 243.851H69.5226H57.6163L52.9746 226.1L58.6496 221.013Z" fill="#3B405F"/>
<path d="M86.0699 214.408H52.974C51.982 214.408 51.1777 215.208 51.1777 216.194V224.322C51.1777 225.308 51.982 226.108 52.974 226.108H86.0699C87.062 226.108 87.8662 225.308 87.8662 224.322V216.194C87.8662 215.208 87.062 214.408 86.0699 214.408Z" fill="#3B405F"/>
<path fill-rule="evenodd" clip-rule="evenodd" d="M86.0705 226.1L85.1167 229.749H53.9284L52.9746 226.1H86.0705Z" fill="#101537"/>
<path d="M160.05 45.4341C165.253 15.503 175.609 3.05012 187.553 2.77323C199.497 2.49635 208.488 14.4923 203.299 44.4304C198.111 74.3684 184.189 98.8588 172.273 99.1357C160.357 99.4126 154.862 75.3721 160.05 45.4341Z" fill="#BC265C"/>
<path d="M201.565 76.7082C197.686 56.7657 190.422 42.1324 192.553 40.5472C193.556 39.7858 198.598 42.0147 202.554 49.5459C206.858 57.7763 210.117 71.6066 211.489 76.5421C214.115 85.9631 203.382 86.1015 201.565 76.7082Z" fill="#FE7100"/>
<path d="M191.948 41.2466C192.429 40.8658 203.614 57.7627 206.358 71.0808C207.375 75.9955 209.144 80.0103 211.895 79.595C211.706 85.7902 203.105 84.9457 201.448 76.9576C197.346 57.4027 189.852 42.9217 191.948 41.2466Z" fill="#FE7100"/>
<path d="M212.871 57.3269C213.031 57.3269 213.191 57.3684 213.351 57.3684C213.866 57.3995 214.382 57.3256 214.867 57.1511C215.352 56.9766 215.796 56.7053 216.172 56.3539C216.548 56.0024 216.847 55.5783 217.052 55.1076C217.257 54.6368 217.362 54.1295 217.362 53.6167C217.362 53.1038 217.257 52.5965 217.052 52.1257C216.847 51.655 216.548 51.2309 216.172 50.8794C215.796 50.528 215.352 50.2567 214.867 50.0822C214.382 49.9077 213.866 49.8338 213.351 49.8649C213.191 49.8649 213.031 49.8649 212.871 49.9064V47.7121H213.351C214.168 47.6565 214.988 47.7686 215.76 48.0412C216.532 48.3138 217.239 48.7412 217.837 49.2969C218.436 49.8525 218.913 50.5246 219.24 51.2713C219.566 52.0179 219.734 52.8233 219.734 53.6374C219.734 54.4515 219.566 55.2569 219.24 56.0036C218.913 56.7503 218.436 57.4223 217.837 57.9779C217.239 58.5336 216.532 58.961 215.76 59.2336C214.988 59.5062 214.168 59.6183 213.351 59.5627H212.871V57.3269Z" fill="#EDD0AE"/>
<path d="M175.396 119.626C175.633 115.092 182.597 91.7018 182.597 91.7018C182.597 91.7018 198.205 81.1941 209.975 117.473C221.744 153.751 208.77 193.131 187.159 245.878H185.961C186.679 232.996 175.152 124.166 175.396 119.626Z" fill="#A777B7"/>
<path d="M208.693 111.277C195.405 116.365 175.264 117.32 175.264 117.32C182.145 85.8179 182.445 66.886 181.985 60.9953C181.476 54.3985 188.678 54.4193 193.03 61.1545C198.741 70.0632 208.693 111.277 208.693 111.277Z" fill="#FE7100"/>
<path d="M194.831 81.9139C189.468 82.2877 184.572 101.732 186.752 116.241C180.163 117.092 175.233 117.32 175.233 117.32C182.114 85.8179 182.413 66.886 181.953 60.9953C181.445 54.3985 188.646 54.4193 192.999 61.1545C195.59 65.1555 199.009 75.6909 202.004 86.0256C199.552 83.2844 197.052 81.7547 194.831 81.9139Z" fill="#FE7100"/>
<path d="M205.054 74.8877C204.357 76.3413 184.927 77.3104 183.903 75.5799C182.879 73.8494 179.39 42.9353 180.031 41.5578C180.671 40.1803 192.657 38.9551 194.51 41.1979C196.362 43.4406 206.572 71.7935 205.054 74.8877Z" fill="#FE7100"/>
<path d="M180.033 41.558C180.235 41.1357 188.92 72.0775 189.783 73.5519C190.48 74.7356 200.272 74.7425 206.742 74.168C206.756 74.459 206.706 74.7497 206.595 75.0194C205.899 76.473 184.839 78.5497 183.822 76.8261C182.805 75.1025 179.392 42.9355 180.033 41.558Z" fill="#FE7100"/>
<path d="M176.332 54.0108C176.376 50.9067 176.926 47.8303 177.962 44.9014C177.704 47.6702 177.565 50.6675 177.565 53.7894C177.565 68.3257 180.622 80.0933 184.39 80.0933C185.302 80.0933 186.173 79.4011 186.967 78.1482C187.05 78.5566 187.134 78.965 187.224 79.3803C189.314 89.0712 180.803 93.6121 179.362 83.5336C178.609 78.252 176.012 63.7018 176.332 54.0108Z" fill="#FE7100"/>
<path d="M204.354 77.4912C205.635 70.1676 211.45 55.3405 211.875 54.8975L213.108 55.119C213.477 66.9904 213.533 74.8954 212.014 79.2978C210.392 84.0118 203.225 83.908 204.354 77.4912Z" fill="#FFBB83"/>
<path d="M204.349 77.4903C205.046 73.6208 206.968 67.647 208.716 62.8154C208.716 62.9469 208.716 63.0785 208.716 63.2169C208.716 69.4883 210.506 74.673 212.846 75.5936C212.688 76.8514 212.411 78.0914 212.017 79.2969C210.387 84.0109 203.221 83.9071 204.349 77.4903Z" fill="#FF9D66"/>
<path d="M203.007 45.5938H215.787V60.0955C215.787 60.7106 215.541 61.3004 215.104 61.7352C214.666 62.1701 214.073 62.4144 213.454 62.4144H205.382C205.076 62.4144 204.773 62.3544 204.491 62.2378C204.208 62.1212 203.951 61.9502 203.735 61.7348C203.519 61.5194 203.348 61.2637 203.231 60.9824C203.115 60.7011 203.055 60.3997 203.056 60.0955L203.007 45.5938Z" fill="#EDD0AE"/>
<path d="M205.815 46.3271H215.238V57.0149C215.238 57.4683 215.057 57.9032 214.734 58.2238C214.412 58.5445 213.974 58.7246 213.518 58.7246H207.57C207.115 58.7246 206.679 58.5454 206.357 58.2263C206.034 57.9071 205.852 57.474 205.85 57.0218L205.815 46.3271Z" fill="#F9DEB7"/>
<path d="M181.444 79.5602C187.378 73.2472 202.846 53.1732 203.466 52.834L204.803 53.1386C199.301 68.7479 190.428 84.5233 186.493 88.9881C183.499 92.3937 176.834 84.4679 181.444 79.5602Z" fill="#FFBB83"/>
<path d="M181.447 79.5596C182.617 78.3136 184.17 76.5208 185.904 74.4511C185.913 74.7578 185.984 75.0596 186.112 75.3389C186.24 75.6182 186.423 75.8694 186.649 76.0778C188.335 77.4622 192.444 75.5033 196.984 71.4746C192.91 79.6981 188.829 86.3363 186.496 88.9875C183.501 92.3932 176.836 84.4674 181.447 79.5596Z" fill="#FF9D66"/>
<path d="M180.676 41.094C182.855 40.1318 189.848 39.4742 193.079 40.4018C193.232 40.4048 193.383 40.4234 193.532 40.4572L194.131 47.4346L180.293 41.2048C180.411 41.1408 180.541 41.103 180.676 41.094Z" fill="#FFEBCA"/>
<path d="M191.919 25.9416L191.961 43.9736L183.652 40.4295L184.92 24.1211L191.919 25.9416Z" fill="#ED7656"/>
<path d="M198.51 16.1393C197.221 11.1969 189.184 10.9131 185.89 15.6132C181.788 21.4623 184.421 29.1736 184.873 30.3365C186.837 35.3619 193.551 38.643 193.551 38.643C193.551 38.643 202.222 30.3295 198.51 16.1393Z" fill="#FFBB83"/>
<path d="M191.846 24.481C191.846 23.6988 191.616 23.0551 191.261 23.0412C190.906 23.0274 190.564 23.6504 190.564 24.4257C190.564 25.2009 190.787 25.8516 191.149 25.8654C191.511 25.8793 191.811 25.2632 191.846 24.481Z" fill="#604748"/>
<path d="M198.637 24.7926C198.637 24.0104 198.407 23.3666 198.045 23.3528C197.683 23.3389 197.348 23.955 197.348 24.7372C197.348 25.5194 197.578 26.1631 197.94 26.177C198.302 26.1908 198.602 25.5471 198.637 24.7926Z" fill="#604748"/>
<path d="M192.966 20.4244L190.041 20.8328C189.871 20.8532 189.714 20.935 189.601 21.0627C189.488 21.1904 189.427 21.3549 189.428 21.525L189.47 22.2172C189.479 22.2973 189.504 22.3746 189.545 22.4443C189.586 22.514 189.641 22.5745 189.706 22.6221C189.771 22.6696 189.846 22.703 189.925 22.7203C190.005 22.7376 190.087 22.7384 190.166 22.7225L193.098 22.3141C193.268 22.2937 193.424 22.2119 193.537 22.0842C193.65 21.9565 193.712 21.792 193.711 21.6219L193.662 20.9643C193.659 20.8808 193.637 20.799 193.599 20.7246C193.561 20.6502 193.506 20.585 193.44 20.5336C193.374 20.4822 193.297 20.4458 193.215 20.4269C193.133 20.4081 193.048 20.4072 192.966 20.4244Z" fill="#BC265C"/>
<path d="M199.737 21.7119L197.725 20.8397C197.659 20.8189 197.59 20.8125 197.522 20.821C197.453 20.8295 197.388 20.8527 197.329 20.8889C197.271 20.9252 197.222 20.9736 197.184 21.0308C197.146 21.0881 197.122 21.1528 197.112 21.2205L196.931 21.8434C196.881 21.9845 196.883 22.1384 196.935 22.2786C196.987 22.4188 197.086 22.5366 197.216 22.6118L199.229 23.4771C199.48 23.5878 199.751 23.4148 199.842 23.1033L200.023 22.4733C200.072 22.3332 200.07 22.1805 200.018 22.0415C199.966 21.9025 199.867 21.7859 199.737 21.7119Z" fill="#BC265C"/>
<path d="M195.178 25.5684C195.109 25.6874 195.046 25.8098 194.989 25.9352C195.588 26.9943 196.285 28.8218 194.474 28.6072C194.467 28.6554 194.467 28.7043 194.474 28.7525C197.594 29.5693 195.679 26.226 195.178 25.5684Z" fill="#ED7656"/>
<path d="M196.49 31.0707C196.49 31.2091 196.49 31.3407 196.421 31.4791C196.276 32.1643 195.867 32.7658 195.281 33.1541C194.695 33.5425 193.979 33.6867 193.287 33.5557C192.683 33.3724 192.167 32.9751 191.839 32.4392C191.51 31.9032 191.391 31.266 191.504 30.6484L196.49 31.0707Z" fill="#492E36"/>
<path d="M196.064 31.2437C196.061 31.351 196.047 31.4576 196.023 31.5621C195.865 32.1114 195.496 32.5766 194.995 32.8566C194.494 33.1366 193.902 33.2087 193.348 33.0573C192.853 32.939 192.419 32.6451 192.126 32.2308C191.834 31.8166 191.704 31.3105 191.76 30.8076L196.064 31.2437Z" fill="#F9EBD7"/>
<path d="M181.37 27.3052C180.367 25.3185 180.457 23.2904 181.565 22.7781C182.672 22.2659 184.351 23.4703 185.381 25.4501C186.412 27.4298 186.294 29.4649 185.186 29.9771C184.079 30.4893 182.366 29.2918 181.37 27.3052Z" fill="#FFBB83"/>
<path d="M207.665 49.595C208.884 50.1141 208.139 54.0943 207.575 54.9181C207.01 55.7418 205.186 54.655 203.486 56.7732L201.745 54.9596C203.612 51.0971 206.446 49.0758 207.665 49.595Z" fill="#FFBB83"/>
<path d="M201.361 55.3468C203.06 51.7127 201.744 46.3135 202.231 46.3135C203.06 46.3135 204.188 48.7293 203.756 52.5434C203.324 56.3574 201.361 55.3468 201.361 55.3468Z" fill="#FFBB83"/>
<path d="M207.452 50.7226C211.276 48.9921 213.1 46.9155 212.926 46.3548C212.752 45.7941 206.582 48.9506 205.098 50.8473C203.615 52.7439 207.452 50.7226 207.452 50.7226Z" fill="#FFBB83"/>
<path d="M207.925 52.9714C211.881 51.587 213.65 49.9465 213.497 49.3719C213.343 48.7974 206.95 51.4485 205.321 53.2206C203.691 54.9927 207.925 52.9714 207.925 52.9714Z" fill="#FFBB83"/>
<path d="M206.22 55.3188C210.399 54.8273 212.488 53.6644 212.488 53.076C212.488 52.4877 205.642 53.6229 203.65 54.9865C201.659 56.3502 206.22 55.3188 206.22 55.3188Z" fill="#FFBB83"/>
<path d="M210.626 43.157C210.779 35.9303 201.44 37.0656 203.849 32.6008C206.259 28.1361 220.007 33.736 218.955 29.2298C217.834 24.4258 206.363 26.2809 204.184 24.3843C202.31 22.7368 202.185 18.1959 206.809 16.9569C217.904 13.9735 213.586 5.82617 213.586 5.82617C224.729 17.5937 209.47 18.639 208.62 19.9403C205.639 24.5089 220.592 20.7294 220.278 29.8666C220.097 35.1481 208.829 31.7079 207.332 33.9437C205.994 35.9303 212.666 36.7195 210.626 43.157Z" fill="#FFF1DC"/>
<path d="M201.349 137.749C202.415 159.021 198.236 205.025 187.149 245.54H185.951C193.201 212.037 200.214 162.592 201.349 137.749Z" fill="#966EA4"/>
<path d="M363.742 156.239C364.223 115.523 370.449 77.9083 370.449 77.9083L386.975 77.666C391.05 103.146 403.265 117.669 405.424 149.801C389.615 153.145 363.742 156.239 363.742 156.239Z" fill="#60454B"/>
<path d="M380.861 109.182C392.61 111.418 402.152 129.776 402.451 150.417C403.482 150.216 404.485 150.016 405.446 149.815C403.287 117.669 391.071 103.146 386.997 77.666L370.471 77.9083C370.471 77.9083 367.754 94.3275 365.77 117.212C369.642 111.21 374.976 108.068 380.861 109.182Z" fill="#51373E"/>
<path d="M394.761 103.624C391.725 95.0955 388.869 86.5606 387.246 76.3574L370.01 76.6066C370.01 76.6066 368.248 87.322 366.527 103.603L394.761 103.624Z" fill="#F56867"/>
<path d="M375.823 87.9519C380.984 87.2597 386.27 94.1057 388.227 103.624H394.732C391.695 95.0955 388.84 86.5606 387.217 76.3574L369.98 76.6066C369.98 76.6066 368.218 87.322 366.498 103.603H367.891C368.037 95.1648 371.164 88.568 375.823 87.9519Z" fill="#E46261"/>
<path d="M403.396 46.8351C404.678 27.121 396.891 10.148 385.985 8.9297C375.079 7.71141 365.231 22.6908 363.95 42.4049C362.668 62.1191 370.914 73.3882 381.8 74.6065C392.685 75.8248 402.115 66.5423 403.396 46.8351Z" fill="#E04E2D"/>
<path d="M399.5 24.1517C394.542 8.09246 385.572 -0.0756155 374.429 0.000527473C363.285 0.0766705 354.155 8.43164 359.107 24.5117C364.059 40.5917 375.821 48.8567 386.964 48.739C398.108 48.6213 404.48 40.204 399.5 24.1517Z" fill="#E04E2D"/>
<path d="M379.811 42.952C379.916 48.7389 364.448 73.1669 358.062 78.5938C355.067 81.1412 347.657 77.4378 352.232 70.7926C356.808 64.1474 370.535 44.0595 373.453 40.0585C376.865 35.3861 379.749 39.7955 379.811 42.952Z" fill="#F56867"/>
<path d="M374.365 50.7121C368.794 59.2055 361.551 64.3487 357.936 62.4797L352.232 70.7862C347.657 77.4314 355.067 81.1347 358.062 78.5874C364.448 73.1605 379.916 48.7324 379.811 42.9455C379.785 42.1023 379.601 41.2714 379.268 40.4951C378.13 44.115 376.48 47.5552 374.365 50.7121Z" fill="#E46261"/>
<path d="M374.787 38.7708C367.948 53.5425 364.599 79.7426 365.337 81.1686C366.075 82.5945 386.606 84.332 386.724 81.4801C386.843 78.6282 389.204 41.4635 387.059 39.2553C384.914 37.0472 375.665 36.8741 374.787 38.7708Z" fill="#F56867"/>
<path d="M387.061 39.2483C386.825 39.0223 386.558 38.8312 386.267 38.6807C387.437 46.3711 382.381 75.0078 382.27 77.569C382.158 80.1301 369.811 80.7254 365.256 79.4933C365.186 80.0523 365.215 80.619 365.339 81.1685C366.078 82.5529 388.155 85.3217 388.28 82.4629C388.406 79.6041 389.206 41.4633 387.061 39.2483Z" fill="#E46261"/>
<path d="M387.044 39.2215C390.526 43.3748 394.976 75.7494 393.026 83.4052C392.107 86.9978 383.91 88.6453 383.673 81.1625C383.436 73.6797 384.035 52.9065 383.137 48.6633C382.036 43.4163 385.129 36.9719 387.044 39.2215Z" fill="#F56867"/>
<path d="M391.391 55.3147C392.526 66.4246 391.078 75.3887 387.909 75.804C386.516 75.984 383.828 64.0365 383.73 54.9062C382.887 58.9141 383.563 78.9121 383.633 81.1617C383.869 88.6445 392.067 86.9971 392.986 83.4045C394.163 78.9467 393.139 66.0923 391.391 55.3147Z" fill="#E46261"/>
<path d="M389.774 88.5687C392.786 87.8084 394.336 83.7016 393.236 79.396C392.136 75.0904 388.802 72.2164 385.79 72.9768C382.778 73.7371 381.228 77.8439 382.328 82.1495C383.428 86.4551 386.762 89.3291 389.774 88.5687Z" fill="#FFEBCA"/>
<path d="M360.601 76.0949C362.776 72.2145 362.339 67.8499 359.624 66.3462C356.91 64.8425 352.945 66.7692 350.77 70.6496C348.594 74.5301 349.031 78.8948 351.746 80.3984C354.46 81.9021 358.425 79.9754 360.601 76.0949Z" fill="#FFEBCA"/>
<path d="M390.673 77.0441C386.745 70.6204 377.169 50.8509 376.702 50.4355H375.49C377.294 64.5774 381.974 79.5083 384.544 83.9938C386.473 87.4203 393.73 82.0349 390.673 77.0441Z" fill="#FFBB83"/>
<path d="M378.568 63.0672C377.872 61.4682 377.287 59.8969 376.771 58.374C378.965 69.7955 382.447 80.3447 384.53 83.9858C386.09 86.7546 391.055 83.8058 391.39 79.964C387.928 79.2787 382.531 72.2736 378.568 63.0672Z" fill="#FF9D66"/>
<path d="M360.053 75.0432C363.856 68.4464 376.823 50.3105 376.963 49.7014L376.357 48.6631C364.573 57.3019 353.534 68.8133 350.749 73.2642C348.659 76.6491 357.1 80.1586 360.053 75.0432Z" fill="#FFBB83"/>
<path d="M369.609 29.523C367.902 25.4182 366.28 17.3056 369.449 13C371.907 9.64972 378.962 8.94367 380.856 12.8962C382.653 16.648 382.994 24.2276 381.755 28.3532C380.362 33.081 375.793 36.5974 375.793 36.5974C375.793 36.5974 371.301 33.6071 369.609 29.523Z" fill="#FFBB83"/>
<path d="M384.099 23.0299C384.579 20.9533 384.099 19.1189 383.103 18.8766C382.107 18.6344 380.846 20.1088 380.366 22.1577C379.885 24.2067 380.366 26.0687 381.361 26.311C382.357 26.5533 383.618 25.0788 384.099 23.0299Z" fill="#FFBB83"/>
<path d="M383.337 22.7878C383.623 21.5556 383.337 20.4481 382.738 20.3027C382.139 20.1574 381.387 21.0434 381.102 22.2686C380.816 23.4938 381.102 24.6152 381.701 24.7536C382.3 24.8921 383.052 24.0199 383.337 22.7878Z" fill="#ED7656"/>
<path d="M382.467 23.3077C382.669 22.4216 382.467 21.6325 382.049 21.5287C381.631 21.4248 381.109 22.0617 380.907 22.9477C380.705 23.8337 380.907 24.6159 381.325 24.7197C381.743 24.8236 382.265 24.1868 382.467 23.3077Z" fill="#FFBB83"/>
<path d="M375.266 22.0198C375.001 21.2376 375.085 20.5177 375.454 20.4139C375.823 20.3101 376.331 20.8638 376.596 21.646C376.861 22.4282 376.784 23.1412 376.415 23.2519C376.046 23.3627 375.537 22.8089 375.266 22.0198Z" fill="#604748"/>
<path d="M368.214 24.0408C367.936 23.2379 368.033 22.4972 368.416 22.3934C368.799 22.2895 369.322 22.8433 369.593 23.6393C369.865 24.4354 369.774 25.176 369.398 25.2868C369.022 25.3976 368.486 24.8369 368.214 24.0408Z" fill="#604748"/>
<path d="M372.92 18.1575L376.061 17.8807C376.243 17.8606 376.426 17.9053 376.578 18.0067C376.729 18.108 376.84 18.2596 376.89 18.4344L377.043 19.1266C377.061 19.2095 377.059 19.2953 377.04 19.3777C377.02 19.4601 376.982 19.5371 376.929 19.6033C376.876 19.6694 376.808 19.723 376.732 19.7603C376.655 19.7976 376.571 19.8176 376.486 19.8188L373.338 20.1165C373.155 20.1371 372.97 20.093 372.816 19.9917C372.661 19.8905 372.548 19.7386 372.495 19.5627L372.349 18.8705C372.329 18.7851 372.329 18.6964 372.348 18.6109C372.368 18.5254 372.406 18.4454 372.461 18.3768C372.516 18.3083 372.586 18.2529 372.665 18.2149C372.745 18.177 372.832 18.1573 372.92 18.1575Z" fill="#E04E2D"/>
<path d="M366.074 21.1479L367.982 19.7634C368.048 19.7256 368.121 19.7019 368.197 19.6936C368.273 19.6854 368.349 19.693 368.422 19.7157C368.495 19.7385 368.562 19.7761 368.619 19.826C368.676 19.8759 368.723 19.9371 368.755 20.0057L369.131 20.601C369.228 20.7293 369.273 20.8885 369.259 21.0482C369.245 21.2079 369.172 21.3568 369.054 21.4663L367.153 22.8507C367.087 22.8888 367.014 22.9131 366.938 22.9218C366.862 22.9306 366.785 22.9237 366.712 22.9016C366.638 22.8795 366.571 22.8427 366.512 22.7935C366.454 22.7442 366.407 22.6836 366.373 22.6153L365.99 22.0131C365.902 21.8811 365.863 21.7232 365.878 21.5658C365.893 21.4084 365.962 21.2609 366.074 21.1479Z" fill="#E04E2D"/>
<path d="M366.77 23.5636L370.879 22.3799L372.014 25.7163C372.08 25.9318 372.1 26.1584 372.074 26.3821C372.048 26.6059 371.976 26.8218 371.862 27.0167C371.749 27.2115 371.596 27.3809 371.413 27.5145C371.231 27.648 371.023 27.7428 370.802 27.7929L370.252 27.9729C369.814 28.1266 369.334 28.1075 368.91 27.9194C368.486 27.7314 368.151 27.3887 367.974 26.9623L366.77 23.5636Z" fill="#FFF1DC"/>
<path d="M372.121 22.2418L376.857 20.8574L377.985 24.1662C378.052 24.3591 378.078 24.5635 378.062 24.7669C378.047 24.9702 377.989 25.1683 377.894 25.349C377.799 25.5297 377.668 25.6892 377.509 25.8179C377.35 25.9466 377.166 26.0417 376.968 26.0974L375.318 26.5958C374.908 26.7186 374.467 26.6809 374.085 26.4903C373.703 26.2998 373.409 25.9709 373.263 25.5714L372.121 22.2418Z" fill="#FFF1DC"/>
<path d="M385.166 18.2891L385.688 19.0228L367.142 24.3805L366.85 23.5291L385.166 18.2891Z" fill="#FFF1DC"/>
<path d="M367.404 24.1446L370.378 23.2793L371.207 25.702C371.251 25.8571 371.262 26.0193 371.241 26.179C371.22 26.3386 371.166 26.4923 371.084 26.6308C371.001 26.7693 370.891 26.8896 370.76 26.9846C370.629 27.0796 370.48 27.1472 370.322 27.1833L369.891 27.3149C369.574 27.4292 369.226 27.4173 368.918 27.2818C368.61 27.1464 368.367 26.8977 368.24 26.5881L367.404 24.1446Z" fill="#FFBB83"/>
<path d="M373.041 22.545L376.3 21.5967L377.108 23.9779C377.144 24.1421 377.146 24.3117 377.114 24.4767C377.083 24.6418 377.019 24.7989 376.925 24.9388C376.832 25.0788 376.711 25.1988 376.57 25.2917C376.429 25.3846 376.271 25.4486 376.105 25.48L375.625 25.6253C375.297 25.7541 374.931 25.7543 374.603 25.6258C374.275 25.4973 374.008 25.2498 373.856 24.9331L373.041 22.545Z" fill="#FFBB83"/>
<path d="M376.03 23.334C375.661 23.4448 375.146 22.891 374.881 22.1088C374.881 22.0673 374.881 22.0258 374.881 21.9842L376.19 21.6035C376.19 21.652 376.19 21.6866 376.239 21.7281C376.517 22.5103 376.399 23.2302 376.03 23.334Z" fill="#604748"/>
<path d="M368.991 25.3771C368.608 25.4879 368.079 24.9341 367.807 24.1311C367.804 24.0989 367.804 24.0664 367.807 24.0342L369.2 23.6396L369.242 23.7296C369.465 24.5118 369.374 25.2663 368.991 25.3771Z" fill="#604748"/>
<path d="M372.118 23.9717C372.118 23.9717 372.25 24.0963 372.431 24.3039C372.118 25.5499 371.923 27.6127 373.768 26.9136C373.772 26.9643 373.772 27.0152 373.768 27.0659C370.76 28.741 371.783 24.7816 372.118 23.9717Z" fill="#ED7656"/>
<path d="M372.385 29.9941C372.437 30.1359 372.502 30.2727 372.58 30.4025C372.941 31.0677 373.547 31.5689 374.27 31.8022C374.994 32.0355 375.78 31.9829 376.466 31.6554C377.035 31.3045 377.451 30.7548 377.633 30.1143C377.814 29.4738 377.749 28.7889 377.448 28.1943L372.385 29.9941Z" fill="#492E36"/>
<path d="M372.883 30.0495C372.923 30.1559 372.97 30.2599 373.022 30.3611C373.354 30.8852 373.878 31.2609 374.483 31.4093C375.089 31.5578 375.728 31.4674 376.268 31.1571C376.74 30.9007 377.101 30.4794 377.279 29.9746C377.458 29.4697 377.442 28.917 377.236 28.4229L372.883 30.0495Z" fill="#F9EBD7"/>
<path d="M279.941 117.847L279.781 149.91H236.56L234.902 134.833L279.941 117.847Z" fill="#60454B"/>
<path d="M267.983 133.49C271.819 132.261 275.876 131.869 279.878 132.341L279.955 117.805L234.916 134.785L236.574 149.868H247.57C249.688 143.313 258.017 136.411 267.983 133.49Z" fill="#51373E"/>
<path d="M319.714 104.826C304.622 79.11 281.862 41.966 263.17 33.3965L263.407 81.7335L307.248 110.405L319.714 104.826Z" fill="#FFC300"/>
<path d="M279.498 74.064C273.507 67.2501 268.078 59.9676 263.264 52.2871L263.41 81.7337L307.251 110.405L319.71 104.826L319.292 104.134C312.015 104.653 295.411 92.3591 279.498 74.064Z" fill="#D9A600"/>
<path d="M232.522 142.924L280.911 123.639C279.713 87.4436 276.161 42 261.271 31.8107C249.536 23.7811 225.391 31.5823 220.383 65.1406C216.866 88.648 229.952 137.878 232.522 142.924Z" fill="#FFC300"/>
<path d="M243.663 68.8588C242.172 59.3479 224.162 49.4769 222.01 57.3404C221.324 59.9085 220.785 62.513 220.395 65.1417C216.912 88.6768 229.978 137.824 232.534 142.925L254.381 134.217C247.047 123.682 246.783 88.9606 243.663 68.8588Z" fill="#D9A600"/>
<path d="M254.919 80.2384L263.973 90.3723L268.332 77.9126L274.823 87.1674L277.797 78.6256C277.491 76.1613 277.163 73.7316 276.794 71.3574L273.848 79.9477L267.35 70.7344L262.705 83.9971L253.756 73.9878L248.728 87.2297L238.476 80.7645L236.707 83.5333L250.385 92.1929L254.919 80.2384Z" fill="#FFEBCA"/>
<path d="M244.481 142.814L229.856 144.96C229.856 144.96 208.489 80.5847 223.1 51.8027C237.712 23.0206 246.529 66.2906 243.994 84.8972C241.459 103.85 244.481 142.814 244.481 142.814Z" fill="#FFC300"/>
<path d="M250.96 145.797C246.879 145.935 246.593 143.72 242.234 141.464C237.874 139.207 231.536 140.481 227.455 149.016H255.18C255.18 149.016 255.041 145.659 250.96 145.797Z" fill="#FFBB83"/>
<path d="M248.879 47.373C261.839 47.8783 265.593 34.2625 261.254 31.8121C253.085 27.1951 240.361 28.088 230.896 39.4264C234.79 44.2165 241.385 47.0822 248.879 47.373Z" fill="#FFA539"/>
<path d="M262.315 32.6011C261.959 32.338 261.618 32.0611 261.256 31.8119C254.842 27.3818 244.688 27.7556 235.996 34.5046C237.389 39.3501 242.675 42.9773 248.985 42.9773C256.095 42.9773 261.89 38.3879 262.315 32.6011Z" fill="#F9DEB7"/>
<path d="M247.718 39.4671C240.057 37.6812 240.635 31.6036 240.635 31.6036L247.363 20.0645L253.833 29.4647L247.718 39.4671Z" fill="#ED7656"/>
<path d="M245.583 35.6606C244.448 28.2471 246.474 15.3512 251.036 10.0489C255.068 5.36954 265.264 8.83059 266.776 16.1126C268.287 23.3947 262.2 40.2015 258.418 42.2782C255.925 43.6626 246.565 42.0774 245.583 35.6606Z" fill="#FFBB83"/>
<path d="M250.037 26.2875C249.216 21.7605 249.536 15.1706 250.929 9.54297C250.633 9.77491 250.362 10.0371 250.121 10.3252C245.706 15.579 243.609 29.707 244.953 37.0583C246.11 43.4266 258.541 44.2019 260.972 42.8382C262.734 41.8622 264.349 35.6116 264.635 30.8561C261.417 32.815 251.2 32.6628 250.037 26.2875Z" fill="#99334E"/>
<path d="M243.466 26.8208L245.931 26.004L248.668 26.6962C248.668 26.6962 251.544 12.8174 255.514 12.1598C259.484 11.5022 263.314 15.8355 266.741 15.4271C270.167 15.0187 270.829 10.5124 270.829 10.5124C270.829 10.5124 260.793 -4.02402 252.213 3.59028C241.669 2.46198 243.466 26.8208 243.466 26.8208Z" fill="#99334E"/>
<path d="M248.542 23.152C248.542 20.7016 247.63 18.708 246.502 18.708C245.373 18.708 244.461 20.7016 244.461 23.152C244.461 25.6024 245.373 27.596 246.502 27.596C247.63 27.596 248.542 25.6024 248.542 23.152Z" fill="#FFBB83"/>
<path d="M246.337 25.8031C247.057 25.8031 247.64 24.5324 247.64 22.965C247.64 21.3976 247.057 20.127 246.337 20.127C245.618 20.127 245.035 21.3976 245.035 22.965C245.035 24.5324 245.618 25.8031 246.337 25.8031Z" fill="#ED7656"/>
<path d="M246.668 25.9837C247.137 25.9837 247.518 25.1531 247.518 24.1286C247.518 23.104 247.137 22.2734 246.668 22.2734C246.199 22.2734 245.818 23.104 245.818 24.1286C245.818 25.1531 246.199 25.9837 246.668 25.9837Z" fill="#FFBB83"/>
<path d="M256.453 23.6232C256.606 22.7926 256.321 22.0381 255.812 21.9273C255.304 21.8166 254.767 22.4119 254.614 23.2425C254.461 24.0732 254.74 24.8346 255.248 24.9384C255.756 25.0423 256.293 24.4539 256.453 23.6232Z" fill="#604748"/>
<path d="M257.304 18.7773L253.912 18.535C253.846 18.5294 253.78 18.537 253.717 18.5574C253.653 18.5778 253.595 18.6106 253.545 18.6539C253.495 18.6972 253.454 18.75 253.425 18.8093C253.396 18.8685 253.379 18.933 253.376 18.9988L253.334 20.0302C253.33 20.1656 253.38 20.2971 253.472 20.3967C253.565 20.4963 253.693 20.556 253.829 20.5632L257.22 20.8055C257.286 20.8111 257.353 20.8035 257.416 20.7831C257.479 20.7627 257.537 20.7298 257.587 20.6866C257.637 20.6433 257.678 20.5905 257.707 20.5312C257.736 20.472 257.753 20.4075 257.757 20.3417L257.798 19.3103C257.802 19.1749 257.753 19.0434 257.66 18.9438C257.568 18.8442 257.44 18.7845 257.304 18.7773Z" fill="#99334E"/>
<path d="M263.931 24.765C264.063 23.9274 263.75 23.1799 263.234 23.0899C262.719 22.9999 262.204 23.609 262.071 24.4397C261.939 25.2703 262.252 26.0248 262.768 26.1148C263.283 26.2048 263.799 25.6026 263.931 24.765Z" fill="#604748"/>
<path d="M266.006 21.0616L262.893 19.7326C262.832 19.7042 262.767 19.6883 262.701 19.6859C262.634 19.6835 262.568 19.6946 262.506 19.7186C262.444 19.7426 262.388 19.7789 262.34 19.8254C262.293 19.8718 262.256 19.9274 262.231 19.9887L261.834 20.937C261.805 21.0008 261.789 21.0699 261.787 21.14C261.786 21.2101 261.799 21.2798 261.826 21.3447C261.852 21.4096 261.892 21.4683 261.943 21.5173C261.993 21.5662 262.054 21.6043 262.119 21.6292L265.233 22.9583C265.293 22.9857 265.358 23.0008 265.424 23.0027C265.49 23.0046 265.556 22.9933 265.618 22.9694C265.68 22.9455 265.736 22.9096 265.783 22.8637C265.831 22.8177 265.868 22.7628 265.894 22.7022L266.284 21.7469C266.313 21.6839 266.328 21.6159 266.329 21.5469C266.331 21.4779 266.318 21.4093 266.292 21.3453C266.266 21.2813 266.227 21.2231 266.178 21.1744C266.129 21.1256 266.07 21.0873 266.006 21.0616Z" fill="#99334E"/>
<path d="M258.86 24.6123C259.459 27.568 259.556 29.4162 258.713 30.0046C258.435 30.1444 258.124 30.209 257.812 30.192C257.501 30.175 257.199 30.0769 256.938 29.9077V29.9631C256.938 29.9631 258.56 31.2229 259.486 30.6553C260.413 30.0877 259.939 28.0526 258.86 24.6123Z" fill="#ED7656"/>
<path d="M259.687 33.1058L254.053 32.3721C254.053 32.3721 253.593 34.9402 255.445 36.0754C257.472 37.3214 259.687 33.1058 259.687 33.1058Z" fill="#422931"/>
<path d="M257.792 34.4212C258.142 34.1619 258.446 33.846 258.69 33.4867L254.477 32.7529C254.421 33.0721 254.465 33.4006 254.602 33.6943L257.792 34.4212Z" fill="#FFEFDC"/>
<path d="M412.989 141.319C412.989 141.319 397.117 142.33 395.578 149.771H422.085C421.242 144.87 412.989 141.319 412.989 141.319Z" fill="#FF9D66"/>
<path d="M407.5 146.22L410.85 131.095L423.309 137.29L422.467 149.196L407.5 146.22Z" fill="#FF9D66"/>
<path d="M451.934 125.072C452.177 158.209 470.139 247.746 470.139 247.746H471.58C471.58 247.746 499.131 141.755 494.096 115.901C492.244 106.383 451.934 125.072 451.934 125.072Z" fill="#60454B"/>
<path d="M423.675 141.526L409.238 136.127C409.238 136.127 422.234 41.5369 427.506 37.1413C432.778 32.7458 460.712 37.6951 454.096 78.9577C452.926 86.4405 423.675 141.526 423.675 141.526Z" fill="#FE7100"/>
<path d="M416.709 86.2397L446.74 96.2837C447.701 94.2901 448.599 92.3796 449.428 90.6007L417.74 80.0029C417.405 82.0726 417.078 84.1562 416.709 86.2397Z" fill="#F2CA91"/>
<path d="M418.465 75.8501L451.198 86.7939C451.734 85.5895 452.207 84.482 452.59 83.4852L419.092 72.2783C418.876 73.4828 418.674 74.6526 418.465 75.8501Z" fill="#F2CA91"/>
<path d="M425.758 37.8752C423.112 46.2925 425.285 57.7901 429.241 70.3329C430.835 61.6318 434.206 55.7965 439.067 54.772C449.27 52.6193 462.141 72.458 467.817 99.0734C470.818 113.132 471.208 126.27 469.411 135.85C477.629 133.712 487.282 128.451 495.542 116.469C479.719 57.1671 431.49 19.6216 425.758 37.8752Z" fill="#FE7100"/>
<path d="M424.804 37.5643C423.412 41.9944 423.892 47.6359 425.118 53.4297C432.082 49.9687 434.346 40.4716 434.555 33.501C430.083 32.1789 426.037 33.6533 424.804 37.5643Z" fill="#F2CA91"/>
<path d="M423.371 141.319C423.371 141.319 407.659 142.33 406.162 149.771H432.411C431.547 144.87 423.371 141.319 423.371 141.319Z" fill="#FFBB83"/>
<path d="M424.946 49.3033C431.771 45.4062 432.133 33.5902 432.133 33.5902L416.957 24.3838L412.486 39.467L424.946 49.3033Z" fill="#ED7656"/>
<path d="M418.639 142.288L420.798 131.69L433.25 137.886L432.414 149.792L418.639 142.288Z" fill="#FFBB83"/>
<path d="M433.045 143.395L419.061 137.712C419.061 137.712 428.978 46.6176 433.978 42.0283C438.979 37.4389 465.074 39.2594 460.917 80.3628C460.158 87.7971 433.045 143.395 433.045 143.395Z" fill="#FF8B2E"/>
<path d="M451.399 44.4648C452.577 50.731 453 57.1142 452.659 63.4798C452.36 71.4333 430.004 131.386 426.508 140.73L433.047 143.388C433.047 143.388 460.585 87.7418 461.337 80.3005C463.37 60.2749 457.799 49.6426 451.399 44.4648Z" fill="#FE7100"/>
<path d="M423.28 40.3391C423.537 33.0501 419.031 21.4487 413.996 16.8386C409.546 12.7684 401.662 16.444 400.952 23.6499C400.485 28.4054 409.058 48.3479 412.966 49.9539C416.434 49.4832 423.189 43.0248 423.28 40.3391Z" fill="#FFBB83"/>
<path d="M426.098 29.8734L421.78 30.6209L418.215 28.9458L416.125 31.4585C416.125 31.4585 410.115 16.9221 401.389 21.4838L398.951 19.9886C398.951 19.9886 407.545 11.156 414.531 12.6235C422.971 14.4163 426.098 29.8734 426.098 29.8734Z" fill="#60454B"/>
<path d="M420.525 32.8226C421.813 32.5207 422.389 30.3063 421.813 27.8766C421.236 25.4468 419.725 23.7219 418.437 24.0237C417.149 24.3256 416.573 26.54 417.149 28.9697C417.726 31.3995 419.237 33.1245 420.525 32.8226Z" fill="#FFBB83"/>
<path d="M420.818 27.7416C420.511 26.4471 419.703 25.5334 419.021 25.6649C418.338 25.7964 418.039 27.0009 418.324 28.2953C418.61 29.5897 419.432 30.5035 420.114 30.3373C420.797 30.1712 421.124 29.0291 420.818 27.7416Z" fill="#ED7656"/>
<path d="M420.193 28.8429C419.922 28.0261 419.351 27.4584 418.919 27.6176C418.487 27.7768 418.362 28.5383 418.633 29.362C418.905 30.1857 419.476 30.7464 419.908 30.5872C420.34 30.428 420.493 29.6666 420.193 28.8429Z" fill="#FFBB83"/>
<path d="M472.314 250.405H457.396C457.396 250.405 467.244 244.812 470.065 244.812C472.885 244.812 472.314 250.405 472.314 250.405Z" fill="#FFF4D7"/>
<path d="M454.091 98.3257L425.043 88.6348C424.757 90.7114 424.479 92.8434 424.207 94.9339L451.528 104.057C452.427 102.098 453.283 100.174 454.091 98.3257Z" fill="#FFEBCA"/>
<path d="M457.152 91.182L426.126 80.7988C425.958 81.9963 425.784 83.2008 425.617 84.4122L455.752 94.4976C456.249 93.3486 456.716 92.2434 457.152 91.182Z" fill="#FFEBCA"/>
<path d="M407.69 32.6426C407.224 31.8466 407.238 30.9675 407.69 30.6768C408.143 30.386 408.937 30.7944 409.404 31.5836C409.87 32.3727 409.856 33.2587 409.404 33.5494C408.951 33.8402 408.157 33.4594 407.69 32.6426Z" fill="#604748"/>
<path d="M404.865 28.1706L408.243 26.6962C408.371 26.6423 408.516 26.6403 408.646 26.6907C408.776 26.7411 408.881 26.8399 408.939 26.9662L409.364 28.0114C409.415 28.1494 409.411 28.3017 409.353 28.437C409.295 28.5722 409.186 28.68 409.051 28.7382L405.673 30.2126C405.544 30.2684 405.399 30.2714 405.268 30.2208C405.138 30.1702 405.033 30.0702 404.976 29.9427L404.551 28.8975C404.496 28.7597 404.499 28.606 404.557 28.4698C404.616 28.3336 404.727 28.2261 404.865 28.1706Z" fill="#60454B"/>
<path d="M403.884 33.964C403.535 33.1125 403.438 32.3373 403.675 32.2334C403.911 32.1296 404.371 32.7249 404.733 33.5763C405.095 34.4277 405.179 35.203 404.949 35.3138C404.719 35.4245 404.239 34.8154 403.884 33.964Z" fill="#604748"/>
<path d="M401.198 30.3715L402.382 29.6793C402.486 29.6239 402.695 29.7762 402.855 30.0254L403.468 30.9737C403.628 31.2229 403.677 31.4721 403.573 31.5344L402.389 32.2266C402.284 32.2889 402.075 32.1367 401.915 31.8805L401.302 30.9391C401.142 30.683 401.093 30.4269 401.198 30.3715Z" fill="#60454B"/>
<path d="M406.257 34.1377C405.679 37.3565 405.603 39.3708 406.543 39.9869C406.849 40.1332 407.187 40.1975 407.526 40.1732C407.864 40.1489 408.191 40.0369 408.472 39.8484V39.9038C408.472 39.9038 406.731 41.2882 405.686 40.7552C404.642 40.2222 405.185 37.8964 406.257 34.1377Z" fill="#ED7656"/>
<path d="M408.828 41.8002L413.097 38.7129C413.097 38.7129 415.806 40.7895 413.278 43.0323C411.356 44.7213 408.828 41.8002 408.828 41.8002Z" fill="#422931"/>
<path d="M410.361 42.6804C409.954 42.4272 409.582 42.1224 409.254 41.7736L412.736 39.3301C413.144 39.6997 413.433 40.1816 413.565 40.7145L410.361 42.6804Z" fill="#FFEFDC"/>
<path d="M533.7 83.6874C520.356 80.4687 515.53 88.5329 506.358 102.239C502.806 107.548 495.521 114.145 490.193 119.945L497.332 142.428C516.352 136.032 518.922 131.865 527.655 121.364C536.186 111.078 544.244 86.2348 533.7 83.6874Z" fill="#FFC300"/>
<path d="M533.696 83.6873C528.953 82.5451 525.29 82.8358 522.121 84.2895C522.456 84.4764 523.194 84.5387 523.089 84.9125C516.466 110.033 501.66 133.028 494.473 133.429L497.328 142.428C516.348 136.032 518.918 131.865 527.651 121.364C536.183 111.078 544.24 86.2346 533.696 83.6873Z" fill="#FFAF1C"/>
<path d="M505.918 140.558C511.619 135.199 511.159 125.514 504.89 118.925C498.622 112.337 488.918 111.34 483.217 116.698C477.516 122.056 477.976 131.742 484.245 138.33C490.514 144.919 500.217 145.916 505.918 140.558Z" fill="#202743"/>
<path d="M494.967 142.56C503.805 143.592 512.789 130.239 500.901 118.506C494.194 111.888 481.693 109.694 464.219 104.295L458.32 114.519C466.866 122.313 486.972 141.633 494.967 142.56Z" fill="#FFBB83"/>
<path d="M502.043 119.717C502.816 121.233 503.004 122.59 502.496 123.69C500.406 128.155 487.689 126.702 474.046 120.444C468.979 118.178 464.204 115.315 459.825 111.916L458.32 114.519C466.866 122.313 486.972 141.633 494.967 142.56C503.505 143.557 512.169 131.139 502.043 119.717Z" fill="#FF9D66"/>
<path d="M568.35 187.083H514.383V194.337H568.35V187.083Z" fill="#EB8E44"/>
<path d="M561.896 93.2744H592.554L573.882 186.979H543.225L561.896 93.2744Z" fill="#FFA45B"/>
<path d="M557.72 93.2744H588.378L569.706 186.979H539.049L557.72 93.2744Z" fill="#FFC08D"/>
<path d="M538.082 184.127H546.815L549.559 244.571H547.498L538.082 184.127Z" fill="#EB8E44"/>
<path d="M564.975 184.127H573.715L576.452 244.571H574.397L564.975 184.127Z" fill="#FFA45B"/>
<path d="M542.768 184.092L534.035 184.126L524.904 244.605L526.966 244.598L542.768 184.092Z" fill="#FFA45B"/>
<path d="M519.235 184.127H510.501L501.162 244.571H503.217L519.235 184.127Z" fill="#FFA45B"/>
<path d="M510.67 190.973H572.166V183.753H510.67V190.973Z" fill="#FFA45B"/>
<path d="M539.043 186.979L570.954 189.152L577.974 145.509C576.63 122.236 570.515 102.765 562.151 93.2744H557.715L539.043 186.979Z" fill="#FFA45B"/>
<path d="M551.177 185.844C563.713 182.944 569.598 166.462 571.541 155.968C573.331 146.278 564.869 105.022 549.046 89.2949C541.239 81.5352 517.379 76.932 514.405 94.6318C510.526 117.786 538.293 139.549 512.615 157.554L551.177 185.844Z" fill="#FFC300"/>
<path d="M539.19 142.76C540.095 125.745 535.902 107.291 535.902 107.291L551.92 138.44L539.19 142.76Z" fill="#FFAF1C"/>
<path d="M549.05 89.2944C543.005 83.286 552.274 103.831 552.274 129.442C552.274 150.34 544.92 168.005 534.814 173.806L551.181 185.816C563.717 182.916 569.602 166.434 571.545 155.94C573.335 146.277 564.873 105.021 549.05 89.2944Z" fill="#FFAF1C"/>
<path d="M475.566 181.572C474.906 180.09 474.548 178.492 474.514 176.871C474.481 175.25 474.771 173.639 475.369 172.13C475.967 170.622 476.861 169.247 477.998 168.085C479.135 166.923 480.494 165.997 481.994 165.361C496.09 159.525 518.905 151.212 528.426 154.285C538.872 157.684 539.847 162.19 541.707 168.905C543.796 176.408 538.803 183.94 531.741 183.76L498.312 182.915C497.805 182.915 497.304 183.027 496.846 183.243C496.388 183.459 495.985 183.774 495.664 184.164C495.343 184.554 495.114 185.01 494.993 185.5C494.871 185.989 494.861 186.499 494.962 186.992L505.687 244.57H504.21L475.566 181.572Z" fill="#54333E"/>
<path d="M491.849 177.142C491.853 174.541 492.616 171.997 494.045 169.817C495.473 167.638 497.507 165.917 499.9 164.862C511.356 159.851 532.117 153.296 543.274 156.362C555.044 159.602 556.792 162.897 559.341 169.943C562.162 177.731 557.321 185.649 549.702 185.649H508.125L492.315 244.605H490.832L491.849 177.142Z" fill="#54333E"/>
<path d="M497.796 168.663C496.48 168.407 495.066 169.064 493.673 170.442C492.505 172.486 491.877 174.791 491.849 177.142L491.326 211.947C495.191 210.209 499.377 202.145 501.376 191.969C503.73 179.932 502.128 169.5 497.796 168.663Z" fill="#6B4752"/>
<path d="M506.776 151.136L531.59 151.281L531.43 154.431L504.527 165.001L480.235 164.585L479.531 161.166L506.776 151.136Z" fill="#DDB890"/>
<path d="M479.572 161.353L504.052 161.526L530.551 151.274L506.768 151.136L479.537 161.159L479.572 161.353Z" fill="#EDCCA2"/>
<path d="M539.098 87.1209C529.076 95.4274 534.515 103.872 538.889 119.883C540.581 126.113 543.576 136.808 535.901 142.685L557.268 155.31C562.067 150.686 564.643 129.823 562.262 116.235C559.928 102.917 547.016 80.5449 539.098 87.1209Z" fill="#FFC300"/>
<path d="M562.266 116.235C560.267 104.82 550.496 86.7676 542.766 85.9785C549.876 90.4571 555.065 104.405 555.065 120.914C555.065 132.779 552.383 143.314 548.247 149.987L557.3 155.324C562.071 150.686 564.648 129.823 562.266 116.235Z" fill="#FFC300"/>
<path d="M563.914 144.242C561.518 137.064 552.666 132.564 543.822 134.26C534.608 136.025 528.96 143.778 531.557 151.503C534.155 159.228 543.835 163.506 552.84 161.194C561.483 158.951 566.303 151.406 563.914 144.242Z" fill="#202743"/>
<path d="M553.626 158.557C561.593 154.598 564.386 140.56 547.971 137.223C538.722 135.34 527.551 139.833 509.959 144.838L510.864 155.622C522.314 157.464 546.432 162.115 553.626 158.557Z" fill="#FFBB83"/>
<path d="M553.085 138.85C553.532 139.154 553.906 139.553 554.178 140.019C554.45 140.485 554.614 141.005 554.659 141.542C554.659 145.869 542.986 149.378 528.591 149.378C521.313 149.378 516.751 142.844 510.219 144.747L510.859 155.601C522.309 157.463 546.427 162.115 553.621 158.543C560.627 155.096 563.629 143.785 553.085 138.85Z" fill="#FF9D66"/>
<path d="M499.842 245.124L509.592 244.965C509.592 244.965 506.242 240.888 504.215 240.119C502.189 239.351 499.842 245.124 499.842 245.124Z" fill="#F9DEB7"/>
<path d="M480.881 244.952H493.514C493.514 244.952 494.266 240.287 492.644 239.415C491.021 238.542 480.881 244.952 480.881 244.952Z" fill="#F9DEB7"/>
<path d="M511.824 94.2157C513.475 98.3689 517.723 101.048 523.664 101.048C532.627 101.048 542.224 94.8179 545.985 86.8921C538.219 82.0051 524.332 79.8039 517.765 87.2452C515.548 89.359 513.557 91.6949 511.824 94.2157Z" fill="#FFC300"/>
<path d="M533.898 90.3884C535.566 88.3309 536.576 85.8232 536.795 83.1895C529.057 81.4105 520.373 82.4211 516.361 89.1286C516.778 90.9028 517.781 92.4869 519.21 93.628C523.326 96.8675 529.9 95.4139 533.898 90.3884Z" fill="#202743"/>
<path d="M527.59 67.1855L533.76 82.6426C531.323 87.0727 521.517 94.3548 518.258 87.6126L514.566 77.2295L527.59 67.1855Z" fill="#ED7656"/>
<path d="M508.815 87.882C516.567 87.6328 527.619 84.5248 527.94 77.1528C528.302 69.1162 527.696 49.8382 516.797 50.5443C498.814 51.7003 506.545 77.7966 508.815 87.882Z" fill="#FFBB83"/>
<path d="M520.34 51.1816C522.986 56.304 521.732 60.838 521.593 64.3336C521.315 70.8058 513.445 74.4814 506.271 75.5612C507.107 80.7874 507.818 86.4428 508.528 89.7238C516.398 89.4539 527.84 85.356 528.175 77.6102C528.495 70.252 527.826 54.7258 520.34 51.1816Z" fill="#A5482B"/>
<path d="M528.806 49.6582C526.285 47.6716 524.808 48.6199 524.808 48.6199C522.058 47.1483 518.983 46.3779 515.859 46.3779C512.735 46.3779 509.661 47.1483 506.91 48.6199C503.247 50.5027 505.322 54.7875 507.732 54.9883C512.363 55.3759 517.043 51.2019 520.205 54.1438C521.751 55.5905 523.074 59.3284 521.076 66.9289L528.2 74.4462C529.851 62.8725 531.327 51.6449 528.806 49.6582Z" fill="#A5482B"/>
<path d="M527.44 65.6205C528.004 63.177 527.44 60.955 526.096 60.6573C524.751 60.3597 523.268 62.0902 522.697 64.5268C522.126 66.9634 522.697 69.1923 524.041 69.4899C525.385 69.7876 526.876 68.057 527.44 65.6205Z" fill="#FFBB83"/>
<path d="M526.405 65.9111C526.739 64.4782 526.405 63.1422 525.611 62.99C524.817 62.8377 523.94 63.8344 523.605 65.2742C523.271 66.714 523.605 68.0431 524.399 68.2023C525.193 68.3615 526.071 67.3509 526.405 65.9111Z" fill="#ED7656"/>
<path d="M525.432 66.2364C525.669 65.198 525.432 64.2497 524.861 64.1251C524.29 64.0005 523.656 64.7343 523.412 65.7726C523.169 66.8109 523.412 67.7523 523.983 67.8492C524.555 67.9461 525.188 67.2678 525.432 66.2364Z" fill="#FFBB83"/>
<path d="M450.042 101.748C451.498 102.011 456.749 102.495 459.688 105.97L464.563 104.378C461.422 101.664 455.558 98.6672 450.815 98.6534C447.549 98.6395 448.559 101.478 450.042 101.748Z" fill="#FFBB83"/>
<path d="M465.192 115.301L465.101 104.565C462.143 102.998 458.738 102.474 455.442 103.076C453.626 104.818 451.552 106.272 449.292 107.389C446.109 108.787 452.523 118.527 465.192 115.301Z" fill="#FFBB83"/>
<path d="M443.479 104.384C444.579 104.882 448.417 107.118 453.313 105.907L452.219 109.666C450.29 110.358 445.951 109.34 443.625 108.281C441.299 107.222 442.372 103.872 443.479 104.384Z" fill="#FFBB83"/>
<path d="M443.379 109.839C444.723 110.082 449.493 111.383 454.71 109.334L454.299 112.961C452.286 113.944 447.864 113.653 445.064 113.141C442.264 112.629 442.042 109.597 443.379 109.839Z" fill="#FFBB83"/>
<path d="M448.383 113.985C449.678 113.985 454.351 114.4 458.683 111.59L459.122 115.051C457.499 116.318 453.369 116.795 450.681 116.781C447.993 116.768 447.094 113.985 448.383 113.985Z" fill="#FFBB83"/>
<path d="M512.901 144.429C505.839 145.481 500.825 144.214 498.408 148.118C496.957 150.461 496.037 153.09 495.713 155.822C495.713 155.822 507.699 157.207 513.18 154.978C518.661 152.749 512.901 144.429 512.901 144.429Z" fill="#FF9D66"/>
<path d="M500.913 152.66C497.472 157.505 497.382 159.194 495.898 159.305C494.415 159.416 493.015 158.987 493.384 157.824C493.753 156.661 498.036 148.756 498.315 148.756C498.593 148.756 500.913 152.66 500.913 152.66Z" fill="#FF9D66"/>
<path d="M500.878 150.776C495.495 151.96 494.464 153.185 493.266 152.16C492.068 151.136 491.247 149.814 492.194 149.198C493.141 148.582 500.899 145.674 501.108 145.875C501.317 146.076 500.878 150.776 500.878 150.776Z" fill="#FF9D66"/>
<path d="M505.749 152.548C502.309 157.393 502.218 159.089 500.728 159.193C499.237 159.297 497.851 158.881 498.22 157.718C498.59 156.555 502.866 148.644 503.144 148.644C503.423 148.644 505.749 152.548 505.749 152.548Z" fill="#FF9D66"/>
<path d="M510.858 152.445C507.418 157.291 507.327 158.986 505.837 159.09C504.347 159.194 502.961 158.779 503.33 157.616C503.699 156.453 507.975 148.541 508.254 148.541C508.532 148.541 510.858 152.445 510.858 152.445Z" fill="#FF9D66"/>
<path d="M487.983 131.173L504.475 164.96L479.898 164.613L465.217 131.318L487.983 131.173Z" fill="#DDB890"/>
<path d="M484.991 131.193L501.1 164.925L476.606 164.579L462.287 131.332L484.991 131.193Z" fill="#F9DEB7"/>
<path d="M494.229 150.554C491.91 157.372 485.043 162.667 476.428 164.183L476.602 164.578L501.096 164.924L494.229 150.554Z" fill="#EDCCA2"/>
<path d="M514.008 67.2331C514.008 66.2917 514.46 65.5095 515.046 65.4887C515.631 65.4679 516.104 66.2294 516.111 67.1777C516.118 68.126 515.658 68.9013 515.08 68.9221C514.502 68.9428 514.022 68.1814 514.008 67.2331Z" fill="#604748"/>
<path d="M514.402 61.3502L517.982 62.6446C518.118 62.6932 518.229 62.793 518.292 62.9226C518.354 63.0521 518.363 63.2009 518.316 63.3368L517.884 64.4166C517.824 64.5557 517.712 64.6663 517.572 64.7256C517.432 64.7849 517.275 64.7883 517.132 64.7351L513.559 63.4406C513.491 63.4173 513.429 63.3809 513.375 63.3334C513.322 63.2859 513.278 63.2282 513.247 63.1639C513.216 63.0995 513.198 63.0296 513.194 62.9583C513.19 62.887 513.201 62.8157 513.225 62.7484L513.65 61.6755C513.709 61.5352 513.82 61.423 513.96 61.3623C514.1 61.3017 514.259 61.2973 514.402 61.3502Z" fill="#A5482B"/>
<path d="M505.969 68.3412C505.969 67.3929 506.421 66.6107 507 66.5969C507.578 66.583 508.058 67.3306 508.065 68.2789C508.072 69.2273 507.612 70.0095 507.034 70.0233C506.456 70.0372 505.976 69.2619 505.969 68.3412Z" fill="#604748"/>
<path d="M504.152 64.0425L507.578 62.4366C507.644 62.4036 507.716 62.3841 507.79 62.3792C507.864 62.3742 507.938 62.384 508.008 62.4078C508.078 62.4317 508.143 62.4691 508.198 62.5181C508.253 62.567 508.298 62.6263 508.33 62.6927L508.811 63.7449C508.87 63.8838 508.873 64.0401 508.818 64.1809C508.764 64.3217 508.656 64.4359 508.518 64.4994L505.085 66.1053C505.019 66.1382 504.947 66.1578 504.873 66.1627C504.799 66.1677 504.725 66.1579 504.655 66.1341C504.585 66.1102 504.52 66.0728 504.465 66.0238C504.41 65.9749 504.365 65.9155 504.333 65.8492L503.859 64.797C503.798 64.6583 503.794 64.5013 503.849 64.36C503.904 64.2187 504.013 64.1046 504.152 64.0425Z" fill="#A5482B"/>
<path d="M511.826 67.6621C510.586 70.7978 510.099 72.8191 510.927 73.6289C511.207 73.8378 511.537 73.9701 511.884 74.0126C512.231 74.0551 512.583 74.0063 512.905 73.8712V73.9335C512.905 73.9335 510.865 75.0064 509.952 74.2381C509.04 73.4697 509.966 71.2408 511.826 67.6621Z" fill="#ED7656"/>
<path d="M509.742 77.6164L515.042 77.0488C515.042 77.0488 515.453 81.0636 513.141 82.4342C510.829 83.8048 509.742 77.6164 509.742 77.6164Z" fill="#422931"/>
<path d="M511.056 79.4583C510.793 79.0512 510.591 78.6081 510.457 78.143L514.559 77.5547C514.601 78.0132 514.526 78.4747 514.343 78.8976L511.056 79.4583Z" fill="#FFEFDC"/>
<path fill-rule="evenodd" clip-rule="evenodd" d="M200.293 143.733H217.031C217.695 143.733 218.332 143.996 218.802 144.462C219.271 144.929 219.535 145.562 219.535 146.222C219.535 146.882 219.271 147.515 218.802 147.981C218.332 148.448 217.695 148.71 217.031 148.71H200.293C199.629 148.71 198.992 148.448 198.522 147.981C198.053 147.515 197.789 146.882 197.789 146.222C197.789 145.562 198.053 144.929 198.522 144.462C198.992 143.996 199.629 143.733 200.293 143.733Z" fill="#3B3A3A"/>
<path fill-rule="evenodd" clip-rule="evenodd" d="M237.742 144.026H216.33C215.745 144.028 215.184 144.261 214.77 144.672C214.356 145.083 214.123 145.641 214.12 146.223C214.123 146.804 214.356 147.362 214.77 147.773C215.184 148.185 215.745 148.417 216.33 148.419H237.742V144.026Z" fill="white"/>
<path fill-rule="evenodd" clip-rule="evenodd" d="M237.744 143.733C237.822 143.733 237.896 143.764 237.952 143.819C238.007 143.874 238.038 143.948 238.038 144.026C238.038 144.103 238.007 144.178 237.952 144.232C237.896 144.287 237.822 144.318 237.744 144.318H216.331C215.823 144.318 215.335 144.518 214.974 144.875C214.614 145.232 214.41 145.716 214.408 146.222C214.41 146.728 214.613 147.214 214.972 147.573C215.15 147.751 215.362 147.892 215.595 147.989C215.829 148.085 216.079 148.134 216.331 148.134H237.744C237.786 148.127 237.829 148.129 237.87 148.14C237.911 148.151 237.949 148.172 237.982 148.199C238.015 148.226 238.041 148.261 238.059 148.299C238.077 148.338 238.086 148.379 238.086 148.422C238.086 148.464 238.077 148.506 238.059 148.545C238.041 148.583 238.015 148.617 237.982 148.645C237.949 148.672 237.911 148.692 237.87 148.704C237.829 148.715 237.786 148.717 237.744 148.71H216.331C215.667 148.71 215.031 148.448 214.561 147.981C214.092 147.515 213.828 146.882 213.828 146.222C213.828 145.562 214.092 144.929 214.561 144.462C215.031 143.996 215.667 143.733 216.331 143.733H237.744Z" fill="#242525"/>
<path fill-rule="evenodd" clip-rule="evenodd" d="M201.055 146.222C201.061 145.564 201.327 144.934 201.795 144.469C202.263 144.004 202.897 143.74 203.559 143.733H201.381C200.717 143.733 200.08 143.996 199.61 144.462C199.141 144.929 198.877 145.562 198.877 146.222C198.877 146.882 199.141 147.515 199.61 147.981C200.08 148.448 200.717 148.71 201.381 148.71H203.559C202.895 148.708 202.26 148.445 201.791 147.979C201.321 147.513 201.057 146.881 201.055 146.222Z" fill="#242525"/>
<path fill-rule="evenodd" clip-rule="evenodd" d="M204.211 146.222C204.217 145.564 204.483 144.934 204.951 144.469C205.42 144.004 206.053 143.74 206.715 143.733H204.497C203.833 143.733 203.197 143.996 202.727 144.462C202.257 144.929 201.994 145.562 201.994 146.222C201.994 146.882 202.257 147.515 202.727 147.981C203.197 148.448 203.833 148.71 204.497 148.71H206.675C206.012 148.708 205.376 148.445 204.907 147.979C204.438 147.513 204.174 146.881 204.171 146.222H204.211Z" fill="#242525"/>
<path fill-rule="evenodd" clip-rule="evenodd" d="M233.343 139.389H218.678C218.12 139.422 217.596 139.666 217.213 140.07C216.83 140.475 216.617 141.01 216.617 141.565C216.617 142.121 216.83 142.655 217.213 143.06C217.596 143.464 218.12 143.708 218.678 143.741H233.343C233.901 143.708 234.425 143.464 234.808 143.06C235.191 142.655 235.404 142.121 235.404 141.565C235.404 141.01 235.191 140.475 234.808 140.07C234.425 139.666 233.901 139.422 233.343 139.389Z" fill="#C8DEE1"/>
<path fill-rule="evenodd" clip-rule="evenodd" d="M200.524 139.634H219.297C219.81 139.636 220.301 139.84 220.663 140.201C221.025 140.562 221.229 141.051 221.229 141.561C221.229 142.07 221.025 142.559 220.663 142.919C220.301 143.279 219.809 143.481 219.297 143.481H200.524V139.634Z" fill="white"/>
<path fill-rule="evenodd" clip-rule="evenodd" d="M200.522 139.389C200.455 139.389 200.39 139.415 200.342 139.463C200.295 139.51 200.268 139.574 200.268 139.641C200.268 139.709 200.295 139.773 200.342 139.82C200.39 139.868 200.455 139.894 200.522 139.894H219.296C219.74 139.895 220.166 140.071 220.48 140.384C220.795 140.699 220.972 141.125 220.973 141.569C220.971 142.01 220.793 142.433 220.479 142.745C220.165 143.058 219.74 143.234 219.296 143.236H200.522C200.455 143.236 200.39 143.263 200.342 143.31C200.295 143.357 200.268 143.422 200.268 143.489C200.268 143.556 200.295 143.62 200.342 143.667C200.39 143.715 200.455 143.741 200.522 143.741H219.296C219.854 143.708 220.378 143.464 220.761 143.06C221.144 142.655 221.357 142.121 221.357 141.565C221.357 141.01 221.144 140.475 220.761 140.07C220.378 139.666 219.854 139.422 219.296 139.389H200.522Z" fill="#7A9297"/>
<path fill-rule="evenodd" clip-rule="evenodd" d="M232.666 141.56C232.664 140.984 232.433 140.432 232.024 140.024C231.615 139.615 231.06 139.384 230.48 139.38H232.38C232.938 139.413 233.462 139.657 233.845 140.062C234.228 140.466 234.441 141.001 234.441 141.556C234.441 142.112 234.228 142.646 233.845 143.051C233.462 143.455 232.938 143.699 232.38 143.733H230.48C231.059 143.729 231.612 143.498 232.021 143.092C232.43 142.685 232.662 142.135 232.666 141.56Z" fill="#7A9297"/>
<path fill-rule="evenodd" clip-rule="evenodd" d="M229.935 141.56C229.933 140.983 229.701 140.429 229.291 140.021C228.88 139.612 228.323 139.382 227.742 139.38H229.649C230.207 139.413 230.731 139.657 231.114 140.062C231.498 140.466 231.711 141.001 231.711 141.556C231.711 142.112 231.498 142.646 231.114 143.051C230.731 143.455 230.207 143.699 229.649 143.733H227.742C228.321 143.731 228.877 143.501 229.288 143.095C229.698 142.688 229.931 142.136 229.935 141.56Z" fill="#7A9297"/>
<path fill-rule="evenodd" clip-rule="evenodd" d="M206.239 135.02H217.144C217.726 135.02 218.284 135.249 218.695 135.658C219.107 136.067 219.338 136.622 219.338 137.2C219.338 137.778 219.107 138.333 218.695 138.742C218.284 139.151 217.726 139.38 217.144 139.38H206.239C205.658 139.38 205.1 139.151 204.688 138.742C204.277 138.333 204.046 137.778 204.046 137.2C204.046 136.622 204.277 136.067 204.688 135.658C205.1 135.249 205.658 135.02 206.239 135.02Z" fill="#E9695B"/>
<path fill-rule="evenodd" clip-rule="evenodd" d="M229.621 135.273H216.531C216.017 135.276 215.525 135.479 215.162 135.84C214.798 136.201 214.593 136.69 214.591 137.201C214.593 137.712 214.798 138.201 215.162 138.562C215.525 138.923 216.017 139.126 216.531 139.129H229.621V135.273Z" fill="white"/>
<path fill-rule="evenodd" clip-rule="evenodd" d="M229.619 135.02C229.679 135.03 229.734 135.062 229.774 135.109C229.814 135.156 229.836 135.215 229.836 135.276C229.836 135.338 229.814 135.397 229.774 135.444C229.734 135.491 229.679 135.522 229.619 135.533H216.528C216.102 135.562 215.703 135.751 215.412 136.061C215.121 136.371 214.959 136.78 214.959 137.204C214.959 137.628 215.121 138.037 215.412 138.347C215.703 138.657 216.102 138.846 216.528 138.875H229.619C229.686 138.875 229.751 138.901 229.799 138.949C229.846 138.996 229.873 139.06 229.873 139.127C229.873 139.194 229.846 139.259 229.799 139.306C229.751 139.354 229.686 139.38 229.619 139.38H216.528C215.946 139.38 215.388 139.151 214.977 138.742C214.566 138.333 214.335 137.778 214.335 137.2C214.335 136.622 214.566 136.067 214.977 135.658C215.388 135.249 215.946 135.02 216.528 135.02H229.619Z" fill="#F08A71"/>
<path fill-rule="evenodd" clip-rule="evenodd" d="M206.881 137.2C206.883 136.622 207.114 136.069 207.525 135.66C207.936 135.252 208.493 135.022 209.074 135.02H207.167C206.585 135.02 206.027 135.249 205.616 135.658C205.204 136.067 204.973 136.622 204.973 137.2C204.973 137.778 205.204 138.333 205.616 138.742C206.027 139.151 206.585 139.38 207.167 139.38H209.074C208.493 139.378 207.936 139.148 207.525 138.739C207.114 138.331 206.883 137.778 206.881 137.2Z" fill="#F08A71"/>
<path fill-rule="evenodd" clip-rule="evenodd" d="M209.68 137.2C209.675 136.908 209.729 136.618 209.838 136.347C209.947 136.076 210.109 135.829 210.315 135.62C210.519 135.417 210.76 135.256 211.026 135.147C211.292 135.037 211.577 134.98 211.865 134.98H209.958C209.376 134.98 208.818 135.21 208.407 135.619C207.995 136.028 207.764 136.583 207.764 137.161C207.764 137.739 207.995 138.294 208.407 138.703C208.818 139.111 209.376 139.341 209.958 139.341H211.865C211.577 139.341 211.292 139.285 211.026 139.175C210.76 139.065 210.519 138.904 210.315 138.701C209.918 138.3 209.691 137.763 209.68 137.2Z" fill="#F08A71"/>
<path d="M439.101 110.062H413.556C412.642 110.062 411.902 110.797 411.902 111.705V143.802C411.902 144.709 412.642 145.445 413.556 145.445H439.101C440.014 145.445 440.754 144.709 440.754 143.802V111.705C440.754 110.797 440.014 110.062 439.101 110.062Z" fill="#E4E1E8"/>
<path d="M461.006 110.062H439.514C438.746 110.062 438.123 110.68 438.123 111.444V144.062C438.123 144.826 438.746 145.445 439.514 145.445H461.006C461.774 145.445 462.397 144.826 462.397 144.062V111.444C462.397 110.68 461.774 110.062 461.006 110.062Z" fill="white"/>
<path fill-rule="evenodd" clip-rule="evenodd" d="M408.117 123.499H434.346C434.346 120.031 438.097 119.651 438.097 119.651H411.869C411.869 119.651 408.117 120.031 408.117 123.499Z" fill="white"/>
<path d="M438.806 139.75H411.909C411.308 139.75 410.82 140.235 410.82 140.832V147.847C410.82 148.445 411.308 148.93 411.909 148.93H438.806C439.407 148.93 439.894 148.445 439.894 147.847V140.832C439.894 140.235 439.407 139.75 438.806 139.75Z" fill="#101537"/>
<path fill-rule="evenodd" clip-rule="evenodd" d="M438.169 139.75H442.596C442.991 139.783 443.369 139.928 443.684 140.167C444 140.407 444.24 140.731 444.376 141.101C445.012 142.475 444.941 143.842 446.824 143.842H453.93C455.814 143.842 455.742 142.475 456.378 141.101C456.514 140.73 456.753 140.406 457.069 140.166C457.385 139.927 457.763 139.782 458.158 139.75H462.355C462.642 139.75 462.918 139.863 463.122 140.064C463.326 140.265 463.442 140.539 463.444 140.824V147.847C463.444 148.134 463.329 148.41 463.125 148.613C462.921 148.816 462.644 148.93 462.355 148.93H438.169C438.026 148.93 437.885 148.902 437.753 148.847C437.622 148.793 437.502 148.713 437.402 148.612C437.301 148.512 437.222 148.392 437.168 148.261C437.114 148.13 437.087 147.989 437.088 147.847V140.824C437.088 140.539 437.202 140.266 437.405 140.065C437.607 139.863 437.882 139.75 438.169 139.75Z" fill="#3B405F"/>
<path fill-rule="evenodd" clip-rule="evenodd" d="M408.117 135.658H434.346C434.346 132.19 438.097 131.811 438.097 131.811H411.869C411.869 131.811 408.117 132.15 408.117 135.658Z" fill="white"/>
<path fill-rule="evenodd" clip-rule="evenodd" d="M465.568 129.842H441.565C441.565 126.374 438.123 125.987 438.123 125.987H462.166C462.166 125.987 465.568 126.374 465.568 129.842Z" fill="#AEABBA"/>
<path fill-rule="evenodd" clip-rule="evenodd" d="M440.946 113.9H460.816C460.976 113.9 461.13 113.964 461.243 114.076C461.356 114.189 461.42 114.342 461.42 114.501C461.418 114.659 461.353 114.809 461.24 114.92C461.127 115.031 460.975 115.093 460.816 115.093H440.946C440.788 115.093 440.636 115.031 440.524 114.92C440.412 114.809 440.35 114.658 440.35 114.501C440.349 114.422 440.363 114.344 440.393 114.272C440.422 114.199 440.466 114.133 440.521 114.077C440.577 114.021 440.643 113.977 440.716 113.946C440.789 113.916 440.867 113.9 440.946 113.9Z" fill="#E4E1E8"/>
<path fill-rule="evenodd" clip-rule="evenodd" d="M440.946 120.449H460.816C460.976 120.449 461.13 120.512 461.243 120.625C461.356 120.738 461.42 120.89 461.42 121.05C461.418 121.207 461.353 121.358 461.24 121.469C461.127 121.58 460.975 121.642 460.816 121.642H440.946C440.788 121.642 440.636 121.58 440.524 121.469C440.412 121.357 440.35 121.207 440.35 121.05C440.349 120.971 440.363 120.893 440.393 120.82C440.422 120.748 440.466 120.681 440.521 120.626C440.577 120.57 440.643 120.525 440.716 120.495C440.789 120.465 440.867 120.449 440.946 120.449Z" fill="#E4E1E8"/>
<path fill-rule="evenodd" clip-rule="evenodd" d="M440.946 134.133H460.816C460.895 134.132 460.973 134.146 461.047 134.176C461.12 134.205 461.186 134.248 461.243 134.304C461.299 134.359 461.344 134.424 461.374 134.497C461.404 134.569 461.42 134.647 461.42 134.725C461.418 134.883 461.353 135.034 461.24 135.145C461.127 135.256 460.975 135.318 460.816 135.318H440.946C440.788 135.318 440.636 135.255 440.524 135.144C440.412 135.033 440.35 134.882 440.35 134.725C440.349 134.647 440.363 134.57 440.393 134.497C440.422 134.425 440.466 134.359 440.522 134.304C440.577 134.249 440.644 134.205 440.716 134.176C440.789 134.146 440.867 134.132 440.946 134.133Z" fill="#E4E1E8"/>
<path fill-rule="evenodd" clip-rule="evenodd" d="M414.78 113.419H434.65C434.809 113.421 434.96 113.485 435.072 113.598C435.184 113.71 435.246 113.861 435.246 114.019C435.244 114.176 435.181 114.325 435.069 114.436C434.958 114.547 434.807 114.61 434.65 114.612H414.78C414.622 114.61 414.472 114.547 414.36 114.436C414.249 114.325 414.186 114.176 414.184 114.019C414.184 113.861 414.246 113.71 414.358 113.598C414.469 113.485 414.621 113.421 414.78 113.419Z" fill="#AEABBA"/>
<path fill-rule="evenodd" clip-rule="evenodd" d="M414.78 128.175H434.65C434.807 128.177 434.958 128.24 435.069 128.351C435.181 128.461 435.244 128.611 435.246 128.767C435.244 128.924 435.181 129.073 435.069 129.184C434.958 129.295 434.807 129.358 434.65 129.36H414.78C414.622 129.358 414.472 129.295 414.36 129.184C414.249 129.073 414.186 128.924 414.184 128.767C414.186 128.611 414.249 128.461 414.36 128.351C414.472 128.24 414.622 128.177 414.78 128.175Z" fill="#AEABBA"/>
<path fill-rule="evenodd" clip-rule="evenodd" d="M414.78 137.608H434.65C434.809 137.61 434.96 137.675 435.072 137.787C435.184 137.899 435.246 138.051 435.246 138.209C435.244 138.365 435.181 138.515 435.069 138.625C434.958 138.736 434.807 138.799 434.65 138.801H414.78C414.622 138.799 414.472 138.736 414.36 138.625C414.249 138.515 414.186 138.365 414.184 138.209C414.184 138.051 414.246 137.899 414.358 137.787C414.469 137.675 414.621 137.61 414.78 137.608Z" fill="#AEABBA"/>
<path d="M205.516 98.9979C204.52 97.3643 197.89 94.0417 196.037 95.2392C194.185 96.4367 194.645 102.964 194.115 109.194L203.865 109.969C204.374 109.194 206.512 100.625 205.516 98.9979Z" fill="#FF9D66"/>
<path d="M176.373 191.906H115.1V199.555H176.373V191.906Z" fill="#EB8E44"/>
<path d="M154.5 73.5938C148.065 63.5844 150.37 50.2732 153.692 46.8745C157.014 43.4757 174.453 42.5274 173.784 49.8025C173.116 57.0776 154.5 73.5938 154.5 73.5938Z" fill="#874630"/>
<path d="M170.587 88.8916L165.301 130.424C167.258 136.232 177.384 142.884 177.384 142.884L192.232 131.269C192.232 131.269 183.694 106.931 170.587 88.8916Z" fill="#F56867"/>
<path d="M168.971 104.287L165.301 130.439C167.258 136.246 177.384 142.899 177.384 142.899L187.573 134.904C182.21 133.014 171.917 118.824 168.971 104.287Z" fill="#ED7877"/>
<path d="M195.547 133.954C194.154 127.434 189.007 123.952 184.084 126.181C179.16 128.41 176.318 135.505 177.732 142.032C179.146 148.56 184.272 152.035 189.195 149.806C194.119 147.577 196.989 140.482 195.547 133.954Z" fill="white"/>
<path d="M183.402 138.087C184.628 120.498 195.381 105.173 198.076 101.262C197.623 103.511 198.215 105.636 204.692 107.021C204.692 107.021 203.947 148.553 202.004 149.287C192.024 152.901 183.061 143.21 183.402 138.087Z" fill="#FFBB83"/>
<path d="M191.957 125.904C191.875 119.425 192.726 112.968 194.486 106.729C190.272 113.596 182.876 125.142 181.95 137.99C181.664 142.108 188.879 149.3 196.373 150.006C199.946 146.635 202.759 144.074 203.135 141.984C204.375 135.325 191.957 133.463 191.957 125.904Z" fill="#FF9D66"/>
<path d="M126.632 97.5781H92.625L113.337 190.68H147.344L126.632 97.5781Z" fill="#FFA45B"/>
<path d="M130.906 97.5781H96.8984L117.611 190.68H151.618L130.906 97.5781Z" fill="#FFC08D"/>
<path d="M131.158 97.5781H124.11C115.523 109.595 109.484 137.726 109.484 170.475C109.484 171.499 109.484 172.551 109.484 173.534L113.301 190.68H151.828L131.158 97.5781Z" fill="#FFA45B"/>
<path d="M153.049 186.34H143.355L140.318 246.389H142.596L153.049 186.34Z" fill="#EB8E44"/>
<path d="M123.215 186.34H113.528L110.484 246.389H112.769L123.215 186.34Z" fill="#FFA45B"/>
<path d="M147.846 186.264L157.533 186.298L167.652 246.389L165.375 246.382L147.846 186.264Z" fill="#FFA45B"/>
<path d="M173.945 186.34H183.633L193.989 246.389H191.705L173.945 186.34Z" fill="#FFA45B"/>
<path d="M183.45 187.47H115.24V194.648H183.45V187.47Z" fill="#FFA45B"/>
<path d="M120.746 184.05C111.943 177.862 118.656 109.291 137.46 89.0581C154.697 70.5484 169.699 83.8596 174.511 95.1011C177.708 102.563 165.966 137.215 170.402 170.268C170.402 170.289 126.38 188.037 120.746 184.05Z" fill="#F56867"/>
<path d="M138.489 121.8C138.489 106.689 141.275 92.8999 145.829 82.3438C142.699 84.1213 139.877 86.3885 137.472 89.0582C118.668 109.271 111.954 177.862 120.757 184.05C124.24 186.487 142.117 180.741 155.447 175.937C145.411 166.357 138.489 145.715 138.489 121.8Z" fill="#F56867"/>
<g style="mix-blend-mode:multiply" opacity="0.7">
<path d="M126.235 109.983C125.246 112.801 124.334 115.749 123.498 118.781L171.915 123.544C172.367 120.38 172.827 117.397 173.259 114.607L126.235 109.983Z" fill="#F56867"/>
</g>
<path d="M202.016 169.652C199.99 167.112 168.587 158.577 168.587 158.577C168.587 158.577 135.242 153.385 131.961 166.087C130.513 171.708 146.51 188.999 152.555 188.972L183.275 188.847L219.114 245.816H220.82C220.82 245.816 204.036 172.192 202.016 169.652Z" fill="#492A2A"/>
<path d="M201.271 169.091C196.082 166.045 168.58 158.548 168.58 158.548C168.58 158.548 153.432 155.087 143.32 158.624C142.624 163.892 169.088 168.634 182.007 170.392C189.682 171.423 196.681 170.835 201.271 169.091Z" fill="#5B3737"/>
<path d="M181.906 169.618C180.479 167.597 155.184 159.879 144.918 158.626C137.787 157.747 122.465 167.438 119.303 176.18C117.054 182.41 121.922 188.952 128.837 188.924L160.066 188.799L175.966 245.789H177.742C177.742 245.789 183.689 172.159 181.906 169.618Z" fill="#492A2A"/>
<path d="M180.362 170.932C180.345 170.721 180.291 170.515 180.202 170.323C178.809 168.247 154.573 160.134 144.725 158.708C143.169 158.553 141.597 158.718 140.107 159.192C142.016 163.706 148.59 168.807 157.205 171.964C167.944 175.889 177.952 175.369 180.362 170.932Z" fill="#5B3737"/>
<path d="M147.212 81.9067C139.043 81.7129 128.352 101.122 129.495 112.592C130.365 121.37 133.806 138.654 148.201 148.144L165.069 125.246C155.284 116.275 154.908 86.4476 147.212 81.9067Z" fill="#F56867"/>
<path d="M136.287 90.5254C131.322 97.7244 127.45 107.831 128.118 114.573C128.989 123.357 133.808 138.655 148.204 148.145L158.567 132.826C143.607 123.641 135.333 97.3921 136.287 90.5254Z" fill="#F56867"/>
<path d="M164.738 139.527C170.254 133.761 169.509 126.811 163.527 123.917C157.816 121.149 149.089 122.997 143.643 128.071C137.988 133.352 137.619 140.447 143.246 143.881C149.159 147.501 159 145.521 164.738 139.527Z" fill="#F97C7B"/>
<path d="M161.801 144.514C168.928 139.032 171.88 130.96 168.396 126.486C164.912 122.011 156.31 122.829 149.183 128.311C142.057 133.794 139.104 141.865 142.588 146.34C146.073 150.814 154.674 149.997 161.801 144.514Z" fill="white"/>
<path d="M160.339 135.54C156.351 133.765 152.898 130.985 150.324 127.476C148.393 128.791 146.654 130.366 145.156 132.155C139.585 138.821 139.745 146.151 145.428 148.512C151.111 150.872 160.207 147.384 165.743 140.718C166.641 139.646 167.427 138.486 168.09 137.257C165.41 137.265 162.762 136.679 160.339 135.54Z" fill="white"/>
<path d="M198.219 149.218C198.219 149.218 151.558 147.017 150.06 145.065C147.372 141.604 149.754 124.084 163.926 125.323C163.926 125.323 192.334 137.659 197.356 140.206C202.781 143.002 198.219 149.218 198.219 149.218Z" fill="#FFBB83"/>
<path d="M183.694 142.995C168.163 141.535 155.571 136.039 155.571 130.722C155.571 128.466 157.849 126.604 161.644 125.323C149.276 126.237 145.452 143.784 147.911 147.128C150.919 151.212 198.221 149.204 198.221 149.204C198.221 149.204 189.154 143.508 183.694 142.995Z" fill="#FF9D66"/>
<path d="M185.21 141.486C192.433 138.274 200.985 139.88 203.931 141.77C206.877 143.659 209.057 149.702 209.057 149.702L192.906 149.232C186.353 148.283 184.521 144.317 185.21 141.486Z" fill="#FFBB83"/>
<path d="M153.578 90.0756C159.484 90.0756 164.721 88.3935 168.092 85.7908C162.778 80.6477 155.222 77.6574 146.621 81.9352C144.357 82.136 141.934 83.7488 139.656 86.2131C143.006 88.5735 148 90.0756 153.578 90.0756Z" fill="#F97C7B"/>
<path d="M166.84 84.7313C161.749 80.3842 154.924 78.0999 147.207 81.6579C148.739 84.7105 152.214 87.1194 156.518 87.7217C160.641 88.2893 164.486 87.0502 166.84 84.7313Z" fill="white"/>
<path d="M168.147 67.1284L156.447 66.1455L152.191 80.1558C152.616 85.3958 162.429 86.9671 165.159 83.4161L168.147 67.1284Z" fill="#ED7656"/>
<path d="M157.774 51.8861C154.187 65.0727 155.684 76.148 156.381 78.4392C157.774 83.0216 169.94 83.0078 171.333 81.1735C174.913 76.4457 175.916 52.3014 173.701 49.5187C171.486 46.736 159.591 45.2132 157.774 51.8861Z" fill="#FFBB83"/>
<path d="M159.914 55.5137L155.2 65.9937C154.746 71.1438 155.132 76.3328 156.342 81.3608C161.83 85.4725 176.789 82.7452 176.789 82.7452L174.24 69.8355C171.364 70.3823 165.054 70.7423 161.983 68.0357C159.504 65.8414 159.914 61.3974 159.914 55.5137Z" fill="#874630"/>
<path d="M158.281 67.268C159.068 58.2069 161.701 48.2184 165.622 46.8755C165.622 46.8755 156.644 44.7988 153.65 52.1847C150.655 59.5706 155.078 67.7594 155.078 67.7594L158.281 67.268Z" fill="#874630"/>
<path d="M157.086 64.9346C156.48 62.4288 154.941 60.5183 153.646 60.6706C152.35 60.8229 151.786 62.9895 152.392 65.5161C152.998 68.0426 154.537 69.9324 155.832 69.7732C157.128 69.614 157.692 67.4473 157.086 64.9346Z" fill="#FFBB83"/>
<path d="M156.107 65.0516C155.758 63.591 154.86 62.4835 154.108 62.5735C153.356 62.6635 153.021 63.9233 153.377 65.3838C153.732 66.8444 154.623 67.9519 155.375 67.8619C156.128 67.772 156.462 66.5121 156.107 65.0516Z" fill="#ED7656"/>
<path d="M156.519 65.8058C156.269 64.7606 155.628 63.9646 155.085 64.0269C154.541 64.0892 154.312 64.996 154.562 66.0412C154.813 67.0864 155.461 67.8825 155.997 67.8202C156.533 67.7579 156.777 66.8511 156.519 65.8058Z" fill="#FFBB83"/>
<path d="M227.629 246.39H218.227C218.227 246.39 217.587 243.414 219.369 242.569C221.152 241.725 227.629 246.39 227.629 246.39Z" fill="#E0BF94"/>
<path d="M185.043 246.39H175.641C175.641 246.39 175.001 243.414 176.784 242.569C178.566 241.725 185.043 246.39 185.043 246.39Z" fill="#E0BF94"/>
<path d="M166.507 63.8819C166.633 62.9613 166.284 62.1237 165.734 62.0061C165.184 61.8884 164.648 62.5321 164.529 63.4458C164.411 64.3596 164.752 65.2041 165.302 65.3218C165.853 65.4394 166.389 64.7957 166.507 63.8819Z" fill="#604748"/>
<path d="M167.041 58.9329L163.44 58.8637C163.368 58.8608 163.297 58.8726 163.23 58.8983C163.164 58.924 163.103 58.963 163.052 59.013C163.001 59.063 162.961 59.1228 162.934 59.1888C162.907 59.2548 162.895 59.3256 162.897 59.3967V60.5319C162.898 60.6789 162.958 60.8195 163.061 60.924C163.165 61.0286 163.306 61.089 163.454 61.0926L167.047 61.1618C167.119 61.1647 167.19 61.1529 167.257 61.1273C167.324 61.1016 167.385 61.0626 167.436 61.0126C167.486 60.9626 167.527 60.9027 167.553 60.8367C167.58 60.7707 167.593 60.7 167.591 60.6289V59.4867C167.589 59.3416 167.531 59.2028 167.428 59.0995C167.325 58.9962 167.187 58.9365 167.041 58.9329Z" fill="#874630"/>
<path d="M173.852 64.2973C173.943 63.3766 173.573 62.5529 173.023 62.4491C172.473 62.3452 171.958 63.0167 171.867 63.9373C171.777 64.858 172.146 65.6817 172.696 65.7855C173.246 65.8894 173.768 65.2041 173.852 64.2973Z" fill="#604748"/>
<path d="M175.353 59.1681L172.094 59.002C171.952 59.0014 171.816 59.0538 171.711 59.1487C171.607 59.2436 171.542 59.374 171.53 59.5142L171.39 60.6425C171.379 60.7079 171.381 60.775 171.396 60.8396C171.412 60.9042 171.441 60.9648 171.482 61.0176C171.522 61.0704 171.574 61.1141 171.632 61.1461C171.691 61.1781 171.756 61.1975 171.822 61.2032L175.089 61.3693C175.229 61.3681 175.364 61.315 175.467 61.2202C175.57 61.1255 175.634 60.996 175.646 60.8571L175.785 59.7357C175.797 59.6699 175.795 59.6024 175.779 59.5374C175.764 59.4724 175.735 59.4113 175.694 59.358C175.653 59.3047 175.602 59.2603 175.544 59.2276C175.485 59.1949 175.42 59.1747 175.353 59.1681Z" fill="#874630"/>
<path d="M169.6 63.7861C170.297 66.6519 170.429 68.4724 169.447 69.1023C169.127 69.2561 168.776 69.3361 168.42 69.3361C168.064 69.3361 167.713 69.2561 167.393 69.1023V69.1577C167.393 69.1577 169.28 70.286 170.339 69.7045C171.397 69.1231 170.847 67.1018 169.6 63.7861Z" fill="#ED7656"/>
<path d="M171.578 71.946L164.377 70.9492C164.337 71.8757 164.6 72.7902 165.126 73.5562C165.652 74.3222 166.413 74.8986 167.295 75.1994C170.52 76.4731 171.578 71.946 171.578 71.946Z" fill="#422931"/>
<path d="M170.125 73.8846C170.47 73.3619 170.726 72.7867 170.884 72.1818L165.076 71.3857C165.048 71.9943 165.185 72.5989 165.473 73.137L170.125 73.8846Z" fill="#FFEFDC"/>
<path d="M198.244 85.6113C197.888 85.2335 197.399 85.0078 196.879 84.982C196.359 84.9561 195.85 85.1322 195.458 85.4728C194.817 86.1097 194.817 93.3294 194.762 100.84C196.189 100.272 197.283 99.1163 199.226 97.4827C199.219 97.4827 198.892 86.4489 198.244 85.6113Z" fill="#FFBB83"/>
<path d="M200.466 92.8302C199.463 92.5671 198.467 93.5224 198.467 96.9834C198.509 99.3785 202.854 99.3092 202.813 96.9142C203.307 93.4255 201.455 93.0932 200.466 92.8302Z" fill="#FFBB83"/>
<path d="M204.152 95.5088C203.358 94.8997 202.425 95.6196 202.062 99.2537C201.505 100.7 205.099 102.057 205.649 100.638C206.436 97.0732 204.946 96.1388 204.152 95.5088Z" fill="#FFBB83"/>
<path d="M194.236 107.969C192.147 102.771 193.052 97.8145 193.763 97.0115C194.473 96.2085 200.226 98.1467 201.361 97.9114C202.496 97.676 203.123 101.878 196.994 100.646L196.897 101.026C196.897 101.026 200.316 101.407 200.936 105.747C201.305 108.336 194.236 107.969 194.236 107.969Z" fill="#FFBB83"/>
<path d="M345.17 67.7522C346.104 65.3156 345.867 63.0936 344.523 63.1144C343.178 63.1352 341.514 65.3641 340.873 67.7868C340.309 69.9188 340.762 71.4694 341.82 71.4624C342.879 71.4555 344.349 69.8704 345.17 67.7522Z" fill="#FFBB83"/>
<path d="M344.501 67.6694C345.072 66.1673 344.926 64.8036 344.097 64.8175C343.269 64.8313 342.252 66.2019 341.855 67.6902C341.514 69.0053 341.785 69.9537 342.44 69.9537C343.095 69.9537 343.993 68.9846 344.501 67.6694Z" fill="#ED7656"/>
<path d="M343.556 68.4862C344.002 67.3372 343.891 66.2919 343.25 66.2989C342.609 66.3058 341.857 67.3579 341.53 68.507C341.265 69.5107 341.481 70.2445 341.982 70.2375C342.484 70.2306 343.173 69.4969 343.556 68.4862Z" fill="#FFBB83"/>
<path d="M318.582 67.7522C317.649 65.3156 317.885 63.0936 319.23 63.1144C320.574 63.1352 322.238 65.3641 322.879 67.7868C323.443 69.9188 322.99 71.4694 321.932 71.4624C320.873 71.4555 319.404 69.8704 318.582 67.7522Z" fill="#FFBB83"/>
<path d="M319.251 67.6694C318.673 66.1673 318.819 64.8036 319.648 64.8175C320.477 64.8313 321.501 66.2019 321.891 67.6902C322.239 69.0053 321.96 69.9537 321.306 69.9537C320.651 69.9537 319.752 68.9846 319.251 67.6694Z" fill="#ED7656"/>
<path d="M320.192 68.4862C319.753 67.3372 319.865 66.2919 320.498 66.2989C321.132 66.3058 321.891 67.3579 322.219 68.507C322.483 69.5107 322.274 70.2445 321.773 70.2375C321.271 70.2306 320.582 69.4969 320.192 68.4862Z" fill="#FFBB83"/>
<path d="M344.124 48.7511C340.934 42.6942 323.621 43.1511 320.619 48.1212C317.618 53.0912 319.352 64.7688 322.938 75.7472L341.046 77.0071C341.046 77.0071 347.314 54.8079 344.124 48.7511Z" fill="#60454B"/>
<path d="M315.487 84.0332C328.879 78.4263 299.65 131.616 299.65 131.616L275.226 141.923C273.331 120.693 302.206 89.5916 315.487 84.0332Z" fill="white"/>
<path d="M318.289 89.8824C329.934 85.037 304.52 131.249 304.52 131.249L283.286 140.213C281.642 121.786 306.742 94.721 318.289 89.8824Z" fill="#CFCFCF"/>
<path d="M344.207 83.1882C330.376 80.1701 359.195 131.283 359.195 131.283L383.34 141.922C385.186 120.332 358.046 86.2062 344.207 83.1882Z" fill="white"/>
<path d="M339.429 92.548C325.562 89.8138 354.869 136.157 354.869 136.157L379.112 145.807C380.755 126.252 353.288 95.2823 339.429 92.548Z" fill="#CFCFCF"/>
<path d="M301.342 124.008L286.717 142.476L272.502 142.615C271.646 120.09 290.784 115.895 301.342 124.008Z" fill="#202743"/>
<path d="M328.573 79.6931C302.108 80.4684 294.211 121.288 293.904 142.684L363.374 143.321C363.674 84.4555 344.919 79.2155 328.573 79.6931Z" fill="white"/>
<path d="M357.566 124.008L372.192 142.476L386.406 142.615C387.263 120.09 368.09 115.895 357.566 124.008Z" fill="#202743"/>
<path d="M365.586 121.787C372.989 121.676 384.265 131.949 383.283 142.74L341.824 142.553L339.365 134.143C339.365 134.143 355.098 121.919 365.586 121.787Z" fill="#FFBB83"/>
<path d="M362.254 135.603C354.413 135.603 347.511 134.171 343.451 131.997C340.943 133.686 339.355 134.918 339.355 134.918L341.821 143.329L383.28 143.488C383.521 139.566 382.456 135.674 380.251 132.412C376.121 134.33 369.609 135.603 362.254 135.603Z" fill="#FF9D66"/>
<path d="M315.461 84.1087C314.287 84.6276 313.151 85.229 312.062 85.9085C316.241 90.3594 322.767 93.2251 330.107 93.1905C337.873 93.1559 344.698 89.8956 348.772 84.9532C348.107 84.584 347.424 84.2489 346.724 83.9495C341.062 80.087 334.634 79.4986 328.54 79.7063C323.836 79.8433 319.281 81.3766 315.461 84.1087Z" fill="white"/>
<path d="M331.179 89.8546C337.656 89.8546 343.172 87.0858 345.366 83.1333C340.275 79.5961 334.223 79.0838 328.651 79.243C324.285 79.3746 320.357 81.0497 316.951 83.0917C319.124 87.0373 324.654 89.8546 331.179 89.8546Z" fill="#202743"/>
<path d="M341.217 68.1885H323.012L322.775 80.6898C325.227 86.9197 336.189 88.4287 341.76 81.3405L341.217 68.1885Z" fill="#ED7656"/>
<path d="M341.297 55.3338C338.1 48.8132 326.818 48.0726 323.719 53.5133C320.237 59.674 321.031 72.3968 323.865 79.1251C326.317 84.9604 336.324 84.1297 338.581 82.1985C342.007 79.2635 344.494 61.8198 341.297 55.3338Z" fill="#FFBB83"/>
<path d="M293.395 121.787C285.992 121.676 274.717 131.949 275.699 142.74L317.158 142.581L319.616 134.171C319.616 134.171 303.884 121.919 293.395 121.787Z" fill="#FFBB83"/>
<path d="M299.393 135.201C291.091 135.201 283.569 134.267 278.047 132.751C276.276 135.762 275.458 139.233 275.7 142.712L317.159 142.553L319.617 134.142C319.617 134.142 319.213 133.831 318.503 133.312C312.22 134.623 305.813 135.257 299.393 135.201Z" fill="#FF9D66"/>
<path d="M358.048 103.658H299.965C297.228 103.658 295.055 105.603 295.215 107.908L297.681 143.827H360.36L362.826 107.908C362.958 105.603 360.785 103.658 358.048 103.658Z" fill="#202745"/>
<path d="M356.685 109.243H301.318C298.713 109.243 296.638 111.064 296.791 113.23L299.138 146.996H358.851L361.212 113.21C361.365 111.064 359.29 109.243 356.685 109.243Z" fill="#202743"/>
<path d="M300.797 143.112H331.015L349.422 105.359H319.204L300.797 143.112Z" fill="#2D3761"/>
<path d="M332.439 54.4825C337.143 54.4825 340.957 53.1994 340.957 51.6167C340.957 50.034 337.143 48.751 332.439 48.751C327.735 48.751 323.922 50.034 323.922 51.6167C323.922 53.1994 327.735 54.4825 332.439 54.4825Z" fill="#60454B"/>
<path d="M328.216 67.004C328.182 66.0903 327.694 65.3496 327.13 65.3635C326.566 65.3773 326.141 66.1249 326.176 67.0456C326.211 67.9662 326.691 68.6999 327.255 68.6861C327.819 68.6722 328.251 67.9246 328.216 67.004Z" fill="#604748"/>
<path d="M328.519 61.8691L324.869 62.416C324.798 62.4252 324.729 62.4487 324.667 62.4849C324.605 62.5212 324.551 62.5695 324.508 62.627C324.465 62.6845 324.434 62.75 324.417 62.8196C324.4 62.8892 324.398 62.9614 324.41 63.032L324.612 64.1396C324.642 64.2832 324.727 64.4096 324.849 64.4922C324.971 64.5748 325.121 64.6072 325.266 64.5826L328.916 64.0358C328.987 64.0265 329.056 64.003 329.118 63.9668C329.18 63.9305 329.234 63.8822 329.277 63.8247C329.32 63.7672 329.351 63.7017 329.368 63.6321C329.384 63.5625 329.387 63.4903 329.375 63.4197L329.173 62.3191C329.145 62.1741 329.06 62.0461 328.938 61.9621C328.816 61.8781 328.665 61.8447 328.519 61.8691Z" fill="#60454B"/>
<path d="M338.601 67.004C338.601 66.0903 338.079 65.3496 337.515 65.3635C336.951 65.3773 336.526 66.1249 336.561 67.0456C336.595 67.9662 337.076 68.6999 337.64 68.6861C338.204 68.6722 338.629 67.9246 338.601 67.004Z" fill="#604748"/>
<path d="M340.229 62.9492L336.747 61.8001C336.679 61.776 336.608 61.7656 336.536 61.7693C336.464 61.773 336.394 61.7908 336.329 61.8217C336.264 61.8526 336.206 61.896 336.159 61.9493C336.111 62.0026 336.074 62.0648 336.051 62.1324L335.716 63.2053C335.675 63.3457 335.69 63.4967 335.759 63.6261C335.828 63.7554 335.945 63.8528 336.085 63.8975L339.568 65.0465C339.636 65.0714 339.708 65.0824 339.78 65.0787C339.853 65.075 339.924 65.0567 339.989 65.025C340.054 64.9933 340.112 64.9488 340.159 64.8942C340.206 64.8396 340.242 64.7761 340.264 64.7074L340.605 63.6414C340.647 63.5 340.63 63.3482 340.56 63.2187C340.49 63.0892 340.371 62.9924 340.229 62.9492Z" fill="#60454B"/>
<path d="M334.322 69.7803C333.5 71.4 332.783 72.1961 331.877 71.7046C331.31 71.3325 330.859 70.8098 330.575 70.1956H330.533C330.533 70.1956 331.23 72.023 332.156 72.5906C333.082 73.1583 333.646 71.9815 334.322 69.7803Z" fill="#ED7656"/>
<path d="M335.578 74.1904H328.133C328.166 75.1057 328.517 75.9815 329.124 76.67C329.732 77.3585 330.56 77.8176 331.469 77.9699C334.867 78.8006 335.578 74.1904 335.578 74.1904Z" fill="#422931"/>
<path d="M334.259 76.3014C334.566 75.7465 334.78 75.1456 334.893 74.5225H328.883C328.909 75.1182 329.099 75.6954 329.433 76.1907L334.259 76.3014Z" fill="#FFEFDC"/>
<path d="M491.477 144.09H177.299L211.299 245.042H457.477L491.477 144.09Z" fill="#141828"/>
<path d="M349.919 157.781C401.769 157.781 448.117 167.021 478.872 181.53L491.477 144.109H177.299L195.441 197.929C220.91 174.324 280.484 157.781 349.919 157.781Z" fill="#141828"/>
<path d="M0 242.881H654L306.197 275.754L0 242.881Z" fill="#B2B22F"/>
</svg>
