<svg width="250" height="170" viewBox="0 0 182 70" fill="none" xmlns="http://www.w3.org/2000/svg">
<path d="M88.0601 11.8608C87.7401 11.5088 87.3134 11.2208 86.7801 10.9968C86.2468 10.7621 85.6388 10.6448 84.9561 10.6448C83.9534 10.6448 83.2228 10.8368 82.7641 11.2208C82.3054 11.5941 82.0761 12.1061 82.0761 12.7568C82.0761 13.2048 82.1881 13.5568 82.4121 13.8128C82.6361 14.0688 82.9774 14.2821 83.4361 14.4528C83.9054 14.6128 84.5028 14.7728 85.2281 14.9328C86.0388 15.1034 86.7374 15.3061 87.3241 15.5408C87.9108 15.7754 88.3641 16.0954 88.6841 16.5008C89.0041 16.8954 89.1641 17.4341 89.1641 18.1168C89.1641 18.8101 88.9881 19.3861 88.6361 19.8448C88.2841 20.3034 87.7988 20.6448 87.1801 20.8688C86.5614 21.0821 85.8574 21.1888 85.0681 21.1888C83.2974 21.1888 81.7774 20.6394 80.5081 19.5408L81.0681 18.6288C81.4734 19.0554 82.0281 19.4234 82.7321 19.7328C83.4468 20.0421 84.2361 20.1968 85.1001 20.1968C85.9961 20.1968 86.7001 20.0314 87.2121 19.7008C87.7241 19.3701 87.9801 18.8794 87.9801 18.2288C87.9801 17.7594 87.8521 17.3861 87.5961 17.1088C87.3401 16.8208 86.9561 16.5861 86.4441 16.4048C85.9321 16.2234 85.3028 16.0474 84.5561 15.8768C83.7668 15.6954 83.1001 15.4928 82.5561 15.2688C82.0228 15.0448 81.6174 14.7514 81.3401 14.3888C81.0628 14.0261 80.9241 13.5354 80.9241 12.9168C80.9241 12.2128 81.0948 11.6208 81.4361 11.1408C81.7881 10.6501 82.2681 10.2821 82.8761 10.0368C83.4841 9.78077 84.1828 9.65277 84.9721 9.65277C85.7188 9.65277 86.3908 9.77011 86.9881 10.0048C87.5854 10.2288 88.1241 10.5488 88.6041 10.9648L88.0601 11.8608ZM94.7742 20.6928C94.6462 20.7461 94.4116 20.8421 94.0702 20.9808C93.7289 21.1194 93.3342 21.1888 92.8862 21.1888C92.4169 21.1888 92.0062 21.0554 91.6542 20.7888C91.3022 20.5221 91.1262 20.1221 91.1262 19.5888V13.6208H89.9742V12.7568H91.1262V9.94077H92.2142V12.7568H94.1342V13.6208H92.2142V19.2848C92.2356 19.5941 92.3422 19.8234 92.5342 19.9728C92.7369 20.1114 92.9662 20.1808 93.2222 20.1808C93.5209 20.1808 93.7876 20.1328 94.0222 20.0368C94.2676 19.9301 94.4222 19.8554 94.4862 19.8128L94.7742 20.6928ZM96.0536 17.6528V12.7568H97.1416V17.4608C97.1416 19.3488 97.7869 20.2928 99.0776 20.2928C99.7176 20.2928 100.315 20.0848 100.87 19.6688C101.435 19.2528 101.84 18.6981 102.086 18.0048V12.7568H103.174V19.7808C103.174 20.0688 103.302 20.2181 103.558 20.2288V21.0928C103.43 21.1141 103.328 21.1248 103.254 21.1248C103.19 21.1248 103.12 21.1248 103.046 21.1248C102.822 21.1034 102.63 21.0181 102.47 20.8688C102.32 20.7194 102.246 20.5381 102.246 20.3248L102.214 19.2048C101.851 19.8554 101.355 20.3621 100.726 20.7248C100.107 21.0768 99.4349 21.2528 98.7096 21.2528C96.9389 21.2528 96.0536 20.0528 96.0536 17.6528ZM105.074 16.9488C105.074 16.1594 105.234 15.4394 105.554 14.7888C105.884 14.1274 106.338 13.5994 106.914 13.2048C107.49 12.8101 108.146 12.6128 108.882 12.6128C109.575 12.6128 110.194 12.7994 110.738 13.1728C111.292 13.5354 111.724 13.9781 112.034 14.5008V9.41277H113.122V19.7808C113.122 20.0688 113.25 20.2181 113.506 20.2288V21.0928C113.292 21.1248 113.127 21.1354 113.01 21.1248C112.775 21.1141 112.572 21.0288 112.402 20.8688C112.242 20.6981 112.162 20.5061 112.162 20.2928V19.4768C111.831 20.0208 111.383 20.4528 110.818 20.7728C110.252 21.0928 109.666 21.2528 109.058 21.2528C108.482 21.2528 107.948 21.1354 107.458 20.9008C106.967 20.6661 106.54 20.3461 106.178 19.9408C105.826 19.5354 105.554 19.0768 105.362 18.5648C105.17 18.0421 105.074 17.5034 105.074 16.9488ZM112.034 18.2288V15.6528C111.895 15.2688 111.671 14.9221 111.362 14.6128C111.052 14.2928 110.7 14.0421 110.306 13.8608C109.922 13.6688 109.538 13.5728 109.154 13.5728C108.556 13.5728 108.034 13.7381 107.586 14.0688C107.148 14.3888 106.807 14.8101 106.562 15.3328C106.316 15.8448 106.194 16.3834 106.194 16.9488C106.194 17.5461 106.327 18.1008 106.594 18.6128C106.871 19.1248 107.244 19.5354 107.714 19.8448C108.183 20.1434 108.711 20.2928 109.298 20.2928C109.66 20.2928 110.039 20.2021 110.434 20.0208C110.839 19.8288 111.191 19.5781 111.49 19.2688C111.799 18.9594 111.98 18.6128 112.034 18.2288ZM119.187 21.2528C118.387 21.2528 117.672 21.0554 117.043 20.6608C116.413 20.2661 115.917 19.7381 115.555 19.0768C115.192 18.4154 115.011 17.6901 115.011 16.9008C115.011 16.1221 115.187 15.4074 115.539 14.7568C115.901 14.1061 116.397 13.5888 117.027 13.2048C117.656 12.8101 118.371 12.6128 119.171 12.6128C119.992 12.6128 120.712 12.8101 121.331 13.2048C121.949 13.5994 122.429 14.1221 122.771 14.7728C123.123 15.4128 123.299 16.1168 123.299 16.8848C123.299 17.0554 123.293 17.1994 123.283 17.3168H116.147C116.2 17.9141 116.371 18.4474 116.659 18.9168C116.947 19.3754 117.315 19.7434 117.763 20.0208C118.211 20.2874 118.701 20.4208 119.235 20.4208C119.779 20.4208 120.291 20.2821 120.771 20.0048C121.251 19.7274 121.592 19.3648 121.795 18.9168L122.739 19.1728C122.568 19.5781 122.301 19.9408 121.939 20.2608C121.587 20.5701 121.176 20.8154 120.707 20.9968C120.237 21.1674 119.731 21.2528 119.187 21.2528ZM116.115 16.5328H122.275C122.232 15.9354 122.067 15.4074 121.779 14.9488C121.491 14.4794 121.123 14.1168 120.675 13.8608C120.227 13.5941 119.731 13.4608 119.187 13.4608C118.643 13.4608 118.147 13.5941 117.699 13.8608C117.251 14.1168 116.883 14.4794 116.595 14.9488C116.317 15.4074 116.157 15.9354 116.115 16.5328ZM131.985 21.0928H130.897V16.4368C130.897 15.4554 130.748 14.7408 130.449 14.2928C130.161 13.8341 129.713 13.6048 129.105 13.6048C128.679 13.6048 128.257 13.7114 127.841 13.9248C127.425 14.1274 127.057 14.4101 126.737 14.7728C126.428 15.1248 126.204 15.5301 126.065 15.9888V21.0928H124.977V12.7568H125.969V14.6448C126.3 14.0368 126.785 13.5461 127.425 13.1728C128.065 12.7994 128.759 12.6128 129.505 12.6128C130.124 12.6128 130.615 12.7621 130.977 13.0608C131.34 13.3488 131.596 13.7648 131.745 14.3088C131.905 14.8421 131.985 15.4768 131.985 16.2128V21.0928ZM138.227 20.6928C138.099 20.7461 137.865 20.8421 137.523 20.9808C137.182 21.1194 136.787 21.1888 136.339 21.1888C135.87 21.1888 135.459 21.0554 135.107 20.7888C134.755 20.5221 134.579 20.1221 134.579 19.5888V13.6208H133.427V12.7568H134.579V9.94077H135.667V12.7568H137.587V13.6208H135.667V19.2848C135.689 19.5941 135.795 19.8234 135.987 19.9728C136.19 20.1114 136.419 20.1808 136.675 20.1808C136.974 20.1808 137.241 20.1328 137.475 20.0368C137.721 19.9301 137.875 19.8554 137.939 19.8128L138.227 20.6928ZM89.4841 29.7248H85.4361V40.0928H84.3161V29.7248H80.2681V28.7328H89.4841V29.7248ZM92.7648 40.2528C91.9648 40.2528 91.2502 40.0554 90.6208 39.6608C89.9915 39.2661 89.4955 38.7381 89.1328 38.0768C88.7702 37.4154 88.5888 36.6901 88.5888 35.9008C88.5888 35.1221 88.7648 34.4074 89.1168 33.7568C89.4795 33.1061 89.9755 32.5888 90.6048 32.2048C91.2342 31.8101 91.9488 31.6128 92.7488 31.6128C93.5702 31.6128 94.2902 31.8101 94.9088 32.2048C95.5275 32.5994 96.0075 33.1221 96.3488 33.7728C96.7008 34.4128 96.8768 35.1168 96.8768 35.8848C96.8768 36.0554 96.8715 36.1994 96.8608 36.3168H89.7248C89.7782 36.9141 89.9488 37.4474 90.2368 37.9168C90.5248 38.3754 90.8928 38.7434 91.3408 39.0208C91.7888 39.2874 92.2795 39.4208 92.8128 39.4208C93.3568 39.4208 93.8688 39.2821 94.3488 39.0048C94.8288 38.7274 95.1702 38.3648 95.3728 37.9168L96.3168 38.1728C96.1462 38.5781 95.8795 38.9408 95.5168 39.2608C95.1648 39.5701 94.7542 39.8154 94.2848 39.9968C93.8155 40.1674 93.3088 40.2528 92.7648 40.2528ZM89.6928 35.5328H95.8528C95.8102 34.9354 95.6448 34.4074 95.3568 33.9488C95.0688 33.4794 94.7008 33.1168 94.2528 32.8608C93.8048 32.5941 93.3088 32.4608 92.7648 32.4608C92.2208 32.4608 91.7248 32.5941 91.2768 32.8608C90.8288 33.1168 90.4608 33.4794 90.1728 33.9488C89.8955 34.4074 89.7355 34.9354 89.6928 35.5328ZM102.171 40.2528C101.361 40.2528 100.641 40.0554 100.011 39.6608C99.3821 39.2554 98.8861 38.7274 98.5235 38.0768C98.1608 37.4154 97.9795 36.6901 97.9795 35.9008C97.9795 35.1114 98.1555 34.3968 98.5075 33.7568C98.8595 33.1061 99.3501 32.5888 99.9795 32.2048C100.609 31.8101 101.334 31.6128 102.155 31.6128C102.934 31.6128 103.617 31.7941 104.203 32.1568C104.801 32.5088 105.249 32.9888 105.547 33.5968L104.491 33.9328C104.257 33.5061 103.926 33.1754 103.499 32.9408C103.083 32.6954 102.619 32.5728 102.107 32.5728C101.542 32.5728 101.03 32.7168 100.571 33.0048C100.123 33.2928 99.7608 33.6928 99.4835 34.2048C99.2168 34.7061 99.0835 35.2714 99.0835 35.9008C99.0835 36.5301 99.2221 37.1008 99.4995 37.6128C99.7768 38.1248 100.145 38.5354 100.603 38.8448C101.062 39.1434 101.569 39.2928 102.123 39.2928C102.486 39.2928 102.838 39.2288 103.179 39.1008C103.521 38.9728 103.814 38.8021 104.059 38.5888C104.305 38.3648 104.47 38.1248 104.555 37.8688L105.627 38.1888C105.478 38.5834 105.233 38.9408 104.891 39.2608C104.55 39.5701 104.145 39.8154 103.675 39.9968C103.206 40.1674 102.705 40.2528 102.171 40.2528ZM114.345 40.0928H113.257V35.4368C113.257 33.5488 112.617 32.6048 111.337 32.6048C110.921 32.6048 110.515 32.7114 110.121 32.9248C109.726 33.1274 109.374 33.4101 109.065 33.7728C108.766 34.1248 108.553 34.5301 108.425 34.9888V40.0928H107.337V28.4128H108.425V33.6448C108.755 33.0261 109.214 32.5354 109.801 32.1728C110.398 31.7994 111.033 31.6128 111.705 31.6128C112.345 31.6128 112.857 31.7674 113.241 32.0768C113.625 32.3754 113.902 32.7968 114.073 33.3408C114.254 33.8741 114.345 34.4981 114.345 35.2128V40.0928ZM123.673 40.0928H122.585V35.4368C122.585 34.4554 122.436 33.7408 122.137 33.2928C121.849 32.8341 121.401 32.6048 120.793 32.6048C120.366 32.6048 119.945 32.7114 119.529 32.9248C119.113 33.1274 118.745 33.4101 118.425 33.7728C118.116 34.1248 117.892 34.5301 117.753 34.9888V40.0928H116.665V31.7568H117.657V33.6448C117.988 33.0368 118.473 32.5461 119.113 32.1728C119.753 31.7994 120.446 31.6128 121.193 31.6128C121.812 31.6128 122.302 31.7621 122.665 32.0608C123.028 32.3488 123.284 32.7648 123.433 33.3088C123.593 33.8421 123.673 34.4768 123.673 35.2128V40.0928ZM125.993 30.0128V28.4128H127.081V30.0128H125.993ZM125.993 40.0928V31.7568H127.081V40.0928H125.993ZM133.093 40.2528C132.283 40.2528 131.563 40.0554 130.933 39.6608C130.304 39.2554 129.808 38.7274 129.445 38.0768C129.083 37.4154 128.901 36.6901 128.901 35.9008C128.901 35.1114 129.077 34.3968 129.429 33.7568C129.781 33.1061 130.272 32.5888 130.901 32.2048C131.531 31.8101 132.256 31.6128 133.077 31.6128C133.856 31.6128 134.539 31.7941 135.125 32.1568C135.723 32.5088 136.171 32.9888 136.469 33.5968L135.413 33.9328C135.179 33.5061 134.848 33.1754 134.421 32.9408C134.005 32.6954 133.541 32.5728 133.029 32.5728C132.464 32.5728 131.952 32.7168 131.493 33.0048C131.045 33.2928 130.683 33.6928 130.405 34.2048C130.139 34.7061 130.005 35.2714 130.005 35.9008C130.005 36.5301 130.144 37.1008 130.421 37.6128C130.699 38.1248 131.067 38.5354 131.525 38.8448C131.984 39.1434 132.491 39.2928 133.045 39.2928C133.408 39.2928 133.76 39.2288 134.101 39.1008C134.443 38.9728 134.736 38.8021 134.981 38.5888C135.227 38.3648 135.392 38.1248 135.477 37.8688L136.549 38.1888C136.4 38.5834 136.155 38.9408 135.813 39.2608C135.472 39.5701 135.067 39.8154 134.597 39.9968C134.128 40.1674 133.627 40.2528 133.093 40.2528ZM137.587 37.6928C137.587 37.1808 137.736 36.7381 138.035 36.3648C138.333 35.9808 138.744 35.6821 139.267 35.4688C139.8 35.2554 140.413 35.1488 141.107 35.1488C141.512 35.1488 141.933 35.1861 142.371 35.2608C142.808 35.3248 143.197 35.4154 143.539 35.5328V34.8288C143.539 34.1248 143.331 33.5648 142.915 33.1488C142.499 32.7328 141.923 32.5248 141.187 32.5248C140.749 32.5248 140.312 32.6101 139.875 32.7808C139.437 32.9408 138.984 33.1808 138.515 33.5008L138.099 32.7328C138.643 32.3594 139.176 32.0821 139.699 31.9008C140.221 31.7088 140.755 31.6128 141.299 31.6128C142.323 31.6128 143.133 31.9061 143.731 32.4928C144.328 33.0794 144.627 33.8901 144.627 34.9248V38.7808C144.627 39.0688 144.76 39.2181 145.027 39.2288V40.0928C144.792 40.1248 144.627 40.1354 144.531 40.1248C144.264 40.1141 144.061 40.0288 143.923 39.8688C143.784 39.7088 143.709 39.5381 143.699 39.3568L143.683 38.7488C143.309 39.2288 142.824 39.6021 142.227 39.8688C141.629 40.1248 141.021 40.2528 140.403 40.2528C139.859 40.2528 139.373 40.1408 138.947 39.9168C138.52 39.6821 138.184 39.3728 137.939 38.9888C137.704 38.5941 137.587 38.1621 137.587 37.6928ZM143.171 38.3328C143.416 38.0448 143.539 37.7781 143.539 37.5328V36.3168C142.803 36.0288 142.035 35.8848 141.235 35.8848C140.456 35.8848 139.827 36.0394 139.347 36.3488C138.867 36.6581 138.627 37.0794 138.627 37.6128C138.627 38.0714 138.803 38.4874 139.155 38.8608C139.517 39.2341 140.019 39.4208 140.659 39.4208C141.181 39.4208 141.667 39.3194 142.115 39.1168C142.573 38.9141 142.925 38.6528 143.171 38.3328ZM147.025 28.4128H148.113V38.2048C148.113 38.6208 148.183 38.8928 148.321 39.0208C148.471 39.1488 148.657 39.2128 148.881 39.2128C149.073 39.2128 149.265 39.1914 149.457 39.1488C149.66 39.1061 149.825 39.0634 149.953 39.0208L150.145 39.9008C149.943 39.9861 149.692 40.0554 149.393 40.1088C149.105 40.1621 148.855 40.1888 148.641 40.1888C148.151 40.1888 147.756 40.0448 147.457 39.7568C147.169 39.4688 147.025 39.0741 147.025 38.5728V28.4128ZM80.6681 53.3328C80.6681 52.6501 80.7854 51.9728 81.0201 51.3008C81.2654 50.6288 81.6174 50.0208 82.0761 49.4768C82.5348 48.9221 83.1001 48.4848 83.7721 48.1648C84.4441 47.8341 85.2068 47.6688 86.0601 47.6688C87.0628 47.6688 87.9268 47.9034 88.6521 48.3728C89.3774 48.8314 89.9108 49.4234 90.2521 50.1488L89.3721 50.6928C89.1268 50.1914 88.8174 49.7968 88.4441 49.5088C88.0708 49.2101 87.6708 48.9968 87.2441 48.8688C86.8281 48.7408 86.4121 48.6768 85.9961 48.6768C85.3134 48.6768 84.7108 48.8154 84.1881 49.0928C83.6654 49.3594 83.2228 49.7221 82.8601 50.1808C82.5081 50.6394 82.2414 51.1461 82.0601 51.7008C81.8788 52.2554 81.7881 52.8208 81.7881 53.3968C81.7881 54.0261 81.8948 54.6288 82.1081 55.2048C82.3214 55.7701 82.6201 56.2768 83.0041 56.7248C83.3881 57.1728 83.8361 57.5301 84.3481 57.7968C84.8708 58.0528 85.4361 58.1808 86.0441 58.1808C86.4708 58.1808 86.9081 58.1061 87.3561 57.9568C87.8041 57.8074 88.2201 57.5781 88.6041 57.2688C88.9881 56.9594 89.3028 56.5594 89.5481 56.0688L90.4761 56.5488C90.2308 57.1141 89.8628 57.5941 89.3721 57.9888C88.8921 58.3834 88.3481 58.6821 87.7401 58.8848C87.1428 59.0874 86.5561 59.1888 85.9801 59.1888C85.2014 59.1888 84.4868 59.0234 83.8361 58.6928C83.1854 58.3514 82.6201 57.9034 82.1401 57.3488C81.6708 56.7834 81.3081 56.1541 81.0521 55.4608C80.7961 54.7568 80.6681 54.0474 80.6681 53.3328ZM95.7168 59.2528C94.9168 59.2528 94.2022 59.0554 93.5728 58.6608C92.9542 58.2661 92.4688 57.7434 92.1168 57.0928C91.7648 56.4314 91.5888 55.7168 91.5888 54.9488C91.5888 54.1701 91.7648 53.4554 92.1168 52.8048C92.4795 52.1434 92.9702 51.6154 93.5888 51.2208C94.2182 50.8154 94.9275 50.6128 95.7168 50.6128C96.5168 50.6128 97.2262 50.8154 97.8448 51.2208C98.4742 51.6154 98.9648 52.1434 99.3168 52.8048C99.6795 53.4554 99.8608 54.1701 99.8608 54.9488C99.8608 55.7168 99.6848 56.4314 99.3328 57.0928C98.9808 57.7434 98.4902 58.2661 97.8608 58.6608C97.2422 59.0554 96.5275 59.2528 95.7168 59.2528ZM92.6928 54.9648C92.6928 55.5834 92.8262 56.1488 93.0928 56.6608C93.3702 57.1621 93.7382 57.5621 94.1968 57.8608C94.6555 58.1488 95.1622 58.2928 95.7168 58.2928C96.2715 58.2928 96.7782 58.1434 97.2368 57.8448C97.6955 57.5461 98.0635 57.1408 98.3408 56.6288C98.6182 56.1168 98.7568 55.5514 98.7568 54.9328C98.7568 54.3141 98.6182 53.7488 98.3408 53.2368C98.0635 52.7248 97.6955 52.3194 97.2368 52.0208C96.7782 51.7221 96.2715 51.5728 95.7168 51.5728C95.1728 51.5728 94.6715 51.7274 94.2128 52.0368C93.7542 52.3354 93.3862 52.7408 93.1088 53.2528C92.8315 53.7648 92.6928 54.3354 92.6928 54.9648ZM114.08 59.0928H112.992V54.4368C112.992 53.4768 112.838 52.7674 112.528 52.3088C112.219 51.8394 111.76 51.6048 111.152 51.6048C110.512 51.6048 109.947 51.8288 109.456 52.2768C108.966 52.7248 108.619 53.3008 108.416 54.0048V59.0928H107.328V54.4368C107.328 53.4554 107.174 52.7408 106.864 52.2928C106.566 51.8341 106.112 51.6048 105.504 51.6048C104.875 51.6048 104.31 51.8234 103.808 52.2608C103.318 52.6981 102.971 53.2741 102.768 53.9888V59.0928H101.68V50.7568H102.672V52.6448C103.014 52.0048 103.462 51.5088 104.016 51.1568C104.571 50.7941 105.184 50.6128 105.856 50.6128C106.55 50.6128 107.11 50.8154 107.536 51.2208C107.963 51.6154 108.224 52.1274 108.32 52.7568C109.088 51.3274 110.16 50.6128 111.536 50.6128C112.475 50.6128 113.131 50.9434 113.504 51.6048C113.888 52.2554 114.08 53.1248 114.08 54.2128V59.0928ZM128.784 59.0928H127.696V54.4368C127.696 53.4768 127.541 52.7674 127.232 52.3088C126.922 51.8394 126.464 51.6048 125.856 51.6048C125.216 51.6048 124.65 51.8288 124.16 52.2768C123.669 52.7248 123.322 53.3008 123.12 54.0048V59.0928H122.032V54.4368C122.032 53.4554 121.877 52.7408 121.568 52.2928C121.269 51.8341 120.816 51.6048 120.208 51.6048C119.578 51.6048 119.013 51.8234 118.512 52.2608C118.021 52.6981 117.674 53.2741 117.472 53.9888V59.0928H116.384V50.7568H117.376V52.6448C117.717 52.0048 118.165 51.5088 118.72 51.1568C119.274 50.7941 119.888 50.6128 120.56 50.6128C121.253 50.6128 121.813 50.8154 122.24 51.2208C122.666 51.6154 122.928 52.1274 123.024 52.7568C123.792 51.3274 124.864 50.6128 126.24 50.6128C127.178 50.6128 127.834 50.9434 128.208 51.6048C128.592 52.2554 128.784 53.1248 128.784 54.2128V59.0928ZM131.007 55.6528V50.7568H132.095V55.4608C132.095 57.3488 132.74 58.2928 134.031 58.2928C134.671 58.2928 135.268 58.0848 135.823 57.6688C136.388 57.2528 136.793 56.6981 137.039 56.0048V50.7568H138.127V57.7808C138.127 58.0688 138.255 58.2181 138.511 58.2288V59.0928C138.383 59.1141 138.281 59.1248 138.207 59.1248C138.143 59.1248 138.073 59.1248 137.999 59.1248C137.775 59.1034 137.583 59.0181 137.423 58.8688C137.273 58.7194 137.199 58.5381 137.199 58.3248L137.167 57.2048C136.804 57.8554 136.308 58.3621 135.679 58.7248C135.06 59.0768 134.388 59.2528 133.663 59.2528C131.892 59.2528 131.007 58.0528 131.007 55.6528ZM147.595 59.0928H146.507V54.4368C146.507 53.4554 146.357 52.7408 146.059 52.2928C145.771 51.8341 145.323 51.6048 144.715 51.6048C144.288 51.6048 143.867 51.7114 143.451 51.9248C143.035 52.1274 142.667 52.4101 142.347 52.7728C142.037 53.1248 141.813 53.5301 141.675 53.9888V59.0928H140.587V50.7568H141.579V52.6448C141.909 52.0368 142.395 51.5461 143.035 51.1728C143.675 50.7994 144.368 50.6128 145.115 50.6128C145.733 50.6128 146.224 50.7621 146.587 51.0608C146.949 51.3488 147.205 51.7648 147.355 52.3088C147.515 52.8421 147.595 53.4768 147.595 54.2128V59.0928ZM149.915 49.0128V47.4128H151.003V49.0128H149.915ZM149.915 59.0928V50.7568H151.003V59.0928H149.915ZM157.399 58.6928C157.271 58.7461 157.037 58.8421 156.695 58.9808C156.354 59.1194 155.959 59.1888 155.511 59.1888C155.042 59.1888 154.631 59.0554 154.279 58.7888C153.927 58.5221 153.751 58.1221 153.751 57.5888V51.6208H152.599V50.7568H153.751V47.9408H154.839V50.7568H156.759V51.6208H154.839V57.2848C154.861 57.5941 154.967 57.8234 155.159 57.9728C155.362 58.1114 155.591 58.1808 155.847 58.1808C156.146 58.1808 156.413 58.1328 156.647 58.0368C156.893 57.9301 157.047 57.8554 157.111 57.8128L157.399 58.6928ZM159.239 61.6528C159.388 61.6634 159.532 61.6688 159.671 61.6688C159.809 61.6794 159.911 61.6741 159.975 61.6528C160.103 61.6421 160.22 61.5674 160.327 61.4288C160.444 61.3008 160.583 61.0554 160.743 60.6928C160.913 60.3408 161.143 59.8074 161.431 59.0928L157.799 50.7568H158.951L162.007 57.9728L164.823 50.7568H165.911L161.591 61.5088C161.473 61.8181 161.276 62.0848 160.999 62.3088C160.721 62.5328 160.353 62.6501 159.895 62.6608C159.799 62.6714 159.697 62.6714 159.591 62.6608C159.484 62.6608 159.367 62.6501 159.239 62.6288V61.6528Z" fill="white"/>
<path d="M34.0093 1.01953L1.56055 14.822" stroke="white" stroke-width="2"/>
<path d="M65.4852 14.9265L33.3262 1" stroke="white" stroke-width="2"/>
<path d="M1.84766 14.1826V37.5932" stroke="white" stroke-width="2"/>
<path d="M33.3655 68.793L1.59961 55.2178" stroke="white" stroke-width="2"/>
<path d="M65.505 55.0527L32.8906 68.7933" stroke="white" stroke-width="2"/>
<path d="M33.1799 50.4865L1.41406 36.8906" stroke="white" stroke-width="2"/>
<path d="M64.6565 36.6846L32.7871 50.6111" stroke="white" stroke-width="2"/>
<path d="M65.0273 36.0029V55.7149" stroke="white" stroke-width="2"/>
<path d="M33.1172 68.9996V19.2031" stroke="white" stroke-width="2"/>
<path d="M14.5762 18.8516H51.557" stroke="white" stroke-width="2"/>
<path d="M1 55.2597L10.0848 50.9619" stroke="white" stroke-width="2"/>
<path d="M65.0918 14.3057V23.3765" stroke="white" stroke-width="2"/>
<path d="M65.068 27.2825C65.5823 27.2825 65.9992 26.8662 65.9992 26.3527C65.9992 25.8391 65.5823 25.4229 65.068 25.4229C64.5537 25.4229 64.1367 25.8391 64.1367 26.3527C64.1367 26.8662 64.5537 27.2825 65.068 27.2825Z" fill="white"/>
</svg>
