<svg width="157" height="93" viewBox="0 0 171 90" fill="none" xmlns="http://www.w3.org/2000/svg">
<path d="M148.755 10.1313C136.634 0.905569 120.943 3.12783 124.108 10.1313C127.273 17.1348 140.943 35.3169 150.573 32.1519C160.203 28.9869 156.769 16.2594 148.755 10.1313Z" fill="#E4EBF7"/>
<path d="M162.694 54.9812C152.391 63.2642 143.165 67.372 135.017 67.372C132.997 67.372 131.044 67.1026 129.091 66.5639C116.902 63.1969 107.744 49.1899 101.75 24.947C99.1241 14.1724 95.353 6.09147 91.3125 0.0307617C91.7165 0.165444 92.0533 0.367456 92.4573 0.502138C96.2958 6.49551 99.8648 14.3744 102.424 24.745C108.35 48.7858 117.374 62.6581 129.293 65.8905C138.519 68.4495 149.495 64.611 162.088 54.5098C162.29 54.7119 162.492 54.8465 162.694 54.9812Z" fill="#202743"/>
<path d="M75.1521 86.295H74.2766C79.866 79.3588 82.6943 72.0186 82.4923 64.3417C82.1556 50.2 71.7177 38.146 61.5491 32.422C57.1046 29.9303 53.6702 26.6979 50.9766 23.2635C50.9766 22.9268 51.0439 22.5901 51.0439 22.2534C53.7376 25.8898 57.2393 29.2569 61.8858 31.8832C72.2564 37.6746 82.829 49.9307 83.1657 64.3417C83.3677 70.2677 81.7515 78.012 75.1521 86.295Z" fill="#202743"/>
<path d="M59.8651 86.2269H58.9224C62.3568 82.1865 64.579 77.7419 64.4443 73.3648C64.2423 67.5734 60.0672 62.6575 51.9862 58.8191C48.5518 57.2029 45.3194 55.1826 42.2891 52.9604C42.6258 52.893 42.9625 52.893 43.2992 52.8257C46.1275 54.8459 49.0905 56.6641 52.3229 58.1456C60.6732 62.1188 64.9831 67.1694 65.1851 73.2301C65.2524 77.8766 63.0975 82.3212 59.8651 86.2269Z" fill="#202743"/>
<path d="M169.901 74.5102C169.833 74.7122 169.766 74.9142 169.766 75.1836C164.783 74.7795 160.54 75.7223 157.106 78.1466C154.008 80.3015 151.921 83.3319 150.506 86.5643H149.766C151.247 83.1972 153.402 79.8975 156.702 77.6079C160.271 75.0489 164.715 74.0388 169.901 74.5102Z" fill="white"/>
<path d="M145.723 47.9775C142.626 51.0079 139.595 52.4894 136.7 52.4894C136.026 52.4894 135.42 52.4221 134.747 52.22C126.06 50.1325 120.201 34.3746 116.699 20.3003C117.036 20.637 117.373 20.9737 117.709 21.3104C121.278 34.9133 126.868 49.6611 134.949 51.5466C138.114 52.2874 141.548 51.0079 145.117 47.5735C145.319 47.7755 145.521 47.9102 145.723 47.9775Z" fill="#202743"/>
<path d="M34.009 43.5327C34.009 43.5327 32.6621 45.0142 31.9887 51.4116C31.3826 57.7417 25.8607 60.9741 21.4835 61.3108H21.4161V61.2435L21.2815 60.6374L20.204 56.5296C20.204 56.5296 18.8572 45.3509 33.6049 43.6C33.7396 43.6 33.8743 43.6001 34.009 43.5327Z" fill="#ABDAF7"/>
<path d="M22.6267 86.5646C22.6267 86.5646 22.896 53.702 17.3067 43.0621C11.7847 32.3548 0 30.5366 0 30.5366C0 30.5366 12.5928 33.8364 17.3067 46.4965C22.0206 59.1567 20.6064 86.5646 20.6064 86.5646H22.6267Z" fill="#ABDAF7"/>
<path d="M20.809 80.3682C2.69421 80.2335 2.49219 60.1658 2.49219 59.0883V59.021C6.66735 65.2837 21.5498 64.745 20.809 80.3682Z" fill="#ABDAF7"/>
<path d="M20.809 80.3682C2.69421 80.2335 2.49219 60.1658 2.49219 59.0884C2.55953 59.9638 3.23294 73.2974 11.3812 75.587C19.7315 77.8766 20.809 80.3682 20.809 80.3682Z" fill="#70B2DD"/>
<path d="M38.0463 71.4143C35.9587 77.1383 39.0564 82.997 33.7364 86.5661H24.578C24.578 86.5661 23.972 73.7039 38.0463 71.4143Z" fill="#ABDAF7"/>
<path d="M38.045 71.4126C35.9574 77.1366 39.0551 82.9953 33.7352 86.5644H30.3008C34.8126 82.6586 35.3514 75.7224 38.045 71.4126Z" fill="#70B2DD"/>
<path d="M34.0084 43.5327C34.0084 43.5327 32.6616 45.0142 31.9882 51.4116C31.3821 57.7417 25.8601 60.9741 21.4829 61.3108L21.3483 61.2435L20.7422 60.7721C20.8769 60.7047 21.0789 60.6374 21.2136 60.6374C30.17 57.2703 30.3046 48.8527 33.4697 43.6C33.7391 43.6 33.8737 43.6001 34.0084 43.5327Z" fill="#70B2DD"/>
<path d="M20.135 52.2869C19.1923 52.4889 8.55234 54.7112 6.33008 44.206C4.17516 33.9028 0.471389 30.9397 0 30.603C20.2697 33.7681 20.135 52.2869 20.135 52.2869Z" fill="#ABDAF7"/>
<path d="M20.135 52.2869C19.1923 52.4889 8.55234 54.7112 6.33008 44.206C4.17516 33.9028 0.471389 30.9397 0 30.603C10.0338 35.8556 5.25262 50.6707 20.135 52.2869Z" fill="#70B2DD"/>
<path d="M170.037 86.5649H8.6875V89.9993H170.037V86.5649Z" fill="#70B2DD"/>
<path d="M144.719 85.2175V83.736C146.604 83.736 148.288 82.4565 148.827 80.6383L149.096 79.7629C149.231 79.2242 149.163 78.6854 148.827 78.2814C148.49 77.8773 148.018 77.608 147.48 77.608H146.335V76.1265H147.48C148.49 76.1265 149.433 76.5978 150.039 77.4059C150.645 78.214 150.847 79.2242 150.577 80.1669L150.308 81.0424C149.5 83.4667 147.278 85.2175 144.719 85.2175Z" fill="#70B2DD"/>
<path d="M147.208 75.3863L147.006 76.8678L145.929 84.4774C145.727 85.6895 144.717 86.565 143.572 86.565H138.05C136.838 86.565 135.827 85.6895 135.693 84.4774L134.615 76.8678L134.413 75.3863C134.279 74.6455 134.885 73.9048 135.693 73.9048H145.929C146.669 73.9721 147.276 74.6455 147.208 75.3863Z" fill="#ABDAF7"/>
<path d="M147.208 75.3863L147.006 76.8678H134.615L134.413 75.3863C134.279 74.6455 134.885 73.9048 135.693 73.9048H145.929C146.669 73.9721 147.276 74.6455 147.208 75.3863Z" fill="#70B2DD"/>
<path d="M124.105 86.566C124.105 86.566 125.856 85.2865 125.183 79.3605C124.577 73.4344 124.105 69.2593 124.105 69.2593L111.176 70.6734L112.657 82.5255L124.105 86.566Z" fill="#FFC300"/>
<path d="M112.794 73.7034L114.478 86.5656H72.1202C72.1202 86.5656 67.945 55.3193 76.8341 48.0464C80.7399 44.8814 85.7905 43.4672 90.1676 42.8611C95.757 42.053 100.336 42.6591 100.336 42.6591C100.336 42.6591 101.414 42.6591 103.03 42.7938C106.666 43.1305 113.198 44.1406 117.037 47.7097C122.626 52.8276 125.185 73.3667 125.185 73.3667C125.185 73.3667 120.337 74.4442 112.794 73.7034Z" fill="#FFC300"/>
<path d="M112.795 73.7035L110.842 73.4342L104.849 57.7437C104.849 57.7437 105.051 75.5218 99.4615 80.8417C93.8722 86.1617 79.7306 83.6027 79.7306 83.6027L77.7777 57.811L73.5352 71.0099L76.3635 86.6331H114.546L112.795 73.7035Z" fill="#FFC300"/>
<path d="M103.096 42.7264C102.692 46.2955 101.681 51.4135 98.7184 53.5684C94.0718 56.9354 89.8293 55.5213 88.0111 52.0869C86.1929 48.6525 88.3478 43.6019 88.9539 43.1978L90.2334 42.8611C95.8227 42.053 100.402 42.6591 100.402 42.6591C100.402 42.6591 101.479 42.5918 103.096 42.7264Z" fill="#FFC300"/>
<path d="M72.1885 86.5642H66.0605C62.0874 86.5642 59.1917 82.9278 59.9324 79.0893L62.4914 66.4292L72.1885 86.5642Z" fill="#F29C8B"/>
<path d="M71.4488 64.4764C71.4488 64.4764 72.3915 62.3888 71.4488 61.5134C70.506 60.6379 69.2938 60.7053 69.2938 60.7053C69.2938 60.7053 68.6878 58.685 64.984 59.0217C61.2802 59.3584 60.9435 62.8602 63.0311 64.4764H71.4488Z" fill="#FEB19E"/>
<path d="M69.0238 62.2546L64.916 51.278C64.714 50.8066 64.2426 50.5372 63.7712 50.6719C63.2325 50.8066 62.8958 51.4126 63.1651 51.9514L67.5423 62.5239L69.0238 62.2546Z" fill="#525559"/>
<path d="M96.363 27.5739C96.363 27.5739 96.6997 21.3111 95.1508 19.3582C93.5347 17.4053 91.8511 18.1461 91.8511 18.1461C91.8511 18.1461 91.8511 15.1157 88.0127 14.2403C84.1069 13.3649 79.7297 14.1729 76.4973 17.136C73.1976 20.1663 68.349 18.5501 68.349 20.705C68.349 22.86 71.3794 23.6007 71.3794 23.6007C71.3794 23.6007 67.2042 23.3314 67.2042 25.1496C67.1369 26.9678 70.1672 30.2002 74.2077 30.0655C74.2077 30.0655 75.1505 36.0588 80.9418 35.8568L89.7635 32.8265L95.6222 29.7288L96.363 27.5739Z" fill="url(#paint0_linear)"/>
<path d="M100.405 42.5907C100.405 42.5907 99.1253 54.2408 92.8626 53.5C89.4282 53.096 89.1588 49.9983 89.4955 48.0454C89.6976 46.7659 90.1016 45.8231 90.1016 45.8231L87.0039 41.5133L95.7583 32.1528C97.1051 36.5974 98.5866 40.3685 100.405 42.5907Z" fill="#FEB19E"/>
<path d="M89.4955 48.0454C89.6976 46.7659 90.1016 45.8231 90.1016 45.8231L87.0039 41.5133L95.7583 32.1528C99.1253 44.3416 92.6606 47.3046 89.4955 48.0454Z" fill="#FF856A"/>
<path d="M76.9023 30.671C76.9023 30.671 83.2324 44.6106 89.8319 44.1392C95.3538 43.7352 97.1047 34.6441 95.7579 32.1525C95.7579 32.1525 98.2495 32.3545 97.6435 29.5262C97.1047 26.6305 94.4111 23.8022 93.8723 29.5262C93.8723 29.5262 90.64 30.6036 89.6298 23.6675C89.6298 23.6675 86.4648 28.8527 84.1079 29.4588C81.7509 30.0649 82.4243 27.708 82.4243 27.708C82.4243 27.708 80.9428 29.9302 76.9023 30.671Z" fill="#FEB19E"/>
<path d="M93.8706 86.565H70.4359C69.6951 86.565 68.9544 86.0936 68.685 85.3528L67.9443 83.3999L61.5469 67.036C61.0755 65.8239 61.9509 64.4771 63.2977 64.4771H86.4631C87.2039 64.4771 87.9446 64.9484 88.214 65.6219L95.6889 83.8713C96.1603 85.2182 95.2175 86.565 93.8706 86.565Z" fill="#1B3151"/>
<path d="M92.2535 86.565H70.5023C69.7615 86.565 69.0208 86.0936 68.7514 85.3528L68.0107 83.3999L61.6133 67.036C61.1419 65.8239 62.0173 64.4771 63.3641 64.4771H84.846C85.048 64.4771 85.25 64.4771 85.3847 64.5444C85.9235 64.6791 86.3948 65.0831 86.5969 65.6219L94.0717 83.8713C94.4758 85.2182 93.6003 86.565 92.2535 86.565Z" fill="#23406D"/>
<path d="M79.1207 74.511C79.5248 75.9252 79.1207 77.272 78.178 77.5413C77.2352 77.8107 76.1577 76.8679 75.7537 75.4538C75.3496 74.0396 75.7537 72.6928 76.6964 72.4234C77.6392 72.154 78.7167 73.0968 79.1207 74.511Z" fill="#4E79B7"/>
<path opacity="0.49" d="M93.8717 86.565H70.4369C69.6962 86.565 68.9554 86.0936 68.6861 85.3528L67.9453 83.3999C79.528 82.1878 83.9052 70.3357 85.3194 64.5444V64.4771H86.3968C87.1376 64.4771 87.8783 64.9484 88.1477 65.6219L95.6226 83.8713C96.1613 85.2182 95.2185 86.565 93.8717 86.565Z" fill="#1B3151"/>
<path d="M124.108 86.5652C124.108 86.5652 121.481 76.464 95.0163 71.3461C95.0163 71.3461 92.996 66.6995 88.8209 66.4302L89.4269 69.3258C89.4269 69.3258 84.7804 70.2686 80.4706 69.7299C76.1607 69.1912 79.2584 73.6357 82.2214 75.7906C85.1844 77.9455 85.7232 79.3597 90.235 78.4169C94.6796 77.4741 95.757 77.2721 95.757 77.2721C95.757 77.2721 101.481 83.2655 107.744 86.5652H124.108Z" fill="#FEB19E"/>
<path d="M60.3851 15.2448C61.7355 9.52601 58.1942 3.79535 52.4754 2.44499C46.7566 1.09463 41.0259 4.63593 39.6755 10.3547C38.3252 16.0735 41.8665 21.8042 47.5853 23.1545C53.304 24.5049 59.0347 20.9636 60.3851 15.2448Z" fill="#70B2DD"/>
<path d="M50.0342 20.6373C54.3485 20.6373 57.8458 17.14 57.8458 12.8257C57.8458 8.51153 54.3485 5.01416 50.0342 5.01416C45.72 5.01416 42.2227 8.51153 42.2227 12.8257C42.2227 17.14 45.72 20.6373 50.0342 20.6373Z" fill="#ABDAF7"/>
<path d="M54.4137 12.4216H50.5753V7.23634C50.5753 6.8323 50.2386 6.49561 49.8345 6.49561C49.4305 6.49561 49.0938 6.8323 49.0938 7.23634V13.7685H49.6325H50.5753H54.4137C54.8178 13.7685 55.0871 13.4317 55.0871 13.095C55.0871 12.7583 54.8178 12.4216 54.4137 12.4216Z" fill="#70B2DD"/>
<defs>
<linearGradient id="paint0_linear" x1="67.1201" y1="24.8927" x2="96.406" y2="24.8927" gradientUnits="userSpaceOnUse">
<stop stop-color="#3F2323"/>
<stop offset="1" stop-color="#5E3434"/>
</linearGradient>
</defs>
</svg>
