<svg width="24" height="24" viewBox="0 0 24 24" fill="none" xmlns="http://www.w3.org/2000/svg">
<path d="M23.4286 0H0.571429C0.256 0 0 0.256 0 0.571429V23.4286C0 23.744 0.256 24 0.571429 24H23.4286C23.744 24 24 23.744 24 23.4286V0.571429C24 0.256 23.744 0 23.4286 0ZM20.5714 5.42857L19.5309 6.684C19.4651 6.74914 19.4286 6.83714 19.4286 6.92857V16.4286C19.4286 16.52 19.4651 16.608 19.5309 16.6731L20.5714 18.0263V18.2857H14.8571V18.0263L16.4691 16.6731C16.5349 16.608 16.5714 16.52 16.5714 16.4286V7.93086L11.9131 18.2857H11.9126H11.0309L6.28571 8.21429V15.7046C6.28571 15.8303 6.32914 15.952 6.40857 16.0503L8 18.0263V18.2857H3.42857V18.0263L5.01886 16.0617C5.09886 15.9634 5.14286 15.8406 5.14286 15.7143V7.07886C5.14286 6.99771 5.11429 6.91943 5.06171 6.85714L4 5.42857V5.14286H8.05543L12.412 14.3903L16.5726 5.14286H20.5714V5.42857Z" fill="white"/>
</svg>
