<svg width="212" height="443" viewBox="0 0 212 443" fill="none" xmlns="http://www.w3.org/2000/svg">
<path d="M209.265 102.008H210.566C210.997 102.008 211.347 102.358 211.347 102.789V117.888C211.347 118.319 210.997 118.669 210.566 118.669H209.265V102.008Z" fill="#090980" stroke="black"/>
<path d="M209.265 158.761H210.566C210.997 158.761 211.347 159.111 211.347 159.542V190.261C211.347 190.692 210.997 191.042 210.566 191.042H209.265V158.761Z" fill="#090980" stroke="black"/>
<path d="M1 138.715C1 138.283 1.34988 137.934 1.78099 137.934H3.60331V191.562H1.78099C1.34988 191.562 1 191.212 1 190.781V138.715Z" fill="#090980" stroke="black"/>
<path d="M3.5359 35.4787C3.54891 29.9347 3.55933 25.7902 3.80091 22.4882C4.0425 19.1893 4.51474 16.751 5.44308 14.6169C7.73659 9.34255 11.9508 5.13822 17.2309 2.8572C19.3671 1.93459 21.8064 1.46807 25.1064 1.2343C28.4084 0.999998 32.5529 1 38.0974 1H174.77C180.314 1 184.459 0.999998 187.761 1.2343C191.061 1.46807 193.5 1.93459 195.636 2.8572C200.916 5.13822 205.131 9.34255 207.424 14.6169C208.353 16.751 208.825 19.1893 209.066 22.4882C209.308 25.7902 209.318 29.9347 209.331 35.4787L210.222 407.356C210.235 412.924 210.245 417.086 210.018 420.402C209.79 423.716 209.327 426.166 208.404 428.309C206.122 433.609 201.904 437.835 196.61 440.131C194.468 441.058 192.02 441.531 188.707 441.766C185.391 442 181.229 442 175.661 442H37.2065C31.6386 442 27.4764 442 24.1603 441.766C20.8474 441.531 18.3992 441.058 16.2577 440.131C10.9636 437.835 6.74578 433.609 4.46372 428.309C3.54007 426.166 3.0772 423.716 2.84967 420.402C2.62214 417.086 2.63203 412.924 2.64557 407.356L3.5359 35.4787Z" fill="#090981" stroke="black"/>
<mask id="mask0" mask-type="alpha" maskUnits="userSpaceOnUse" x="5" y="4" width="202" height="436">
<path fill-rule="evenodd" clip-rule="evenodd" d="M23.6488 4.38477C13.8718 4.38477 5.94629 12.3103 5.94629 22.0872V421.434C5.94629 431.211 13.8718 439.137 23.6488 439.137H189.219C198.996 439.137 206.922 431.211 206.922 421.434V22.0872C206.922 12.3103 198.996 4.38477 189.219 4.38477H23.6488ZM98.4808 17.2581C95.7827 14.042 91.8377 12.3212 89.579 11.674H38.7479C26.476 11.674 20.34 11.674 16.5272 15.4863C12.7149 19.2991 12.7149 25.4351 12.7149 37.7071V402.17C12.7149 414.442 12.7149 420.578 16.5272 424.391C20.34 428.203 26.476 428.203 38.7479 428.203H174.12C186.392 428.203 192.528 428.203 196.341 424.391C200.153 420.578 200.153 414.442 200.153 402.17V37.7071C200.153 25.4351 200.153 19.2991 196.341 15.4863C192.528 11.674 186.392 11.674 174.12 11.674H123.784C121.459 12.3212 117.398 14.042 114.621 17.2581C110.66 21.8457 108.547 22.0872 106.434 22.0872C104.381 22.0872 102.329 21.8457 98.4808 17.2581Z" fill="white"/>
</mask>
<g mask="url(#mask0)">
<path fill-rule="evenodd" clip-rule="evenodd" d="M23.6488 4.38477C13.8718 4.38477 5.94629 12.3103 5.94629 22.0872V421.434C5.94629 431.211 13.8718 439.137 23.6488 439.137H189.219C198.996 439.137 206.922 431.211 206.922 421.434V22.0872C206.922 12.3103 198.996 4.38477 189.219 4.38477H23.6488ZM98.4808 17.2581C95.7827 14.042 91.8377 12.3212 89.579 11.674H38.7479C26.476 11.674 20.34 11.674 16.5272 15.4863C12.7149 19.2991 12.7149 25.4351 12.7149 37.7071V402.17C12.7149 414.442 12.7149 420.578 16.5272 424.391C20.34 428.203 26.476 428.203 38.7479 428.203H174.12C186.392 428.203 192.528 428.203 196.341 424.391C200.153 420.578 200.153 414.442 200.153 402.17V37.7071C200.153 25.4351 200.153 19.2991 196.341 15.4863C192.528 11.674 186.392 11.674 174.12 11.674H123.784C121.459 12.3212 117.398 14.042 114.621 17.2581C110.66 21.8457 108.547 22.0872 106.434 22.0872C104.381 22.0872 102.329 21.8457 98.4808 17.2581Z" fill="#4053B6"/>
<path d="M89.5792 11.6732L89.7229 11.1728L89.6526 11.1525H89.5792V11.6732ZM98.4809 17.2573L98.8798 16.9225L98.4809 17.2573ZM123.785 11.6732V11.1525H123.713L123.645 11.1718L123.785 11.6732ZM114.621 17.2573L115.016 17.5973L114.621 17.2573ZM6.4671 22.0864C6.4671 12.5974 14.1599 4.9046 23.6489 4.9046V3.86328C13.5845 3.86328 5.42578 12.022 5.42578 22.0864H6.4671ZM6.4671 421.434V22.0864H5.42578V421.434H6.4671ZM23.6489 438.615C14.1599 438.615 6.4671 430.923 6.4671 421.434H5.42578C5.42578 431.498 13.5845 439.657 23.6489 439.657V438.615ZM189.219 438.615H23.6489V439.657H189.219V438.615ZM206.401 421.434C206.401 430.923 198.708 438.615 189.219 438.615V439.657C199.284 439.657 207.442 431.498 207.442 421.434H206.401ZM206.401 22.0864V421.434H207.442V22.0864H206.401ZM189.219 4.9046C198.708 4.9046 206.401 12.5974 206.401 22.0864H207.442C207.442 12.022 199.284 3.86328 189.219 3.86328V4.9046ZM23.6489 4.9046H189.219V3.86328H23.6489V4.9046ZM89.436 12.1736C91.64 12.8056 95.4757 14.4848 98.0816 17.5916L98.8798 16.9225C96.0906 13.5976 92.0362 11.8356 89.7229 11.1728L89.436 12.1736ZM38.7481 12.1939H89.5792V11.1525H38.7481V12.1939ZM16.8954 15.8536C18.6891 14.0604 21.0477 13.1347 24.5346 12.6656C28.0365 12.1949 32.5975 12.1939 38.7481 12.1939V11.1525C32.6267 11.1525 27.9834 11.1515 24.3961 11.6336C20.7936 12.1178 18.1783 13.0983 16.1592 15.1174L16.8954 15.8536ZM13.2357 37.7063C13.2357 31.5557 13.2367 26.9947 13.7074 23.4927C14.1765 20.0059 15.1023 17.6473 16.8954 15.8536L16.1592 15.1174C14.1401 17.1365 13.1597 19.7518 12.6755 23.3542C12.1933 26.9416 12.1944 31.5848 12.1944 37.7063H13.2357ZM13.2357 402.169V37.7063H12.1944V402.169H13.2357ZM16.8954 424.022C15.1023 422.228 14.1765 419.869 13.7074 416.383C13.2367 412.881 13.2357 408.32 13.2357 402.169H12.1944C12.1944 408.29 12.1933 412.934 12.6755 416.521C13.1597 420.124 14.1401 422.739 16.1592 424.758L16.8954 424.022ZM38.7481 427.681C32.5975 427.681 28.0365 427.68 24.5346 427.21C21.0477 426.741 18.6891 425.815 16.8954 424.022L16.1592 424.758C18.1783 426.777 20.7936 427.757 24.3961 428.242C27.9834 428.724 32.6267 428.723 38.7481 428.723V427.681ZM174.12 427.681H38.7481V428.723H174.12V427.681ZM195.973 424.022C194.179 425.815 191.82 426.741 188.334 427.21C184.832 427.68 180.271 427.681 174.12 427.681V428.723C180.241 428.723 184.885 428.724 188.472 428.242C192.074 427.757 194.69 426.777 196.709 424.758L195.973 424.022ZM199.632 402.169C199.632 408.32 199.631 412.881 199.161 416.383C198.692 419.869 197.766 422.228 195.973 424.022L196.709 424.758C198.728 422.739 199.708 420.124 200.193 416.521C200.675 412.934 200.674 408.29 200.674 402.169H199.632ZM199.632 37.7063V402.169H200.674V37.7063H199.632ZM195.973 15.8536C197.766 17.6473 198.692 20.0059 199.161 23.4927C199.631 26.9947 199.632 31.5557 199.632 37.7063H200.674C200.674 31.5848 200.675 26.9416 200.193 23.3542C199.708 19.7518 198.728 17.1365 196.709 15.1174L195.973 15.8536ZM174.12 12.1939C180.271 12.1939 184.832 12.1949 188.334 12.6656C191.82 13.1347 194.179 14.0604 195.973 15.8536L196.709 15.1174C194.69 13.0983 192.074 12.1178 188.472 11.6336C184.885 11.1515 180.241 11.1525 174.12 11.1525V12.1939ZM123.785 12.1939H174.12V11.1525H123.785V12.1939ZM115.016 17.5973C117.7 14.4889 121.651 12.8077 123.924 12.1746L123.645 11.1718C121.267 11.8336 117.097 13.5934 114.227 16.9168L115.016 17.5973ZM106.434 22.6071C107.521 22.6071 108.671 22.5451 110.064 21.8594C111.44 21.182 113.012 19.9174 115.016 17.5973L114.227 16.9168C112.269 19.1848 110.804 20.3344 109.604 20.9248C108.422 21.5069 107.46 21.5658 106.434 21.5658V22.6071ZM98.0816 17.5916C100.028 19.9116 101.556 21.1779 102.896 21.8568C104.254 22.5446 105.376 22.6071 106.434 22.6071V21.5658C105.44 21.5658 104.51 21.5074 103.366 20.9279C102.204 20.3391 100.782 19.1905 98.8798 16.9225L98.0816 17.5916Z" fill="black"/>
<path d="M106.434 18.182C108.591 18.182 110.339 16.4337 110.339 14.277C110.339 12.1204 108.591 10.3721 106.434 10.3721C104.278 10.3721 102.529 12.1204 102.529 14.277C102.529 16.4337 104.278 18.182 106.434 18.182Z" fill="#DFE9F1" stroke="#13137A"/>
<path d="M106.434 17.1404C108.015 17.1404 109.298 15.8583 109.298 14.2767C109.298 12.6952 108.015 11.4131 106.434 11.4131C104.852 11.4131 103.57 12.6952 103.57 14.2767C103.57 15.8583 104.852 17.1404 106.434 17.1404Z" fill="#DFE9F1" stroke="#13137A"/>
</g>
<mask id="mask1" mask-type="alpha" maskUnits="userSpaceOnUse" x="12" y="11" width="189" height="418">
<path fill-rule="evenodd" clip-rule="evenodd" d="M89.579 11.6738C91.8376 12.321 95.7827 14.0418 98.4807 17.2579C102.329 21.8455 104.381 22.0871 106.434 22.0871C108.547 22.0871 110.66 21.8455 114.621 17.2579C117.398 14.0418 121.459 12.321 123.784 11.6738H174.12C186.392 11.6738 192.528 11.6738 196.341 15.4861C200.153 19.2989 200.153 25.4349 200.153 37.7069V402.17C200.153 414.442 200.153 420.578 196.341 424.39C192.528 428.203 186.392 428.203 174.12 428.203H38.7479C26.4759 428.203 20.3399 428.203 16.5271 424.39C12.7148 420.578 12.7148 414.442 12.7148 402.17V37.7069C12.7148 25.4349 12.7148 19.2989 16.5271 15.4861C20.3399 11.6738 26.4759 11.6738 38.7479 11.6738H89.579Z" fill="white"/>
</mask>
<g mask="url(#mask1)">
<path d="M200.438 11.1533H13V427.682H200.438V11.1533Z" fill="#13137A"/>
<path d="M74.7679 180.152C74.2879 179.608 73.6479 179.168 72.8479 178.832C72.0479 178.496 71.1359 178.328 70.1119 178.328C68.6079 178.328 67.5119 178.616 66.8239 179.192C66.1359 179.752 65.7919 180.52 65.7919 181.496C65.7919 182.008 65.8799 182.432 66.0559 182.768C66.2479 183.088 66.5359 183.368 66.9199 183.608C67.3039 183.848 67.7919 184.056 68.3839 184.232C68.9919 184.408 69.7039 184.584 70.5199 184.76C71.4319 184.952 72.2479 185.168 72.9679 185.408C73.7039 185.648 74.3279 185.952 74.8399 186.32C75.3519 186.672 75.7439 187.104 76.0159 187.616C76.2879 188.128 76.4239 188.768 76.4239 189.536C76.4239 190.32 76.2719 191 75.9679 191.576C75.6639 192.152 75.2399 192.632 74.6959 193.016C74.1519 193.4 73.5039 193.688 72.7519 193.88C71.9999 194.056 71.1759 194.144 70.2799 194.144C67.6399 194.144 65.3599 193.32 63.4399 191.672L64.2799 190.304C64.5839 190.624 64.9439 190.928 65.3599 191.216C65.7919 191.504 66.2639 191.76 66.7759 191.984C67.3039 192.192 67.8639 192.36 68.4559 192.488C69.0479 192.6 69.6719 192.656 70.3279 192.656C71.6879 192.656 72.7439 192.416 73.4959 191.936C74.2639 191.44 74.6479 190.696 74.6479 189.704C74.6479 189.176 74.5359 188.736 74.3119 188.384C74.1039 188.016 73.7839 187.704 73.3519 187.448C72.9199 187.176 72.3839 186.944 71.7439 186.752C71.1039 186.56 70.3599 186.368 69.5119 186.176C68.6159 185.968 67.8319 185.752 67.1599 185.528C66.4879 185.304 65.9199 185.024 65.4559 184.688C64.9919 184.352 64.6399 183.952 64.3999 183.488C64.1759 183.008 64.0639 182.424 64.0639 181.736C64.0639 180.952 64.2079 180.256 64.4959 179.648C64.7999 179.024 65.2239 178.512 65.7679 178.112C66.3119 177.696 66.9519 177.384 67.6879 177.176C68.4239 176.952 69.2399 176.84 70.1359 176.84C71.2719 176.84 72.2799 177.016 73.1599 177.368C74.0559 177.704 74.8639 178.184 75.5839 178.808L74.7679 180.152ZM84.9094 193.4C84.8134 193.448 84.6694 193.512 84.4774 193.592C84.3014 193.672 84.0934 193.752 83.8534 193.832C83.6134 193.912 83.3414 193.984 83.0374 194.048C82.7334 194.112 82.4134 194.144 82.0774 194.144C81.7254 194.144 81.3894 194.096 81.0694 194C80.7494 193.904 80.4694 193.76 80.2294 193.568C79.9894 193.36 79.7974 193.104 79.6534 192.8C79.5094 192.496 79.4374 192.144 79.4374 191.744V182.792H77.7094V181.496H79.4374V177.272H81.0694V181.496H83.9494V182.792H81.0694V191.288C81.1014 191.752 81.2614 192.096 81.5494 192.32C81.8534 192.528 82.1974 192.632 82.5814 192.632C83.0454 192.632 83.4534 192.56 83.8054 192.416C84.1574 192.256 84.3814 192.144 84.4774 192.08L84.9094 193.4ZM90.8604 194.24C89.5004 194.24 88.4844 193.792 87.8124 192.896C87.1564 191.984 86.8284 190.632 86.8284 188.84V181.496H88.4604V188.552C88.4604 191.384 89.4284 192.8 91.3644 192.8C91.8444 192.8 92.3164 192.72 92.7804 192.56C93.2444 192.4 93.6684 192.168 94.0524 191.864C94.4524 191.56 94.8044 191.2 95.1084 190.784C95.4284 190.368 95.6844 189.896 95.8764 189.368V181.496H97.5084V191.888C97.5084 192.336 97.7004 192.56 98.0844 192.56V194C97.8924 194.032 97.7324 194.048 97.6044 194.048C97.4924 194.048 97.4124 194.048 97.3644 194.048C96.9804 194.032 96.6684 193.896 96.4284 193.64C96.1884 193.384 96.0684 193.04 96.0684 192.608V191.168C95.5244 192.144 94.7804 192.904 93.8364 193.448C92.9084 193.976 91.9164 194.24 90.8604 194.24ZM106.334 194.24C105.47 194.24 104.67 194.064 103.934 193.712C103.198 193.344 102.566 192.864 102.038 192.272C101.51 191.68 101.094 191 100.79 190.232C100.502 189.448 100.358 188.632 100.358 187.784C100.358 186.904 100.502 186.072 100.79 185.288C101.078 184.488 101.47 183.792 101.966 183.2C102.478 182.608 103.078 182.144 103.766 181.808C104.47 181.456 105.238 181.28 106.07 181.28C107.126 181.28 108.062 181.56 108.878 182.12C109.694 182.664 110.334 183.328 110.798 184.112V176.48H112.43V191.888C112.43 192.336 112.622 192.56 113.006 192.56V194C112.766 194.048 112.574 194.072 112.43 194.072C112.046 194.072 111.71 193.952 111.422 193.712C111.134 193.456 110.99 193.152 110.99 192.8V191.576C110.494 192.392 109.822 193.04 108.974 193.52C108.126 194 107.246 194.24 106.334 194.24ZM106.694 192.8C107.094 192.8 107.518 192.72 107.966 192.56C108.43 192.4 108.862 192.184 109.262 191.912C109.662 191.624 109.998 191.296 110.27 190.928C110.558 190.544 110.734 190.136 110.798 189.704V185.84C110.638 185.408 110.406 185.008 110.102 184.64C109.798 184.256 109.446 183.92 109.046 183.632C108.662 183.344 108.246 183.12 107.798 182.96C107.35 182.8 106.91 182.72 106.478 182.72C105.806 182.72 105.198 182.864 104.654 183.152C104.11 183.44 103.638 183.824 103.238 184.304C102.854 184.768 102.558 185.304 102.35 185.912C102.142 186.52 102.038 187.144 102.038 187.784C102.038 188.456 102.158 189.096 102.398 189.704C102.638 190.312 102.966 190.848 103.382 191.312C103.798 191.76 104.286 192.12 104.846 192.392C105.422 192.664 106.038 192.8 106.694 192.8ZM121.528 194.24C120.616 194.24 119.776 194.072 119.008 193.736C118.256 193.384 117.6 192.912 117.04 192.32C116.48 191.712 116.04 191.016 115.72 190.232C115.416 189.448 115.264 188.608 115.264 187.712C115.264 186.832 115.416 186.008 115.72 185.24C116.04 184.456 116.472 183.776 117.016 183.2C117.576 182.608 118.24 182.144 119.008 181.808C119.776 181.456 120.608 181.28 121.504 181.28C122.416 181.28 123.248 181.456 124 181.808C124.768 182.144 125.424 182.608 125.968 183.2C126.512 183.792 126.936 184.472 127.24 185.24C127.544 186.008 127.696 186.824 127.696 187.688C127.696 187.816 127.696 187.944 127.696 188.072C127.696 188.2 127.688 188.288 127.672 188.336H116.968C117.016 189.008 117.168 189.632 117.424 190.208C117.696 190.768 118.04 191.256 118.456 191.672C118.872 192.088 119.344 192.416 119.872 192.656C120.416 192.88 120.992 192.992 121.6 192.992C122 192.992 122.4 192.936 122.8 192.824C123.2 192.712 123.568 192.56 123.904 192.368C124.24 192.176 124.544 191.944 124.816 191.672C125.088 191.384 125.296 191.072 125.44 190.736L126.856 191.12C126.664 191.584 126.392 192.008 126.04 192.392C125.688 192.76 125.28 193.088 124.816 193.376C124.352 193.648 123.84 193.856 123.28 194C122.72 194.16 122.136 194.24 121.528 194.24ZM126.136 187.088C126.088 186.416 125.928 185.808 125.656 185.264C125.4 184.704 125.064 184.224 124.648 183.824C124.248 183.424 123.776 183.112 123.232 182.888C122.704 182.664 122.136 182.552 121.528 182.552C120.92 182.552 120.344 182.664 119.8 182.888C119.256 183.112 118.776 183.424 118.36 183.824C117.96 184.224 117.632 184.704 117.376 185.264C117.136 185.824 116.992 186.432 116.944 187.088H126.136ZM140.726 194H139.094V187.016C139.094 185.528 138.87 184.448 138.422 183.776C137.99 183.104 137.318 182.768 136.406 182.768C135.926 182.768 135.446 182.856 134.966 183.032C134.486 183.208 134.038 183.456 133.622 183.776C133.222 184.096 132.862 184.48 132.542 184.928C132.222 185.36 131.99 185.832 131.846 186.344V194H130.214V181.496H131.702V184.328C132.214 183.416 132.942 182.68 133.886 182.12C134.846 181.56 135.886 181.28 137.006 181.28C137.694 181.28 138.278 181.408 138.758 181.664C139.238 181.92 139.622 182.28 139.91 182.744C140.198 183.208 140.406 183.776 140.534 184.448C140.662 185.12 140.726 185.864 140.726 186.68V194ZM150.089 193.4C149.993 193.448 149.849 193.512 149.657 193.592C149.481 193.672 149.273 193.752 149.033 193.832C148.793 193.912 148.521 193.984 148.217 194.048C147.913 194.112 147.593 194.144 147.257 194.144C146.905 194.144 146.569 194.096 146.249 194C145.929 193.904 145.649 193.76 145.409 193.568C145.169 193.36 144.977 193.104 144.833 192.8C144.689 192.496 144.617 192.144 144.617 191.744V182.792H142.889V181.496H144.617V177.272H146.249V181.496H149.129V182.792H146.249V191.288C146.281 191.752 146.441 192.096 146.729 192.32C147.033 192.528 147.377 192.632 147.761 192.632C148.225 192.632 148.633 192.56 148.985 192.416C149.337 192.256 149.561 192.144 149.657 192.08L150.089 193.4ZM68.15 206.448H62.078V222H60.398V206.448H54.326V204.96H68.15V206.448ZM73.0242 222.24C72.1122 222.24 71.2722 222.072 70.5042 221.736C69.7522 221.384 69.0962 220.912 68.5362 220.32C67.9762 219.712 67.5362 219.016 67.2162 218.232C66.9122 217.448 66.7602 216.608 66.7602 215.712C66.7602 214.832 66.9122 214.008 67.2162 213.24C67.5362 212.456 67.9682 211.776 68.5122 211.2C69.0722 210.608 69.7362 210.144 70.5042 209.808C71.2722 209.456 72.1042 209.28 73.0002 209.28C73.9122 209.28 74.7442 209.456 75.4962 209.808C76.2642 210.144 76.9202 210.608 77.4642 211.2C78.0082 211.792 78.4322 212.472 78.7362 213.24C79.0402 214.008 79.1922 214.824 79.1922 215.688C79.1922 215.816 79.1922 215.944 79.1922 216.072C79.1922 216.2 79.1842 216.288 79.1682 216.336H68.4642C68.5122 217.008 68.6642 217.632 68.9202 218.208C69.1922 218.768 69.5362 219.256 69.9522 219.672C70.3682 220.088 70.8402 220.416 71.3682 220.656C71.9122 220.88 72.4882 220.992 73.0962 220.992C73.4962 220.992 73.8962 220.936 74.2962 220.824C74.6962 220.712 75.0642 220.56 75.4002 220.368C75.7362 220.176 76.0402 219.944 76.3122 219.672C76.5842 219.384 76.7922 219.072 76.9362 218.736L78.3522 219.12C78.1602 219.584 77.8882 220.008 77.5362 220.392C77.1842 220.76 76.7762 221.088 76.3122 221.376C75.8482 221.648 75.3362 221.856 74.7762 222C74.2162 222.16 73.6322 222.24 73.0242 222.24ZM77.6322 215.088C77.5842 214.416 77.4242 213.808 77.1522 213.264C76.8962 212.704 76.5602 212.224 76.1442 211.824C75.7442 211.424 75.2722 211.112 74.7282 210.888C74.2002 210.664 73.6322 210.552 73.0242 210.552C72.4162 210.552 71.8402 210.664 71.2962 210.888C70.7522 211.112 70.2722 211.424 69.8562 211.824C69.4562 212.224 69.1282 212.704 68.8722 213.264C68.6322 213.824 68.4882 214.432 68.4402 215.088H77.6322ZM80.8462 215.712C80.8462 214.832 80.9982 214 81.3022 213.216C81.6062 212.432 82.0302 211.752 82.5742 211.176C83.1342 210.584 83.7982 210.12 84.5662 209.784C85.3342 209.448 86.1822 209.28 87.1102 209.28C88.2942 209.28 89.3262 209.552 90.2062 210.096C91.0862 210.624 91.7502 211.344 92.1982 212.256L90.6142 212.76C90.2622 212.12 89.7662 211.624 89.1262 211.272C88.5022 210.904 87.8062 210.72 87.0382 210.72C86.3982 210.72 85.7982 210.848 85.2382 211.104C84.6942 211.36 84.2142 211.712 83.7982 212.16C83.3982 212.592 83.0782 213.112 82.8382 213.72C82.6142 214.328 82.5022 214.992 82.5022 215.712C82.5022 216.416 82.6222 217.08 82.8622 217.704C83.1022 218.328 83.4302 218.872 83.8462 219.336C84.2622 219.784 84.7422 220.144 85.2862 220.416C85.8462 220.672 86.4382 220.8 87.0622 220.8C87.4622 220.8 87.8542 220.744 88.2382 220.632C88.6382 220.52 89.0062 220.368 89.3422 220.176C89.6782 219.968 89.9662 219.736 90.2062 219.48C90.4462 219.224 90.6142 218.952 90.7102 218.664L92.3182 219.144C92.1422 219.592 91.8862 220.008 91.5502 220.392C91.2142 220.76 90.8142 221.088 90.3502 221.376C89.9022 221.648 89.3982 221.856 88.8382 222C88.2942 222.16 87.7262 222.24 87.1342 222.24C86.2222 222.24 85.3822 222.072 84.6142 221.736C83.8462 221.384 83.1822 220.912 82.6222 220.32C82.0622 219.712 81.6222 219.016 81.3022 218.232C80.9982 217.448 80.8462 216.608 80.8462 215.712ZM105.394 222H103.762V215.016C103.762 213.592 103.514 212.528 103.018 211.824C102.538 211.12 101.826 210.768 100.882 210.768C100.418 210.768 99.954 210.864 99.49 211.056C99.042 211.232 98.618 211.48 98.218 211.8C97.818 212.12 97.466 212.496 97.162 212.928C96.874 213.36 96.658 213.832 96.514 214.344V222H94.882V204.48H96.514V212.328C97.01 211.384 97.698 210.64 98.578 210.096C99.458 209.552 100.41 209.28 101.434 209.28C102.154 209.28 102.762 209.416 103.258 209.688C103.754 209.944 104.162 210.312 104.482 210.792C104.802 211.256 105.034 211.824 105.178 212.496C105.322 213.152 105.394 213.88 105.394 214.68V222ZM119.386 222H117.754V215.016C117.754 213.528 117.53 212.448 117.082 211.776C116.65 211.104 115.978 210.768 115.066 210.768C114.586 210.768 114.106 210.856 113.626 211.032C113.146 211.208 112.698 211.456 112.282 211.776C111.882 212.096 111.522 212.48 111.202 212.928C110.882 213.36 110.65 213.832 110.506 214.344V222H108.874V209.496H110.362V212.328C110.874 211.416 111.602 210.68 112.546 210.12C113.506 209.56 114.546 209.28 115.666 209.28C116.354 209.28 116.938 209.408 117.418 209.664C117.898 209.92 118.282 210.28 118.57 210.744C118.858 211.208 119.066 211.776 119.194 212.448C119.322 213.12 119.386 213.864 119.386 214.68V222ZM122.866 222V209.496H124.498V222H122.866ZM122.866 206.88V204.48H124.498V206.88H122.866ZM127.229 215.712C127.229 214.832 127.381 214 127.685 213.216C127.989 212.432 128.413 211.752 128.957 211.176C129.517 210.584 130.181 210.12 130.949 209.784C131.717 209.448 132.565 209.28 133.493 209.28C134.677 209.28 135.709 209.552 136.589 210.096C137.469 210.624 138.133 211.344 138.581 212.256L136.997 212.76C136.645 212.12 136.149 211.624 135.509 211.272C134.885 210.904 134.189 210.72 133.421 210.72C132.781 210.72 132.181 210.848 131.621 211.104C131.077 211.36 130.597 211.712 130.181 212.16C129.781 212.592 129.461 213.112 129.221 213.72C128.997 214.328 128.885 214.992 128.885 215.712C128.885 216.416 129.005 217.08 129.245 217.704C129.485 218.328 129.813 218.872 130.229 219.336C130.645 219.784 131.125 220.144 131.669 220.416C132.229 220.672 132.821 220.8 133.445 220.8C133.845 220.8 134.237 220.744 134.621 220.632C135.021 220.52 135.389 220.368 135.725 220.176C136.061 219.968 136.349 219.736 136.589 219.48C136.829 219.224 136.997 218.952 137.093 218.664L138.701 219.144C138.525 219.592 138.269 220.008 137.933 220.392C137.597 220.76 137.197 221.088 136.733 221.376C136.285 221.648 135.781 221.856 135.221 222C134.677 222.16 134.109 222.24 133.517 222.24C132.605 222.24 131.765 222.072 130.997 221.736C130.229 221.384 129.565 220.912 129.005 220.32C128.445 219.712 128.005 219.016 127.685 218.232C127.381 217.448 127.229 216.608 127.229 215.712ZM144.409 222.24C143.817 222.24 143.265 222.144 142.753 221.952C142.257 221.744 141.817 221.464 141.433 221.112C141.065 220.76 140.777 220.352 140.569 219.888C140.361 219.408 140.257 218.896 140.257 218.352C140.257 217.808 140.385 217.304 140.641 216.84C140.897 216.376 141.257 215.976 141.721 215.64C142.185 215.304 142.737 215.048 143.377 214.872C144.017 214.68 144.721 214.584 145.489 214.584C146.129 214.584 146.777 214.64 147.433 214.752C148.089 214.864 148.673 215.024 149.185 215.232V214.104C149.185 213 148.873 212.128 148.249 211.488C147.625 210.832 146.761 210.504 145.657 210.504C145.017 210.504 144.361 210.632 143.689 210.888C143.017 211.144 142.337 211.512 141.649 211.992L141.073 210.912C142.689 209.824 144.257 209.28 145.777 209.28C147.345 209.28 148.577 209.72 149.473 210.6C150.369 211.48 150.817 212.696 150.817 214.248V219.888C150.817 220.336 151.017 220.56 151.417 220.56V222C151.145 222.048 150.937 222.072 150.793 222.072C150.377 222.072 150.049 221.968 149.809 221.76C149.585 221.552 149.465 221.264 149.449 220.896L149.401 219.912C148.825 220.664 148.097 221.24 147.217 221.64C146.353 222.04 145.417 222.24 144.409 222.24ZM144.793 220.992C145.641 220.992 146.417 220.832 147.121 220.512C147.841 220.192 148.385 219.768 148.753 219.24C148.897 219.096 149.001 218.944 149.065 218.784C149.145 218.608 149.185 218.448 149.185 218.304V216.264C148.641 216.056 148.073 215.896 147.481 215.784C146.905 215.672 146.313 215.616 145.705 215.616C144.553 215.616 143.617 215.856 142.897 216.336C142.177 216.816 141.817 217.448 141.817 218.232C141.817 218.616 141.889 218.976 142.033 219.312C142.193 219.648 142.401 219.944 142.657 220.2C142.929 220.44 143.249 220.632 143.617 220.776C143.985 220.92 144.377 220.992 144.793 220.992ZM154.415 204.48H156.047V219.168C156.047 219.632 156.175 220 156.431 220.272C156.687 220.528 157.047 220.656 157.511 220.656C157.687 220.656 157.895 220.632 158.135 220.584C158.375 220.536 158.599 220.472 158.807 220.392L159.095 221.712C158.791 221.84 158.415 221.944 157.967 222.024C157.535 222.104 157.159 222.144 156.839 222.144C156.087 222.144 155.495 221.936 155.063 221.52C154.631 221.088 154.415 220.488 154.415 219.72V204.48ZM42.8322 241.36C42.8322 240.336 43.0082 239.32 43.3602 238.312C43.7282 237.288 44.2562 236.376 44.9442 235.576C45.6322 234.776 46.4802 234.128 47.4882 233.632C48.4962 233.12 49.6402 232.864 50.9202 232.864C52.4402 232.864 53.7362 233.208 54.8082 233.896C55.8962 234.584 56.6962 235.48 57.2082 236.584L55.8882 237.4C55.6162 236.84 55.2802 236.368 54.8802 235.984C54.4962 235.6 54.0802 235.288 53.6322 235.048C53.1842 234.808 52.7202 234.64 52.2402 234.544C51.7602 234.432 51.2882 234.376 50.8242 234.376C49.8002 234.376 48.8962 234.584 48.1122 235C47.3282 235.416 46.6642 235.96 46.1202 236.632C45.5922 237.304 45.1922 238.064 44.9202 238.912C44.6482 239.744 44.5122 240.592 44.5122 241.456C44.5122 242.4 44.6722 243.304 44.9922 244.168C45.3282 245.032 45.7762 245.8 46.3362 246.472C46.9122 247.128 47.5842 247.656 48.3522 248.056C49.1362 248.44 49.9842 248.632 50.8962 248.632C51.3762 248.632 51.8642 248.576 52.3602 248.464C52.8722 248.336 53.3602 248.144 53.8242 247.888C54.3042 247.616 54.7442 247.288 55.1442 246.904C55.5442 246.504 55.8802 246.024 56.1522 245.464L57.5442 246.184C57.2722 246.824 56.8882 247.392 56.3922 247.888C55.8962 248.368 55.3442 248.776 54.7362 249.112C54.1282 249.448 53.4802 249.704 52.7922 249.88C52.1202 250.056 51.4562 250.144 50.8002 250.144C49.6322 250.144 48.5602 249.888 47.5842 249.376C46.6082 248.864 45.7682 248.2 45.0642 247.384C44.3602 246.552 43.8082 245.616 43.4082 244.576C43.0242 243.52 42.8322 242.448 42.8322 241.36ZM65.4053 250.24C64.4933 250.24 63.6613 250.072 62.9093 249.736C62.1573 249.384 61.5013 248.912 60.9413 248.32C60.3973 247.728 59.9733 247.04 59.6693 246.256C59.3653 245.472 59.2133 244.648 59.2133 243.784C59.2133 242.904 59.3653 242.072 59.6693 241.288C59.9893 240.504 60.4213 239.816 60.9653 239.224C61.5253 238.632 62.1813 238.16 62.9333 237.808C63.6853 237.456 64.5093 237.28 65.4053 237.28C66.3013 237.28 67.1253 237.456 67.8773 237.808C68.6453 238.16 69.3013 238.632 69.8453 239.224C70.4053 239.816 70.8373 240.504 71.1413 241.288C71.4613 242.072 71.6213 242.904 71.6213 243.784C71.6213 244.648 71.4693 245.472 71.1653 246.256C70.8613 247.04 70.4293 247.728 69.8693 248.32C69.3253 248.912 68.6693 249.384 67.9013 249.736C67.1493 250.072 66.3173 250.24 65.4053 250.24ZM60.8693 243.808C60.8693 244.512 60.9893 245.168 61.2293 245.776C61.4693 246.368 61.7893 246.896 62.1893 247.36C62.6053 247.808 63.0853 248.16 63.6293 248.416C64.1893 248.672 64.7813 248.8 65.4053 248.8C66.0293 248.8 66.6133 248.672 67.1573 248.416C67.7173 248.144 68.2053 247.784 68.6213 247.336C69.0373 246.872 69.3653 246.336 69.6053 245.728C69.8453 245.12 69.9653 244.464 69.9653 243.76C69.9653 243.072 69.8453 242.424 69.6053 241.816C69.3653 241.192 69.0373 240.656 68.6213 240.208C68.2053 239.744 67.7173 239.384 67.1573 239.128C66.6133 238.856 66.0293 238.72 65.4053 238.72C64.7813 238.72 64.1973 238.856 63.6533 239.128C63.1093 239.384 62.6293 239.744 62.2133 240.208C61.7973 240.672 61.4693 241.216 61.2293 241.84C60.9893 242.448 60.8693 243.104 60.8693 243.808ZM92.9508 250H91.3188V243.016C91.3188 241.56 91.0868 240.488 90.6228 239.8C90.1588 239.112 89.4708 238.768 88.5588 238.768C88.0788 238.768 87.6228 238.856 87.1908 239.032C86.7748 239.208 86.3828 239.456 86.0148 239.776C85.6628 240.096 85.3508 240.48 85.0788 240.928C84.8068 241.36 84.5988 241.84 84.4548 242.368V250H82.8228V243.016C82.8228 241.528 82.5988 240.448 82.1508 239.776C81.7028 239.104 81.0148 238.768 80.0868 238.768C79.1428 238.768 78.3028 239.096 77.5668 239.752C76.8308 240.408 76.3028 241.272 75.9828 242.344V250H74.3508V237.496H75.8388V240.328C76.3508 239.368 77.0228 238.624 77.8548 238.096C78.6868 237.552 79.6068 237.28 80.6148 237.28C81.6708 237.28 82.5108 237.576 83.1348 238.168C83.7748 238.76 84.1668 239.536 84.3108 240.496C85.4788 238.352 87.0868 237.28 89.1348 237.28C89.8388 237.28 90.4308 237.408 90.9108 237.664C91.4068 237.92 91.7988 238.288 92.0868 238.768C92.3908 239.232 92.6068 239.8 92.7348 240.472C92.8788 241.128 92.9508 241.864 92.9508 242.68V250ZM115.005 250H113.373V243.016C113.373 241.56 113.141 240.488 112.677 239.8C112.213 239.112 111.525 238.768 110.613 238.768C110.133 238.768 109.677 238.856 109.245 239.032C108.829 239.208 108.437 239.456 108.069 239.776C107.717 240.096 107.405 240.48 107.133 240.928C106.861 241.36 106.653 241.84 106.509 242.368V250H104.877V243.016C104.877 241.528 104.653 240.448 104.205 239.776C103.757 239.104 103.069 238.768 102.141 238.768C101.197 238.768 100.357 239.096 99.6215 239.752C98.8855 240.408 98.3575 241.272 98.0375 242.344V250H96.4055V237.496H97.8935V240.328C98.4055 239.368 99.0775 238.624 99.9095 238.096C100.741 237.552 101.661 237.28 102.669 237.28C103.725 237.28 104.565 237.576 105.189 238.168C105.829 238.76 106.221 239.536 106.365 240.496C107.533 238.352 109.141 237.28 111.189 237.28C111.893 237.28 112.485 237.408 112.965 237.664C113.461 237.92 113.853 238.288 114.141 238.768C114.445 239.232 114.661 239.8 114.789 240.472C114.933 241.128 115.005 241.864 115.005 242.68V250ZM122.372 250.24C121.012 250.24 119.996 249.792 119.324 248.896C118.668 247.984 118.34 246.632 118.34 244.84V237.496H119.972V244.552C119.972 247.384 120.94 248.8 122.876 248.8C123.356 248.8 123.828 248.72 124.292 248.56C124.756 248.4 125.18 248.168 125.564 247.864C125.964 247.56 126.316 247.2 126.62 246.784C126.94 246.368 127.196 245.896 127.388 245.368V237.496H129.02V247.888C129.02 248.336 129.212 248.56 129.596 248.56V250C129.404 250.032 129.244 250.048 129.116 250.048C129.004 250.048 128.924 250.048 128.876 250.048C128.492 250.032 128.18 249.896 127.94 249.64C127.7 249.384 127.58 249.04 127.58 248.608V247.168C127.036 248.144 126.292 248.904 125.348 249.448C124.42 249.976 123.428 250.24 122.372 250.24ZM143.222 250H141.59V243.016C141.59 241.528 141.366 240.448 140.918 239.776C140.486 239.104 139.814 238.768 138.902 238.768C138.422 238.768 137.942 238.856 137.462 239.032C136.982 239.208 136.534 239.456 136.118 239.776C135.718 240.096 135.358 240.48 135.038 240.928C134.718 241.36 134.486 241.832 134.342 242.344V250H132.71V237.496H134.198V240.328C134.71 239.416 135.438 238.68 136.382 238.12C137.342 237.56 138.382 237.28 139.502 237.28C140.19 237.28 140.774 237.408 141.254 237.664C141.734 237.92 142.118 238.28 142.406 238.744C142.694 239.208 142.902 239.776 143.03 240.448C143.158 241.12 143.222 241.864 143.222 242.68V250ZM146.702 250V237.496H148.334V250H146.702ZM146.702 234.88V232.48H148.334V234.88H146.702ZM157.929 249.4C157.833 249.448 157.689 249.512 157.497 249.592C157.321 249.672 157.113 249.752 156.873 249.832C156.633 249.912 156.361 249.984 156.057 250.048C155.753 250.112 155.433 250.144 155.097 250.144C154.745 250.144 154.409 250.096 154.089 250C153.769 249.904 153.489 249.76 153.249 249.568C153.009 249.36 152.817 249.104 152.673 248.8C152.529 248.496 152.457 248.144 152.457 247.744V238.792H150.729V237.496H152.457V233.272H154.089V237.496H156.969V238.792H154.089V247.288C154.121 247.752 154.281 248.096 154.569 248.32C154.873 248.528 155.217 248.632 155.601 248.632C156.065 248.632 156.473 248.56 156.825 248.416C157.177 248.256 157.401 248.144 157.497 248.08L157.929 249.4ZM160.688 253.84C160.816 253.856 160.936 253.864 161.048 253.864C161.176 253.88 161.296 253.888 161.408 253.888C161.696 253.888 161.92 253.848 162.08 253.768C162.256 253.688 162.424 253.512 162.584 253.24C162.744 252.968 162.92 252.576 163.112 252.064C163.32 251.552 163.608 250.864 163.976 250L158.528 237.496H160.208L164.84 248.488L169.136 237.496H170.696L164.216 253.624C164.04 254.088 163.744 254.488 163.328 254.824C162.928 255.176 162.376 255.352 161.672 255.352C161.512 255.352 161.36 255.344 161.216 255.328C161.072 255.328 160.896 255.312 160.688 255.28V253.84Z" fill="white"/>
</g>
<rect x="0.5" y="-0.5" width="79" height="26" rx="4.5" transform="matrix(1 0 0 -1 25 410)" stroke="white"/>
<rect width="80" height="27" rx="5" transform="matrix(1 0 0 -1 108 411)" fill="white"/>
<path d="M117.202 398.272L114.202 394.4H113.29V400H114.258V396.016L117.346 400H118.17V394.4H117.202V398.272ZM123.771 397.888C123.771 397.584 123.715 397.299 123.603 397.032C123.491 396.765 123.333 396.533 123.131 396.336C122.933 396.133 122.696 395.976 122.419 395.864C122.147 395.747 121.848 395.688 121.523 395.688C121.197 395.688 120.896 395.747 120.619 395.864C120.347 395.981 120.109 396.141 119.907 396.344C119.709 396.541 119.552 396.776 119.435 397.048C119.323 397.315 119.267 397.6 119.267 397.904C119.267 398.208 119.323 398.493 119.435 398.76C119.547 399.021 119.701 399.253 119.899 399.456C120.101 399.653 120.339 399.811 120.611 399.928C120.888 400.04 121.187 400.096 121.507 400.096C121.832 400.096 122.133 400.037 122.411 399.92C122.688 399.803 122.925 399.645 123.123 399.448C123.325 399.245 123.483 399.011 123.595 398.744C123.712 398.477 123.771 398.192 123.771 397.888ZM122.803 397.904C122.803 398.091 122.773 398.267 122.715 398.432C122.656 398.592 122.571 398.733 122.459 398.856C122.347 398.979 122.211 399.077 122.051 399.152C121.896 399.221 121.72 399.256 121.523 399.256C121.336 399.256 121.163 399.221 121.003 399.152C120.848 399.077 120.712 398.979 120.595 398.856C120.483 398.733 120.395 398.589 120.331 398.424C120.267 398.253 120.235 398.075 120.235 397.888C120.235 397.701 120.264 397.528 120.323 397.368C120.381 397.203 120.467 397.059 120.579 396.936C120.691 396.813 120.824 396.717 120.979 396.648C121.139 396.573 121.315 396.536 121.507 396.536C121.699 396.536 121.872 396.573 122.027 396.648C122.187 396.717 122.323 396.816 122.435 396.944C122.552 397.067 122.643 397.211 122.707 397.376C122.771 397.541 122.803 397.717 122.803 397.904ZM125.724 397.616C125.724 397.285 125.812 397.029 125.988 396.848C126.164 396.661 126.394 396.568 126.676 396.568C126.964 396.568 127.186 396.659 127.34 396.84C127.5 397.016 127.58 397.269 127.58 397.6V400H128.548V397.312C128.548 396.816 128.418 396.421 128.156 396.128C127.895 395.835 127.524 395.688 127.044 395.688C126.879 395.688 126.73 395.709 126.596 395.752C126.468 395.789 126.348 395.843 126.236 395.912C126.13 395.981 126.034 396.061 125.948 396.152C125.868 396.237 125.794 396.331 125.724 396.432V395.776H124.756V400H125.724V397.616ZM131.925 398.024V397.072H129.557V398.024H131.925ZM133.927 395.864C133.927 395.677 134.007 395.52 134.167 395.392C134.327 395.259 134.551 395.192 134.839 395.192C135.095 395.192 135.348 395.243 135.599 395.344C135.85 395.44 136.103 395.581 136.359 395.768L136.887 395.024C136.599 394.795 136.29 394.621 135.959 394.504C135.634 394.381 135.266 394.32 134.855 394.32C134.578 394.32 134.322 394.36 134.087 394.44C133.852 394.515 133.65 394.624 133.479 394.768C133.314 394.912 133.183 395.085 133.087 395.288C132.991 395.485 132.943 395.707 132.943 395.952C132.943 396.213 132.983 396.435 133.063 396.616C133.148 396.797 133.268 396.952 133.423 397.08C133.583 397.208 133.778 397.315 134.007 397.4C134.242 397.485 134.508 397.563 134.807 397.632C135.068 397.696 135.279 397.757 135.439 397.816C135.604 397.875 135.732 397.939 135.823 398.008C135.919 398.072 135.983 398.144 136.015 398.224C136.052 398.304 136.071 398.395 136.071 398.496C136.071 398.715 135.98 398.888 135.799 399.016C135.623 399.144 135.383 399.208 135.079 399.208C134.727 399.208 134.412 399.147 134.135 399.024C133.858 398.896 133.583 398.715 133.311 398.48L132.719 399.184C133.055 399.488 133.42 399.715 133.815 399.864C134.21 400.008 134.623 400.08 135.055 400.08C135.348 400.08 135.618 400.043 135.863 399.968C136.108 399.893 136.319 399.784 136.495 399.64C136.671 399.496 136.807 399.32 136.903 399.112C137.004 398.904 137.055 398.667 137.055 398.4C137.055 398.165 137.015 397.963 136.935 397.792C136.86 397.616 136.748 397.464 136.599 397.336C136.45 397.203 136.26 397.091 136.031 397C135.807 396.909 135.548 396.827 135.255 396.752C134.988 396.688 134.767 396.627 134.591 396.568C134.42 396.509 134.284 396.445 134.183 396.376C134.087 396.307 134.02 396.232 133.983 396.152C133.946 396.072 133.927 395.976 133.927 395.864ZM140.463 395.312H142.239V394.4H137.695V395.312H139.471V400H140.463V395.312ZM147.85 399.104L147.218 398.464C146.978 398.688 146.735 398.867 146.49 399C146.244 399.128 145.951 399.192 145.61 399.192C145.343 399.192 145.095 399.141 144.866 399.04C144.642 398.933 144.447 398.789 144.282 398.608C144.116 398.427 143.988 398.216 143.898 397.976C143.807 397.731 143.762 397.469 143.762 397.192C143.762 396.915 143.807 396.656 143.898 396.416C143.988 396.176 144.116 395.968 144.282 395.792C144.447 395.611 144.642 395.469 144.866 395.368C145.095 395.261 145.343 395.208 145.61 395.208C145.93 395.208 146.215 395.272 146.466 395.4C146.716 395.528 146.954 395.696 147.178 395.904L147.81 395.176C147.676 395.048 147.535 394.931 147.386 394.824C147.236 394.717 147.074 394.627 146.898 394.552C146.722 394.472 146.527 394.411 146.314 394.368C146.106 394.325 145.874 394.304 145.618 394.304C145.191 394.304 144.802 394.381 144.45 394.536C144.098 394.685 143.794 394.893 143.538 395.16C143.282 395.421 143.082 395.728 142.938 396.08C142.799 396.432 142.73 396.808 142.73 397.208C142.73 397.613 142.802 397.992 142.946 398.344C143.09 398.696 143.287 399.003 143.538 399.264C143.794 399.52 144.095 399.723 144.442 399.872C144.788 400.021 145.167 400.096 145.578 400.096C145.839 400.096 146.076 400.072 146.29 400.024C146.508 399.981 146.708 399.917 146.89 399.832C147.071 399.741 147.239 399.637 147.394 399.52C147.554 399.397 147.706 399.259 147.85 399.104ZM155.803 395.984V400H156.787V394.4H155.739L154.035 397.048L152.331 394.4H151.283V400H152.251V396L154.003 398.624H154.035L155.803 395.984ZM158.852 398.232H161.956C161.961 398.184 161.964 398.139 161.964 398.096C161.969 398.053 161.972 398.011 161.972 397.968C161.972 397.664 161.929 397.373 161.844 397.096C161.758 396.819 161.63 396.576 161.46 396.368C161.294 396.16 161.084 395.995 160.828 395.872C160.577 395.749 160.284 395.688 159.948 395.688C159.644 395.688 159.366 395.747 159.116 395.864C158.865 395.981 158.646 396.141 158.46 396.344C158.278 396.541 158.137 396.773 158.036 397.04C157.934 397.307 157.884 397.592 157.884 397.896C157.884 398.227 157.94 398.528 158.052 398.8C158.164 399.067 158.316 399.296 158.508 399.488C158.705 399.68 158.934 399.829 159.196 399.936C159.462 400.043 159.748 400.096 160.052 400.096C160.441 400.096 160.774 400.024 161.052 399.88C161.334 399.736 161.577 399.544 161.78 399.304L161.212 398.8C161.041 398.965 160.868 399.091 160.692 399.176C160.516 399.261 160.308 399.304 160.068 399.304C159.753 399.304 159.486 399.213 159.268 399.032C159.049 398.845 158.91 398.579 158.852 398.232ZM158.844 397.592C158.886 397.261 159.004 396.995 159.196 396.792C159.393 396.584 159.641 396.48 159.94 396.48C160.1 396.48 160.241 396.509 160.364 396.568C160.492 396.627 160.601 396.707 160.692 396.808C160.782 396.904 160.854 397.021 160.908 397.16C160.961 397.293 160.996 397.437 161.012 397.592H158.844ZM166.456 396.432C166.344 396.208 166.181 396.029 165.968 395.896C165.76 395.757 165.504 395.688 165.2 395.688C165.04 395.688 164.893 395.709 164.76 395.752C164.632 395.789 164.515 395.843 164.408 395.912C164.307 395.981 164.216 396.059 164.136 396.144C164.056 396.229 163.981 396.32 163.912 396.416V395.776H162.944V400H163.912V397.624C163.912 397.293 163.995 397.035 164.16 396.848C164.325 396.661 164.544 396.568 164.816 396.568C165.088 396.568 165.299 396.656 165.448 396.832C165.597 397.008 165.672 397.261 165.672 397.592V400H166.64V397.616C166.64 397.275 166.723 397.016 166.888 396.84C167.059 396.659 167.277 396.568 167.544 396.568C167.816 396.568 168.027 396.656 168.176 396.832C168.325 397.008 168.4 397.264 168.4 397.6V400H169.368V397.304C169.368 396.787 169.237 396.389 168.976 396.112C168.715 395.829 168.352 395.688 167.888 395.688C167.568 395.688 167.291 395.757 167.056 395.896C166.827 396.029 166.627 396.208 166.456 396.432ZM174.914 397.888C174.914 397.536 174.858 397.224 174.746 396.952C174.634 396.68 174.484 396.451 174.298 396.264C174.116 396.072 173.908 395.928 173.674 395.832C173.439 395.736 173.196 395.688 172.946 395.688C172.604 395.688 172.319 395.765 172.09 395.92C171.86 396.069 171.668 396.256 171.514 396.48V394.16H170.546V400H171.514V399.344C171.663 399.541 171.852 399.715 172.082 399.864C172.311 400.013 172.599 400.088 172.946 400.088C173.196 400.088 173.439 400.04 173.674 399.944C173.914 399.848 174.124 399.707 174.306 399.52C174.492 399.328 174.639 399.096 174.746 398.824C174.858 398.552 174.914 398.24 174.914 397.888ZM173.93 397.888C173.93 398.096 173.898 398.285 173.834 398.456C173.77 398.621 173.682 398.763 173.57 398.88C173.463 398.997 173.335 399.088 173.186 399.152C173.042 399.216 172.887 399.248 172.722 399.248C172.556 399.248 172.399 399.216 172.25 399.152C172.1 399.088 171.97 398.997 171.858 398.88C171.746 398.757 171.655 398.613 171.586 398.448C171.522 398.283 171.49 398.096 171.49 397.888C171.49 397.68 171.522 397.493 171.586 397.328C171.655 397.163 171.746 397.021 171.858 396.904C171.97 396.781 172.1 396.688 172.25 396.624C172.399 396.56 172.556 396.528 172.722 396.528C172.887 396.528 173.042 396.56 173.186 396.624C173.335 396.688 173.463 396.779 173.57 396.896C173.682 397.013 173.77 397.157 173.834 397.328C173.898 397.493 173.93 397.68 173.93 397.888ZM176.641 398.232H179.745C179.75 398.184 179.753 398.139 179.753 398.096C179.758 398.053 179.761 398.011 179.761 397.968C179.761 397.664 179.718 397.373 179.633 397.096C179.548 396.819 179.42 396.576 179.249 396.368C179.084 396.16 178.873 395.995 178.617 395.872C178.366 395.749 178.073 395.688 177.737 395.688C177.433 395.688 177.156 395.747 176.905 395.864C176.654 395.981 176.436 396.141 176.249 396.344C176.068 396.541 175.926 396.773 175.825 397.04C175.724 397.307 175.673 397.592 175.673 397.896C175.673 398.227 175.729 398.528 175.841 398.8C175.953 399.067 176.105 399.296 176.297 399.488C176.494 399.68 176.724 399.829 176.985 399.936C177.252 400.043 177.537 400.096 177.841 400.096C178.23 400.096 178.564 400.024 178.841 399.88C179.124 399.736 179.366 399.544 179.569 399.304L179.001 398.8C178.83 398.965 178.657 399.091 178.481 399.176C178.305 399.261 178.097 399.304 177.857 399.304C177.542 399.304 177.276 399.213 177.057 399.032C176.838 398.845 176.7 398.579 176.641 398.232ZM176.633 397.592C176.676 397.261 176.793 396.995 176.985 396.792C177.182 396.584 177.43 396.48 177.729 396.48C177.889 396.48 178.03 396.509 178.153 396.568C178.281 396.627 178.39 396.707 178.481 396.808C178.572 396.904 178.644 397.021 178.697 397.16C178.75 397.293 178.785 397.437 178.801 397.592H176.633ZM181.701 398.392C181.701 398.115 181.736 397.872 181.805 397.664C181.874 397.451 181.973 397.275 182.101 397.136C182.229 396.997 182.381 396.893 182.557 396.824C182.733 396.755 182.928 396.72 183.141 396.72H183.197V395.696C182.824 395.68 182.514 395.768 182.269 395.96C182.024 396.152 181.834 396.408 181.701 396.728V395.776H180.733V400H181.701V398.392Z" fill="#13137A"/>
<path d="M41.0247 395.864C41.0247 395.677 41.1047 395.52 41.2647 395.392C41.4247 395.259 41.6487 395.192 41.9367 395.192C42.1927 395.192 42.446 395.243 42.6967 395.344C42.9473 395.44 43.2007 395.581 43.4567 395.768L43.9847 395.024C43.6967 394.795 43.3873 394.621 43.0567 394.504C42.7313 394.381 42.3633 394.32 41.9527 394.32C41.6753 394.32 41.4193 394.36 41.1847 394.44C40.95 394.515 40.7473 394.624 40.5767 394.768C40.4113 394.912 40.2807 395.085 40.1847 395.288C40.0887 395.485 40.0407 395.707 40.0407 395.952C40.0407 396.213 40.0807 396.435 40.1607 396.616C40.246 396.797 40.366 396.952 40.5207 397.08C40.6807 397.208 40.8753 397.315 41.1047 397.4C41.3393 397.485 41.606 397.563 41.9047 397.632C42.166 397.696 42.3767 397.757 42.5367 397.816C42.702 397.875 42.83 397.939 42.9207 398.008C43.0167 398.072 43.0807 398.144 43.1127 398.224C43.15 398.304 43.1687 398.395 43.1687 398.496C43.1687 398.715 43.078 398.888 42.8967 399.016C42.7207 399.144 42.4807 399.208 42.1767 399.208C41.8247 399.208 41.51 399.147 41.2327 399.024C40.9553 398.896 40.6807 398.715 40.4087 398.48L39.8167 399.184C40.1527 399.488 40.518 399.715 40.9127 399.864C41.3073 400.008 41.7207 400.08 42.1527 400.08C42.446 400.08 42.7153 400.043 42.9607 399.968C43.206 399.893 43.4167 399.784 43.5927 399.64C43.7687 399.496 43.9047 399.32 44.0007 399.112C44.102 398.904 44.1527 398.667 44.1527 398.4C44.1527 398.165 44.1127 397.963 44.0327 397.792C43.958 397.616 43.846 397.464 43.6967 397.336C43.5473 397.203 43.358 397.091 43.1287 397C42.9047 396.909 42.646 396.827 42.3527 396.752C42.086 396.688 41.8647 396.627 41.6887 396.568C41.518 396.509 41.382 396.445 41.2807 396.376C41.1847 396.307 41.118 396.232 41.0807 396.152C41.0433 396.072 41.0247 395.976 41.0247 395.864ZM47.5607 395.312H49.3367V394.4H44.7927V395.312H46.5687V400H47.5607V395.312ZM54.9475 399.104L54.3155 398.464C54.0755 398.688 53.8328 398.867 53.5875 399C53.3421 399.128 53.0488 399.192 52.7075 399.192C52.4408 399.192 52.1928 399.141 51.9635 399.04C51.7395 398.933 51.5448 398.789 51.3795 398.608C51.2141 398.427 51.0861 398.216 50.9955 397.976C50.9048 397.731 50.8595 397.469 50.8595 397.192C50.8595 396.915 50.9048 396.656 50.9955 396.416C51.0861 396.176 51.2141 395.968 51.3795 395.792C51.5448 395.611 51.7395 395.469 51.9635 395.368C52.1928 395.261 52.4408 395.208 52.7075 395.208C53.0275 395.208 53.3128 395.272 53.5635 395.4C53.8141 395.528 54.0515 395.696 54.2755 395.904L54.9075 395.176C54.7741 395.048 54.6328 394.931 54.4835 394.824C54.3341 394.717 54.1715 394.627 53.9955 394.552C53.8195 394.472 53.6248 394.411 53.4115 394.368C53.2035 394.325 52.9715 394.304 52.7155 394.304C52.2888 394.304 51.8995 394.381 51.5475 394.536C51.1955 394.685 50.8915 394.893 50.6355 395.16C50.3795 395.421 50.1795 395.728 50.0355 396.08C49.8968 396.432 49.8275 396.808 49.8275 397.208C49.8275 397.613 49.8995 397.992 50.0435 398.344C50.1875 398.696 50.3848 399.003 50.6355 399.264C50.8915 399.52 51.1928 399.723 51.5395 399.872C51.8861 400.021 52.2648 400.096 52.6755 400.096C52.9368 400.096 53.1741 400.072 53.3875 400.024C53.6061 399.981 53.8061 399.917 53.9875 399.832C54.1688 399.741 54.3368 399.637 54.4915 399.52C54.6515 399.397 54.8035 399.259 54.9475 399.104ZM62.9002 395.984V400H63.8842V394.4H62.8362L61.1322 397.048L59.4282 394.4H58.3802V400H59.3482V396L61.1002 398.624H61.1322L62.9002 395.984ZM65.9495 398.232H69.0535C69.0588 398.184 69.0615 398.139 69.0615 398.096C69.0668 398.053 69.0695 398.011 69.0695 397.968C69.0695 397.664 69.0268 397.373 68.9415 397.096C68.8561 396.819 68.7281 396.576 68.5575 396.368C68.3921 396.16 68.1815 395.995 67.9255 395.872C67.6748 395.749 67.3815 395.688 67.0455 395.688C66.7415 395.688 66.4641 395.747 66.2135 395.864C65.9628 395.981 65.7441 396.141 65.5575 396.344C65.3761 396.541 65.2348 396.773 65.1335 397.04C65.0321 397.307 64.9815 397.592 64.9815 397.896C64.9815 398.227 65.0375 398.528 65.1495 398.8C65.2615 399.067 65.4135 399.296 65.6055 399.488C65.8028 399.68 66.0321 399.829 66.2935 399.936C66.5601 400.043 66.8455 400.096 67.1495 400.096C67.5388 400.096 67.8721 400.024 68.1495 399.88C68.4321 399.736 68.6748 399.544 68.8775 399.304L68.3095 398.8C68.1388 398.965 67.9655 399.091 67.7895 399.176C67.6135 399.261 67.4055 399.304 67.1655 399.304C66.8508 399.304 66.5841 399.213 66.3655 399.032C66.1468 398.845 66.0081 398.579 65.9495 398.232ZM65.9415 397.592C65.9841 397.261 66.1015 396.995 66.2935 396.792C66.4908 396.584 66.7388 396.48 67.0375 396.48C67.1975 396.48 67.3388 396.509 67.4615 396.568C67.5895 396.627 67.6988 396.707 67.7895 396.808C67.8801 396.904 67.9521 397.021 68.0055 397.16C68.0588 397.293 68.0935 397.437 68.1095 397.592H65.9415ZM73.5536 396.432C73.4416 396.208 73.2789 396.029 73.0656 395.896C72.8576 395.757 72.6016 395.688 72.2976 395.688C72.1376 395.688 71.9909 395.709 71.8576 395.752C71.7296 395.789 71.6123 395.843 71.5056 395.912C71.4043 395.981 71.3136 396.059 71.2336 396.144C71.1536 396.229 71.0789 396.32 71.0096 396.416V395.776H70.0416V400H71.0096V397.624C71.0096 397.293 71.0923 397.035 71.2576 396.848C71.4229 396.661 71.6416 396.568 71.9136 396.568C72.1856 396.568 72.3963 396.656 72.5456 396.832C72.6949 397.008 72.7696 397.261 72.7696 397.592V400H73.7376V397.616C73.7376 397.275 73.8203 397.016 73.9856 396.84C74.1563 396.659 74.3749 396.568 74.6416 396.568C74.9136 396.568 75.1243 396.656 75.2736 396.832C75.4229 397.008 75.4976 397.264 75.4976 397.6V400H76.4656V397.304C76.4656 396.787 76.3349 396.389 76.0736 396.112C75.8123 395.829 75.4496 395.688 74.9856 395.688C74.6656 395.688 74.3883 395.757 74.1536 395.896C73.9243 396.029 73.7243 396.208 73.5536 396.432ZM82.0112 397.888C82.0112 397.536 81.9552 397.224 81.8432 396.952C81.7312 396.68 81.5818 396.451 81.3952 396.264C81.2138 396.072 81.0058 395.928 80.7712 395.832C80.5365 395.736 80.2938 395.688 80.0432 395.688C79.7018 395.688 79.4165 395.765 79.1872 395.92C78.9578 396.069 78.7658 396.256 78.6112 396.48V394.16H77.6432V400H78.6112V399.344C78.7605 399.541 78.9498 399.715 79.1792 399.864C79.4085 400.013 79.6965 400.088 80.0432 400.088C80.2938 400.088 80.5365 400.04 80.7712 399.944C81.0112 399.848 81.2218 399.707 81.4032 399.52C81.5898 399.328 81.7365 399.096 81.8432 398.824C81.9552 398.552 82.0112 398.24 82.0112 397.888ZM81.0272 397.888C81.0272 398.096 80.9952 398.285 80.9312 398.456C80.8672 398.621 80.7792 398.763 80.6672 398.88C80.5605 398.997 80.4325 399.088 80.2832 399.152C80.1392 399.216 79.9845 399.248 79.8192 399.248C79.6538 399.248 79.4965 399.216 79.3472 399.152C79.1978 399.088 79.0672 398.997 78.9552 398.88C78.8432 398.757 78.7525 398.613 78.6832 398.448C78.6192 398.283 78.5872 398.096 78.5872 397.888C78.5872 397.68 78.6192 397.493 78.6832 397.328C78.7525 397.163 78.8432 397.021 78.9552 396.904C79.0672 396.781 79.1978 396.688 79.3472 396.624C79.4965 396.56 79.6538 396.528 79.8192 396.528C79.9845 396.528 80.1392 396.56 80.2832 396.624C80.4325 396.688 80.5605 396.779 80.6672 396.896C80.7792 397.013 80.8672 397.157 80.9312 397.328C80.9952 397.493 81.0272 397.68 81.0272 397.888ZM83.7385 398.232H86.8425C86.8479 398.184 86.8505 398.139 86.8505 398.096C86.8559 398.053 86.8585 398.011 86.8585 397.968C86.8585 397.664 86.8159 397.373 86.7305 397.096C86.6452 396.819 86.5172 396.576 86.3465 396.368C86.1812 396.16 85.9705 395.995 85.7145 395.872C85.4639 395.749 85.1705 395.688 84.8345 395.688C84.5305 395.688 84.2532 395.747 84.0025 395.864C83.7519 395.981 83.5332 396.141 83.3465 396.344C83.1652 396.541 83.0239 396.773 82.9225 397.04C82.8212 397.307 82.7705 397.592 82.7705 397.896C82.7705 398.227 82.8265 398.528 82.9385 398.8C83.0505 399.067 83.2025 399.296 83.3945 399.488C83.5919 399.68 83.8212 399.829 84.0825 399.936C84.3492 400.043 84.6345 400.096 84.9385 400.096C85.3279 400.096 85.6612 400.024 85.9385 399.88C86.2212 399.736 86.4639 399.544 86.6665 399.304L86.0985 398.8C85.9279 398.965 85.7545 399.091 85.5785 399.176C85.4025 399.261 85.1945 399.304 84.9545 399.304C84.6399 399.304 84.3732 399.213 84.1545 399.032C83.9359 398.845 83.7972 398.579 83.7385 398.232ZM83.7305 397.592C83.7732 397.261 83.8905 396.995 84.0825 396.792C84.2799 396.584 84.5279 396.48 84.8265 396.48C84.9865 396.48 85.1279 396.509 85.2505 396.568C85.3785 396.627 85.4879 396.707 85.5785 396.808C85.6692 396.904 85.7412 397.021 85.7945 397.16C85.8479 397.293 85.8825 397.437 85.8985 397.592H83.7305ZM88.7987 398.392C88.7987 398.115 88.8333 397.872 88.9027 397.664C88.972 397.451 89.0707 397.275 89.1987 397.136C89.3267 396.997 89.4787 396.893 89.6547 396.824C89.8307 396.755 90.0253 396.72 90.2387 396.72H90.2947V395.696C89.9213 395.68 89.612 395.768 89.3667 395.96C89.1213 396.152 88.932 396.408 88.7987 396.728V395.776H87.8307V400H88.7987V398.392Z" fill="white"/>
<path d="M106.147 66.0264L64.7129 83.8974" stroke="white" stroke-width="2"/>
<path d="M146.339 84.0316L105.275 66" stroke="white" stroke-width="2"/>
<path d="M65.083 83.0684V113.38" stroke="white" stroke-width="2"/>
<path d="M105.329 153.776L64.7666 136.199" stroke="white" stroke-width="2"/>
<path d="M146.366 135.986L104.721 153.777" stroke="white" stroke-width="2"/>
<path d="M105.09 130.073L64.5283 112.47" stroke="white" stroke-width="2"/>
<path d="M145.283 112.202L104.589 130.234" stroke="white" stroke-width="2"/>
<path d="M145.758 111.32V136.843" stroke="white" stroke-width="2"/>
<path d="M105.012 154.044V89.5693" stroke="white" stroke-width="2"/>
<path d="M81.334 89.1152H128.555" stroke="white" stroke-width="2"/>
<path d="M64 136.253L75.6005 130.688" stroke="white" stroke-width="2"/>
<path d="M145.838 83.2285V94.9731" stroke="white" stroke-width="2"/>
<path d="M145.811 100.03C146.468 100.03 147 99.4908 147 98.826C147 98.1611 146.468 97.6221 145.811 97.6221C145.154 97.6221 144.622 98.1611 144.622 98.826C144.622 99.4908 145.154 100.03 145.811 100.03Z" fill="white"/>
</svg>
