<svg width="644" height="414" viewBox="0 0 644 414" fill="none" xmlns="http://www.w3.org/2000/svg">
<g style="mix-blend-mode:multiply" opacity="0.6">
<path d="M619.562 117.607H571.351C569.5 117.607 568 119.125 568 120.997V182.638C568 184.511 569.5 186.029 571.351 186.029H619.562C621.412 186.029 622.913 184.511 622.913 182.638V120.997C622.913 119.125 621.412 117.607 619.562 117.607Z" fill="#ABDAF7"/>
</g>
<path d="M623.767 182.851H575.583C574.506 182.849 573.475 182.415 572.714 181.645C571.952 180.875 571.524 179.831 571.521 178.742V117.109C571.521 116.02 571.949 114.974 572.711 114.204C573.473 113.433 574.506 113 575.583 113H623.767C624.845 113 625.878 113.433 626.639 114.204C627.401 114.974 627.829 116.02 627.829 117.109V178.75C627.824 179.838 627.395 180.88 626.634 181.648C625.873 182.416 624.842 182.849 623.767 182.851ZM575.565 114.429C574.867 114.429 574.198 114.71 573.705 115.209C573.211 115.708 572.934 116.385 572.934 117.092V178.75C572.934 179.457 573.211 180.134 573.705 180.633C574.198 181.133 574.867 181.413 575.565 181.413H623.767C624.465 181.413 625.135 181.133 625.628 180.633C626.122 180.134 626.399 179.457 626.399 178.75V117.109C626.399 116.403 626.122 115.726 625.628 115.227C625.135 114.727 624.465 114.447 623.767 114.447L575.565 114.429Z" fill="#ABDAF7"/>
<g opacity="0.5">
<g style="mix-blend-mode:multiply" opacity="0.5">
<path d="M597.48 134.329C598.56 129.722 595.744 125.101 591.19 124.009C586.637 122.916 582.07 125.765 580.99 130.373C579.91 134.98 582.727 139.601 587.28 140.694C591.834 141.786 596.401 138.937 597.48 134.329Z" fill="#ABDAF7"/>
</g>
<g style="mix-blend-mode:multiply" opacity="0.5">
<path d="M591.457 131.213L597.106 121.059C602.282 122.373 604.755 127.272 602.282 132.375L591.457 131.213Z" fill="#ABDAF7"/>
</g>
<g style="mix-blend-mode:multiply" opacity="0.5">
<path d="M586.16 150.206C586.16 150.701 586.015 151.185 585.743 151.597C585.472 152.009 585.085 152.329 584.633 152.519C584.181 152.708 583.684 152.758 583.204 152.661C582.724 152.565 582.283 152.326 581.937 151.976C581.591 151.626 581.356 151.18 581.26 150.695C581.165 150.209 581.214 149.706 581.401 149.249C581.588 148.791 581.905 148.4 582.312 148.125C582.719 147.85 583.197 147.704 583.687 147.704C584.011 147.704 584.333 147.768 584.633 147.894C584.933 148.02 585.206 148.204 585.436 148.437C585.665 148.669 585.848 148.945 585.972 149.249C586.096 149.552 586.16 149.878 586.16 150.206Z" fill="#ABDAF7"/>
</g>
<g style="mix-blend-mode:multiply" opacity="0.5">
<path d="M586.16 161.283C586.16 161.778 586.015 162.262 585.743 162.674C585.472 163.085 585.085 163.406 584.633 163.596C584.181 163.785 583.684 163.835 583.204 163.738C582.724 163.641 582.283 163.403 581.937 163.053C581.591 162.703 581.356 162.257 581.26 161.772C581.165 161.286 581.214 160.783 581.401 160.325C581.588 159.868 581.905 159.477 582.312 159.202C582.719 158.927 583.197 158.78 583.687 158.78C584.011 158.78 584.333 158.845 584.633 158.971C584.933 159.097 585.206 159.281 585.436 159.513C585.665 159.746 585.848 160.022 585.972 160.325C586.096 160.629 586.16 160.955 586.16 161.283Z" fill="#ABDAF7"/>
</g>
<g style="mix-blend-mode:multiply" opacity="0.5">
<path d="M618.418 152.709H598.637C598.312 152.709 597.991 152.644 597.692 152.519C597.392 152.393 597.12 152.208 596.891 151.976C596.662 151.743 596.48 151.467 596.357 151.164C596.234 150.86 596.171 150.535 596.172 150.206C596.171 149.878 596.234 149.553 596.357 149.249C596.48 148.946 596.662 148.67 596.891 148.437C597.12 148.205 597.392 148.02 597.692 147.894C597.991 147.768 598.312 147.704 598.637 147.704H618.418C619.074 147.704 619.703 147.967 620.167 148.437C620.631 148.906 620.891 149.543 620.891 150.206C620.891 150.87 620.631 151.507 620.167 151.976C619.703 152.446 619.074 152.709 618.418 152.709Z" fill="#ABDAF7"/>
</g>
<g style="mix-blend-mode:multiply" opacity="0.5">
<path d="M618.418 163.786H598.637C598.312 163.786 597.991 163.721 597.692 163.595C597.392 163.47 597.12 163.285 596.891 163.053C596.662 162.82 596.48 162.544 596.357 162.24C596.234 161.937 596.171 161.611 596.172 161.283C596.171 160.955 596.234 160.63 596.357 160.326C596.48 160.022 596.662 159.746 596.891 159.514C597.12 159.281 597.392 159.097 597.692 158.971C597.991 158.845 598.312 158.78 598.637 158.78H618.418C619.074 158.78 619.703 159.044 620.167 159.513C620.631 159.983 620.891 160.619 620.891 161.283C620.891 161.947 620.631 162.584 620.167 163.053C619.703 163.522 619.074 163.786 618.418 163.786Z" fill="#ABDAF7"/>
</g>
<g style="mix-blend-mode:multiply" opacity="0.5">
<path d="M586.16 172.538C586.16 173.033 586.015 173.516 585.743 173.928C585.472 174.34 585.085 174.66 584.633 174.85C584.181 175.039 583.684 175.089 583.204 174.992C582.724 174.896 582.283 174.657 581.937 174.307C581.591 173.957 581.356 173.511 581.26 173.026C581.165 172.54 581.214 172.037 581.401 171.58C581.588 171.122 581.905 170.732 582.312 170.456C582.719 170.181 583.197 170.035 583.687 170.035C584.011 170.035 584.333 170.099 584.633 170.225C584.933 170.351 585.206 170.535 585.436 170.768C585.665 171 585.848 171.276 585.972 171.58C586.096 171.883 586.16 172.209 586.16 172.538Z" fill="#ABDAF7"/>
</g>
<g style="mix-blend-mode:multiply" opacity="0.5">
<path d="M618.418 175.04H598.637C598.312 175.04 597.991 174.976 597.692 174.85C597.392 174.724 597.12 174.539 596.891 174.307C596.662 174.074 596.48 173.798 596.357 173.495C596.234 173.191 596.171 172.866 596.172 172.538C596.171 172.209 596.234 171.884 596.357 171.58C596.48 171.277 596.662 171.001 596.891 170.768C597.12 170.536 597.392 170.351 597.692 170.225C597.991 170.099 598.312 170.035 598.637 170.035H618.418C619.074 170.035 619.703 170.298 620.167 170.768C620.631 171.237 620.891 171.874 620.891 172.538C620.891 173.201 620.631 173.838 620.167 174.307C619.703 174.777 619.074 175.04 618.418 175.04Z" fill="#ABDAF7"/>
</g>
</g>
<g style="mix-blend-mode:multiply" opacity="0.6">
<path d="M345.339 126.763H297.128C295.278 126.763 293.777 128.281 293.777 130.154V203.226C293.777 205.099 295.278 206.617 297.128 206.617H345.339C347.19 206.617 348.69 205.099 348.69 203.226V130.154C348.69 128.281 347.19 126.763 345.339 126.763Z" fill="#ABDAF7"/>
</g>
<path d="M342.263 204.238H294.061C292.984 204.238 291.951 203.805 291.19 203.035C290.428 202.264 290 201.219 290 200.129V127.109C290 126.02 290.428 124.974 291.19 124.204C291.951 123.433 292.984 123 294.061 123H342.263C343.341 123 344.374 123.433 345.135 124.204C345.897 124.974 346.325 126.02 346.325 127.109V200.173C346.311 201.255 345.877 202.287 345.117 203.048C344.358 203.808 343.332 204.236 342.263 204.238ZM294.061 124.358C293.363 124.358 292.694 124.638 292.201 125.138C291.707 125.637 291.43 126.314 291.43 127.021V200.084C291.43 200.791 291.707 201.468 292.201 201.967C292.694 202.467 293.363 202.747 294.061 202.747H342.263C342.961 202.747 343.631 202.467 344.124 201.967C344.618 201.468 344.895 200.791 344.895 200.084V127.109C344.895 126.403 344.618 125.726 344.124 125.227C343.631 124.727 342.961 124.447 342.263 124.447L294.061 124.358Z" fill="#ABDAF7"/>
<path d="M309.379 152.122L311.655 150.077L318.726 158.133C318.913 158.346 319.009 158.625 318.992 158.91C318.976 159.194 318.848 159.46 318.638 159.649L317.949 160.268C317.739 160.457 317.462 160.554 317.181 160.537C316.9 160.52 316.637 160.391 316.451 160.178L309.379 152.122Z" fill="#ABDAF7"/>
<path d="M306.922 137.308C305.315 137.308 303.745 137.79 302.409 138.693C301.073 139.596 300.032 140.879 299.417 142.381C298.802 143.883 298.641 145.535 298.955 147.13C299.268 148.724 300.042 150.188 301.178 151.338C302.314 152.487 303.761 153.27 305.337 153.587C306.913 153.904 308.546 153.742 310.03 153.119C311.514 152.497 312.783 151.444 313.676 150.092C314.568 148.741 315.045 147.152 315.045 145.526C315.045 143.347 314.189 141.256 312.665 139.715C311.142 138.174 309.076 137.308 306.922 137.308ZM306.922 151.127C305.827 151.127 304.757 150.798 303.847 150.183C302.936 149.568 302.227 148.693 301.808 147.67C301.389 146.646 301.279 145.52 301.493 144.434C301.707 143.347 302.234 142.349 303.008 141.566C303.782 140.783 304.768 140.25 305.842 140.034C306.916 139.817 308.028 139.928 309.04 140.352C310.051 140.776 310.916 141.494 311.524 142.415C312.132 143.336 312.457 144.419 312.457 145.526C312.454 147.011 311.871 148.434 310.833 149.484C309.796 150.534 308.389 151.124 306.922 151.127Z" fill="#ABDAF7"/>
<path d="M339.826 141.834H327.001C326.808 141.834 326.616 141.796 326.437 141.721C326.258 141.646 326.096 141.536 325.959 141.398C325.822 141.259 325.714 141.095 325.64 140.914C325.565 140.733 325.527 140.539 325.527 140.343C325.527 140.147 325.565 139.953 325.64 139.773C325.714 139.592 325.822 139.427 325.959 139.289C326.096 139.15 326.258 139.04 326.437 138.966C326.616 138.891 326.808 138.852 327.001 138.852H339.826C340.216 138.852 340.591 139.009 340.868 139.289C341.144 139.568 341.299 139.948 341.299 140.343C341.299 140.739 341.144 141.118 340.868 141.398C340.591 141.677 340.216 141.834 339.826 141.834Z" fill="#ABDAF7"/>
<path d="M339.826 149.573H327.001C326.808 149.573 326.616 149.535 326.437 149.46C326.258 149.385 326.096 149.275 325.959 149.137C325.822 148.998 325.714 148.834 325.64 148.653C325.565 148.472 325.527 148.278 325.527 148.082C325.527 147.887 325.565 147.693 325.64 147.512C325.714 147.331 325.822 147.167 325.959 147.028C326.096 146.89 326.258 146.78 326.437 146.705C326.616 146.63 326.808 146.591 327.001 146.591H339.826C340.216 146.591 340.591 146.748 340.868 147.028C341.144 147.308 341.299 147.687 341.299 148.082C341.299 148.278 341.261 148.472 341.187 148.653C341.113 148.834 341.005 148.998 340.868 149.137C340.731 149.275 340.568 149.385 340.39 149.46C340.211 149.535 340.019 149.573 339.826 149.573Z" fill="#ABDAF7"/>
<path d="M339.826 156.719H327.001C326.808 156.719 326.616 156.68 326.437 156.605C326.258 156.53 326.096 156.42 325.959 156.282C325.822 156.143 325.714 155.979 325.64 155.798C325.565 155.617 325.527 155.423 325.527 155.227C325.527 155.032 325.565 154.838 325.64 154.657C325.714 154.476 325.822 154.312 325.959 154.173C326.096 154.035 326.258 153.925 326.437 153.85C326.616 153.775 326.808 153.736 327.001 153.736H339.826C340.019 153.736 340.211 153.775 340.39 153.85C340.568 153.925 340.731 154.035 340.868 154.173C341.005 154.312 341.113 154.476 341.187 154.657C341.261 154.838 341.299 155.032 341.299 155.227C341.299 155.623 341.144 156.002 340.868 156.282C340.591 156.562 340.216 156.719 339.826 156.719Z" fill="#ABDAF7"/>
<path d="M323.849 176.608H304.068C303.624 176.606 303.2 176.427 302.886 176.109C302.572 175.792 302.395 175.362 302.393 174.913C302.393 174.463 302.569 174.031 302.883 173.711C303.197 173.392 303.623 173.211 304.068 173.209H323.849C324.294 173.211 324.72 173.392 325.034 173.711C325.348 174.031 325.524 174.463 325.524 174.913C325.522 175.362 325.345 175.792 325.031 176.109C324.717 176.427 324.292 176.606 323.849 176.608Z" fill="#ABDAF7"/>
<path d="M323.849 187.233H304.068C303.624 187.233 303.198 187.054 302.883 186.736C302.569 186.418 302.393 185.987 302.393 185.538C302.395 185.089 302.572 184.659 302.886 184.341C303.2 184.024 303.624 183.845 304.068 183.842H323.849C324.292 183.845 324.717 184.024 325.031 184.341C325.345 184.659 325.522 185.089 325.524 185.538C325.524 185.987 325.348 186.418 325.034 186.736C324.719 187.054 324.293 187.233 323.849 187.233Z" fill="#ABDAF7"/>
<path d="M323.849 197.865H304.068C303.624 197.863 303.2 197.684 302.886 197.366C302.572 197.049 302.395 196.619 302.393 196.17C302.393 195.721 302.569 195.29 302.883 194.972C303.198 194.654 303.624 194.475 304.068 194.475H323.849C324.293 194.475 324.719 194.654 325.034 194.972C325.348 195.29 325.524 195.721 325.524 196.17C325.522 196.619 325.345 197.049 325.031 197.366C324.717 197.684 324.292 197.863 323.849 197.865Z" fill="#ABDAF7"/>
<path d="M339.343 174.913C339.343 175.452 339.185 175.979 338.889 176.427C338.593 176.875 338.173 177.225 337.681 177.431C337.189 177.637 336.647 177.691 336.125 177.586C335.602 177.481 335.122 177.221 334.746 176.84C334.369 176.459 334.113 175.973 334.009 175.445C333.905 174.916 333.958 174.368 334.162 173.871C334.366 173.373 334.711 172.947 335.154 172.648C335.597 172.348 336.117 172.188 336.65 172.188C337.364 172.188 338.049 172.476 338.554 172.987C339.059 173.498 339.343 174.191 339.343 174.913Z" fill="#ABDAF7"/>
<path d="M339.343 185.537C339.343 186.076 339.185 186.603 338.889 187.051C338.593 187.499 338.173 187.848 337.681 188.055C337.189 188.261 336.647 188.315 336.125 188.21C335.602 188.105 335.122 187.845 334.746 187.464C334.369 187.083 334.113 186.597 334.009 186.069C333.905 185.54 333.958 184.992 334.162 184.495C334.366 183.997 334.711 183.571 335.154 183.272C335.597 182.972 336.117 182.813 336.65 182.813C337.004 182.811 337.355 182.881 337.682 183.018C338.009 183.154 338.307 183.355 338.557 183.608C338.807 183.861 339.005 184.162 339.14 184.493C339.275 184.824 339.344 185.179 339.343 185.537Z" fill="#ABDAF7"/>
<path d="M339.343 196.171C339.343 196.709 339.185 197.236 338.889 197.684C338.593 198.132 338.173 198.482 337.681 198.688C337.189 198.894 336.647 198.948 336.125 198.843C335.602 198.738 335.122 198.478 334.746 198.097C334.369 197.716 334.113 197.231 334.009 196.702C333.905 196.174 333.958 195.626 334.162 195.128C334.366 194.63 334.711 194.204 335.154 193.905C335.597 193.606 336.117 193.446 336.65 193.446C337.364 193.446 338.049 193.733 338.554 194.244C339.059 194.755 339.343 195.448 339.343 196.171Z" fill="#ABDAF7"/>
<g style="mix-blend-mode:multiply" opacity="0.6">
<path d="M192.103 189H108.533C105.931 189 103.822 191.134 103.822 193.766V244.978C103.822 247.611 105.931 249.744 108.533 249.744H192.103C194.705 249.744 196.814 247.611 196.814 244.978V193.766C196.814 191.134 194.705 189 192.103 189Z" fill="#ABDAF7"/>
</g>
<path d="M190.992 251.165H107.412C105.978 251.162 104.602 250.585 103.588 249.558C102.573 248.532 102.002 247.14 102 245.689V194.476C102 193.024 102.57 191.631 103.585 190.604C104.6 189.577 105.977 189 107.412 189H190.992C191.705 188.997 192.411 189.136 193.071 189.409C193.731 189.683 194.33 190.086 194.836 190.595C195.341 191.103 195.742 191.708 196.016 192.374C196.289 193.041 196.43 193.755 196.43 194.476V245.689C196.429 246.41 196.288 247.123 196.013 247.789C195.739 248.455 195.338 249.059 194.833 249.568C194.328 250.076 193.729 250.479 193.07 250.753C192.41 251.027 191.704 251.167 190.992 251.165ZM107.412 190.429C106.358 190.438 105.349 190.869 104.607 191.627C103.864 192.385 103.447 193.409 103.447 194.476V245.689C103.45 246.761 103.872 247.789 104.622 248.548C105.371 249.306 106.387 249.734 107.447 249.736H190.992C192.052 249.734 193.068 249.306 193.818 248.548C194.567 247.789 194.989 246.761 194.992 245.689V194.476C194.992 193.403 194.57 192.373 193.82 191.614C193.07 190.855 192.053 190.429 190.992 190.429H107.412Z" fill="#ABDAF7"/>
<path opacity="0.5" d="M135.905 220.666C134.395 222.192 132.509 223.282 130.444 223.823C128.378 224.364 126.206 224.337 124.155 223.744C122.103 223.151 120.245 222.014 118.773 220.451C117.301 218.887 116.269 216.954 115.783 214.852C115.297 212.75 115.376 210.554 116.01 208.492C116.645 206.431 117.812 204.578 119.392 203.127C120.971 201.675 122.906 200.677 124.995 200.235C127.084 199.794 129.251 199.925 131.273 200.616L127.431 212.154L135.905 220.666Z" fill="#ABDAF7"/>
<path d="M140.983 211.151C140.986 212.503 140.722 213.842 140.209 215.09C139.695 216.338 138.942 217.47 137.992 218.42L130.799 211.151L134.062 201.388C136.081 202.078 137.834 203.391 139.076 205.142C140.318 206.894 140.985 208.996 140.983 211.151Z" fill="#ABDAF7"/>
<path opacity="0.5" d="M181.482 224.927H153.938V201.397C153.927 201.297 153.937 201.195 153.967 201.099C153.998 201.002 154.048 200.914 154.115 200.838C154.181 200.763 154.263 200.703 154.354 200.661C154.445 200.62 154.544 200.599 154.644 200.599C154.744 200.599 154.843 200.62 154.934 200.661C155.025 200.703 155.107 200.763 155.174 200.838C155.24 200.914 155.291 201.002 155.321 201.099C155.351 201.195 155.361 201.297 155.35 201.397V223.498H181.482C181.656 223.517 181.816 223.601 181.933 223.733C182.049 223.865 182.114 224.035 182.114 224.212C182.114 224.389 182.049 224.56 181.933 224.691C181.816 224.823 181.656 224.907 181.482 224.927Z" fill="#ABDAF7"/>
<path opacity="0.5" d="M163.244 212.802H159.709V223.497H163.244V212.802Z" fill="#ABDAF7"/>
<path opacity="0.5" d="M170.537 207.379H167.002V223.497H170.537V207.379Z" fill="#ABDAF7"/>
<path opacity="0.5" d="M177.721 215.438H174.186V223.497H177.721V215.438Z" fill="#ABDAF7"/>
<path opacity="0.5" d="M132.697 233.34H116.1C115.417 233.34 114.863 233.901 114.863 234.592C114.863 235.283 115.417 235.843 116.1 235.843H132.697C133.38 235.843 133.934 235.283 133.934 234.592C133.934 233.901 133.38 233.34 132.697 233.34Z" fill="#ABDAF7"/>
<path opacity="0.5" d="M158.001 233.34H141.405C140.722 233.34 140.168 233.901 140.168 234.592C140.168 235.283 140.722 235.843 141.405 235.843H158.001C158.684 235.843 159.238 235.283 159.238 234.592C159.238 233.901 158.684 233.34 158.001 233.34Z" fill="#ABDAF7"/>
<path opacity="0.5" d="M181.775 233.34H165.178C164.495 233.34 163.941 233.901 163.941 234.592C163.941 235.283 164.495 235.843 165.178 235.843H181.775C182.458 235.843 183.012 235.283 183.012 234.592C183.012 233.901 182.458 233.34 181.775 233.34Z" fill="#ABDAF7"/>
<path opacity="0.5" d="M143.616 244.772H126.95C126.623 244.772 126.31 244.641 126.078 244.408C125.847 244.176 125.715 243.86 125.713 243.529C125.713 243.365 125.745 243.202 125.807 243.05C125.869 242.899 125.96 242.761 126.075 242.644C126.19 242.528 126.326 242.436 126.476 242.373C126.626 242.31 126.787 242.278 126.95 242.278H143.616C143.779 242.278 143.94 242.31 144.09 242.373C144.24 242.436 144.376 242.528 144.491 242.644C144.606 242.761 144.697 242.899 144.759 243.05C144.821 243.202 144.853 243.365 144.853 243.529C144.851 243.86 144.72 244.176 144.488 244.408C144.256 244.641 143.943 244.772 143.616 244.772Z" fill="#ABDAF7"/>
<path opacity="0.5" d="M167.363 244.772H150.766C150.44 244.772 150.126 244.641 149.895 244.408C149.663 244.176 149.532 243.86 149.529 243.529C149.529 243.365 149.561 243.202 149.623 243.05C149.686 242.899 149.777 242.761 149.892 242.644C150.006 242.528 150.143 242.436 150.293 242.373C150.443 242.31 150.604 242.278 150.766 242.278H167.363C167.525 242.278 167.686 242.31 167.836 242.373C167.986 242.436 168.122 242.528 168.237 242.644C168.352 242.761 168.443 242.899 168.505 243.05C168.568 243.202 168.6 243.365 168.6 243.529C168.597 243.86 168.466 244.176 168.234 244.408C168.003 244.641 167.689 244.772 167.363 244.772Z" fill="#ABDAF7"/>
<path d="M171.431 303.12L161.431 313.38L157.271 307.27L155.891 305.27C151.461 306.38 144.891 297.72 142.301 293.1C139.711 288.48 150.161 281.31 150.161 281.31C148.451 276.19 141.591 272.97 141.401 271.55C141.211 270.13 142.911 268.64 149.141 271.55C155.371 274.46 160.821 284.84 160.821 284.84C161.931 281.84 157.001 273.68 157.901 272.76C158.801 271.84 163.631 272.97 167.351 280.76C171.071 288.55 168.871 297.88 168.871 297.88L168.921 297.96L171.431 303.12Z" fill="#FFD3C8"/>
<path d="M149.839 280.37C149.839 280.37 157.229 288.83 156.429 292.15C155.629 295.47 151.909 291.61 151.909 291.61C151.909 291.61 155.339 295.61 154.229 296.88C153.119 298.15 148.989 294.88 148.989 294.88C148.989 294.88 153.929 301.02 148.989 300.12C144.049 299.22 137.869 289.91 142.629 288.98C142.629 288.98 142.049 282.2 146.379 284.52C146.379 284.5 144.439 278.85 149.839 280.37Z" fill="#FFB19F"/>
<path d="M239.681 402.86C239.681 402.86 248.011 378.55 243.631 354.57C243.624 354.517 243.624 354.463 243.631 354.41C243.638 354.343 243.638 354.276 243.631 354.21C243.511 353.59 243.381 352.96 243.251 352.33C239.62 355.4 235.777 358.21 231.751 360.74C223.751 365.74 213.071 370.74 204.881 368.43C189.881 364.13 167.881 334.89 157.631 311.8C161.398 306.773 166.815 303.232 172.931 301.8C172.931 301.8 193.331 328.98 211.321 335.42C218.186 326.7 223.927 317.152 228.411 307C233.211 296.21 240.411 289.38 249.491 285.71C254.968 283.562 260.788 282.417 266.671 282.33L282.441 274.97C284.626 275.028 286.805 275.205 288.971 275.5C296.361 276.5 308.651 279.17 318.591 286.74C333.881 298.4 355.901 402.89 355.901 402.89L239.681 402.86Z" fill="#FF8726"/>
<path d="M243.6 354.41C243.47 353.71 243.32 353.02 243.18 352.33C239.549 355.4 235.706 358.211 231.68 360.74L236.33 320.93C241.07 339.16 243.34 352.78 243.6 354.41Z" fill="#EA7F2A"/>
<path d="M289 275.47C286.57 290.93 271.1 305.21 259.92 305.02C250.92 304.86 249.62 292.02 249.52 285.68C254.997 283.532 260.817 282.387 266.7 282.3L282.47 274.94C284.654 274.998 286.834 275.175 289 275.47Z" fill="#FF8726"/>
<path d="M262.221 387.06C262.221 387.06 297.731 350.12 299.221 311.27L309.741 344L305.741 378.09L262.221 387.06Z" fill="#EA7F2A"/>
<path d="M261.189 402.85H221.439C221.58 401.138 222.26 399.515 223.381 398.215C224.503 396.914 226.007 396.002 227.679 395.61C233.819 393.79 237.739 386.15 256.159 387.15L261.189 402.85Z" fill="#FFD3C8"/>
<path d="M301.86 366.32C301.86 366.32 283.14 377.09 253.64 384.74C253.64 384.74 249.55 394.6 256.73 402.85H313.79L301.86 366.32Z" fill="#FF8726"/>
<path d="M232.13 253.41C232.13 253.41 223.65 241.71 224.69 233.83C225.73 225.95 233.03 227.83 233.03 227.83C233.03 227.83 232.69 208.68 250.41 213.58C250.41 213.58 250.02 207.73 253.89 207.89C257.76 208.05 263.83 216.89 263.83 216.89C263.83 216.89 265.33 210.29 267.96 211.89C270.59 213.49 271.39 220.25 276.86 223.53C282.33 226.81 285.72 231.04 281.42 244.33C277.12 257.62 280.35 258.55 278.81 265.33C277.36 271.81 276.19 275.75 272.17 276.11C268.15 276.47 252.76 260.24 252.76 260.24L232.13 253.41Z" fill="#855E5E"/>
<path d="M282.44 274.94C282.44 274.94 272.56 298.89 262.19 297.08C257.04 296.18 255.9 293.08 255.85 289.4C255.85 284.65 257.65 279.08 254.85 276.74L267.28 259.08L270.02 255.18C272.921 262.469 277.13 269.166 282.44 274.94Z" fill="#FFD3C8"/>
<path d="M255.85 289.4C255.85 284.65 257.65 279.08 254.85 276.74L267.28 259.08C268.35 260.32 269.1 262.53 269.41 265.99C271.05 284.23 261.41 288.47 255.85 289.4Z" fill="#EDA795"/>
<path d="M230.92 244.1C230.92 244.1 234.28 274.94 246.92 281.89C257.85 287.89 271.14 269.67 270.87 260.64C270.87 260.64 275.64 257 274.87 251.11C274.1 245.22 267.87 247.17 267.1 256.67C267.1 256.67 262.03 256.31 261.1 244.43C257.91 247.07 254.48 246.26 250.88 243.05C250.88 243.05 249.09 249.66 239.88 241.94C239.8 241.94 236.32 246.66 230.92 244.1Z" fill="#FFD3C8"/>
<path d="M527.791 363.6C527.791 363.6 544.041 390.71 549.661 403.86H492.381C490.094 393.31 487.087 382.929 483.381 372.79L527.791 363.6Z" fill="#5D7CA0"/>
<path d="M505.451 369.64C502.311 380.03 497.531 388.9 490.451 395.64L492.391 403.87L423.061 403L430.771 355.55L505.451 369.64Z" fill="#799CBF"/>
<path d="M614.201 221.71C614.201 221.71 616.491 207.34 621.051 202.24C625.611 197.14 638.051 189.6 639.571 192.24C641.091 194.88 628.571 203.34 628.571 203.34C628.571 203.34 634.201 202 639.031 210.34C643.861 218.68 628.301 225.1 628.301 225.1L625.211 232.1L612.871 224.31L614.201 221.71Z" fill="#FFD3C8"/>
<path d="M630.161 203.65C630.161 203.65 623.161 210.73 624.221 212.75C625.281 214.77 629.071 211.59 629.071 211.59C629.071 211.59 625.941 216.36 628.371 217.59C630.801 218.82 634.551 214.71 634.551 214.71C634.551 214.71 631.421 219.04 633.221 219.83C635.021 220.62 644.641 213.83 642.921 212.25C641.201 210.67 640.261 211.96 640.261 211.96C640.261 211.96 642.261 208.57 640.261 207.49C639.986 207.323 639.68 207.215 639.361 207.172C639.043 207.129 638.719 207.152 638.41 207.241C638.101 207.329 637.814 207.48 637.566 207.685C637.318 207.889 637.116 208.143 636.971 208.43C636.971 208.43 638.621 205.83 637.291 204.82C635.961 203.81 633.141 205.11 633.141 205.11C633.141 205.11 634.061 200.77 630.161 203.65Z" fill="#FFB19F"/>
<path d="M623.701 203.48C621.591 202.88 617.301 207.27 617.301 207.27C615.611 209.45 615.301 213.77 615.191 215.77C614.981 221.35 612.871 224.31 612.871 224.31L619.131 228.26C624.001 222 622.401 214 621.611 211.18C624.001 207.64 625.001 203.84 623.701 203.48Z" fill="#FFB19F"/>
<path d="M627.761 233.57C627.761 233.57 606.821 289.32 573.561 294.26C562.323 296.057 550.933 296.727 539.561 296.26C530.191 295.77 525.561 294.36 525.241 294.26C525.241 294.26 516.111 311.26 522.021 335.7C527.931 360.14 530.071 365.21 530.071 365.21C530.071 365.21 485.221 398.21 448.751 368.21L415.851 317L405.541 301C405.541 301 415.011 269.9 441.711 249.69C452.803 241.198 465.885 235.69 479.711 233.69C488.327 232.438 497.073 232.357 505.711 233.45C505.711 233.45 512.961 235.5 524.711 239.81C531.061 242.13 538.711 245.11 547.271 248.81C571.701 259.28 578.421 262.4 578.421 262.4C578.421 262.4 604.421 236.73 611.151 221.16C611.121 221.09 624.541 222.45 627.761 233.57Z" fill="#FF8726"/>
<path d="M459.811 259C459.691 271.49 457.021 283.6 455.811 293L476.501 288.81L508.691 320.63C508.691 320.63 512.761 329.96 504.461 331.57C497.961 332.83 465.004 336.5 465.004 336.5C458.004 346.03 457.391 361.18 453.891 375.33L423.031 321.71L459.811 259Z" fill="#171E41"/>
<path d="M505.65 262C491.24 258.34 483.65 245.38 479.65 233.62C488.267 232.367 497.013 232.287 505.65 233.38C505.65 233.38 512.9 235.43 524.65 239.74C526.07 250.06 525.57 267.07 505.65 262Z" fill="#FFA156"/>
<path d="M543.492 273.43C541.628 280.94 540.321 288.578 539.582 296.28C530.212 295.79 525.582 294.38 525.262 294.28C525.262 294.28 533.432 280.27 543.492 273.43Z" fill="#EA7F2A"/>
<path d="M499.668 273.444L457.05 279.631C455.786 279.815 454.887 280.827 455.042 281.893L462.984 336.6C463.138 337.665 464.288 338.381 465.552 338.197L508.17 332.01C509.434 331.827 510.333 330.814 510.178 329.748L502.237 275.042C502.082 273.976 500.932 273.261 499.668 273.444Z" fill="#F2F4F9"/>
<path d="M481.361 291.14L486.861 288.99C486.861 288.99 492.101 274.5 498.611 283.63C498.611 283.63 503.101 280.94 502.971 279.47C502.841 278 502.771 275.84 502.771 275.84C502.771 275.84 511.871 277.84 509.841 290.51C507.811 303.18 500.011 301.61 492.371 301.74L482.841 305.5L481.361 291.14Z" fill="#98B2D8"/>
<path d="M484.911 308.85C484.911 308.85 442.051 337.23 423.531 323.54C420.822 321.534 418.256 319.342 415.851 316.98L405.541 300.98C405.541 300.98 415.011 269.88 441.711 249.67C450.561 245.67 459.811 247.14 460.281 255.34C461.421 274.87 444.711 286.88 442.651 295.74L481.071 287.96C481.071 287.96 487.331 294.55 484.911 308.85Z" fill="#FF8726"/>
<path d="M535.301 203.7C535.301 203.7 541.421 190.61 538.921 183.07C536.421 175.53 529.601 178.72 529.601 178.72C529.601 178.72 526.331 159.85 509.851 167.99C509.851 167.99 509.131 162.17 505.361 163.05C501.591 163.93 497.301 173.81 497.301 173.81C497.301 173.81 494.581 167.62 492.301 169.64C490.021 171.66 490.501 178.5 485.741 182.74C480.981 186.98 478.451 191.74 485.171 204.03C491.891 216.32 488.901 217.8 491.691 224.21C494.341 230.29 496.221 233.95 500.241 233.55C504.261 233.15 516.321 214.31 516.321 214.31L535.301 203.7Z" fill="#855E5E"/>
<path d="M489.932 234.31C489.932 234.31 499.412 257.66 514.312 253.84C519.372 252.53 519.402 247.09 518.762 243.51C517.922 238.83 515.052 233.71 517.372 230.89L501.832 215.89L498.412 212.58C496.935 220.28 494.061 227.645 489.932 234.31Z" fill="#FFD3C8"/>
<path d="M518.761 243.51C517.921 238.83 515.051 233.71 517.371 230.89L501.831 215.89C501.021 217.31 500.701 219.61 501.051 223.07C502.861 241.29 513.131 243.64 518.761 243.51Z" fill="#EDA795"/>
<path d="M534.731 194.33C534.731 194.33 537.231 225.25 526.181 234.44C516.571 242.44 500.091 226.99 498.651 218.08C498.651 218.08 493.291 215.4 492.961 209.46C492.631 203.52 499.121 204.27 501.641 213.46C501.641 213.46 506.551 212.15 505.241 200.32C508.861 202.32 512.071 200.86 515.011 197.04C515.011 197.04 518.011 203.19 525.611 193.87C525.611 193.87 529.911 197.85 534.731 194.33Z" fill="#FFD3C8"/>
<path d="M456.1 385.76C455.668 387.578 454.996 389.33 454.1 390.97C446.32 405.18 412.64 402.85 412.64 402.85H335.77C303.95 402.85 291.2 402.06 288.15 392.13C287.98 391.571 287.84 391.004 287.73 390.43C285.58 378.89 296.32 341.32 316.17 315.56C326.33 302.39 336.83 295.45 346.17 291.82C353.309 289.113 360.897 287.787 368.53 287.91C378.29 287.91 386.17 288.63 392.85 290.2C410.79 294.4 420.17 304.54 434.25 322.53C451.48 344.52 460 370.33 456.1 385.76Z" fill="#FE7100"/>
<g style="mix-blend-mode:multiply" opacity="0.22">
<path d="M320.871 376.64C329.221 363.51 331.871 345.31 334.161 326.83L341.401 364.41H404.201L415.741 326.83C415.471 344.39 417.881 361.62 426.211 378.09C426.211 378.09 385.151 424.56 320.871 376.64Z" fill="#1F395E"/>
</g>
<path d="M339.941 402.86H335.771C303.951 402.86 291.201 402.07 288.151 392.14C286.491 384.33 288.601 376.14 298.151 373.67C313.001 369.83 339.001 384.94 339.001 384.94L339.941 402.86Z" fill="#FE7100"/>
<path d="M456.1 385.76C455.668 387.578 454.995 389.33 454.1 390.97C446.32 405.18 412.64 402.85 412.64 402.85H389.84L392.74 383.53C392.74 383.53 433.19 364.8 447.68 370.64C454.77 373.5 456.94 379.43 456.1 385.76Z" fill="#FE7100"/>
<path d="M392.869 290.21C392.189 299.21 388.459 315.7 370.259 315.7C351.079 315.7 347.019 299.48 346.189 291.83C353.328 289.124 360.916 287.797 368.549 287.92C378.309 287.92 386.189 288.64 392.869 290.21Z" fill="#FE7100"/>
<path d="M409.441 402.85H335.771C334.917 402.85 334.098 402.511 333.494 401.907C332.89 401.303 332.551 400.484 332.551 399.63C332.551 398.776 332.89 397.957 333.494 397.353C334.098 396.749 334.917 396.41 335.771 396.41H409.441C409.864 396.41 410.282 396.493 410.673 396.655C411.064 396.817 411.419 397.054 411.718 397.353C412.017 397.652 412.254 398.007 412.416 398.398C412.577 398.789 412.661 399.207 412.661 399.63C412.661 400.053 412.577 400.472 412.416 400.862C412.254 401.253 412.017 401.608 411.718 401.907C411.419 402.206 411.064 402.443 410.673 402.605C410.282 402.767 409.864 402.85 409.441 402.85Z" fill="white"/>
<path d="M418.36 347.47L418.08 349.14L410.45 396.4H335.37L327.81 347.4C327.729 346.836 327.769 346.261 327.929 345.713C328.088 345.166 328.362 344.658 328.733 344.226C329.105 343.793 329.564 343.444 330.081 343.204C330.598 342.963 331.16 342.836 331.73 342.83H414.45C415.027 342.836 415.595 342.966 416.116 343.211C416.637 343.457 417.099 343.812 417.471 344.252C417.842 344.693 418.114 345.209 418.267 345.764C418.421 346.319 418.453 346.901 418.36 347.47Z" fill="#1F3960"/>
<path d="M418.08 349.16L410.45 396.42H335.77L361.08 393.78C373.815 392.456 385.919 387.566 396.001 379.674C406.084 371.781 413.736 361.205 418.08 349.16Z" fill="#23406D"/>
<path d="M370 308.85H369.5C367.01 308.881 364.543 308.383 362.26 307.39C359.95 306.301 358.01 304.56 356.679 302.382C355.348 300.203 354.684 297.682 354.77 295.13C354.77 294.6 354.77 294.13 354.77 293.57C354.77 289.27 354.51 285.7 354.51 285.7V283.76L381.51 282.56C381.596 285.96 381.957 289.348 382.59 292.69C382.594 292.73 382.594 292.77 382.59 292.81C382.972 294.71 382.937 296.67 382.488 298.556C382.04 300.441 381.188 302.207 379.991 303.731C378.795 305.256 377.282 306.503 375.557 307.387C373.832 308.27 371.936 308.77 370 308.85Z" fill="#FEB19E"/>
<path d="M382.61 292.69C371.34 305.92 359.76 298.19 354.74 293.57C354.74 289.27 354.48 285.7 354.48 285.7V283.76L381.48 282.56C381.583 285.962 381.961 289.349 382.61 292.69Z" fill="#EDA795"/>
<path d="M346.201 270.62C346.201 270.62 354.591 294.26 368.581 294.26C382.571 294.26 388.381 268.8 388.381 268.8V246.66H345.131L346.201 270.62Z" fill="#FEB19E"/>
<path d="M341.699 257.28C341.699 257.28 337.579 258.03 338.279 262.76C338.979 267.49 343.279 273.23 346.769 270.21L341.699 257.28Z" fill="#FEB19E"/>
<path d="M391.651 255.3C391.651 255.3 395.831 255.48 395.781 260.3C395.731 265.12 392.251 271.35 388.381 268.83L391.651 255.3Z" fill="#FEB19E"/>
<path d="M391.65 255.3C390.843 259.864 389.751 264.372 388.38 268.8C388.38 268.8 385.07 268.13 383.99 259.41C381.733 259.724 379.432 259.381 377.364 258.421C375.296 257.462 373.548 255.927 372.33 254C372.33 254 371.26 260.71 364.33 255.94C359.72 259.71 354.27 260.1 348.09 257.55C348.09 257.55 349.09 266.35 346.18 270.55C346.18 270.55 345.11 267.07 341.68 257.21C341.202 257.253 340.738 257.399 340.322 257.639C339.906 257.879 339.547 258.207 339.27 258.6C339.27 258.6 331.86 244.1 335.35 237.13C338.84 230.16 343.53 232.83 343.53 232.83C343.53 232.83 341.79 223.3 352.12 219.83C362.45 216.36 362.45 211.64 364.06 212.58C365.67 213.52 366.34 217.01 366.34 217.01C366.34 217.01 384.19 215.13 389.02 234.32C389.02 234.32 401.91 234.73 394.26 256.32C394.28 256.39 393.78 255.5 391.65 255.3Z" fill="url(#paint0_linear)"/>
<path d="M621.68 402.85H132.17C131.203 402.85 130.42 403.633 130.42 404.6V411.57C130.42 412.536 131.203 413.32 132.17 413.32H621.68C622.646 413.32 623.43 412.536 623.43 411.57V404.6C623.43 403.633 622.646 402.85 621.68 402.85Z" fill="#70B2DD"/>
<path d="M500.58 377H521.51V395.12C521.51 397.148 520.704 399.094 519.27 400.529C517.835 401.964 515.889 402.77 513.86 402.77H508.22C506.191 402.77 504.246 401.964 502.811 400.529C501.376 399.094 500.57 397.148 500.57 395.12V377H500.58Z" fill="url(#paint1_linear)"/>
<path d="M507.22 377V371.41C507.22 371.192 507.263 370.976 507.346 370.775C507.43 370.573 507.552 370.39 507.706 370.236C507.86 370.082 508.043 369.96 508.245 369.876C508.446 369.793 508.662 369.75 508.88 369.75H511C511.219 369.751 511.436 369.709 511.638 369.627C511.841 369.544 512.025 369.422 512.18 369.267C512.335 369.113 512.459 368.93 512.543 368.728C512.627 368.526 512.67 368.309 512.67 368.09V366C512.67 365.781 512.627 365.564 512.543 365.362C512.459 365.16 512.335 364.977 512.18 364.823C512.025 364.668 511.841 364.546 511.638 364.463C511.436 364.381 511.219 364.339 511 364.34H504.2C503.09 364.34 501.99 364.121 500.964 363.696C499.938 363.271 499.006 362.647 498.221 361.862C497.437 361.076 496.814 360.143 496.39 359.117C495.966 358.09 495.749 356.991 495.75 355.88C495.75 353.639 496.64 351.49 498.225 349.905C499.81 348.32 501.959 347.43 504.2 347.43H513.2C513.64 347.43 514.062 347.255 514.374 346.944C514.685 346.632 514.86 346.21 514.86 345.77V345C514.863 342.678 515.787 340.453 517.429 338.812C519.072 337.172 521.298 336.25 523.62 336.25C525.941 336.25 528.166 337.172 529.807 338.813C531.448 340.454 532.37 342.679 532.37 345C532.371 346.243 532.128 347.473 531.653 348.622C531.178 349.77 530.481 350.813 529.602 351.692C528.723 352.571 527.68 353.268 526.532 353.743C525.383 354.218 524.153 354.461 522.91 354.46H507.07C506.852 354.46 506.636 354.503 506.435 354.586C506.233 354.67 506.05 354.792 505.896 354.946C505.742 355.1 505.62 355.283 505.536 355.485C505.453 355.686 505.41 355.902 505.41 356.12C505.41 356.338 505.453 356.554 505.536 356.755C505.62 356.957 505.742 357.14 505.896 357.294C506.05 357.448 506.233 357.57 506.435 357.654C506.636 357.737 506.852 357.78 507.07 357.78H515.73C517.264 357.783 518.734 358.394 519.818 359.479C520.901 360.565 521.51 362.036 521.51 363.57V367.19C521.511 367.95 521.363 368.703 521.073 369.405C520.783 370.107 520.357 370.746 519.821 371.284C519.284 371.821 518.646 372.248 517.944 372.539C517.242 372.83 516.49 372.98 515.73 372.98C515.511 372.979 515.294 373.021 515.092 373.103C514.889 373.186 514.705 373.308 514.55 373.463C514.395 373.617 514.271 373.8 514.187 374.002C514.103 374.204 514.06 374.421 514.06 374.64V377H507.22Z" fill="url(#paint2_linear)"/>
<defs>
<linearGradient id="paint0_linear" x1="366.08" y1="262.97" x2="364.99" y2="220.82" gradientUnits="userSpaceOnUse">
<stop stop-color="#3F2323"/>
<stop offset="1" stop-color="#5E3434"/>
</linearGradient>
<linearGradient id="paint1_linear" x1="10982.7" y1="10425.2" x2="11421" y2="10425.2" gradientUnits="userSpaceOnUse">
<stop stop-color="#621055"/>
<stop offset="1"/>
</linearGradient>
<linearGradient id="paint2_linear" x1="530.47" y1="318.02" x2="503.9" y2="370.75" gradientUnits="userSpaceOnUse">
<stop stop-color="#EAD48C"/>
<stop offset="1" stop-color="#FFF6DA"/>
</linearGradient>
</defs>
</svg>
