<svg xmlns="http://www.w3.org/2000/svg" xmlns:xlink="http://www.w3.org/1999/xlink" version="1.1" x="0px" y="0px" viewBox="0 0 140 175" style="enable-background:new 0 0 140 140;" xml:space="preserve"><g><g><path d="M101.2797852,135H10.8500977C7.6245117,135,5,132.3759766,5,129.1503906V30.3203125    c0-3.2255859,2.6245117-5.8505859,5.8500977-5.8505859h20.0898438c0.5522461,0,1,0.4472656,1,1s-0.4477539,1-1,1H10.8500977    C8.7270508,26.4697266,7,28.1972656,7,30.3203125v98.8300781C7,131.2734375,8.7270508,133,10.8500977,133h90.4296875    c2.1230469,0,3.8500977-1.7265625,3.8500977-3.8496094V30.3203125c0-2.1230469-1.7270508-3.8505859-3.8500977-3.8505859    H81.1699219c-0.5522461,0-1-0.4472656-1-1s0.4477539-1,1-1h20.1098633c3.2255859,0,5.8500977,2.625,5.8500977,5.8505859    v98.8300781C107.1298828,132.3759766,104.5053711,135,101.2797852,135z"/></g><g><g><path d="M77.9711914,34.9160156H34.1616211c-0.4150391,0-0.7871094-0.2558594-0.9345703-0.6445312l-5.0874023-13.3613281     c-0.1035156-0.2714844-0.0834961-0.5742188,0.0541992-0.8300781c0.1381836-0.2558594,0.3803711-0.4384766,0.6640625-0.5019531     l17.4570312-3.8671875l2.0551758-5.4052734C49.5766602,7.1318359,52.6689453,5,56.0639648,5     c3.3989258,0,6.4916992,2.1357422,7.6962891,5.3134766l2.0463867,5.3974609l17.4545898,3.8671875     c0.2836914,0.0634766,0.5258789,0.2460938,0.6635742,0.5019531c0.1381836,0.2548828,0.1582031,0.5585938,0.0551758,0.8300781     L78.90625,34.2714844C78.7587891,34.6591797,78.3867188,34.9160156,77.9711914,34.9160156z M34.8510742,32.9160156H77.28125     L81.699707,21.28125l-16.8530273-3.734375c-0.3291016-0.0732422-0.5991211-0.3066406-0.71875-0.6220703l-2.237793-5.9023438     C60.9780273,8.6162109,58.6367188,7,56.0639648,7c-2.5703125,0-4.9111328,1.6142578-5.824707,4.0166016l-2.246582,5.9091797     c-0.1196289,0.3144531-0.3896484,0.5478516-0.7182617,0.6210938l-16.8535156,3.7333984L34.8510742,32.9160156z"/></g><g><path d="M56.0664062,20.8701172c-2.7568359,0-5-2.2431641-5-5s2.2431641-5,5-5s5,2.2431641,5,5     S58.8232422,20.8701172,56.0664062,20.8701172z M56.0664062,12.8701172c-1.6542969,0-3,1.3457031-3,3s1.3457031,3,3,3     s3-1.3457031,3-3S57.7207031,12.8701172,56.0664062,12.8701172z"/></g></g><g><g><path d="M134,118.2890625c-0.5522461,0-1-0.4472656-1-1v-75.125c0-4.7373047-3.8540039-8.5908203-8.5908203-8.5908203     s-8.590332,3.8535156-8.590332,8.5908203v75.125c0,0.5527344-0.4477539,1-1,1s-1-0.4472656-1-1v-75.125     c0-5.8398438,4.7509766-10.5908203,10.590332-10.5908203C130.2490234,31.5732422,135,36.3242188,135,42.1640625v75.125     C135,117.8417969,134.5522461,118.2890625,134,118.2890625z"/></g><g><path d="M124.4091797,135L124.4091797,135c-0.3583984,0-0.6889648-0.1914062-0.8671875-0.5019531l-9.590332-16.7109375     c-0.2514648-0.4384766-0.137207-0.9941406,0.2666016-1.2978516c6.762207-5.0800781,13.6201172-5.0800781,20.3823242,0     c0.4038086,0.3037109,0.5180664,0.859375,0.2666016,1.2978516l-9.5908203,16.7109375     C125.0981445,134.8085938,124.7675781,135,124.4091797,135z M116.1342773,117.5722656l8.2749023,14.4189453l8.2753906-14.4189453     C127.1240234,113.7148438,121.6948242,113.7148438,116.1342773,117.5722656z"/></g><g><path d="M134,51.6201172h-19.1811523c-0.5522461,0-1-0.4472656-1-1s0.4477539-1,1-1H134c0.5522461,0,1,0.4472656,1,1     S134.5522461,51.6201172,134,51.6201172z"/></g><g><path d="M128.3691406,128.0996094c-0.1767578,0-0.355957-0.046875-0.5185547-0.1455078     c-2.0541992-1.2480469-4.828125-1.2480469-6.8813477,0c-0.4731445,0.2880859-1.0878906,0.1367188-1.3740234-0.3349609     c-0.2871094-0.4716797-0.1367188-1.0869141,0.3349609-1.3740234c2.6801758-1.6289062,6.2783203-1.6289062,8.9594727,0     c0.4716797,0.2871094,0.6220703,0.9023438,0.3349609,1.3740234     C129.0366211,127.9287109,128.7070312,128.0996094,128.3691406,128.0996094z"/></g><g><path d="M124.4091797,114.6855469c-0.5522461,0-1-0.4472656-1-1V50.6201172c0-0.5527344,0.4477539-1,1-1s1,0.4472656,1,1     v63.0654297C125.4091797,114.2382812,124.9614258,114.6855469,124.4091797,114.6855469z"/></g></g><g><g><path d="M17.309082,68.6357422c-0.2070312,0-0.4135742-0.0644531-0.5878906-0.1914062     c-0.3076172-0.2236328-0.4619141-0.6025391-0.3979492-0.9775391l1.1005859-6.4160156l-4.6621094-4.5449219     c-0.2724609-0.265625-0.3706055-0.6630859-0.2529297-1.0244141c0.1176758-0.3623047,0.4306641-0.6259766,0.8076172-0.6806641     l6.4423828-0.9365234l2.8808594-5.8378906c0.3369141-0.6835938,1.4570312-0.6835938,1.7939453,0l2.8808594,5.8378906     l6.4423828,0.9365234c0.3764648,0.0546875,0.6894531,0.3183594,0.8071289,0.6806641     c0.1176758,0.3613281,0.0195312,0.7587891-0.2529297,1.0244141l-4.6616211,4.5439453L30.75,67.4667969     c0.0639648,0.375-0.090332,0.7539062-0.3979492,0.9775391c-0.3081055,0.2246094-0.715332,0.2539062-1.0532227,0.0761719     l-5.762207-3.0292969l-5.762207,3.0292969C17.6279297,68.5976562,17.4682617,68.6357422,17.309082,68.6357422z      M15.6088867,56.4882812l3.5874023,3.4970703c0.2353516,0.2294922,0.3427734,0.5605469,0.2875977,0.8847656l-0.8466797,4.9375     l4.434082-2.3310547c0.2910156-0.1542969,0.6396484-0.1542969,0.9306641,0l4.434082,2.3310547l-0.847168-4.9375     c-0.0551758-0.3242188,0.0522461-0.6552734,0.2875977-0.8847656l3.5874023-3.4970703l-4.9570312-0.7207031     c-0.3261719-0.046875-0.6074219-0.2519531-0.753418-0.546875l-2.2167969-4.4921875l-2.2167969,4.4921875     c-0.1459961,0.2949219-0.4272461,0.5-0.753418,0.546875L15.6088867,56.4882812z"/></g><g><path d="M98.6699219,66.4853516H39.3300781c-0.5522461,0-1-0.4472656-1-1V50.6201172c0-0.5527344,0.4477539-1,1-1h59.3398438     c0.5522461,0,1,0.4472656,1,1v14.8652344C99.6699219,66.0380859,99.222168,66.4853516,98.6699219,66.4853516z      M40.3300781,64.4853516h57.3398438V51.6201172H40.3300781V64.4853516z"/></g><g><g><path d="M98.6699219,93.359375H39.3300781c-0.5522461,0-1-0.4472656-1-1V77.4951172c0-0.5527344,0.4477539-1,1-1h59.3398438      c0.5522461,0,1,0.4472656,1,1V92.359375C99.6699219,92.9121094,99.222168,93.359375,98.6699219,93.359375z       M40.3300781,91.359375h57.3398438V78.4951172H40.3300781V91.359375z"/></g></g><g><g><path d="M98.6699219,120.234375H39.3300781c-0.5522461,0-1-0.4472656-1-1v-14.8652344c0-0.5527344,0.4477539-1,1-1h59.3398438      c0.5522461,0,1,0.4472656,1,1v14.8652344C99.6699219,119.7871094,99.222168,120.234375,98.6699219,120.234375z       M40.3300781,118.234375h57.3398438v-12.8652344H40.3300781V118.234375z"/></g></g><g><path d="M23.5366211,119.8017578c-4.4111328,0-8-3.5888672-8-8s3.5888672-8,8-8s8,3.5888672,8,8     S27.9477539,119.8017578,23.5366211,119.8017578z M23.5366211,105.8017578c-3.3085938,0-6,2.6914062-6,6s2.6914062,6,6,6     s6-2.6914062,6-6S26.8452148,105.8017578,23.5366211,105.8017578z"/></g><g><path d="M30.027832,92.4189453H17.0449219c-0.5522461,0-1-0.4472656-1-1V78.4355469c0-0.5527344,0.4477539-1,1-1H30.027832     c0.5522461,0,1,0.4472656,1,1v12.9833984C31.027832,91.9716797,30.5800781,92.4189453,30.027832,92.4189453z      M18.0449219,90.4189453H29.027832V79.4355469H18.0449219V90.4189453z"/></g></g></g><text x="0" y="155" fill="#000000" font-size="5px" font-weight="bold" font-family="'Helvetica Neue', Helvetica, Arial-Unicode, Arial, Sans-serif">Created by DinosoftLab</text><text x="0" y="160" fill="#000000" font-size="5px" font-weight="bold" font-family="'Helvetica Neue', Helvetica, Arial-Unicode, Arial, Sans-serif">from the Noun Project</text></svg>