<svg width="120" height="104" viewBox="0 0 120 104" fill="none" xmlns="http://www.w3.org/2000/svg">
<path d="M18.3957 3.34286C18.3996 3.96996 18.2102 4.58406 17.8512 5.10731C17.4922 5.63056 16.9799 6.03941 16.3793 6.28201C15.7788 6.52461 15.1169 6.59005 14.4776 6.47003C13.8384 6.35 13.2505 6.04992 12.7886 5.60783C12.3267 5.16574 12.0115 4.60154 11.883 3.98676C11.7545 3.37198 11.8185 2.73431 12.0668 2.15457C12.3151 1.57483 12.7366 1.07914 13.2778 0.730338C13.8191 0.381534 14.4557 0.195324 15.107 0.195313C15.9758 0.195297 16.8093 0.526304 17.4255 1.11604C18.0417 1.70578 18.3905 2.50633 18.3957 3.34286Z" fill="#F56867"/>
<path d="M43.6575 3.34298C43.661 3.97486 43.4681 4.59332 43.1036 5.11879C42.7391 5.64426 42.2196 6.0527 41.6121 6.29159C41.0045 6.53048 40.3367 6.58889 39.6944 6.4593C39.0521 6.32972 38.4646 6.01806 38.0078 5.56442C37.5509 5.11078 37.2455 4.53591 37.1307 3.91375C37.016 3.29158 37.0972 2.65059 37.3639 2.07322C37.6306 1.49584 38.0705 1.00849 38.6271 0.673853C39.1838 0.339216 39.8318 0.172597 40.4876 0.195428C41.3373 0.220231 42.1435 0.562763 42.7353 1.15038C43.3271 1.73799 43.6578 2.52446 43.6575 3.34298Z" fill="#F56867"/>
<path d="M68.9367 3.34286C68.9407 3.96996 68.7512 4.58406 68.3922 5.10731C68.0333 5.63056 67.521 6.03941 66.9204 6.28201C66.3198 6.52461 65.6579 6.59005 65.0187 6.47003C64.3794 6.35 63.7916 6.04992 63.3296 5.60783C62.8677 5.16574 62.5526 4.60154 62.4241 3.98676C62.2955 3.37198 62.3594 2.73431 62.6077 2.15457C62.8561 1.57483 63.2776 1.07914 63.8189 0.730338C64.3601 0.381534 64.9968 0.195324 65.6481 0.195313C66.5169 0.195297 67.3504 0.526304 67.9666 1.11604C68.5828 1.70578 68.9315 2.50633 68.9367 3.34286Z" fill="#F56867"/>
<path d="M94.1965 3.34286C94.2004 3.96996 94.011 4.58406 93.652 5.10731C93.293 5.63056 92.7807 6.03941 92.1801 6.28201C91.5796 6.52461 90.9177 6.59005 90.2784 6.47003C89.6392 6.35 89.0513 6.04992 88.5894 5.60783C88.1275 5.16574 87.8123 4.60154 87.6838 3.98676C87.5553 3.37198 87.6192 2.73431 87.8675 2.15457C88.1158 1.57483 88.5374 1.07914 89.0786 0.730338C89.6199 0.381534 90.2565 0.195324 90.9078 0.195313C91.7766 0.195297 92.6102 0.526304 93.2264 1.11604C93.8425 1.70578 94.1913 2.50633 94.1965 3.34286Z" fill="#F56867"/>
<path d="M119.476 3.34286C119.48 3.96996 119.29 4.58406 118.931 5.10731C118.572 5.63056 118.06 6.03941 117.46 6.28201C116.859 6.52461 116.197 6.59005 115.558 6.47003C114.919 6.35 114.331 6.04992 113.869 5.60783C113.407 5.16574 113.092 4.60154 112.963 3.98676C112.835 3.37198 112.899 2.73431 113.147 2.15457C113.395 1.57483 113.817 1.07914 114.358 0.730338C114.899 0.381534 115.536 0.195324 116.187 0.195313C117.056 0.195297 117.889 0.526304 118.506 1.11604C119.122 1.70578 119.471 2.50633 119.476 3.34286Z" fill="#F56867"/>
<path d="M15.1072 30.8496C16.9235 30.8496 18.3959 29.4319 18.3959 27.6831C18.3959 25.9343 16.9235 24.5166 15.1072 24.5166C13.2908 24.5166 11.8184 25.9343 11.8184 27.6831C11.8184 29.4319 13.2908 30.8496 15.1072 30.8496Z" fill="#F56867"/>
<path d="M43.6575 27.6833C43.6571 28.3144 43.4609 28.931 43.094 29.4539C42.7271 29.9769 42.2062 30.3823 41.5983 30.6183C40.9904 30.8542 40.3232 30.9099 39.6822 30.7781C39.0412 30.6464 38.4558 30.3332 38.0009 29.8788C37.5461 29.4245 37.2426 28.8496 37.1295 28.228C37.0163 27.6063 37.0986 26.9664 37.3659 26.3901C37.6331 25.8139 38.0731 25.3277 38.6294 24.9939C39.1856 24.6601 39.8327 24.4939 40.4877 24.5167C41.3391 24.5464 42.1454 24.893 42.7367 25.4837C43.328 26.0744 43.6581 26.863 43.6575 27.6833Z" fill="#F56867"/>
<path d="M65.6482 30.8496C67.4645 30.8496 68.9369 29.4319 68.9369 27.6831C68.9369 25.9343 67.4645 24.5166 65.6482 24.5166C63.8319 24.5166 62.3594 25.9343 62.3594 27.6831C62.3594 29.4319 63.8319 30.8496 65.6482 30.8496Z" fill="#F56867"/>
<path d="M90.9274 30.8496C92.7437 30.8496 94.2162 29.4319 94.2162 27.6831C94.2162 25.9343 92.7437 24.5166 90.9274 24.5166C89.111 24.5166 87.6387 25.9343 87.6387 27.6831C87.6387 29.4319 89.111 30.8496 90.9274 30.8496Z" fill="#F56867"/>
<path d="M119.476 27.6832C119.476 28.3095 119.283 28.9217 118.922 29.4424C118.56 29.9632 118.047 30.369 117.446 30.6087C116.845 30.8484 116.184 30.9111 115.546 30.7889C114.908 30.6667 114.322 30.3651 113.862 29.9223C113.402 29.4794 113.089 28.9152 112.962 28.3009C112.835 27.6867 112.9 27.05 113.149 26.4714C113.398 25.8928 113.819 25.3982 114.36 25.0503C114.901 24.7023 115.537 24.5166 116.187 24.5166C117.059 24.5166 117.896 24.8502 118.513 25.4441C119.129 26.0379 119.476 26.8433 119.476 27.6832Z" fill="#F56867"/>
<path d="M18.3957 52.0049C18.3996 52.6319 18.2102 53.246 17.8512 53.7692C17.4922 54.2925 16.9799 54.7013 16.3793 54.9439C15.7788 55.1865 15.1169 55.2519 14.4776 55.1319C13.8384 55.0119 13.2505 54.7118 12.7886 54.2697C12.3267 53.8277 12.0115 53.2635 11.883 52.6487C11.7545 52.034 11.8185 51.3963 12.0668 50.8166C12.3151 50.2369 12.7366 49.7412 13.2778 49.3924C13.8191 49.0436 14.4557 48.8574 15.107 48.8574C15.9758 48.8574 16.8093 49.1884 17.4255 49.7781C18.0417 50.3678 18.3905 51.1684 18.3957 52.0049Z" fill="#F56867"/>
<path d="M68.9367 52.0049C68.9407 52.6319 68.7512 53.246 68.3922 53.7692C68.0333 54.2925 67.521 54.7013 66.9204 54.9439C66.3198 55.1865 65.6579 55.2519 65.0187 55.1319C64.3794 55.0119 63.7916 54.7118 63.3296 54.2697C62.8677 53.8277 62.5526 53.2635 62.4241 52.6487C62.2955 52.034 62.3594 51.3963 62.6077 50.8166C62.8561 50.2369 63.2776 49.7412 63.8189 49.3924C64.3601 49.0436 64.9968 48.8574 65.6481 48.8574C66.5169 48.8574 67.3504 49.1884 67.9666 49.7781C68.5828 50.3678 68.9315 51.1684 68.9367 52.0049Z" fill="#F56867"/>
<path d="M43.5774 51.9981C43.5813 52.6252 43.3918 53.2393 43.0329 53.7626C42.6739 54.2858 42.1616 54.6947 41.561 54.9373C40.9604 55.1799 40.2985 55.2453 39.6593 55.1253C39.02 55.0053 38.4322 54.7052 37.9703 54.2631C37.5083 53.821 37.1932 53.2568 37.0647 52.642C36.9362 52.0273 37 51.3896 37.2484 50.8098C37.4967 50.2301 37.9183 49.7344 38.4595 49.3856C39.0008 49.0368 39.6374 48.8506 40.2887 48.8506C41.1575 48.8506 41.991 49.1816 42.6072 49.7713C43.2234 50.3611 43.5721 51.1616 43.5774 51.9981Z" fill="#F56867"/>
<path d="M94.1965 52.0049C94.2004 52.6319 94.011 53.246 93.652 53.7692C93.293 54.2925 92.7807 54.7013 92.1801 54.9439C91.5796 55.1865 90.9177 55.2519 90.2784 55.1319C89.6392 55.0119 89.0513 54.7118 88.5894 54.2697C88.1275 53.8277 87.8123 53.2635 87.6838 52.6487C87.5553 52.034 87.6192 51.3963 87.8675 50.8166C88.1158 50.2369 88.5374 49.7412 89.0786 49.3924C89.6199 49.0436 90.2565 48.8574 90.9078 48.8574C91.7766 48.8574 92.6102 49.1884 93.2264 49.7781C93.8425 50.3678 94.1913 51.1684 94.1965 52.0049Z" fill="#F56867"/>
<path d="M119.476 52.0049C119.48 52.6319 119.29 53.246 118.931 53.7692C118.572 54.2925 118.06 54.7013 117.46 54.9439C116.859 55.1865 116.197 55.2519 115.558 55.1319C114.919 55.0119 114.331 54.7118 113.869 54.2697C113.407 53.8277 113.092 53.2635 112.963 52.6487C112.835 52.034 112.899 51.3963 113.147 50.8166C113.395 50.2369 113.817 49.7412 114.358 49.3924C114.899 49.0436 115.536 48.8574 116.187 48.8574C117.056 48.8574 117.889 49.1884 118.506 49.7781C119.122 50.3678 119.471 51.1684 119.476 52.0049Z" fill="#F56867"/>
<path d="M15.1072 79.5117C16.9235 79.5117 18.3959 78.094 18.3959 76.3452C18.3959 74.5964 16.9235 73.1787 15.1072 73.1787C13.2908 73.1787 11.8184 74.5964 11.8184 76.3452C11.8184 78.094 13.2908 79.5117 15.1072 79.5117Z" fill="#F56867"/>
<path d="M43.6575 76.3454C43.6571 76.9765 43.4609 77.593 43.094 78.116C42.7271 78.6389 42.2062 79.0443 41.5983 79.2803C40.9904 79.5162 40.3232 79.5719 39.6822 79.4401C39.0412 79.3084 38.4558 78.9952 38.0009 78.5408C37.5461 78.0865 37.2426 77.5116 37.1295 76.89C37.0163 76.2684 37.0986 75.6284 37.3659 75.0522C37.6331 74.476 38.0731 73.9898 38.6294 73.656C39.1856 73.3222 39.8327 73.156 40.4877 73.1788C41.3391 73.2085 42.1454 73.5551 42.7367 74.1458C43.328 74.7365 43.6581 75.525 43.6575 76.3454Z" fill="#F56867"/>
<path d="M65.6482 79.5117C67.4645 79.5117 68.9369 78.094 68.9369 76.3452C68.9369 74.5964 67.4645 73.1787 65.6482 73.1787C63.8319 73.1787 62.3594 74.5964 62.3594 76.3452C62.3594 78.094 63.8319 79.5117 65.6482 79.5117Z" fill="#F56867"/>
<path d="M90.9274 79.5117C92.7437 79.5117 94.2162 78.094 94.2162 76.3452C94.2162 74.5964 92.7437 73.1787 90.9274 73.1787C89.111 73.1787 87.6387 74.5964 87.6387 76.3452C87.6387 78.094 89.111 79.5117 90.9274 79.5117Z" fill="#F56867"/>
<path d="M119.476 76.3452C119.476 76.9715 119.283 77.5837 118.922 78.1044C118.56 78.6252 118.047 79.031 117.446 79.2707C116.845 79.5103 116.184 79.5731 115.546 79.4509C114.908 79.3287 114.322 79.0271 113.862 78.5843C113.402 78.1414 113.089 77.5772 112.962 76.963C112.835 76.3487 112.9 75.712 113.149 75.1334C113.398 74.5548 113.819 74.0603 114.36 73.7124C114.901 73.3644 115.537 73.1787 116.187 73.1787C117.059 73.1787 117.896 73.5123 118.513 74.1062C119.129 74.7 119.476 75.5054 119.476 76.3452Z" fill="#F56867"/>
<path d="M15.1072 103.852C16.9235 103.852 18.3959 102.434 18.3959 100.686C18.3959 98.9367 16.9235 97.519 15.1072 97.519C13.2908 97.519 11.8184 98.9367 11.8184 100.686C11.8184 102.434 13.2908 103.852 15.1072 103.852Z" fill="#F56867"/>
<path d="M43.6575 100.667C43.661 101.298 43.4681 101.917 43.1036 102.442C42.7391 102.968 42.2196 103.376 41.6121 103.615C41.0045 103.854 40.3367 103.912 39.6944 103.783C39.0521 103.653 38.4646 103.341 38.0078 102.888C37.5509 102.434 37.2455 101.859 37.1307 101.237C37.016 100.615 37.0972 99.9742 37.3639 99.3968C37.6306 98.8195 38.0705 98.3322 38.6271 97.9975C39.1838 97.6629 39.8318 97.4963 40.4876 97.5192C41.3373 97.544 42.1435 97.8865 42.7353 98.4741C43.3271 99.0616 43.6578 99.848 43.6575 100.667Z" fill="#F56867"/>
<path d="M65.6482 103.852C67.4645 103.852 68.9369 102.434 68.9369 100.686C68.9369 98.9367 67.4645 97.519 65.6482 97.519C63.8319 97.519 62.3594 98.9367 62.3594 100.686C62.3594 102.434 63.8319 103.852 65.6482 103.852Z" fill="#F56867"/>
<path d="M90.9274 103.852C92.7437 103.852 94.2162 102.434 94.2162 100.686C94.2162 98.9367 92.7437 97.519 90.9274 97.519C89.111 97.519 87.6387 98.9367 87.6387 100.686C87.6387 102.434 89.111 103.852 90.9274 103.852Z" fill="#F56867"/>
<path d="M119.476 100.666C119.48 101.294 119.29 101.908 118.931 102.431C118.572 102.954 118.06 103.363 117.46 103.606C116.859 103.848 116.197 103.914 115.558 103.794C114.919 103.673 114.331 103.373 113.869 102.931C113.407 102.489 113.092 101.925 112.963 101.31C112.835 100.696 112.899 100.058 113.147 99.4782C113.395 98.8985 113.817 98.4028 114.358 98.054C114.899 97.7052 115.536 97.5191 116.187 97.519C117.056 97.519 117.889 97.85 118.506 98.4397C119.122 99.0294 119.471 99.83 119.476 100.666Z" fill="#F56867"/>
</svg>
