<svg width="120" height="104" viewBox="0 0 120 104" fill="none" xmlns="http://www.w3.org/2000/svg">
<path d="M18.3967 3.34286C18.4006 3.96996 18.2111 4.58406 17.8522 5.10731C17.4932 5.63056 16.9809 6.03941 16.3803 6.28201C15.7797 6.52461 15.1178 6.59005 14.4786 6.47003C13.8393 6.35 13.2515 6.04992 12.7896 5.60783C12.3276 5.16574 12.0125 4.60154 11.884 3.98676C11.7555 3.37198 11.8195 2.73431 12.0678 2.15457C12.3161 1.57483 12.7376 1.07914 13.2788 0.730338C13.8201 0.381534 14.4567 0.195324 15.108 0.195313C15.9768 0.195297 16.8103 0.526304 17.4265 1.11604C18.0427 1.70578 18.3914 2.50633 18.3967 3.34286Z" fill="#F56867"/>
<path d="M43.6566 3.34298C43.6601 3.97486 43.4673 4.59332 43.1028 5.11879C42.7383 5.64426 42.2188 6.0527 41.6112 6.29159C41.0037 6.53048 40.3359 6.58889 39.6935 6.4593C39.0512 6.32972 38.4638 6.01806 38.0069 5.56442C37.5501 5.11078 37.2447 4.53591 37.1299 3.91375C37.0151 3.29158 37.0964 2.65059 37.363 2.07322C37.6297 1.49584 38.0696 1.00849 38.6263 0.673853C39.183 0.339216 39.8309 0.172597 40.4868 0.195428C41.3365 0.220231 42.1427 0.562763 42.7345 1.15038C43.3262 1.73799 43.657 2.52446 43.6566 3.34298Z" fill="#F56867"/>
<path d="M68.9363 3.34286C68.9402 3.96996 68.7507 4.58406 68.3917 5.10731C68.0328 5.63056 67.5205 6.03941 66.9199 6.28201C66.3193 6.52461 65.6574 6.59005 65.0182 6.47003C64.3789 6.35 63.7911 6.04992 63.3291 5.60783C62.8672 5.16574 62.5521 4.60154 62.4236 3.98676C62.2951 3.37198 62.3589 2.73431 62.6072 2.15457C62.8556 1.57483 63.2771 1.07914 63.8184 0.730338C64.3596 0.381534 64.9963 0.195324 65.6476 0.195313C66.5164 0.195297 67.3499 0.526304 67.9661 1.11604C68.5823 1.70578 68.931 2.50633 68.9363 3.34286Z" fill="#F56867"/>
<path d="M94.1961 3.34286C94.2001 3.96996 94.0106 4.58406 93.6516 5.10731C93.2927 5.63056 92.7804 6.03941 92.1798 6.28201C91.5792 6.52461 90.9173 6.59005 90.2781 6.47003C89.6388 6.35 89.051 6.04992 88.589 5.60783C88.1271 5.16574 87.812 4.60154 87.6835 3.98676C87.5549 3.37198 87.6188 2.73431 87.8671 2.15457C88.1155 1.57483 88.537 1.07914 89.0783 0.730338C89.6195 0.381534 90.2562 0.195324 90.9075 0.195313C91.7763 0.195297 92.6098 0.526304 93.226 1.11604C93.8422 1.70578 94.1909 2.50633 94.1961 3.34286Z" fill="#F56867"/>
<path d="M119.476 3.34286C119.48 3.96996 119.29 4.58406 118.931 5.10731C118.572 5.63056 118.06 6.03941 117.46 6.28201C116.859 6.52461 116.197 6.59005 115.558 6.47003C114.919 6.35 114.331 6.04992 113.869 5.60783C113.407 5.16574 113.092 4.60154 112.963 3.98676C112.835 3.37198 112.899 2.73431 113.147 2.15457C113.395 1.57483 113.817 1.07914 114.358 0.730338C114.899 0.381534 115.536 0.195324 116.187 0.195313C117.056 0.195297 117.89 0.526304 118.506 1.11604C119.122 1.70578 119.471 2.50633 119.476 3.34286Z" fill="#F56867"/>
<path d="M15.1081 30.8499C16.9245 30.8499 18.3968 29.4322 18.3968 27.6834C18.3968 25.9345 16.9245 24.5168 15.1081 24.5168C13.2918 24.5168 11.8193 25.9345 11.8193 27.6834C11.8193 29.4322 13.2918 30.8499 15.1081 30.8499Z" fill="#F56867"/>
<path d="M43.6566 27.6833C43.6562 28.3144 43.4601 28.931 43.0932 29.4539C42.7262 29.9769 42.2054 30.3823 41.5975 30.6183C40.9896 30.8542 40.3224 30.9099 39.6814 30.7781C39.0404 30.6464 38.4549 30.3332 38.0001 29.8788C37.5452 29.4245 37.2418 28.8496 37.1286 28.228C37.0155 27.6063 37.0978 26.9664 37.365 26.3901C37.6323 25.8139 38.0723 25.3277 38.6285 24.9939C39.1847 24.6601 39.8318 24.4939 40.4868 24.5167C41.3383 24.5464 42.1446 24.893 42.7358 25.4837C43.3271 26.0744 43.6572 26.863 43.6566 27.6833Z" fill="#F56867"/>
<path d="M65.6477 30.8499C67.464 30.8499 68.9364 29.4322 68.9364 27.6834C68.9364 25.9345 67.464 24.5168 65.6477 24.5168C63.8314 24.5168 62.3589 25.9345 62.3589 27.6834C62.3589 29.4322 63.8314 30.8499 65.6477 30.8499Z" fill="#F56867"/>
<path d="M90.9274 30.8499C92.7437 30.8499 94.2162 29.4322 94.2162 27.6834C94.2162 25.9345 92.7437 24.5168 90.9274 24.5168C89.111 24.5168 87.6387 25.9345 87.6387 27.6834C87.6387 29.4322 89.111 30.8499 90.9274 30.8499Z" fill="#F56867"/>
<path d="M119.476 27.6834C119.476 28.3097 119.283 28.9219 118.922 29.4427C118.56 29.9634 118.047 30.3693 117.446 30.6089C116.845 30.8486 116.184 30.9113 115.546 30.7891C114.908 30.6669 114.322 30.3654 113.862 29.9225C113.402 29.4797 113.089 28.9154 112.962 28.3012C112.835 27.6869 112.9 27.0502 113.149 26.4716C113.398 25.893 113.819 25.3985 114.36 25.0505C114.901 24.7026 115.537 24.5168 116.187 24.5168C117.06 24.5168 117.896 24.8505 118.513 25.4443C119.13 26.0382 119.476 26.8436 119.476 27.6834Z" fill="#F56867"/>
<path d="M18.3967 52.0049C18.4006 52.6319 18.2111 53.246 17.8522 53.7692C17.4932 54.2925 16.9809 54.7013 16.3803 54.9439C15.7797 55.1865 15.1178 55.2519 14.4786 55.1319C13.8393 55.0119 13.2515 54.7118 12.7896 54.2697C12.3276 53.8277 12.0125 53.2635 11.884 52.6487C11.7555 52.034 11.8195 51.3963 12.0678 50.8166C12.3161 50.2369 12.7376 49.7412 13.2788 49.3924C13.8201 49.0436 14.4567 48.8574 15.108 48.8574C15.9768 48.8574 16.8103 49.1884 17.4265 49.7781C18.0427 50.3678 18.3914 51.1684 18.3967 52.0049Z" fill="#F56867"/>
<path d="M68.9367 52.0049C68.9407 52.6319 68.7512 53.246 68.3922 53.7692C68.0333 54.2925 67.521 54.7013 66.9204 54.9439C66.3198 55.1865 65.6579 55.2519 65.0187 55.1319C64.3794 55.0119 63.7916 54.7118 63.3296 54.2697C62.8677 53.8277 62.5526 53.2635 62.4241 52.6487C62.2955 52.034 62.3594 51.3963 62.6077 50.8166C62.8561 50.2369 63.2776 49.7412 63.8189 49.3924C64.3601 49.0436 64.9968 48.8574 65.6481 48.8574C66.5169 48.8574 67.3504 49.1884 67.9666 49.7781C68.5828 50.3678 68.9315 51.1684 68.9367 52.0049Z" fill="#F56867"/>
<path d="M43.5774 51.9981C43.5813 52.6252 43.3918 53.2393 43.0329 53.7626C42.6739 54.2858 42.1616 54.6947 41.561 54.9373C40.9604 55.1799 40.2985 55.2453 39.6593 55.1253C39.02 55.0053 38.4322 54.7052 37.9703 54.2631C37.5083 53.821 37.1932 53.2568 37.0647 52.642C36.9362 52.0273 37 51.3896 37.2484 50.8098C37.4967 50.2301 37.9183 49.7344 38.4595 49.3856C39.0008 49.0368 39.6374 48.8506 40.2887 48.8506C41.1575 48.8506 41.991 49.1816 42.6072 49.7713C43.2234 50.3611 43.5721 51.1616 43.5774 51.9981Z" fill="#F56867"/>
<path d="M94.1961 52.0049C94.2001 52.6319 94.0106 53.246 93.6516 53.7692C93.2927 54.2925 92.7804 54.7013 92.1798 54.9439C91.5792 55.1865 90.9173 55.2519 90.2781 55.1319C89.6388 55.0119 89.051 54.7118 88.589 54.2697C88.1271 53.8277 87.812 53.2635 87.6835 52.6487C87.5549 52.034 87.6188 51.3963 87.8671 50.8166C88.1155 50.2369 88.537 49.7412 89.0783 49.3924C89.6195 49.0436 90.2562 48.8574 90.9075 48.8574C91.7763 48.8574 92.6098 49.1884 93.226 49.7781C93.8422 50.3678 94.1909 51.1684 94.1961 52.0049Z" fill="#F56867"/>
<path d="M119.476 52.0049C119.48 52.6319 119.29 53.246 118.931 53.7692C118.572 54.2925 118.06 54.7013 117.46 54.9439C116.859 55.1865 116.197 55.2519 115.558 55.1319C114.919 55.0119 114.331 54.7118 113.869 54.2697C113.407 53.8277 113.092 53.2635 112.963 52.6487C112.835 52.034 112.899 51.3963 113.147 50.8166C113.395 50.2369 113.817 49.7412 114.358 49.3924C114.899 49.0436 115.536 48.8574 116.187 48.8574C117.056 48.8574 117.89 49.1884 118.506 49.7781C119.122 50.3678 119.471 51.1684 119.476 52.0049Z" fill="#F56867"/>
<path d="M15.1081 79.5117C16.9245 79.5117 18.3968 78.094 18.3968 76.3452C18.3968 74.5964 16.9245 73.1787 15.1081 73.1787C13.2918 73.1787 11.8193 74.5964 11.8193 76.3452C11.8193 78.094 13.2918 79.5117 15.1081 79.5117Z" fill="#F56867"/>
<path d="M43.6566 76.3454C43.6562 76.9765 43.4601 77.593 43.0932 78.116C42.7262 78.6389 42.2054 79.0443 41.5975 79.2803C40.9896 79.5162 40.3224 79.5719 39.6814 79.4401C39.0404 79.3084 38.4549 78.9952 38.0001 78.5408C37.5452 78.0865 37.2418 77.5116 37.1286 76.89C37.0155 76.2684 37.0978 75.6284 37.365 75.0522C37.6323 74.476 38.0723 73.9898 38.6285 73.656C39.1847 73.3222 39.8318 73.156 40.4868 73.1788C41.3383 73.2085 42.1446 73.5551 42.7358 74.1458C43.3271 74.7365 43.6572 75.525 43.6566 76.3454Z" fill="#F56867"/>
<path d="M65.6477 79.5117C67.464 79.5117 68.9364 78.094 68.9364 76.3452C68.9364 74.5964 67.464 73.1787 65.6477 73.1787C63.8314 73.1787 62.3589 74.5964 62.3589 76.3452C62.3589 78.094 63.8314 79.5117 65.6477 79.5117Z" fill="#F56867"/>
<path d="M90.9274 79.5117C92.7437 79.5117 94.2162 78.094 94.2162 76.3452C94.2162 74.5964 92.7437 73.1787 90.9274 73.1787C89.111 73.1787 87.6387 74.5964 87.6387 76.3452C87.6387 78.094 89.111 79.5117 90.9274 79.5117Z" fill="#F56867"/>
<path d="M119.476 76.3452C119.476 76.9715 119.283 77.5837 118.922 78.1044C118.56 78.6252 118.047 79.031 117.446 79.2707C116.845 79.5103 116.184 79.5731 115.546 79.4509C114.908 79.3287 114.322 79.0271 113.862 78.5843C113.402 78.1414 113.089 77.5772 112.962 76.963C112.835 76.3487 112.9 75.712 113.149 75.1334C113.398 74.5548 113.819 74.0603 114.36 73.7124C114.901 73.3644 115.537 73.1787 116.187 73.1787C117.06 73.1787 117.896 73.5123 118.513 74.1062C119.13 74.7 119.476 75.5054 119.476 76.3452Z" fill="#F56867"/>
<path d="M15.1081 103.852C16.9245 103.852 18.3968 102.434 18.3968 100.686C18.3968 98.9367 16.9245 97.519 15.1081 97.519C13.2918 97.519 11.8193 98.9367 11.8193 100.686C11.8193 102.434 13.2918 103.852 15.1081 103.852Z" fill="#F56867"/>
<path d="M43.6566 100.667C43.6601 101.298 43.4673 101.917 43.1028 102.442C42.7383 102.968 42.2188 103.376 41.6112 103.615C41.0037 103.854 40.3359 103.912 39.6935 103.783C39.0512 103.653 38.4638 103.341 38.0069 102.888C37.5501 102.434 37.2447 101.859 37.1299 101.237C37.0151 100.615 37.0964 99.9742 37.363 99.3968C37.6297 98.8195 38.0696 98.3322 38.6263 97.9975C39.183 97.6629 39.8309 97.4963 40.4868 97.5192C41.3365 97.544 42.1427 97.8865 42.7345 98.4741C43.3262 99.0616 43.657 99.848 43.6566 100.667Z" fill="#F56867"/>
<path d="M65.6477 103.852C67.464 103.852 68.9364 102.434 68.9364 100.686C68.9364 98.9367 67.464 97.519 65.6477 97.519C63.8314 97.519 62.3589 98.9367 62.3589 100.686C62.3589 102.434 63.8314 103.852 65.6477 103.852Z" fill="#F56867"/>
<path d="M90.9274 103.852C92.7437 103.852 94.2162 102.434 94.2162 100.686C94.2162 98.9367 92.7437 97.519 90.9274 97.519C89.111 97.519 87.6387 98.9367 87.6387 100.686C87.6387 102.434 89.111 103.852 90.9274 103.852Z" fill="#F56867"/>
<path d="M119.476 100.666C119.48 101.294 119.29 101.908 118.931 102.431C118.572 102.954 118.06 103.363 117.46 103.606C116.859 103.848 116.197 103.914 115.558 103.794C114.919 103.673 114.331 103.373 113.869 102.931C113.407 102.489 113.092 101.925 112.963 101.31C112.835 100.696 112.899 100.058 113.147 99.4782C113.395 98.8985 113.817 98.4028 114.358 98.054C114.899 97.7052 115.536 97.5191 116.187 97.519C117.056 97.519 117.89 97.85 118.506 98.4397C119.122 99.0294 119.471 99.83 119.476 100.666Z" fill="#F56867"/>
</svg>
