<svg width="67" height="70" viewBox="0 0 67 70" fill="none" xmlns="http://www.w3.org/2000/svg">
<path d="M34.0093 1.01953L1.56055 14.822" stroke="white" stroke-width="2"/>
<path d="M65.4852 14.9265L33.3262 1" stroke="white" stroke-width="2"/>
<path d="M1.84766 14.1826V37.5932" stroke="white" stroke-width="2"/>
<path d="M33.3655 68.793L1.59961 55.2178" stroke="white" stroke-width="2"/>
<path d="M65.505 55.0527L32.8906 68.7933" stroke="white" stroke-width="2"/>
<path d="M33.1799 50.4865L1.41406 36.8906" stroke="white" stroke-width="2"/>
<path d="M64.6565 36.6846L32.7871 50.6111" stroke="white" stroke-width="2"/>
<path d="M65.0273 36.0029V55.7149" stroke="white" stroke-width="2"/>
<path d="M33.1172 68.9996V19.2031" stroke="white" stroke-width="2"/>
<path d="M14.5762 18.8516H51.557" stroke="white" stroke-width="2"/>
<path d="M1 55.2597L10.0848 50.9619" stroke="white" stroke-width="2"/>
<path d="M65.0918 14.3057V23.3765" stroke="white" stroke-width="2"/>
<path d="M65.068 27.2825C65.5823 27.2825 65.9992 26.8662 65.9992 26.3527C65.9992 25.8391 65.5823 25.4229 65.068 25.4229C64.5537 25.4229 64.1367 25.8391 64.1367 26.3527C64.1367 26.8662 64.5537 27.2825 65.068 27.2825Z" fill="white"/>
</svg>
