<svg width="157" height="93" viewBox="0 0 157 93" fill="none" xmlns="http://www.w3.org/2000/svg">
<path d="M143.235 30.7582C141.282 40.5226 134.63 48.3952 123.4 54.1318C101.369 65.4219 92.5811 79.5193 89.1635 89.4057H88.4922V89.3447C91.9708 79.3362 100.759 64.9947 123.095 53.5825C134.141 47.907 140.672 40.2175 142.624 30.6361C144.577 20.7497 141.282 10.375 137.193 2.19727C137.498 2.38035 137.864 2.56343 138.169 2.80754C142.075 10.9852 145.188 21.1158 143.235 30.7582Z" fill="#171E41"/>
<path d="M156.842 63.8962C156.781 64.1404 156.781 64.3845 156.72 64.6286C148.847 68.2292 138.777 72.135 126.022 76.0407C115.953 79.0921 108.812 83.6082 104.846 89.4668H104.113C108.141 83.303 115.404 78.6039 125.839 75.4305C138.777 71.4637 148.908 67.5579 156.842 63.8962Z" fill="#171E41"/>
<path d="M110.034 10.0085C110.034 20.6273 106.922 35.1519 92.0918 43.7568C85.8059 47.4185 78.7266 48.7611 71.7083 48.7611C62.1269 48.7611 52.4844 46.1979 44.7948 43.3906C42.8419 42.6583 40.95 41.926 39.1191 41.1326C39.4853 41.0716 39.9125 40.9495 40.2787 40.8885C55.5358 47.1744 76.2244 52.2397 91.8477 43.1465C106.434 34.6637 109.485 20.3832 109.485 9.9475C109.485 6.4079 109.18 3.11241 108.692 0.183083C108.875 0.122055 109.058 0.0610276 109.302 0C109.668 2.99035 110.034 6.4079 110.034 10.0085Z" fill="#171E41"/>
<path d="M88.0045 30.6354C85.0141 34.5411 79.7656 36.555 72.2591 36.555C69.2077 36.555 65.7901 36.2499 61.9453 35.5786C62.3115 35.4565 62.6776 35.2735 63.0438 35.1514C75.3105 37.1043 83.4884 35.5176 87.4552 30.3302C90.9949 25.6921 90.5677 18.796 88.9199 12.266C89.103 12.083 89.2861 11.8999 89.4692 11.7168C91.3 18.3688 91.7272 25.6921 88.0045 30.6354Z" fill="#171E41"/>
<path d="M77.5663 89.4649H76.956C75.6744 84.3386 73.2333 78.8461 68.9003 74.3301C61.6989 67.0068 50.8358 63.8944 36.5552 65.237C23.434 66.3965 12.9982 65.0539 5.30859 61.0871C5.36962 60.904 5.43064 60.6599 5.49167 60.4768C13.1202 64.3826 23.4951 65.7862 36.4941 64.6267C51.0189 63.2841 62.0651 66.4575 69.3275 73.9029C73.7825 78.541 76.2237 84.2166 77.5663 89.4649Z" fill="#171E41"/>
<path d="M25.0863 83.6693C25.0863 83.6693 28.626 75.7968 20.5092 69.694C12.3924 63.5912 10.5615 59.1362 10.5615 59.1362C10.5615 59.1362 7.81524 73.4777 12.7586 80.2518V90.0772H24.7201L25.0863 83.6693Z" fill="#4E8FB7"/>
<path d="M17.8841 89.651C17.8841 89.651 17.5179 84.1586 22.9494 80.4969C28.442 76.8352 28.3199 73.1125 28.3199 73.1125C28.3199 73.1125 32.5309 83.6093 27.2214 89.651H17.8841Z" fill="#70B2DD"/>
<path d="M19.1057 89.6506C19.1057 89.6506 19.9601 82.2662 13.0639 78.2994C6.16771 74.3326 4.70304 69.2063 4.70304 69.2063C4.70304 69.2063 0.858242 82.0831 7.14418 89.6506H19.1057Z" fill="#ABDAF7"/>
<path d="M61.8819 74.8185C59.7459 78.3581 56.9386 81.7756 53.582 85.0101V88.6718H61.8209C61.8209 88.6718 64.4451 87.2681 69.6325 83.3013C69.6325 83.3013 71.3413 71.8892 61.8819 74.8185Z" fill="#F49187"/>
<path d="M113.754 81.8372C113.754 81.8372 113.388 89.1605 111.557 89.6487C109.726 90.1369 102.22 83.3018 102.22 83.3018L101.365 80.0674L106.919 76.0396C106.919 76.0396 113.51 78.0535 113.754 81.8372Z" fill="#F49187"/>
<path d="M113.76 81.838C111.991 78.4815 101.189 80.9226 101.189 80.9226L108.878 88.6731H74.214C75.3735 84.7063 74.7022 74.9419 74.7022 74.9419C74.7022 75.0029 74.7022 75.064 74.7022 75.186C74.214 79.0918 72.139 81.1667 72.139 81.1667C72.017 83.1806 69.6979 83.3027 69.6979 83.3027C69.5148 81.4719 69.0876 80.0072 68.5383 78.9087C66.2803 74.2706 61.9473 74.8199 61.9473 74.8199C61.459 72.3788 64.0833 71.7685 64.0833 71.7685C64.0833 71.7685 67.2568 53.1551 71.9559 49.4934C76.6551 45.8317 84.2227 44.0009 84.2227 44.0009L92.0343 43.4517C92.0343 43.4517 107.352 46.503 110.404 51.7514C113.455 56.9998 112.906 76.9558 112.906 76.9558C115.286 78.9697 113.76 81.838 113.76 81.838Z" fill="#FE7100"/>
<path opacity="0.5" d="M101.189 80.9234C101.189 80.9234 102.471 69.6333 98.26 59.8079C98.26 59.8079 98.9313 74.7596 92.8285 78.9705C86.7256 83.1815 76.3508 82.3271 73.7266 89.6504L96.6122 89.4673L101.189 80.9234Z" fill="#FE7100"/>
<path opacity="0.5" d="M74.6424 75.1878C74.1541 79.0936 72.0792 81.1685 72.0792 81.1685C71.9571 83.1824 69.6381 83.3045 69.6381 83.3045C69.455 81.4736 69.0278 80.009 68.4785 78.9105C69.6991 77.7509 71.1027 75.9201 71.8961 73.2959C73.4828 67.9255 72.5064 62.1279 72.3843 61.7007C73.727 66.7049 74.3983 72.8077 74.6424 75.1878Z" fill="#FE7100"/>
<path d="M91.2383 84.8288C91.2383 84.8288 99.8433 78.787 107.167 81.2281C114.49 83.6693 113.88 88.7345 111.5 89.65H93.2522L91.2383 84.8288Z" fill="#FEB19E"/>
<path d="M93.5577 43.7572C93.5577 43.7572 91.7879 53.8268 86.4174 53.8878C81.7792 53.9488 82.8167 47.8461 83.1829 46.2594C83.2439 46.0152 83.2439 45.8932 83.2439 45.8932L81.291 38.5089L91.5438 33.0774L91.7269 34.2369L93.5577 43.7572Z" fill="#FEB19E"/>
<path d="M83.1829 46.2594C83.2439 46.0153 83.2439 45.8932 83.2439 45.8932L81.291 38.5089L91.5438 33.0774L91.7269 34.2369C93.1305 46.2594 83.366 46.2594 83.1829 46.2594Z" fill="#FF856A"/>
<path d="M92.947 29.4752C92.947 29.4752 94.2896 26.912 94.6558 23.4944C94.9609 20.382 94.1065 19.6497 92.7639 19.6497C92.7639 19.6497 92.0926 16.1101 90.4448 14.8896C88.797 13.669 82.1449 15.4388 79.5817 16.9645C77.0185 18.4902 75.1267 14.2793 73.9671 14.4624C72.8076 14.6454 72.5635 17.8799 73.4789 19.3446C73.4789 19.3446 71.3429 18.185 70.9767 16.9645C70.6105 15.7439 68.1694 17.9409 69.0848 22.518C70.0003 27.0951 72.0142 27.6443 72.0142 27.6443C72.0142 27.6443 72.3804 32.4655 76.3472 33.0148C80.3141 33.564 90.6279 32.6486 90.6279 32.6486L92.947 29.4752Z" fill="url(#paint0_linear)"/>
<path d="M74.6992 27.7658C74.6992 27.7658 76.5911 40.8257 81.4124 42.4735C86.2336 44.1212 90.2615 38.9949 90.8718 37.6523C91.482 36.3097 91.7262 33.3804 91.7262 33.3804C91.7262 33.3804 93.3739 33.7465 93.557 30.8782C93.7401 28.0099 91.2379 26.2401 90.6277 31.2444C90.6277 31.2444 88.2475 29.9628 88.9799 25.5078C88.9799 25.5078 86.2946 28.071 82.5109 28.071C78.7271 28.071 82.0226 25.5078 82.0226 25.5078C82.0226 25.5078 79.2764 28.071 74.6992 27.7658Z" fill="#FEB19E"/>
<path d="M104.729 87.9417H73.4219V89.6504H104.729V87.9417Z" fill="#ABDAF7"/>
<path d="M104.728 87.9417H95.0859V89.6504H104.728V87.9417Z" fill="#70B2DD"/>
<path d="M99.421 88.0024C99.421 88.0024 96.6748 83.8525 92.5248 83.9135C89.3513 83.9745 89.2903 85.9274 89.2903 85.9274C89.2903 85.9274 87.2153 85.6833 87.1543 87.9413H99.421V88.0024Z" fill="#FFC7AE"/>
<path d="M60.4797 87.7562C60.4797 87.7562 60.6628 85.4371 59.6253 85.132C58.5878 84.8269 57.8555 85.6812 57.8555 85.6812C57.8555 85.6812 57.0621 82.3247 54.2548 82.2027C51.3865 82.0806 46.2601 85.0099 49.4336 87.6952H60.4797V87.7562Z" fill="#FEB19E"/>
<path d="M67.806 88.7335C67.806 89.2217 67.3788 89.6489 66.8906 89.6489H49.7416C49.2534 89.6489 48.8262 89.2217 48.8262 88.7335C48.8262 88.1842 49.2534 87.8181 49.7416 87.8181H66.8296C67.3788 87.757 67.806 88.1842 67.806 88.7335Z" fill="#70B2DD"/>
<path d="M62.7407 88.7335C62.7407 89.2217 62.3135 89.6489 61.8252 89.6489H49.7416C49.2534 89.6489 48.8262 89.2217 48.8262 88.7335C48.8262 88.1842 49.2534 87.8181 49.7416 87.8181H61.8252C62.3135 87.757 62.7407 88.1842 62.7407 88.7335Z" fill="#ABDAF7"/>
<path d="M36.8559 61.576C37.1611 63.5899 36.4898 65.3597 35.2692 65.5428C34.0486 65.7259 32.7671 64.2612 32.4619 62.3083C32.1568 60.2944 32.8281 58.5246 34.0486 58.3415C35.2692 58.0974 36.5508 59.5621 36.8559 61.576Z" fill="white" stroke="#F230DB" stroke-miterlimit="10"/>
<path d="M55.4092 79.2143H22.881C21.4774 79.2143 20.1958 78.36 19.6465 77.0173C15.8628 67.497 13.0554 58.2819 11.8959 49.4329C11.6518 47.3579 13.2385 45.5271 15.3745 45.5271H48.3299C50.0387 45.5271 51.5034 46.8087 51.7475 48.5174C52.9681 56.6952 55.4092 65.4221 58.7047 74.6373C59.4981 76.8343 57.8503 79.2143 55.4092 79.2143Z" fill="#90C6E0"/>
<path d="M54.1276 79.2143H22.881C21.4774 79.2143 20.1958 78.36 19.6465 77.0173C15.8628 67.497 13.0554 58.2819 11.8959 49.4329C11.6518 47.3579 13.2385 45.5271 15.3745 45.5271H47.0483C48.7571 45.5271 50.2218 46.8087 50.4659 48.5174C51.6865 56.6952 54.1276 65.4221 57.4231 74.6373C58.2165 76.8343 56.5077 79.2143 54.1276 79.2143Z" fill="#ABDAF7"/>
<path d="M52.4822 89.6487H39.9713C38.1405 89.6487 36.5537 88.4891 35.9434 86.7804L32.2207 73.7205C34.2957 73.7205 36.3096 73.7205 38.3236 73.7205C38.9949 73.7205 39.6662 73.7205 40.3375 73.7205L43.3279 83.9121C43.7551 85.0716 44.7926 85.865 45.9521 86.1091L50.6513 86.8414C51.4447 86.9635 52.055 87.5737 52.2381 88.3671L52.4822 89.6487Z" fill="#90C6E0"/>
<path opacity="0.35" d="M45.9508 86.0483L44.9134 85.9262C43.4487 85.8042 42.1671 84.8277 41.5568 83.4851L38.3223 73.7207C38.9936 73.7207 39.6649 73.7207 40.3362 73.7207L43.3266 83.9123C43.7538 85.0108 44.7303 85.8652 45.9508 86.0483Z" fill="#90C6E0"/>
<path d="M36.6109 62.0045C37.0992 63.9574 36.4889 65.7272 35.2683 66.0324C34.0477 66.3375 32.7051 64.9949 32.2779 63.042C31.7897 61.0891 32.4 59.3193 33.6205 59.0142C34.8411 58.7091 36.1837 60.0517 36.6109 62.0045Z" fill="white"/>
<path d="M148.604 89.6487H0V92.7001H148.604V89.6487Z" fill="#70B2DD"/>
<path d="M148.606 89.6484H115.65V92.6998H148.606V89.6484Z" fill="#4E8FB7"/>
<path d="M133.045 77.1989L131.641 68.3499L127.125 68.8991L128.773 77.6871L133.045 77.1989Z" fill="#70B2DD"/>
<path d="M132.922 76.3467L134.509 65.4228C134.57 65.0566 134.875 64.8735 135.241 64.8735C135.546 64.9346 135.79 65.2397 135.729 65.5448L134.02 76.835H134.692L137.011 68.169C137.072 67.8639 137.438 67.6198 137.743 67.7418C138.109 67.8029 138.292 68.169 138.231 68.5352L136.034 76.896L133.837 77.9334L132.922 76.3467Z" fill="#4E8FB7"/>
<path d="M137.498 76.3442V87.6344C137.498 88.6108 136.705 89.4652 135.668 89.4652H129.137C128.161 89.4652 127.307 88.6718 127.307 87.6344V76.3442H137.498Z" fill="#ABDAF7"/>
<path d="M137.56 76.3442H127.43V78.9684H137.56V76.3442Z" fill="#90C6E0"/>
<defs>
<linearGradient id="paint0_linear" x1="68.8884" y1="23.7845" x2="94.6939" y2="23.7845" gradientUnits="userSpaceOnUse">
<stop stop-color="#3F2323"/>
<stop offset="1" stop-color="#5E3434"/>
</linearGradient>
</defs>
</svg>
