<svg width="31" height="31" viewBox="0 0 31 31" fill="none" xmlns="http://www.w3.org/2000/svg">
<path d="M18.9444 20.15H6.88889V23.25H18.9444V20.15ZM27.5556 27.9H3.44444V10.85H27.5556V27.9ZM27.5556 3.1H25.8333V0H22.3889V3.1H8.61111V0H5.16667V3.1H3.44444C2.53092 3.1 1.65481 3.42661 1.00885 4.00797C0.362896 4.58933 0 5.37783 0 6.2V27.9C0 28.7222 0.362896 29.5107 1.00885 30.092C1.65481 30.6734 2.53092 31 3.44444 31H27.5556C28.4691 31 29.3452 30.6734 29.9911 30.092C30.6371 29.5107 31 28.7222 31 27.9V6.2C31 5.37783 30.6371 4.58933 29.9911 4.00797C29.3452 3.42661 28.4691 3.1 27.5556 3.1ZM24.1111 13.95H6.88889V17.05H24.1111V13.95Z" fill="#202743"/>
</svg>
